%TF.GenerationSoftware,KiCad,Pcbnew,8.0.3*%
%TF.CreationDate,2024-06-20T00:33:24+02:00*%
%TF.ProjectId,macro=REV2,6d616372-6f3d-4524-9556-322e6b696361,2*%
%TF.SameCoordinates,Original*%
%TF.FileFunction,Legend,Top*%
%TF.FilePolarity,Positive*%
%FSLAX46Y46*%
G04 Gerber Fmt 4.6, Leading zero omitted, Abs format (unit mm)*
G04 Created by KiCad (PCBNEW 8.0.3) date 2024-06-20 00:33:24*
%MOMM*%
%LPD*%
G01*
G04 APERTURE LIST*
%ADD10C,0.100000*%
%ADD11C,0.150000*%
%ADD12C,0.300000*%
%ADD13C,0.400000*%
%ADD14C,0.120000*%
%ADD15R,1.600000X1.600000*%
%ADD16C,1.600000*%
G04 APERTURE END LIST*
D10*
D11*
X177002200Y-166007200D02*
X285002200Y-166007200D01*
X285002200Y-198007200D01*
X177002200Y-198007200D01*
X177002200Y-166007200D01*
D10*
D11*
X10000000Y-10000000D02*
X287002200Y-10000000D01*
X287002200Y-200007200D01*
X10000000Y-200007200D01*
X10000000Y-10000000D01*
D10*
D11*
X12000000Y-12000000D02*
X285002200Y-12000000D01*
X285002200Y-198007200D01*
X12000000Y-198007200D01*
X12000000Y-12000000D01*
D10*
D11*
X60000000Y-12000000D02*
X60000000Y-10000000D01*
D10*
D11*
X110000000Y-12000000D02*
X110000000Y-10000000D01*
D10*
D11*
X160000000Y-12000000D02*
X160000000Y-10000000D01*
D10*
D11*
X210000000Y-12000000D02*
X210000000Y-10000000D01*
D10*
D11*
X260000000Y-12000000D02*
X260000000Y-10000000D01*
D10*
D11*
X36089160Y-11593604D02*
X35346303Y-11593604D01*
X35717731Y-11593604D02*
X35717731Y-10293604D01*
X35717731Y-10293604D02*
X35593922Y-10479319D01*
X35593922Y-10479319D02*
X35470112Y-10603128D01*
X35470112Y-10603128D02*
X35346303Y-10665033D01*
D10*
D11*
X85346303Y-10417414D02*
X85408207Y-10355509D01*
X85408207Y-10355509D02*
X85532017Y-10293604D01*
X85532017Y-10293604D02*
X85841541Y-10293604D01*
X85841541Y-10293604D02*
X85965350Y-10355509D01*
X85965350Y-10355509D02*
X86027255Y-10417414D01*
X86027255Y-10417414D02*
X86089160Y-10541223D01*
X86089160Y-10541223D02*
X86089160Y-10665033D01*
X86089160Y-10665033D02*
X86027255Y-10850747D01*
X86027255Y-10850747D02*
X85284398Y-11593604D01*
X85284398Y-11593604D02*
X86089160Y-11593604D01*
D10*
D11*
X135284398Y-10293604D02*
X136089160Y-10293604D01*
X136089160Y-10293604D02*
X135655826Y-10788842D01*
X135655826Y-10788842D02*
X135841541Y-10788842D01*
X135841541Y-10788842D02*
X135965350Y-10850747D01*
X135965350Y-10850747D02*
X136027255Y-10912652D01*
X136027255Y-10912652D02*
X136089160Y-11036461D01*
X136089160Y-11036461D02*
X136089160Y-11345985D01*
X136089160Y-11345985D02*
X136027255Y-11469795D01*
X136027255Y-11469795D02*
X135965350Y-11531700D01*
X135965350Y-11531700D02*
X135841541Y-11593604D01*
X135841541Y-11593604D02*
X135470112Y-11593604D01*
X135470112Y-11593604D02*
X135346303Y-11531700D01*
X135346303Y-11531700D02*
X135284398Y-11469795D01*
D10*
D11*
X185965350Y-10726938D02*
X185965350Y-11593604D01*
X185655826Y-10231700D02*
X185346303Y-11160271D01*
X185346303Y-11160271D02*
X186151064Y-11160271D01*
D10*
D11*
X236027255Y-10293604D02*
X235408207Y-10293604D01*
X235408207Y-10293604D02*
X235346303Y-10912652D01*
X235346303Y-10912652D02*
X235408207Y-10850747D01*
X235408207Y-10850747D02*
X235532017Y-10788842D01*
X235532017Y-10788842D02*
X235841541Y-10788842D01*
X235841541Y-10788842D02*
X235965350Y-10850747D01*
X235965350Y-10850747D02*
X236027255Y-10912652D01*
X236027255Y-10912652D02*
X236089160Y-11036461D01*
X236089160Y-11036461D02*
X236089160Y-11345985D01*
X236089160Y-11345985D02*
X236027255Y-11469795D01*
X236027255Y-11469795D02*
X235965350Y-11531700D01*
X235965350Y-11531700D02*
X235841541Y-11593604D01*
X235841541Y-11593604D02*
X235532017Y-11593604D01*
X235532017Y-11593604D02*
X235408207Y-11531700D01*
X235408207Y-11531700D02*
X235346303Y-11469795D01*
D10*
D11*
X285965350Y-10293604D02*
X285717731Y-10293604D01*
X285717731Y-10293604D02*
X285593922Y-10355509D01*
X285593922Y-10355509D02*
X285532017Y-10417414D01*
X285532017Y-10417414D02*
X285408207Y-10603128D01*
X285408207Y-10603128D02*
X285346303Y-10850747D01*
X285346303Y-10850747D02*
X285346303Y-11345985D01*
X285346303Y-11345985D02*
X285408207Y-11469795D01*
X285408207Y-11469795D02*
X285470112Y-11531700D01*
X285470112Y-11531700D02*
X285593922Y-11593604D01*
X285593922Y-11593604D02*
X285841541Y-11593604D01*
X285841541Y-11593604D02*
X285965350Y-11531700D01*
X285965350Y-11531700D02*
X286027255Y-11469795D01*
X286027255Y-11469795D02*
X286089160Y-11345985D01*
X286089160Y-11345985D02*
X286089160Y-11036461D01*
X286089160Y-11036461D02*
X286027255Y-10912652D01*
X286027255Y-10912652D02*
X285965350Y-10850747D01*
X285965350Y-10850747D02*
X285841541Y-10788842D01*
X285841541Y-10788842D02*
X285593922Y-10788842D01*
X285593922Y-10788842D02*
X285470112Y-10850747D01*
X285470112Y-10850747D02*
X285408207Y-10912652D01*
X285408207Y-10912652D02*
X285346303Y-11036461D01*
D10*
D11*
X60000000Y-198007200D02*
X60000000Y-200007200D01*
D10*
D11*
X110000000Y-198007200D02*
X110000000Y-200007200D01*
D10*
D11*
X160000000Y-198007200D02*
X160000000Y-200007200D01*
D10*
D11*
X210000000Y-198007200D02*
X210000000Y-200007200D01*
D10*
D11*
X260000000Y-198007200D02*
X260000000Y-200007200D01*
D10*
D11*
X36089160Y-199600804D02*
X35346303Y-199600804D01*
X35717731Y-199600804D02*
X35717731Y-198300804D01*
X35717731Y-198300804D02*
X35593922Y-198486519D01*
X35593922Y-198486519D02*
X35470112Y-198610328D01*
X35470112Y-198610328D02*
X35346303Y-198672233D01*
D10*
D11*
X85346303Y-198424614D02*
X85408207Y-198362709D01*
X85408207Y-198362709D02*
X85532017Y-198300804D01*
X85532017Y-198300804D02*
X85841541Y-198300804D01*
X85841541Y-198300804D02*
X85965350Y-198362709D01*
X85965350Y-198362709D02*
X86027255Y-198424614D01*
X86027255Y-198424614D02*
X86089160Y-198548423D01*
X86089160Y-198548423D02*
X86089160Y-198672233D01*
X86089160Y-198672233D02*
X86027255Y-198857947D01*
X86027255Y-198857947D02*
X85284398Y-199600804D01*
X85284398Y-199600804D02*
X86089160Y-199600804D01*
D10*
D11*
X135284398Y-198300804D02*
X136089160Y-198300804D01*
X136089160Y-198300804D02*
X135655826Y-198796042D01*
X135655826Y-198796042D02*
X135841541Y-198796042D01*
X135841541Y-198796042D02*
X135965350Y-198857947D01*
X135965350Y-198857947D02*
X136027255Y-198919852D01*
X136027255Y-198919852D02*
X136089160Y-199043661D01*
X136089160Y-199043661D02*
X136089160Y-199353185D01*
X136089160Y-199353185D02*
X136027255Y-199476995D01*
X136027255Y-199476995D02*
X135965350Y-199538900D01*
X135965350Y-199538900D02*
X135841541Y-199600804D01*
X135841541Y-199600804D02*
X135470112Y-199600804D01*
X135470112Y-199600804D02*
X135346303Y-199538900D01*
X135346303Y-199538900D02*
X135284398Y-199476995D01*
D10*
D11*
X185965350Y-198734138D02*
X185965350Y-199600804D01*
X185655826Y-198238900D02*
X185346303Y-199167471D01*
X185346303Y-199167471D02*
X186151064Y-199167471D01*
D10*
D11*
X236027255Y-198300804D02*
X235408207Y-198300804D01*
X235408207Y-198300804D02*
X235346303Y-198919852D01*
X235346303Y-198919852D02*
X235408207Y-198857947D01*
X235408207Y-198857947D02*
X235532017Y-198796042D01*
X235532017Y-198796042D02*
X235841541Y-198796042D01*
X235841541Y-198796042D02*
X235965350Y-198857947D01*
X235965350Y-198857947D02*
X236027255Y-198919852D01*
X236027255Y-198919852D02*
X236089160Y-199043661D01*
X236089160Y-199043661D02*
X236089160Y-199353185D01*
X236089160Y-199353185D02*
X236027255Y-199476995D01*
X236027255Y-199476995D02*
X235965350Y-199538900D01*
X235965350Y-199538900D02*
X235841541Y-199600804D01*
X235841541Y-199600804D02*
X235532017Y-199600804D01*
X235532017Y-199600804D02*
X235408207Y-199538900D01*
X235408207Y-199538900D02*
X235346303Y-199476995D01*
D10*
D11*
X285965350Y-198300804D02*
X285717731Y-198300804D01*
X285717731Y-198300804D02*
X285593922Y-198362709D01*
X285593922Y-198362709D02*
X285532017Y-198424614D01*
X285532017Y-198424614D02*
X285408207Y-198610328D01*
X285408207Y-198610328D02*
X285346303Y-198857947D01*
X285346303Y-198857947D02*
X285346303Y-199353185D01*
X285346303Y-199353185D02*
X285408207Y-199476995D01*
X285408207Y-199476995D02*
X285470112Y-199538900D01*
X285470112Y-199538900D02*
X285593922Y-199600804D01*
X285593922Y-199600804D02*
X285841541Y-199600804D01*
X285841541Y-199600804D02*
X285965350Y-199538900D01*
X285965350Y-199538900D02*
X286027255Y-199476995D01*
X286027255Y-199476995D02*
X286089160Y-199353185D01*
X286089160Y-199353185D02*
X286089160Y-199043661D01*
X286089160Y-199043661D02*
X286027255Y-198919852D01*
X286027255Y-198919852D02*
X285965350Y-198857947D01*
X285965350Y-198857947D02*
X285841541Y-198796042D01*
X285841541Y-198796042D02*
X285593922Y-198796042D01*
X285593922Y-198796042D02*
X285470112Y-198857947D01*
X285470112Y-198857947D02*
X285408207Y-198919852D01*
X285408207Y-198919852D02*
X285346303Y-199043661D01*
D10*
D11*
X10000000Y-60000000D02*
X12000000Y-60000000D01*
D10*
D11*
X10000000Y-110000000D02*
X12000000Y-110000000D01*
D10*
D11*
X10000000Y-160000000D02*
X12000000Y-160000000D01*
D10*
D11*
X10690476Y-35222176D02*
X11309523Y-35222176D01*
X10566666Y-35593604D02*
X10999999Y-34293604D01*
X10999999Y-34293604D02*
X11433333Y-35593604D01*
D10*
D11*
X11092857Y-84912652D02*
X11278571Y-84974557D01*
X11278571Y-84974557D02*
X11340476Y-85036461D01*
X11340476Y-85036461D02*
X11402380Y-85160271D01*
X11402380Y-85160271D02*
X11402380Y-85345985D01*
X11402380Y-85345985D02*
X11340476Y-85469795D01*
X11340476Y-85469795D02*
X11278571Y-85531700D01*
X11278571Y-85531700D02*
X11154761Y-85593604D01*
X11154761Y-85593604D02*
X10659523Y-85593604D01*
X10659523Y-85593604D02*
X10659523Y-84293604D01*
X10659523Y-84293604D02*
X11092857Y-84293604D01*
X11092857Y-84293604D02*
X11216666Y-84355509D01*
X11216666Y-84355509D02*
X11278571Y-84417414D01*
X11278571Y-84417414D02*
X11340476Y-84541223D01*
X11340476Y-84541223D02*
X11340476Y-84665033D01*
X11340476Y-84665033D02*
X11278571Y-84788842D01*
X11278571Y-84788842D02*
X11216666Y-84850747D01*
X11216666Y-84850747D02*
X11092857Y-84912652D01*
X11092857Y-84912652D02*
X10659523Y-84912652D01*
D10*
D11*
X11402380Y-135469795D02*
X11340476Y-135531700D01*
X11340476Y-135531700D02*
X11154761Y-135593604D01*
X11154761Y-135593604D02*
X11030952Y-135593604D01*
X11030952Y-135593604D02*
X10845238Y-135531700D01*
X10845238Y-135531700D02*
X10721428Y-135407890D01*
X10721428Y-135407890D02*
X10659523Y-135284080D01*
X10659523Y-135284080D02*
X10597619Y-135036461D01*
X10597619Y-135036461D02*
X10597619Y-134850747D01*
X10597619Y-134850747D02*
X10659523Y-134603128D01*
X10659523Y-134603128D02*
X10721428Y-134479319D01*
X10721428Y-134479319D02*
X10845238Y-134355509D01*
X10845238Y-134355509D02*
X11030952Y-134293604D01*
X11030952Y-134293604D02*
X11154761Y-134293604D01*
X11154761Y-134293604D02*
X11340476Y-134355509D01*
X11340476Y-134355509D02*
X11402380Y-134417414D01*
D10*
D11*
X10659523Y-185593604D02*
X10659523Y-184293604D01*
X10659523Y-184293604D02*
X10969047Y-184293604D01*
X10969047Y-184293604D02*
X11154761Y-184355509D01*
X11154761Y-184355509D02*
X11278571Y-184479319D01*
X11278571Y-184479319D02*
X11340476Y-184603128D01*
X11340476Y-184603128D02*
X11402380Y-184850747D01*
X11402380Y-184850747D02*
X11402380Y-185036461D01*
X11402380Y-185036461D02*
X11340476Y-185284080D01*
X11340476Y-185284080D02*
X11278571Y-185407890D01*
X11278571Y-185407890D02*
X11154761Y-185531700D01*
X11154761Y-185531700D02*
X10969047Y-185593604D01*
X10969047Y-185593604D02*
X10659523Y-185593604D01*
D10*
D11*
X287002200Y-60000000D02*
X285002200Y-60000000D01*
D10*
D11*
X287002200Y-110000000D02*
X285002200Y-110000000D01*
D10*
D11*
X287002200Y-160000000D02*
X285002200Y-160000000D01*
D10*
D11*
X285692676Y-35222176D02*
X286311723Y-35222176D01*
X285568866Y-35593604D02*
X286002199Y-34293604D01*
X286002199Y-34293604D02*
X286435533Y-35593604D01*
D10*
D11*
X286095057Y-84912652D02*
X286280771Y-84974557D01*
X286280771Y-84974557D02*
X286342676Y-85036461D01*
X286342676Y-85036461D02*
X286404580Y-85160271D01*
X286404580Y-85160271D02*
X286404580Y-85345985D01*
X286404580Y-85345985D02*
X286342676Y-85469795D01*
X286342676Y-85469795D02*
X286280771Y-85531700D01*
X286280771Y-85531700D02*
X286156961Y-85593604D01*
X286156961Y-85593604D02*
X285661723Y-85593604D01*
X285661723Y-85593604D02*
X285661723Y-84293604D01*
X285661723Y-84293604D02*
X286095057Y-84293604D01*
X286095057Y-84293604D02*
X286218866Y-84355509D01*
X286218866Y-84355509D02*
X286280771Y-84417414D01*
X286280771Y-84417414D02*
X286342676Y-84541223D01*
X286342676Y-84541223D02*
X286342676Y-84665033D01*
X286342676Y-84665033D02*
X286280771Y-84788842D01*
X286280771Y-84788842D02*
X286218866Y-84850747D01*
X286218866Y-84850747D02*
X286095057Y-84912652D01*
X286095057Y-84912652D02*
X285661723Y-84912652D01*
D10*
D11*
X286404580Y-135469795D02*
X286342676Y-135531700D01*
X286342676Y-135531700D02*
X286156961Y-135593604D01*
X286156961Y-135593604D02*
X286033152Y-135593604D01*
X286033152Y-135593604D02*
X285847438Y-135531700D01*
X285847438Y-135531700D02*
X285723628Y-135407890D01*
X285723628Y-135407890D02*
X285661723Y-135284080D01*
X285661723Y-135284080D02*
X285599819Y-135036461D01*
X285599819Y-135036461D02*
X285599819Y-134850747D01*
X285599819Y-134850747D02*
X285661723Y-134603128D01*
X285661723Y-134603128D02*
X285723628Y-134479319D01*
X285723628Y-134479319D02*
X285847438Y-134355509D01*
X285847438Y-134355509D02*
X286033152Y-134293604D01*
X286033152Y-134293604D02*
X286156961Y-134293604D01*
X286156961Y-134293604D02*
X286342676Y-134355509D01*
X286342676Y-134355509D02*
X286404580Y-134417414D01*
D10*
D11*
X285661723Y-185593604D02*
X285661723Y-184293604D01*
X285661723Y-184293604D02*
X285971247Y-184293604D01*
X285971247Y-184293604D02*
X286156961Y-184355509D01*
X286156961Y-184355509D02*
X286280771Y-184479319D01*
X286280771Y-184479319D02*
X286342676Y-184603128D01*
X286342676Y-184603128D02*
X286404580Y-184850747D01*
X286404580Y-184850747D02*
X286404580Y-185036461D01*
X286404580Y-185036461D02*
X286342676Y-185284080D01*
X286342676Y-185284080D02*
X286280771Y-185407890D01*
X286280771Y-185407890D02*
X286156961Y-185531700D01*
X286156961Y-185531700D02*
X285971247Y-185593604D01*
X285971247Y-185593604D02*
X285661723Y-185593604D01*
D10*
D11*
X200458026Y-193793328D02*
X200458026Y-192293328D01*
X200458026Y-192293328D02*
X200815169Y-192293328D01*
X200815169Y-192293328D02*
X201029455Y-192364757D01*
X201029455Y-192364757D02*
X201172312Y-192507614D01*
X201172312Y-192507614D02*
X201243741Y-192650471D01*
X201243741Y-192650471D02*
X201315169Y-192936185D01*
X201315169Y-192936185D02*
X201315169Y-193150471D01*
X201315169Y-193150471D02*
X201243741Y-193436185D01*
X201243741Y-193436185D02*
X201172312Y-193579042D01*
X201172312Y-193579042D02*
X201029455Y-193721900D01*
X201029455Y-193721900D02*
X200815169Y-193793328D01*
X200815169Y-193793328D02*
X200458026Y-193793328D01*
X202600884Y-193793328D02*
X202600884Y-193007614D01*
X202600884Y-193007614D02*
X202529455Y-192864757D01*
X202529455Y-192864757D02*
X202386598Y-192793328D01*
X202386598Y-192793328D02*
X202100884Y-192793328D01*
X202100884Y-192793328D02*
X201958026Y-192864757D01*
X202600884Y-193721900D02*
X202458026Y-193793328D01*
X202458026Y-193793328D02*
X202100884Y-193793328D01*
X202100884Y-193793328D02*
X201958026Y-193721900D01*
X201958026Y-193721900D02*
X201886598Y-193579042D01*
X201886598Y-193579042D02*
X201886598Y-193436185D01*
X201886598Y-193436185D02*
X201958026Y-193293328D01*
X201958026Y-193293328D02*
X202100884Y-193221900D01*
X202100884Y-193221900D02*
X202458026Y-193221900D01*
X202458026Y-193221900D02*
X202600884Y-193150471D01*
X203100884Y-192793328D02*
X203672312Y-192793328D01*
X203315169Y-192293328D02*
X203315169Y-193579042D01*
X203315169Y-193579042D02*
X203386598Y-193721900D01*
X203386598Y-193721900D02*
X203529455Y-193793328D01*
X203529455Y-193793328D02*
X203672312Y-193793328D01*
X204743741Y-193721900D02*
X204600884Y-193793328D01*
X204600884Y-193793328D02*
X204315170Y-193793328D01*
X204315170Y-193793328D02*
X204172312Y-193721900D01*
X204172312Y-193721900D02*
X204100884Y-193579042D01*
X204100884Y-193579042D02*
X204100884Y-193007614D01*
X204100884Y-193007614D02*
X204172312Y-192864757D01*
X204172312Y-192864757D02*
X204315170Y-192793328D01*
X204315170Y-192793328D02*
X204600884Y-192793328D01*
X204600884Y-192793328D02*
X204743741Y-192864757D01*
X204743741Y-192864757D02*
X204815170Y-193007614D01*
X204815170Y-193007614D02*
X204815170Y-193150471D01*
X204815170Y-193150471D02*
X204100884Y-193293328D01*
X205458026Y-193650471D02*
X205529455Y-193721900D01*
X205529455Y-193721900D02*
X205458026Y-193793328D01*
X205458026Y-193793328D02*
X205386598Y-193721900D01*
X205386598Y-193721900D02*
X205458026Y-193650471D01*
X205458026Y-193650471D02*
X205458026Y-193793328D01*
X205458026Y-192864757D02*
X205529455Y-192936185D01*
X205529455Y-192936185D02*
X205458026Y-193007614D01*
X205458026Y-193007614D02*
X205386598Y-192936185D01*
X205386598Y-192936185D02*
X205458026Y-192864757D01*
X205458026Y-192864757D02*
X205458026Y-193007614D01*
D10*
D11*
X177002200Y-194507200D02*
X285002200Y-194507200D01*
D10*
D11*
X178458026Y-196593328D02*
X178458026Y-195093328D01*
X179315169Y-196593328D02*
X178672312Y-195736185D01*
X179315169Y-195093328D02*
X178458026Y-195950471D01*
X179958026Y-196593328D02*
X179958026Y-195593328D01*
X179958026Y-195093328D02*
X179886598Y-195164757D01*
X179886598Y-195164757D02*
X179958026Y-195236185D01*
X179958026Y-195236185D02*
X180029455Y-195164757D01*
X180029455Y-195164757D02*
X179958026Y-195093328D01*
X179958026Y-195093328D02*
X179958026Y-195236185D01*
X181529455Y-196450471D02*
X181458027Y-196521900D01*
X181458027Y-196521900D02*
X181243741Y-196593328D01*
X181243741Y-196593328D02*
X181100884Y-196593328D01*
X181100884Y-196593328D02*
X180886598Y-196521900D01*
X180886598Y-196521900D02*
X180743741Y-196379042D01*
X180743741Y-196379042D02*
X180672312Y-196236185D01*
X180672312Y-196236185D02*
X180600884Y-195950471D01*
X180600884Y-195950471D02*
X180600884Y-195736185D01*
X180600884Y-195736185D02*
X180672312Y-195450471D01*
X180672312Y-195450471D02*
X180743741Y-195307614D01*
X180743741Y-195307614D02*
X180886598Y-195164757D01*
X180886598Y-195164757D02*
X181100884Y-195093328D01*
X181100884Y-195093328D02*
X181243741Y-195093328D01*
X181243741Y-195093328D02*
X181458027Y-195164757D01*
X181458027Y-195164757D02*
X181529455Y-195236185D01*
X182815170Y-196593328D02*
X182815170Y-195807614D01*
X182815170Y-195807614D02*
X182743741Y-195664757D01*
X182743741Y-195664757D02*
X182600884Y-195593328D01*
X182600884Y-195593328D02*
X182315170Y-195593328D01*
X182315170Y-195593328D02*
X182172312Y-195664757D01*
X182815170Y-196521900D02*
X182672312Y-196593328D01*
X182672312Y-196593328D02*
X182315170Y-196593328D01*
X182315170Y-196593328D02*
X182172312Y-196521900D01*
X182172312Y-196521900D02*
X182100884Y-196379042D01*
X182100884Y-196379042D02*
X182100884Y-196236185D01*
X182100884Y-196236185D02*
X182172312Y-196093328D01*
X182172312Y-196093328D02*
X182315170Y-196021900D01*
X182315170Y-196021900D02*
X182672312Y-196021900D01*
X182672312Y-196021900D02*
X182815170Y-195950471D01*
X184172313Y-196593328D02*
X184172313Y-195093328D01*
X184172313Y-196521900D02*
X184029455Y-196593328D01*
X184029455Y-196593328D02*
X183743741Y-196593328D01*
X183743741Y-196593328D02*
X183600884Y-196521900D01*
X183600884Y-196521900D02*
X183529455Y-196450471D01*
X183529455Y-196450471D02*
X183458027Y-196307614D01*
X183458027Y-196307614D02*
X183458027Y-195879042D01*
X183458027Y-195879042D02*
X183529455Y-195736185D01*
X183529455Y-195736185D02*
X183600884Y-195664757D01*
X183600884Y-195664757D02*
X183743741Y-195593328D01*
X183743741Y-195593328D02*
X184029455Y-195593328D01*
X184029455Y-195593328D02*
X184172313Y-195664757D01*
X186029455Y-195807614D02*
X186529455Y-195807614D01*
X186743741Y-196593328D02*
X186029455Y-196593328D01*
X186029455Y-196593328D02*
X186029455Y-195093328D01*
X186029455Y-195093328D02*
X186743741Y-195093328D01*
X187386598Y-196450471D02*
X187458027Y-196521900D01*
X187458027Y-196521900D02*
X187386598Y-196593328D01*
X187386598Y-196593328D02*
X187315170Y-196521900D01*
X187315170Y-196521900D02*
X187386598Y-196450471D01*
X187386598Y-196450471D02*
X187386598Y-196593328D01*
X188100884Y-196593328D02*
X188100884Y-195093328D01*
X188100884Y-195093328D02*
X188458027Y-195093328D01*
X188458027Y-195093328D02*
X188672313Y-195164757D01*
X188672313Y-195164757D02*
X188815170Y-195307614D01*
X188815170Y-195307614D02*
X188886599Y-195450471D01*
X188886599Y-195450471D02*
X188958027Y-195736185D01*
X188958027Y-195736185D02*
X188958027Y-195950471D01*
X188958027Y-195950471D02*
X188886599Y-196236185D01*
X188886599Y-196236185D02*
X188815170Y-196379042D01*
X188815170Y-196379042D02*
X188672313Y-196521900D01*
X188672313Y-196521900D02*
X188458027Y-196593328D01*
X188458027Y-196593328D02*
X188100884Y-196593328D01*
X189600884Y-196450471D02*
X189672313Y-196521900D01*
X189672313Y-196521900D02*
X189600884Y-196593328D01*
X189600884Y-196593328D02*
X189529456Y-196521900D01*
X189529456Y-196521900D02*
X189600884Y-196450471D01*
X189600884Y-196450471D02*
X189600884Y-196593328D01*
X190243742Y-196164757D02*
X190958028Y-196164757D01*
X190100885Y-196593328D02*
X190600885Y-195093328D01*
X190600885Y-195093328D02*
X191100885Y-196593328D01*
X191600884Y-196450471D02*
X191672313Y-196521900D01*
X191672313Y-196521900D02*
X191600884Y-196593328D01*
X191600884Y-196593328D02*
X191529456Y-196521900D01*
X191529456Y-196521900D02*
X191600884Y-196450471D01*
X191600884Y-196450471D02*
X191600884Y-196593328D01*
X193672313Y-195736185D02*
X193529456Y-195664757D01*
X193529456Y-195664757D02*
X193458027Y-195593328D01*
X193458027Y-195593328D02*
X193386599Y-195450471D01*
X193386599Y-195450471D02*
X193386599Y-195379042D01*
X193386599Y-195379042D02*
X193458027Y-195236185D01*
X193458027Y-195236185D02*
X193529456Y-195164757D01*
X193529456Y-195164757D02*
X193672313Y-195093328D01*
X193672313Y-195093328D02*
X193958027Y-195093328D01*
X193958027Y-195093328D02*
X194100885Y-195164757D01*
X194100885Y-195164757D02*
X194172313Y-195236185D01*
X194172313Y-195236185D02*
X194243742Y-195379042D01*
X194243742Y-195379042D02*
X194243742Y-195450471D01*
X194243742Y-195450471D02*
X194172313Y-195593328D01*
X194172313Y-195593328D02*
X194100885Y-195664757D01*
X194100885Y-195664757D02*
X193958027Y-195736185D01*
X193958027Y-195736185D02*
X193672313Y-195736185D01*
X193672313Y-195736185D02*
X193529456Y-195807614D01*
X193529456Y-195807614D02*
X193458027Y-195879042D01*
X193458027Y-195879042D02*
X193386599Y-196021900D01*
X193386599Y-196021900D02*
X193386599Y-196307614D01*
X193386599Y-196307614D02*
X193458027Y-196450471D01*
X193458027Y-196450471D02*
X193529456Y-196521900D01*
X193529456Y-196521900D02*
X193672313Y-196593328D01*
X193672313Y-196593328D02*
X193958027Y-196593328D01*
X193958027Y-196593328D02*
X194100885Y-196521900D01*
X194100885Y-196521900D02*
X194172313Y-196450471D01*
X194172313Y-196450471D02*
X194243742Y-196307614D01*
X194243742Y-196307614D02*
X194243742Y-196021900D01*
X194243742Y-196021900D02*
X194172313Y-195879042D01*
X194172313Y-195879042D02*
X194100885Y-195807614D01*
X194100885Y-195807614D02*
X193958027Y-195736185D01*
X194886598Y-196450471D02*
X194958027Y-196521900D01*
X194958027Y-196521900D02*
X194886598Y-196593328D01*
X194886598Y-196593328D02*
X194815170Y-196521900D01*
X194815170Y-196521900D02*
X194886598Y-196450471D01*
X194886598Y-196450471D02*
X194886598Y-196593328D01*
X195886599Y-195093328D02*
X196029456Y-195093328D01*
X196029456Y-195093328D02*
X196172313Y-195164757D01*
X196172313Y-195164757D02*
X196243742Y-195236185D01*
X196243742Y-195236185D02*
X196315170Y-195379042D01*
X196315170Y-195379042D02*
X196386599Y-195664757D01*
X196386599Y-195664757D02*
X196386599Y-196021900D01*
X196386599Y-196021900D02*
X196315170Y-196307614D01*
X196315170Y-196307614D02*
X196243742Y-196450471D01*
X196243742Y-196450471D02*
X196172313Y-196521900D01*
X196172313Y-196521900D02*
X196029456Y-196593328D01*
X196029456Y-196593328D02*
X195886599Y-196593328D01*
X195886599Y-196593328D02*
X195743742Y-196521900D01*
X195743742Y-196521900D02*
X195672313Y-196450471D01*
X195672313Y-196450471D02*
X195600884Y-196307614D01*
X195600884Y-196307614D02*
X195529456Y-196021900D01*
X195529456Y-196021900D02*
X195529456Y-195664757D01*
X195529456Y-195664757D02*
X195600884Y-195379042D01*
X195600884Y-195379042D02*
X195672313Y-195236185D01*
X195672313Y-195236185D02*
X195743742Y-195164757D01*
X195743742Y-195164757D02*
X195886599Y-195093328D01*
X197029455Y-196450471D02*
X197100884Y-196521900D01*
X197100884Y-196521900D02*
X197029455Y-196593328D01*
X197029455Y-196593328D02*
X196958027Y-196521900D01*
X196958027Y-196521900D02*
X197029455Y-196450471D01*
X197029455Y-196450471D02*
X197029455Y-196593328D01*
X197600884Y-195093328D02*
X198529456Y-195093328D01*
X198529456Y-195093328D02*
X198029456Y-195664757D01*
X198029456Y-195664757D02*
X198243741Y-195664757D01*
X198243741Y-195664757D02*
X198386599Y-195736185D01*
X198386599Y-195736185D02*
X198458027Y-195807614D01*
X198458027Y-195807614D02*
X198529456Y-195950471D01*
X198529456Y-195950471D02*
X198529456Y-196307614D01*
X198529456Y-196307614D02*
X198458027Y-196450471D01*
X198458027Y-196450471D02*
X198386599Y-196521900D01*
X198386599Y-196521900D02*
X198243741Y-196593328D01*
X198243741Y-196593328D02*
X197815170Y-196593328D01*
X197815170Y-196593328D02*
X197672313Y-196521900D01*
X197672313Y-196521900D02*
X197600884Y-196450471D01*
D10*
D11*
X177002200Y-191507200D02*
X285002200Y-191507200D01*
D10*
D12*
X264413853Y-193785528D02*
X263913853Y-193071242D01*
X263556710Y-193785528D02*
X263556710Y-192285528D01*
X263556710Y-192285528D02*
X264128139Y-192285528D01*
X264128139Y-192285528D02*
X264270996Y-192356957D01*
X264270996Y-192356957D02*
X264342425Y-192428385D01*
X264342425Y-192428385D02*
X264413853Y-192571242D01*
X264413853Y-192571242D02*
X264413853Y-192785528D01*
X264413853Y-192785528D02*
X264342425Y-192928385D01*
X264342425Y-192928385D02*
X264270996Y-192999814D01*
X264270996Y-192999814D02*
X264128139Y-193071242D01*
X264128139Y-193071242D02*
X263556710Y-193071242D01*
X265628139Y-193714100D02*
X265485282Y-193785528D01*
X265485282Y-193785528D02*
X265199568Y-193785528D01*
X265199568Y-193785528D02*
X265056710Y-193714100D01*
X265056710Y-193714100D02*
X264985282Y-193571242D01*
X264985282Y-193571242D02*
X264985282Y-192999814D01*
X264985282Y-192999814D02*
X265056710Y-192856957D01*
X265056710Y-192856957D02*
X265199568Y-192785528D01*
X265199568Y-192785528D02*
X265485282Y-192785528D01*
X265485282Y-192785528D02*
X265628139Y-192856957D01*
X265628139Y-192856957D02*
X265699568Y-192999814D01*
X265699568Y-192999814D02*
X265699568Y-193142671D01*
X265699568Y-193142671D02*
X264985282Y-193285528D01*
X266199567Y-192785528D02*
X266556710Y-193785528D01*
X266556710Y-193785528D02*
X266913853Y-192785528D01*
X267485281Y-193642671D02*
X267556710Y-193714100D01*
X267556710Y-193714100D02*
X267485281Y-193785528D01*
X267485281Y-193785528D02*
X267413853Y-193714100D01*
X267413853Y-193714100D02*
X267485281Y-193642671D01*
X267485281Y-193642671D02*
X267485281Y-193785528D01*
X267485281Y-192856957D02*
X267556710Y-192928385D01*
X267556710Y-192928385D02*
X267485281Y-192999814D01*
X267485281Y-192999814D02*
X267413853Y-192928385D01*
X267413853Y-192928385D02*
X267485281Y-192856957D01*
X267485281Y-192856957D02*
X267485281Y-192999814D01*
X269270996Y-192428385D02*
X269342424Y-192356957D01*
X269342424Y-192356957D02*
X269485282Y-192285528D01*
X269485282Y-192285528D02*
X269842424Y-192285528D01*
X269842424Y-192285528D02*
X269985282Y-192356957D01*
X269985282Y-192356957D02*
X270056710Y-192428385D01*
X270056710Y-192428385D02*
X270128139Y-192571242D01*
X270128139Y-192571242D02*
X270128139Y-192714100D01*
X270128139Y-192714100D02*
X270056710Y-192928385D01*
X270056710Y-192928385D02*
X269199567Y-193785528D01*
X269199567Y-193785528D02*
X270128139Y-193785528D01*
D10*
D11*
X178386598Y-193721900D02*
X178600884Y-193793328D01*
X178600884Y-193793328D02*
X178958026Y-193793328D01*
X178958026Y-193793328D02*
X179100884Y-193721900D01*
X179100884Y-193721900D02*
X179172312Y-193650471D01*
X179172312Y-193650471D02*
X179243741Y-193507614D01*
X179243741Y-193507614D02*
X179243741Y-193364757D01*
X179243741Y-193364757D02*
X179172312Y-193221900D01*
X179172312Y-193221900D02*
X179100884Y-193150471D01*
X179100884Y-193150471D02*
X178958026Y-193079042D01*
X178958026Y-193079042D02*
X178672312Y-193007614D01*
X178672312Y-193007614D02*
X178529455Y-192936185D01*
X178529455Y-192936185D02*
X178458026Y-192864757D01*
X178458026Y-192864757D02*
X178386598Y-192721900D01*
X178386598Y-192721900D02*
X178386598Y-192579042D01*
X178386598Y-192579042D02*
X178458026Y-192436185D01*
X178458026Y-192436185D02*
X178529455Y-192364757D01*
X178529455Y-192364757D02*
X178672312Y-192293328D01*
X178672312Y-192293328D02*
X179029455Y-192293328D01*
X179029455Y-192293328D02*
X179243741Y-192364757D01*
X179886597Y-193793328D02*
X179886597Y-192793328D01*
X179886597Y-192293328D02*
X179815169Y-192364757D01*
X179815169Y-192364757D02*
X179886597Y-192436185D01*
X179886597Y-192436185D02*
X179958026Y-192364757D01*
X179958026Y-192364757D02*
X179886597Y-192293328D01*
X179886597Y-192293328D02*
X179886597Y-192436185D01*
X180458026Y-192793328D02*
X181243741Y-192793328D01*
X181243741Y-192793328D02*
X180458026Y-193793328D01*
X180458026Y-193793328D02*
X181243741Y-193793328D01*
X182386598Y-193721900D02*
X182243741Y-193793328D01*
X182243741Y-193793328D02*
X181958027Y-193793328D01*
X181958027Y-193793328D02*
X181815169Y-193721900D01*
X181815169Y-193721900D02*
X181743741Y-193579042D01*
X181743741Y-193579042D02*
X181743741Y-193007614D01*
X181743741Y-193007614D02*
X181815169Y-192864757D01*
X181815169Y-192864757D02*
X181958027Y-192793328D01*
X181958027Y-192793328D02*
X182243741Y-192793328D01*
X182243741Y-192793328D02*
X182386598Y-192864757D01*
X182386598Y-192864757D02*
X182458027Y-193007614D01*
X182458027Y-193007614D02*
X182458027Y-193150471D01*
X182458027Y-193150471D02*
X181743741Y-193293328D01*
X183100883Y-193650471D02*
X183172312Y-193721900D01*
X183172312Y-193721900D02*
X183100883Y-193793328D01*
X183100883Y-193793328D02*
X183029455Y-193721900D01*
X183029455Y-193721900D02*
X183100883Y-193650471D01*
X183100883Y-193650471D02*
X183100883Y-193793328D01*
X183100883Y-192864757D02*
X183172312Y-192936185D01*
X183172312Y-192936185D02*
X183100883Y-193007614D01*
X183100883Y-193007614D02*
X183029455Y-192936185D01*
X183029455Y-192936185D02*
X183100883Y-192864757D01*
X183100883Y-192864757D02*
X183100883Y-193007614D01*
X184886598Y-193364757D02*
X185600884Y-193364757D01*
X184743741Y-193793328D02*
X185243741Y-192293328D01*
X185243741Y-192293328D02*
X185743741Y-193793328D01*
X186886598Y-192793328D02*
X186886598Y-193793328D01*
X186529455Y-192221900D02*
X186172312Y-193293328D01*
X186172312Y-193293328D02*
X187100883Y-193293328D01*
D10*
D11*
X263458026Y-196593328D02*
X263458026Y-195093328D01*
X264815170Y-196593328D02*
X264815170Y-195093328D01*
X264815170Y-196521900D02*
X264672312Y-196593328D01*
X264672312Y-196593328D02*
X264386598Y-196593328D01*
X264386598Y-196593328D02*
X264243741Y-196521900D01*
X264243741Y-196521900D02*
X264172312Y-196450471D01*
X264172312Y-196450471D02*
X264100884Y-196307614D01*
X264100884Y-196307614D02*
X264100884Y-195879042D01*
X264100884Y-195879042D02*
X264172312Y-195736185D01*
X264172312Y-195736185D02*
X264243741Y-195664757D01*
X264243741Y-195664757D02*
X264386598Y-195593328D01*
X264386598Y-195593328D02*
X264672312Y-195593328D01*
X264672312Y-195593328D02*
X264815170Y-195664757D01*
X265529455Y-196450471D02*
X265600884Y-196521900D01*
X265600884Y-196521900D02*
X265529455Y-196593328D01*
X265529455Y-196593328D02*
X265458027Y-196521900D01*
X265458027Y-196521900D02*
X265529455Y-196450471D01*
X265529455Y-196450471D02*
X265529455Y-196593328D01*
X265529455Y-195664757D02*
X265600884Y-195736185D01*
X265600884Y-195736185D02*
X265529455Y-195807614D01*
X265529455Y-195807614D02*
X265458027Y-195736185D01*
X265458027Y-195736185D02*
X265529455Y-195664757D01*
X265529455Y-195664757D02*
X265529455Y-195807614D01*
X268172313Y-196593328D02*
X267315170Y-196593328D01*
X267743741Y-196593328D02*
X267743741Y-195093328D01*
X267743741Y-195093328D02*
X267600884Y-195307614D01*
X267600884Y-195307614D02*
X267458027Y-195450471D01*
X267458027Y-195450471D02*
X267315170Y-195521900D01*
X269886598Y-195021900D02*
X268600884Y-196950471D01*
X271172313Y-196593328D02*
X270315170Y-196593328D01*
X270743741Y-196593328D02*
X270743741Y-195093328D01*
X270743741Y-195093328D02*
X270600884Y-195307614D01*
X270600884Y-195307614D02*
X270458027Y-195450471D01*
X270458027Y-195450471D02*
X270315170Y-195521900D01*
D10*
D11*
X177002200Y-187507200D02*
X285002200Y-187507200D01*
D10*
D13*
X178693928Y-188211638D02*
X179836785Y-188211638D01*
X179015357Y-190211638D02*
X179265357Y-188211638D01*
X180253452Y-190211638D02*
X180420119Y-188878304D01*
X180503452Y-188211638D02*
X180396309Y-188306876D01*
X180396309Y-188306876D02*
X180479643Y-188402114D01*
X180479643Y-188402114D02*
X180586786Y-188306876D01*
X180586786Y-188306876D02*
X180503452Y-188211638D01*
X180503452Y-188211638D02*
X180479643Y-188402114D01*
X181086786Y-188878304D02*
X181848690Y-188878304D01*
X181455833Y-188211638D02*
X181241548Y-189925923D01*
X181241548Y-189925923D02*
X181312976Y-190116400D01*
X181312976Y-190116400D02*
X181491548Y-190211638D01*
X181491548Y-190211638D02*
X181682024Y-190211638D01*
X182634405Y-190211638D02*
X182455833Y-190116400D01*
X182455833Y-190116400D02*
X182384405Y-189925923D01*
X182384405Y-189925923D02*
X182598690Y-188211638D01*
X184170119Y-190116400D02*
X183967738Y-190211638D01*
X183967738Y-190211638D02*
X183586785Y-190211638D01*
X183586785Y-190211638D02*
X183408214Y-190116400D01*
X183408214Y-190116400D02*
X183336785Y-189925923D01*
X183336785Y-189925923D02*
X183432024Y-189164019D01*
X183432024Y-189164019D02*
X183551071Y-188973542D01*
X183551071Y-188973542D02*
X183753452Y-188878304D01*
X183753452Y-188878304D02*
X184134404Y-188878304D01*
X184134404Y-188878304D02*
X184312976Y-188973542D01*
X184312976Y-188973542D02*
X184384404Y-189164019D01*
X184384404Y-189164019D02*
X184360595Y-189354495D01*
X184360595Y-189354495D02*
X183384404Y-189544971D01*
X185134405Y-190021161D02*
X185217738Y-190116400D01*
X185217738Y-190116400D02*
X185110595Y-190211638D01*
X185110595Y-190211638D02*
X185027262Y-190116400D01*
X185027262Y-190116400D02*
X185134405Y-190021161D01*
X185134405Y-190021161D02*
X185110595Y-190211638D01*
X185265357Y-188973542D02*
X185348690Y-189068780D01*
X185348690Y-189068780D02*
X185241548Y-189164019D01*
X185241548Y-189164019D02*
X185158214Y-189068780D01*
X185158214Y-189068780D02*
X185265357Y-188973542D01*
X185265357Y-188973542D02*
X185241548Y-189164019D01*
D10*
D11*
X178958026Y-185607614D02*
X178458026Y-185607614D01*
X178458026Y-186393328D02*
X178458026Y-184893328D01*
X178458026Y-184893328D02*
X179172312Y-184893328D01*
X179743740Y-186393328D02*
X179743740Y-185393328D01*
X179743740Y-184893328D02*
X179672312Y-184964757D01*
X179672312Y-184964757D02*
X179743740Y-185036185D01*
X179743740Y-185036185D02*
X179815169Y-184964757D01*
X179815169Y-184964757D02*
X179743740Y-184893328D01*
X179743740Y-184893328D02*
X179743740Y-185036185D01*
X180672312Y-186393328D02*
X180529455Y-186321900D01*
X180529455Y-186321900D02*
X180458026Y-186179042D01*
X180458026Y-186179042D02*
X180458026Y-184893328D01*
X181815169Y-186321900D02*
X181672312Y-186393328D01*
X181672312Y-186393328D02*
X181386598Y-186393328D01*
X181386598Y-186393328D02*
X181243740Y-186321900D01*
X181243740Y-186321900D02*
X181172312Y-186179042D01*
X181172312Y-186179042D02*
X181172312Y-185607614D01*
X181172312Y-185607614D02*
X181243740Y-185464757D01*
X181243740Y-185464757D02*
X181386598Y-185393328D01*
X181386598Y-185393328D02*
X181672312Y-185393328D01*
X181672312Y-185393328D02*
X181815169Y-185464757D01*
X181815169Y-185464757D02*
X181886598Y-185607614D01*
X181886598Y-185607614D02*
X181886598Y-185750471D01*
X181886598Y-185750471D02*
X181172312Y-185893328D01*
X182529454Y-186250471D02*
X182600883Y-186321900D01*
X182600883Y-186321900D02*
X182529454Y-186393328D01*
X182529454Y-186393328D02*
X182458026Y-186321900D01*
X182458026Y-186321900D02*
X182529454Y-186250471D01*
X182529454Y-186250471D02*
X182529454Y-186393328D01*
X182529454Y-185464757D02*
X182600883Y-185536185D01*
X182600883Y-185536185D02*
X182529454Y-185607614D01*
X182529454Y-185607614D02*
X182458026Y-185536185D01*
X182458026Y-185536185D02*
X182529454Y-185464757D01*
X182529454Y-185464757D02*
X182529454Y-185607614D01*
X184386597Y-186393328D02*
X184386597Y-185393328D01*
X184386597Y-185536185D02*
X184458026Y-185464757D01*
X184458026Y-185464757D02*
X184600883Y-185393328D01*
X184600883Y-185393328D02*
X184815169Y-185393328D01*
X184815169Y-185393328D02*
X184958026Y-185464757D01*
X184958026Y-185464757D02*
X185029455Y-185607614D01*
X185029455Y-185607614D02*
X185029455Y-186393328D01*
X185029455Y-185607614D02*
X185100883Y-185464757D01*
X185100883Y-185464757D02*
X185243740Y-185393328D01*
X185243740Y-185393328D02*
X185458026Y-185393328D01*
X185458026Y-185393328D02*
X185600883Y-185464757D01*
X185600883Y-185464757D02*
X185672312Y-185607614D01*
X185672312Y-185607614D02*
X185672312Y-186393328D01*
X187029455Y-186393328D02*
X187029455Y-185607614D01*
X187029455Y-185607614D02*
X186958026Y-185464757D01*
X186958026Y-185464757D02*
X186815169Y-185393328D01*
X186815169Y-185393328D02*
X186529455Y-185393328D01*
X186529455Y-185393328D02*
X186386597Y-185464757D01*
X187029455Y-186321900D02*
X186886597Y-186393328D01*
X186886597Y-186393328D02*
X186529455Y-186393328D01*
X186529455Y-186393328D02*
X186386597Y-186321900D01*
X186386597Y-186321900D02*
X186315169Y-186179042D01*
X186315169Y-186179042D02*
X186315169Y-186036185D01*
X186315169Y-186036185D02*
X186386597Y-185893328D01*
X186386597Y-185893328D02*
X186529455Y-185821900D01*
X186529455Y-185821900D02*
X186886597Y-185821900D01*
X186886597Y-185821900D02*
X187029455Y-185750471D01*
X188386598Y-186321900D02*
X188243740Y-186393328D01*
X188243740Y-186393328D02*
X187958026Y-186393328D01*
X187958026Y-186393328D02*
X187815169Y-186321900D01*
X187815169Y-186321900D02*
X187743740Y-186250471D01*
X187743740Y-186250471D02*
X187672312Y-186107614D01*
X187672312Y-186107614D02*
X187672312Y-185679042D01*
X187672312Y-185679042D02*
X187743740Y-185536185D01*
X187743740Y-185536185D02*
X187815169Y-185464757D01*
X187815169Y-185464757D02*
X187958026Y-185393328D01*
X187958026Y-185393328D02*
X188243740Y-185393328D01*
X188243740Y-185393328D02*
X188386598Y-185464757D01*
X189029454Y-186393328D02*
X189029454Y-185393328D01*
X189029454Y-185679042D02*
X189100883Y-185536185D01*
X189100883Y-185536185D02*
X189172312Y-185464757D01*
X189172312Y-185464757D02*
X189315169Y-185393328D01*
X189315169Y-185393328D02*
X189458026Y-185393328D01*
X190172311Y-186393328D02*
X190029454Y-186321900D01*
X190029454Y-186321900D02*
X189958025Y-186250471D01*
X189958025Y-186250471D02*
X189886597Y-186107614D01*
X189886597Y-186107614D02*
X189886597Y-185679042D01*
X189886597Y-185679042D02*
X189958025Y-185536185D01*
X189958025Y-185536185D02*
X190029454Y-185464757D01*
X190029454Y-185464757D02*
X190172311Y-185393328D01*
X190172311Y-185393328D02*
X190386597Y-185393328D01*
X190386597Y-185393328D02*
X190529454Y-185464757D01*
X190529454Y-185464757D02*
X190600883Y-185536185D01*
X190600883Y-185536185D02*
X190672311Y-185679042D01*
X190672311Y-185679042D02*
X190672311Y-186107614D01*
X190672311Y-186107614D02*
X190600883Y-186250471D01*
X190600883Y-186250471D02*
X190529454Y-186321900D01*
X190529454Y-186321900D02*
X190386597Y-186393328D01*
X190386597Y-186393328D02*
X190172311Y-186393328D01*
X191315168Y-185607614D02*
X192458026Y-185607614D01*
X192458026Y-186036185D02*
X191315168Y-186036185D01*
X194029454Y-186393328D02*
X193529454Y-185679042D01*
X193172311Y-186393328D02*
X193172311Y-184893328D01*
X193172311Y-184893328D02*
X193743740Y-184893328D01*
X193743740Y-184893328D02*
X193886597Y-184964757D01*
X193886597Y-184964757D02*
X193958026Y-185036185D01*
X193958026Y-185036185D02*
X194029454Y-185179042D01*
X194029454Y-185179042D02*
X194029454Y-185393328D01*
X194029454Y-185393328D02*
X193958026Y-185536185D01*
X193958026Y-185536185D02*
X193886597Y-185607614D01*
X193886597Y-185607614D02*
X193743740Y-185679042D01*
X193743740Y-185679042D02*
X193172311Y-185679042D01*
X194672311Y-185607614D02*
X195172311Y-185607614D01*
X195386597Y-186393328D02*
X194672311Y-186393328D01*
X194672311Y-186393328D02*
X194672311Y-184893328D01*
X194672311Y-184893328D02*
X195386597Y-184893328D01*
X195815169Y-184893328D02*
X196315169Y-186393328D01*
X196315169Y-186393328D02*
X196815169Y-184893328D01*
X197243740Y-185036185D02*
X197315168Y-184964757D01*
X197315168Y-184964757D02*
X197458026Y-184893328D01*
X197458026Y-184893328D02*
X197815168Y-184893328D01*
X197815168Y-184893328D02*
X197958026Y-184964757D01*
X197958026Y-184964757D02*
X198029454Y-185036185D01*
X198029454Y-185036185D02*
X198100883Y-185179042D01*
X198100883Y-185179042D02*
X198100883Y-185321900D01*
X198100883Y-185321900D02*
X198029454Y-185536185D01*
X198029454Y-185536185D02*
X197172311Y-186393328D01*
X197172311Y-186393328D02*
X198100883Y-186393328D01*
X198743739Y-186250471D02*
X198815168Y-186321900D01*
X198815168Y-186321900D02*
X198743739Y-186393328D01*
X198743739Y-186393328D02*
X198672311Y-186321900D01*
X198672311Y-186321900D02*
X198743739Y-186250471D01*
X198743739Y-186250471D02*
X198743739Y-186393328D01*
X199458025Y-186393328D02*
X199458025Y-184893328D01*
X199600883Y-185821900D02*
X200029454Y-186393328D01*
X200029454Y-185393328D02*
X199458025Y-185964757D01*
X200672311Y-186393328D02*
X200672311Y-185393328D01*
X200672311Y-184893328D02*
X200600883Y-184964757D01*
X200600883Y-184964757D02*
X200672311Y-185036185D01*
X200672311Y-185036185D02*
X200743740Y-184964757D01*
X200743740Y-184964757D02*
X200672311Y-184893328D01*
X200672311Y-184893328D02*
X200672311Y-185036185D01*
X202029455Y-186321900D02*
X201886597Y-186393328D01*
X201886597Y-186393328D02*
X201600883Y-186393328D01*
X201600883Y-186393328D02*
X201458026Y-186321900D01*
X201458026Y-186321900D02*
X201386597Y-186250471D01*
X201386597Y-186250471D02*
X201315169Y-186107614D01*
X201315169Y-186107614D02*
X201315169Y-185679042D01*
X201315169Y-185679042D02*
X201386597Y-185536185D01*
X201386597Y-185536185D02*
X201458026Y-185464757D01*
X201458026Y-185464757D02*
X201600883Y-185393328D01*
X201600883Y-185393328D02*
X201886597Y-185393328D01*
X201886597Y-185393328D02*
X202029455Y-185464757D01*
X203315169Y-186393328D02*
X203315169Y-185607614D01*
X203315169Y-185607614D02*
X203243740Y-185464757D01*
X203243740Y-185464757D02*
X203100883Y-185393328D01*
X203100883Y-185393328D02*
X202815169Y-185393328D01*
X202815169Y-185393328D02*
X202672311Y-185464757D01*
X203315169Y-186321900D02*
X203172311Y-186393328D01*
X203172311Y-186393328D02*
X202815169Y-186393328D01*
X202815169Y-186393328D02*
X202672311Y-186321900D01*
X202672311Y-186321900D02*
X202600883Y-186179042D01*
X202600883Y-186179042D02*
X202600883Y-186036185D01*
X202600883Y-186036185D02*
X202672311Y-185893328D01*
X202672311Y-185893328D02*
X202815169Y-185821900D01*
X202815169Y-185821900D02*
X203172311Y-185821900D01*
X203172311Y-185821900D02*
X203315169Y-185750471D01*
X204672312Y-186393328D02*
X204672312Y-184893328D01*
X204672312Y-186321900D02*
X204529454Y-186393328D01*
X204529454Y-186393328D02*
X204243740Y-186393328D01*
X204243740Y-186393328D02*
X204100883Y-186321900D01*
X204100883Y-186321900D02*
X204029454Y-186250471D01*
X204029454Y-186250471D02*
X203958026Y-186107614D01*
X203958026Y-186107614D02*
X203958026Y-185679042D01*
X203958026Y-185679042D02*
X204029454Y-185536185D01*
X204029454Y-185536185D02*
X204100883Y-185464757D01*
X204100883Y-185464757D02*
X204243740Y-185393328D01*
X204243740Y-185393328D02*
X204529454Y-185393328D01*
X204529454Y-185393328D02*
X204672312Y-185464757D01*
X205029455Y-186536185D02*
X206172312Y-186536185D01*
X206529454Y-185393328D02*
X206529454Y-186893328D01*
X206529454Y-185464757D02*
X206672312Y-185393328D01*
X206672312Y-185393328D02*
X206958026Y-185393328D01*
X206958026Y-185393328D02*
X207100883Y-185464757D01*
X207100883Y-185464757D02*
X207172312Y-185536185D01*
X207172312Y-185536185D02*
X207243740Y-185679042D01*
X207243740Y-185679042D02*
X207243740Y-186107614D01*
X207243740Y-186107614D02*
X207172312Y-186250471D01*
X207172312Y-186250471D02*
X207100883Y-186321900D01*
X207100883Y-186321900D02*
X206958026Y-186393328D01*
X206958026Y-186393328D02*
X206672312Y-186393328D01*
X206672312Y-186393328D02*
X206529454Y-186321900D01*
X208529455Y-186321900D02*
X208386597Y-186393328D01*
X208386597Y-186393328D02*
X208100883Y-186393328D01*
X208100883Y-186393328D02*
X207958026Y-186321900D01*
X207958026Y-186321900D02*
X207886597Y-186250471D01*
X207886597Y-186250471D02*
X207815169Y-186107614D01*
X207815169Y-186107614D02*
X207815169Y-185679042D01*
X207815169Y-185679042D02*
X207886597Y-185536185D01*
X207886597Y-185536185D02*
X207958026Y-185464757D01*
X207958026Y-185464757D02*
X208100883Y-185393328D01*
X208100883Y-185393328D02*
X208386597Y-185393328D01*
X208386597Y-185393328D02*
X208529455Y-185464757D01*
X209172311Y-186393328D02*
X209172311Y-184893328D01*
X209172311Y-185464757D02*
X209315169Y-185393328D01*
X209315169Y-185393328D02*
X209600883Y-185393328D01*
X209600883Y-185393328D02*
X209743740Y-185464757D01*
X209743740Y-185464757D02*
X209815169Y-185536185D01*
X209815169Y-185536185D02*
X209886597Y-185679042D01*
X209886597Y-185679042D02*
X209886597Y-186107614D01*
X209886597Y-186107614D02*
X209815169Y-186250471D01*
X209815169Y-186250471D02*
X209743740Y-186321900D01*
X209743740Y-186321900D02*
X209600883Y-186393328D01*
X209600883Y-186393328D02*
X209315169Y-186393328D01*
X209315169Y-186393328D02*
X209172311Y-186321900D01*
D10*
D11*
X177002200Y-181507200D02*
X285002200Y-181507200D01*
D10*
D11*
X178386598Y-183621900D02*
X178600884Y-183693328D01*
X178600884Y-183693328D02*
X178958026Y-183693328D01*
X178958026Y-183693328D02*
X179100884Y-183621900D01*
X179100884Y-183621900D02*
X179172312Y-183550471D01*
X179172312Y-183550471D02*
X179243741Y-183407614D01*
X179243741Y-183407614D02*
X179243741Y-183264757D01*
X179243741Y-183264757D02*
X179172312Y-183121900D01*
X179172312Y-183121900D02*
X179100884Y-183050471D01*
X179100884Y-183050471D02*
X178958026Y-182979042D01*
X178958026Y-182979042D02*
X178672312Y-182907614D01*
X178672312Y-182907614D02*
X178529455Y-182836185D01*
X178529455Y-182836185D02*
X178458026Y-182764757D01*
X178458026Y-182764757D02*
X178386598Y-182621900D01*
X178386598Y-182621900D02*
X178386598Y-182479042D01*
X178386598Y-182479042D02*
X178458026Y-182336185D01*
X178458026Y-182336185D02*
X178529455Y-182264757D01*
X178529455Y-182264757D02*
X178672312Y-182193328D01*
X178672312Y-182193328D02*
X179029455Y-182193328D01*
X179029455Y-182193328D02*
X179243741Y-182264757D01*
X179886597Y-183693328D02*
X179886597Y-182193328D01*
X180529455Y-183693328D02*
X180529455Y-182907614D01*
X180529455Y-182907614D02*
X180458026Y-182764757D01*
X180458026Y-182764757D02*
X180315169Y-182693328D01*
X180315169Y-182693328D02*
X180100883Y-182693328D01*
X180100883Y-182693328D02*
X179958026Y-182764757D01*
X179958026Y-182764757D02*
X179886597Y-182836185D01*
X181815169Y-183621900D02*
X181672312Y-183693328D01*
X181672312Y-183693328D02*
X181386598Y-183693328D01*
X181386598Y-183693328D02*
X181243740Y-183621900D01*
X181243740Y-183621900D02*
X181172312Y-183479042D01*
X181172312Y-183479042D02*
X181172312Y-182907614D01*
X181172312Y-182907614D02*
X181243740Y-182764757D01*
X181243740Y-182764757D02*
X181386598Y-182693328D01*
X181386598Y-182693328D02*
X181672312Y-182693328D01*
X181672312Y-182693328D02*
X181815169Y-182764757D01*
X181815169Y-182764757D02*
X181886598Y-182907614D01*
X181886598Y-182907614D02*
X181886598Y-183050471D01*
X181886598Y-183050471D02*
X181172312Y-183193328D01*
X183100883Y-183621900D02*
X182958026Y-183693328D01*
X182958026Y-183693328D02*
X182672312Y-183693328D01*
X182672312Y-183693328D02*
X182529454Y-183621900D01*
X182529454Y-183621900D02*
X182458026Y-183479042D01*
X182458026Y-183479042D02*
X182458026Y-182907614D01*
X182458026Y-182907614D02*
X182529454Y-182764757D01*
X182529454Y-182764757D02*
X182672312Y-182693328D01*
X182672312Y-182693328D02*
X182958026Y-182693328D01*
X182958026Y-182693328D02*
X183100883Y-182764757D01*
X183100883Y-182764757D02*
X183172312Y-182907614D01*
X183172312Y-182907614D02*
X183172312Y-183050471D01*
X183172312Y-183050471D02*
X182458026Y-183193328D01*
X183600883Y-182693328D02*
X184172311Y-182693328D01*
X183815168Y-182193328D02*
X183815168Y-183479042D01*
X183815168Y-183479042D02*
X183886597Y-183621900D01*
X183886597Y-183621900D02*
X184029454Y-183693328D01*
X184029454Y-183693328D02*
X184172311Y-183693328D01*
X184672311Y-183550471D02*
X184743740Y-183621900D01*
X184743740Y-183621900D02*
X184672311Y-183693328D01*
X184672311Y-183693328D02*
X184600883Y-183621900D01*
X184600883Y-183621900D02*
X184672311Y-183550471D01*
X184672311Y-183550471D02*
X184672311Y-183693328D01*
X184672311Y-182764757D02*
X184743740Y-182836185D01*
X184743740Y-182836185D02*
X184672311Y-182907614D01*
X184672311Y-182907614D02*
X184600883Y-182836185D01*
X184600883Y-182836185D02*
X184672311Y-182764757D01*
X184672311Y-182764757D02*
X184672311Y-182907614D01*
D10*
D11*
X197002200Y-191507200D02*
X197002200Y-194507200D01*
D10*
D11*
X261002200Y-191507200D02*
X261002200Y-198007200D01*
X68047619Y-128954819D02*
X68047619Y-128288152D01*
X68047619Y-128478628D02*
X68095238Y-128383390D01*
X68095238Y-128383390D02*
X68142857Y-128335771D01*
X68142857Y-128335771D02*
X68238095Y-128288152D01*
X68238095Y-128288152D02*
X68333333Y-128288152D01*
X69047619Y-128907200D02*
X68952381Y-128954819D01*
X68952381Y-128954819D02*
X68761905Y-128954819D01*
X68761905Y-128954819D02*
X68666667Y-128907200D01*
X68666667Y-128907200D02*
X68619048Y-128811961D01*
X68619048Y-128811961D02*
X68619048Y-128431009D01*
X68619048Y-128431009D02*
X68666667Y-128335771D01*
X68666667Y-128335771D02*
X68761905Y-128288152D01*
X68761905Y-128288152D02*
X68952381Y-128288152D01*
X68952381Y-128288152D02*
X69047619Y-128335771D01*
X69047619Y-128335771D02*
X69095238Y-128431009D01*
X69095238Y-128431009D02*
X69095238Y-128526247D01*
X69095238Y-128526247D02*
X68619048Y-128621485D01*
X69428572Y-128288152D02*
X69666667Y-128954819D01*
X69666667Y-128954819D02*
X69904762Y-128288152D01*
X71238096Y-127954819D02*
X71333334Y-127954819D01*
X71333334Y-127954819D02*
X71428572Y-128002438D01*
X71428572Y-128002438D02*
X71476191Y-128050057D01*
X71476191Y-128050057D02*
X71523810Y-128145295D01*
X71523810Y-128145295D02*
X71571429Y-128335771D01*
X71571429Y-128335771D02*
X71571429Y-128573866D01*
X71571429Y-128573866D02*
X71523810Y-128764342D01*
X71523810Y-128764342D02*
X71476191Y-128859580D01*
X71476191Y-128859580D02*
X71428572Y-128907200D01*
X71428572Y-128907200D02*
X71333334Y-128954819D01*
X71333334Y-128954819D02*
X71238096Y-128954819D01*
X71238096Y-128954819D02*
X71142858Y-128907200D01*
X71142858Y-128907200D02*
X71095239Y-128859580D01*
X71095239Y-128859580D02*
X71047620Y-128764342D01*
X71047620Y-128764342D02*
X71000001Y-128573866D01*
X71000001Y-128573866D02*
X71000001Y-128335771D01*
X71000001Y-128335771D02*
X71047620Y-128145295D01*
X71047620Y-128145295D02*
X71095239Y-128050057D01*
X71095239Y-128050057D02*
X71142858Y-128002438D01*
X71142858Y-128002438D02*
X71238096Y-127954819D01*
X72000001Y-128859580D02*
X72047620Y-128907200D01*
X72047620Y-128907200D02*
X72000001Y-128954819D01*
X72000001Y-128954819D02*
X71952382Y-128907200D01*
X71952382Y-128907200D02*
X72000001Y-128859580D01*
X72000001Y-128859580D02*
X72000001Y-128954819D01*
X72380953Y-127954819D02*
X73000000Y-127954819D01*
X73000000Y-127954819D02*
X72666667Y-128335771D01*
X72666667Y-128335771D02*
X72809524Y-128335771D01*
X72809524Y-128335771D02*
X72904762Y-128383390D01*
X72904762Y-128383390D02*
X72952381Y-128431009D01*
X72952381Y-128431009D02*
X73000000Y-128526247D01*
X73000000Y-128526247D02*
X73000000Y-128764342D01*
X73000000Y-128764342D02*
X72952381Y-128859580D01*
X72952381Y-128859580D02*
X72904762Y-128907200D01*
X72904762Y-128907200D02*
X72809524Y-128954819D01*
X72809524Y-128954819D02*
X72523810Y-128954819D01*
X72523810Y-128954819D02*
X72428572Y-128907200D01*
X72428572Y-128907200D02*
X72380953Y-128859580D01*
D12*
X147392857Y-54178328D02*
X147392857Y-52678328D01*
X147392857Y-52678328D02*
X147964286Y-52678328D01*
X147964286Y-52678328D02*
X148107143Y-52749757D01*
X148107143Y-52749757D02*
X148178572Y-52821185D01*
X148178572Y-52821185D02*
X148250000Y-52964042D01*
X148250000Y-52964042D02*
X148250000Y-53178328D01*
X148250000Y-53178328D02*
X148178572Y-53321185D01*
X148178572Y-53321185D02*
X148107143Y-53392614D01*
X148107143Y-53392614D02*
X147964286Y-53464042D01*
X147964286Y-53464042D02*
X147392857Y-53464042D01*
X148892857Y-54178328D02*
X148892857Y-53178328D01*
X148892857Y-53464042D02*
X148964286Y-53321185D01*
X148964286Y-53321185D02*
X149035715Y-53249757D01*
X149035715Y-53249757D02*
X149178572Y-53178328D01*
X149178572Y-53178328D02*
X149321429Y-53178328D01*
X150035714Y-54178328D02*
X149892857Y-54106900D01*
X149892857Y-54106900D02*
X149821428Y-54035471D01*
X149821428Y-54035471D02*
X149750000Y-53892614D01*
X149750000Y-53892614D02*
X149750000Y-53464042D01*
X149750000Y-53464042D02*
X149821428Y-53321185D01*
X149821428Y-53321185D02*
X149892857Y-53249757D01*
X149892857Y-53249757D02*
X150035714Y-53178328D01*
X150035714Y-53178328D02*
X150250000Y-53178328D01*
X150250000Y-53178328D02*
X150392857Y-53249757D01*
X150392857Y-53249757D02*
X150464286Y-53321185D01*
X150464286Y-53321185D02*
X150535714Y-53464042D01*
X150535714Y-53464042D02*
X150535714Y-53892614D01*
X150535714Y-53892614D02*
X150464286Y-54035471D01*
X150464286Y-54035471D02*
X150392857Y-54106900D01*
X150392857Y-54106900D02*
X150250000Y-54178328D01*
X150250000Y-54178328D02*
X150035714Y-54178328D01*
X152321428Y-54178328D02*
X152321428Y-52678328D01*
X152321428Y-52678328D02*
X152821428Y-53749757D01*
X152821428Y-53749757D02*
X153321428Y-52678328D01*
X153321428Y-52678328D02*
X153321428Y-54178328D01*
X154035714Y-54178328D02*
X154035714Y-53178328D01*
X154035714Y-52678328D02*
X153964286Y-52749757D01*
X153964286Y-52749757D02*
X154035714Y-52821185D01*
X154035714Y-52821185D02*
X154107143Y-52749757D01*
X154107143Y-52749757D02*
X154035714Y-52678328D01*
X154035714Y-52678328D02*
X154035714Y-52821185D01*
X155392858Y-54106900D02*
X155250000Y-54178328D01*
X155250000Y-54178328D02*
X154964286Y-54178328D01*
X154964286Y-54178328D02*
X154821429Y-54106900D01*
X154821429Y-54106900D02*
X154750000Y-54035471D01*
X154750000Y-54035471D02*
X154678572Y-53892614D01*
X154678572Y-53892614D02*
X154678572Y-53464042D01*
X154678572Y-53464042D02*
X154750000Y-53321185D01*
X154750000Y-53321185D02*
X154821429Y-53249757D01*
X154821429Y-53249757D02*
X154964286Y-53178328D01*
X154964286Y-53178328D02*
X155250000Y-53178328D01*
X155250000Y-53178328D02*
X155392858Y-53249757D01*
X156035714Y-54178328D02*
X156035714Y-53178328D01*
X156035714Y-53464042D02*
X156107143Y-53321185D01*
X156107143Y-53321185D02*
X156178572Y-53249757D01*
X156178572Y-53249757D02*
X156321429Y-53178328D01*
X156321429Y-53178328D02*
X156464286Y-53178328D01*
X157178571Y-54178328D02*
X157035714Y-54106900D01*
X157035714Y-54106900D02*
X156964285Y-54035471D01*
X156964285Y-54035471D02*
X156892857Y-53892614D01*
X156892857Y-53892614D02*
X156892857Y-53464042D01*
X156892857Y-53464042D02*
X156964285Y-53321185D01*
X156964285Y-53321185D02*
X157035714Y-53249757D01*
X157035714Y-53249757D02*
X157178571Y-53178328D01*
X157178571Y-53178328D02*
X157392857Y-53178328D01*
X157392857Y-53178328D02*
X157535714Y-53249757D01*
X157535714Y-53249757D02*
X157607143Y-53321185D01*
X157607143Y-53321185D02*
X157678571Y-53464042D01*
X157678571Y-53464042D02*
X157678571Y-53892614D01*
X157678571Y-53892614D02*
X157607143Y-54035471D01*
X157607143Y-54035471D02*
X157535714Y-54106900D01*
X157535714Y-54106900D02*
X157392857Y-54178328D01*
X157392857Y-54178328D02*
X157178571Y-54178328D01*
X68107142Y-126928328D02*
X68107142Y-125428328D01*
X68964285Y-126928328D02*
X68321428Y-126071185D01*
X68964285Y-125428328D02*
X68107142Y-126285471D01*
X69821428Y-126928328D02*
X69678571Y-126856900D01*
X69678571Y-126856900D02*
X69607142Y-126785471D01*
X69607142Y-126785471D02*
X69535714Y-126642614D01*
X69535714Y-126642614D02*
X69535714Y-126214042D01*
X69535714Y-126214042D02*
X69607142Y-126071185D01*
X69607142Y-126071185D02*
X69678571Y-125999757D01*
X69678571Y-125999757D02*
X69821428Y-125928328D01*
X69821428Y-125928328D02*
X70035714Y-125928328D01*
X70035714Y-125928328D02*
X70178571Y-125999757D01*
X70178571Y-125999757D02*
X70250000Y-126071185D01*
X70250000Y-126071185D02*
X70321428Y-126214042D01*
X70321428Y-126214042D02*
X70321428Y-126642614D01*
X70321428Y-126642614D02*
X70250000Y-126785471D01*
X70250000Y-126785471D02*
X70178571Y-126856900D01*
X70178571Y-126856900D02*
X70035714Y-126928328D01*
X70035714Y-126928328D02*
X69821428Y-126928328D01*
X70964285Y-125928328D02*
X70964285Y-127428328D01*
X70964285Y-125999757D02*
X71107143Y-125928328D01*
X71107143Y-125928328D02*
X71392857Y-125928328D01*
X71392857Y-125928328D02*
X71535714Y-125999757D01*
X71535714Y-125999757D02*
X71607143Y-126071185D01*
X71607143Y-126071185D02*
X71678571Y-126214042D01*
X71678571Y-126214042D02*
X71678571Y-126642614D01*
X71678571Y-126642614D02*
X71607143Y-126785471D01*
X71607143Y-126785471D02*
X71535714Y-126856900D01*
X71535714Y-126856900D02*
X71392857Y-126928328D01*
X71392857Y-126928328D02*
X71107143Y-126928328D01*
X71107143Y-126928328D02*
X70964285Y-126856900D01*
X72178571Y-125928328D02*
X72535714Y-126928328D01*
X72892857Y-125928328D02*
X72535714Y-126928328D01*
X72535714Y-126928328D02*
X72392857Y-127285471D01*
X72392857Y-127285471D02*
X72321428Y-127356900D01*
X72321428Y-127356900D02*
X72178571Y-127428328D01*
X73250000Y-125428328D02*
X74107143Y-125428328D01*
X73678571Y-126928328D02*
X73678571Y-125428328D01*
X74607142Y-126928328D02*
X74607142Y-125428328D01*
X75464285Y-126928328D02*
X74821428Y-126071185D01*
X75464285Y-125428328D02*
X74607142Y-126285471D01*
X76892857Y-125499757D02*
X76750000Y-125428328D01*
X76750000Y-125428328D02*
X76535714Y-125428328D01*
X76535714Y-125428328D02*
X76321428Y-125499757D01*
X76321428Y-125499757D02*
X76178571Y-125642614D01*
X76178571Y-125642614D02*
X76107142Y-125785471D01*
X76107142Y-125785471D02*
X76035714Y-126071185D01*
X76035714Y-126071185D02*
X76035714Y-126285471D01*
X76035714Y-126285471D02*
X76107142Y-126571185D01*
X76107142Y-126571185D02*
X76178571Y-126714042D01*
X76178571Y-126714042D02*
X76321428Y-126856900D01*
X76321428Y-126856900D02*
X76535714Y-126928328D01*
X76535714Y-126928328D02*
X76678571Y-126928328D01*
X76678571Y-126928328D02*
X76892857Y-126856900D01*
X76892857Y-126856900D02*
X76964285Y-126785471D01*
X76964285Y-126785471D02*
X76964285Y-126285471D01*
X76964285Y-126285471D02*
X76678571Y-126285471D01*
D11*
X138535714Y-113363819D02*
X138535714Y-112363819D01*
X138535714Y-112363819D02*
X138773809Y-112363819D01*
X138773809Y-112363819D02*
X138916666Y-112411438D01*
X138916666Y-112411438D02*
X139011904Y-112506676D01*
X139011904Y-112506676D02*
X139059523Y-112601914D01*
X139059523Y-112601914D02*
X139107142Y-112792390D01*
X139107142Y-112792390D02*
X139107142Y-112935247D01*
X139107142Y-112935247D02*
X139059523Y-113125723D01*
X139059523Y-113125723D02*
X139011904Y-113220961D01*
X139011904Y-113220961D02*
X138916666Y-113316200D01*
X138916666Y-113316200D02*
X138773809Y-113363819D01*
X138773809Y-113363819D02*
X138535714Y-113363819D01*
X140059523Y-113363819D02*
X139488095Y-113363819D01*
X139773809Y-113363819D02*
X139773809Y-112363819D01*
X139773809Y-112363819D02*
X139678571Y-112506676D01*
X139678571Y-112506676D02*
X139583333Y-112601914D01*
X139583333Y-112601914D02*
X139488095Y-112649533D01*
X140392857Y-112363819D02*
X141059523Y-112363819D01*
X141059523Y-112363819D02*
X140630952Y-113363819D01*
X138285714Y-83863819D02*
X138285714Y-82863819D01*
X138285714Y-82863819D02*
X138523809Y-82863819D01*
X138523809Y-82863819D02*
X138666666Y-82911438D01*
X138666666Y-82911438D02*
X138761904Y-83006676D01*
X138761904Y-83006676D02*
X138809523Y-83101914D01*
X138809523Y-83101914D02*
X138857142Y-83292390D01*
X138857142Y-83292390D02*
X138857142Y-83435247D01*
X138857142Y-83435247D02*
X138809523Y-83625723D01*
X138809523Y-83625723D02*
X138761904Y-83720961D01*
X138761904Y-83720961D02*
X138666666Y-83816200D01*
X138666666Y-83816200D02*
X138523809Y-83863819D01*
X138523809Y-83863819D02*
X138285714Y-83863819D01*
X139809523Y-83863819D02*
X139238095Y-83863819D01*
X139523809Y-83863819D02*
X139523809Y-82863819D01*
X139523809Y-82863819D02*
X139428571Y-83006676D01*
X139428571Y-83006676D02*
X139333333Y-83101914D01*
X139333333Y-83101914D02*
X139238095Y-83149533D01*
X140761904Y-83863819D02*
X140190476Y-83863819D01*
X140476190Y-83863819D02*
X140476190Y-82863819D01*
X140476190Y-82863819D02*
X140380952Y-83006676D01*
X140380952Y-83006676D02*
X140285714Y-83101914D01*
X140285714Y-83101914D02*
X140190476Y-83149533D01*
X138761905Y-43363819D02*
X138761905Y-42363819D01*
X138761905Y-42363819D02*
X139000000Y-42363819D01*
X139000000Y-42363819D02*
X139142857Y-42411438D01*
X139142857Y-42411438D02*
X139238095Y-42506676D01*
X139238095Y-42506676D02*
X139285714Y-42601914D01*
X139285714Y-42601914D02*
X139333333Y-42792390D01*
X139333333Y-42792390D02*
X139333333Y-42935247D01*
X139333333Y-42935247D02*
X139285714Y-43125723D01*
X139285714Y-43125723D02*
X139238095Y-43220961D01*
X139238095Y-43220961D02*
X139142857Y-43316200D01*
X139142857Y-43316200D02*
X139000000Y-43363819D01*
X139000000Y-43363819D02*
X138761905Y-43363819D01*
X140190476Y-42697152D02*
X140190476Y-43363819D01*
X139952381Y-42316200D02*
X139714286Y-43030485D01*
X139714286Y-43030485D02*
X140333333Y-43030485D01*
X121011905Y-27613819D02*
X121011905Y-26613819D01*
X121011905Y-26613819D02*
X121250000Y-26613819D01*
X121250000Y-26613819D02*
X121392857Y-26661438D01*
X121392857Y-26661438D02*
X121488095Y-26756676D01*
X121488095Y-26756676D02*
X121535714Y-26851914D01*
X121535714Y-26851914D02*
X121583333Y-27042390D01*
X121583333Y-27042390D02*
X121583333Y-27185247D01*
X121583333Y-27185247D02*
X121535714Y-27375723D01*
X121535714Y-27375723D02*
X121488095Y-27470961D01*
X121488095Y-27470961D02*
X121392857Y-27566200D01*
X121392857Y-27566200D02*
X121250000Y-27613819D01*
X121250000Y-27613819D02*
X121011905Y-27613819D01*
X121916667Y-26613819D02*
X122535714Y-26613819D01*
X122535714Y-26613819D02*
X122202381Y-26994771D01*
X122202381Y-26994771D02*
X122345238Y-26994771D01*
X122345238Y-26994771D02*
X122440476Y-27042390D01*
X122440476Y-27042390D02*
X122488095Y-27090009D01*
X122488095Y-27090009D02*
X122535714Y-27185247D01*
X122535714Y-27185247D02*
X122535714Y-27423342D01*
X122535714Y-27423342D02*
X122488095Y-27518580D01*
X122488095Y-27518580D02*
X122440476Y-27566200D01*
X122440476Y-27566200D02*
X122345238Y-27613819D01*
X122345238Y-27613819D02*
X122059524Y-27613819D01*
X122059524Y-27613819D02*
X121964286Y-27566200D01*
X121964286Y-27566200D02*
X121916667Y-27518580D01*
X121011905Y-47863819D02*
X121011905Y-46863819D01*
X121011905Y-46863819D02*
X121250000Y-46863819D01*
X121250000Y-46863819D02*
X121392857Y-46911438D01*
X121392857Y-46911438D02*
X121488095Y-47006676D01*
X121488095Y-47006676D02*
X121535714Y-47101914D01*
X121535714Y-47101914D02*
X121583333Y-47292390D01*
X121583333Y-47292390D02*
X121583333Y-47435247D01*
X121583333Y-47435247D02*
X121535714Y-47625723D01*
X121535714Y-47625723D02*
X121488095Y-47720961D01*
X121488095Y-47720961D02*
X121392857Y-47816200D01*
X121392857Y-47816200D02*
X121250000Y-47863819D01*
X121250000Y-47863819D02*
X121011905Y-47863819D01*
X121916667Y-46863819D02*
X122583333Y-46863819D01*
X122583333Y-46863819D02*
X122154762Y-47863819D01*
X120535714Y-68363819D02*
X120535714Y-67363819D01*
X120535714Y-67363819D02*
X120773809Y-67363819D01*
X120773809Y-67363819D02*
X120916666Y-67411438D01*
X120916666Y-67411438D02*
X121011904Y-67506676D01*
X121011904Y-67506676D02*
X121059523Y-67601914D01*
X121059523Y-67601914D02*
X121107142Y-67792390D01*
X121107142Y-67792390D02*
X121107142Y-67935247D01*
X121107142Y-67935247D02*
X121059523Y-68125723D01*
X121059523Y-68125723D02*
X121011904Y-68220961D01*
X121011904Y-68220961D02*
X120916666Y-68316200D01*
X120916666Y-68316200D02*
X120773809Y-68363819D01*
X120773809Y-68363819D02*
X120535714Y-68363819D01*
X122059523Y-68363819D02*
X121488095Y-68363819D01*
X121773809Y-68363819D02*
X121773809Y-67363819D01*
X121773809Y-67363819D02*
X121678571Y-67506676D01*
X121678571Y-67506676D02*
X121583333Y-67601914D01*
X121583333Y-67601914D02*
X121488095Y-67649533D01*
X122678571Y-67363819D02*
X122773809Y-67363819D01*
X122773809Y-67363819D02*
X122869047Y-67411438D01*
X122869047Y-67411438D02*
X122916666Y-67459057D01*
X122916666Y-67459057D02*
X122964285Y-67554295D01*
X122964285Y-67554295D02*
X123011904Y-67744771D01*
X123011904Y-67744771D02*
X123011904Y-67982866D01*
X123011904Y-67982866D02*
X122964285Y-68173342D01*
X122964285Y-68173342D02*
X122916666Y-68268580D01*
X122916666Y-68268580D02*
X122869047Y-68316200D01*
X122869047Y-68316200D02*
X122773809Y-68363819D01*
X122773809Y-68363819D02*
X122678571Y-68363819D01*
X122678571Y-68363819D02*
X122583333Y-68316200D01*
X122583333Y-68316200D02*
X122535714Y-68268580D01*
X122535714Y-68268580D02*
X122488095Y-68173342D01*
X122488095Y-68173342D02*
X122440476Y-67982866D01*
X122440476Y-67982866D02*
X122440476Y-67744771D01*
X122440476Y-67744771D02*
X122488095Y-67554295D01*
X122488095Y-67554295D02*
X122535714Y-67459057D01*
X122535714Y-67459057D02*
X122583333Y-67411438D01*
X122583333Y-67411438D02*
X122678571Y-67363819D01*
X120535714Y-89113819D02*
X120535714Y-88113819D01*
X120535714Y-88113819D02*
X120773809Y-88113819D01*
X120773809Y-88113819D02*
X120916666Y-88161438D01*
X120916666Y-88161438D02*
X121011904Y-88256676D01*
X121011904Y-88256676D02*
X121059523Y-88351914D01*
X121059523Y-88351914D02*
X121107142Y-88542390D01*
X121107142Y-88542390D02*
X121107142Y-88685247D01*
X121107142Y-88685247D02*
X121059523Y-88875723D01*
X121059523Y-88875723D02*
X121011904Y-88970961D01*
X121011904Y-88970961D02*
X120916666Y-89066200D01*
X120916666Y-89066200D02*
X120773809Y-89113819D01*
X120773809Y-89113819D02*
X120535714Y-89113819D01*
X122059523Y-89113819D02*
X121488095Y-89113819D01*
X121773809Y-89113819D02*
X121773809Y-88113819D01*
X121773809Y-88113819D02*
X121678571Y-88256676D01*
X121678571Y-88256676D02*
X121583333Y-88351914D01*
X121583333Y-88351914D02*
X121488095Y-88399533D01*
X122916666Y-88447152D02*
X122916666Y-89113819D01*
X122678571Y-88066200D02*
X122440476Y-88780485D01*
X122440476Y-88780485D02*
X123059523Y-88780485D01*
X120535714Y-109113819D02*
X120535714Y-108113819D01*
X120535714Y-108113819D02*
X120773809Y-108113819D01*
X120773809Y-108113819D02*
X120916666Y-108161438D01*
X120916666Y-108161438D02*
X121011904Y-108256676D01*
X121011904Y-108256676D02*
X121059523Y-108351914D01*
X121059523Y-108351914D02*
X121107142Y-108542390D01*
X121107142Y-108542390D02*
X121107142Y-108685247D01*
X121107142Y-108685247D02*
X121059523Y-108875723D01*
X121059523Y-108875723D02*
X121011904Y-108970961D01*
X121011904Y-108970961D02*
X120916666Y-109066200D01*
X120916666Y-109066200D02*
X120773809Y-109113819D01*
X120773809Y-109113819D02*
X120535714Y-109113819D01*
X122059523Y-109113819D02*
X121488095Y-109113819D01*
X121773809Y-109113819D02*
X121773809Y-108113819D01*
X121773809Y-108113819D02*
X121678571Y-108256676D01*
X121678571Y-108256676D02*
X121583333Y-108351914D01*
X121583333Y-108351914D02*
X121488095Y-108399533D01*
X122916666Y-108113819D02*
X122726190Y-108113819D01*
X122726190Y-108113819D02*
X122630952Y-108161438D01*
X122630952Y-108161438D02*
X122583333Y-108209057D01*
X122583333Y-108209057D02*
X122488095Y-108351914D01*
X122488095Y-108351914D02*
X122440476Y-108542390D01*
X122440476Y-108542390D02*
X122440476Y-108923342D01*
X122440476Y-108923342D02*
X122488095Y-109018580D01*
X122488095Y-109018580D02*
X122535714Y-109066200D01*
X122535714Y-109066200D02*
X122630952Y-109113819D01*
X122630952Y-109113819D02*
X122821428Y-109113819D01*
X122821428Y-109113819D02*
X122916666Y-109066200D01*
X122916666Y-109066200D02*
X122964285Y-109018580D01*
X122964285Y-109018580D02*
X123011904Y-108923342D01*
X123011904Y-108923342D02*
X123011904Y-108685247D01*
X123011904Y-108685247D02*
X122964285Y-108590009D01*
X122964285Y-108590009D02*
X122916666Y-108542390D01*
X122916666Y-108542390D02*
X122821428Y-108494771D01*
X122821428Y-108494771D02*
X122630952Y-108494771D01*
X122630952Y-108494771D02*
X122535714Y-108542390D01*
X122535714Y-108542390D02*
X122488095Y-108590009D01*
X122488095Y-108590009D02*
X122440476Y-108685247D01*
X100761905Y-27863819D02*
X100761905Y-26863819D01*
X100761905Y-26863819D02*
X101000000Y-26863819D01*
X101000000Y-26863819D02*
X101142857Y-26911438D01*
X101142857Y-26911438D02*
X101238095Y-27006676D01*
X101238095Y-27006676D02*
X101285714Y-27101914D01*
X101285714Y-27101914D02*
X101333333Y-27292390D01*
X101333333Y-27292390D02*
X101333333Y-27435247D01*
X101333333Y-27435247D02*
X101285714Y-27625723D01*
X101285714Y-27625723D02*
X101238095Y-27720961D01*
X101238095Y-27720961D02*
X101142857Y-27816200D01*
X101142857Y-27816200D02*
X101000000Y-27863819D01*
X101000000Y-27863819D02*
X100761905Y-27863819D01*
X101714286Y-26959057D02*
X101761905Y-26911438D01*
X101761905Y-26911438D02*
X101857143Y-26863819D01*
X101857143Y-26863819D02*
X102095238Y-26863819D01*
X102095238Y-26863819D02*
X102190476Y-26911438D01*
X102190476Y-26911438D02*
X102238095Y-26959057D01*
X102238095Y-26959057D02*
X102285714Y-27054295D01*
X102285714Y-27054295D02*
X102285714Y-27149533D01*
X102285714Y-27149533D02*
X102238095Y-27292390D01*
X102238095Y-27292390D02*
X101666667Y-27863819D01*
X101666667Y-27863819D02*
X102285714Y-27863819D01*
X100761905Y-48363819D02*
X100761905Y-47363819D01*
X100761905Y-47363819D02*
X101000000Y-47363819D01*
X101000000Y-47363819D02*
X101142857Y-47411438D01*
X101142857Y-47411438D02*
X101238095Y-47506676D01*
X101238095Y-47506676D02*
X101285714Y-47601914D01*
X101285714Y-47601914D02*
X101333333Y-47792390D01*
X101333333Y-47792390D02*
X101333333Y-47935247D01*
X101333333Y-47935247D02*
X101285714Y-48125723D01*
X101285714Y-48125723D02*
X101238095Y-48220961D01*
X101238095Y-48220961D02*
X101142857Y-48316200D01*
X101142857Y-48316200D02*
X101000000Y-48363819D01*
X101000000Y-48363819D02*
X100761905Y-48363819D01*
X102190476Y-47363819D02*
X102000000Y-47363819D01*
X102000000Y-47363819D02*
X101904762Y-47411438D01*
X101904762Y-47411438D02*
X101857143Y-47459057D01*
X101857143Y-47459057D02*
X101761905Y-47601914D01*
X101761905Y-47601914D02*
X101714286Y-47792390D01*
X101714286Y-47792390D02*
X101714286Y-48173342D01*
X101714286Y-48173342D02*
X101761905Y-48268580D01*
X101761905Y-48268580D02*
X101809524Y-48316200D01*
X101809524Y-48316200D02*
X101904762Y-48363819D01*
X101904762Y-48363819D02*
X102095238Y-48363819D01*
X102095238Y-48363819D02*
X102190476Y-48316200D01*
X102190476Y-48316200D02*
X102238095Y-48268580D01*
X102238095Y-48268580D02*
X102285714Y-48173342D01*
X102285714Y-48173342D02*
X102285714Y-47935247D01*
X102285714Y-47935247D02*
X102238095Y-47840009D01*
X102238095Y-47840009D02*
X102190476Y-47792390D01*
X102190476Y-47792390D02*
X102095238Y-47744771D01*
X102095238Y-47744771D02*
X101904762Y-47744771D01*
X101904762Y-47744771D02*
X101809524Y-47792390D01*
X101809524Y-47792390D02*
X101761905Y-47840009D01*
X101761905Y-47840009D02*
X101714286Y-47935247D01*
X100761905Y-68363819D02*
X100761905Y-67363819D01*
X100761905Y-67363819D02*
X101000000Y-67363819D01*
X101000000Y-67363819D02*
X101142857Y-67411438D01*
X101142857Y-67411438D02*
X101238095Y-67506676D01*
X101238095Y-67506676D02*
X101285714Y-67601914D01*
X101285714Y-67601914D02*
X101333333Y-67792390D01*
X101333333Y-67792390D02*
X101333333Y-67935247D01*
X101333333Y-67935247D02*
X101285714Y-68125723D01*
X101285714Y-68125723D02*
X101238095Y-68220961D01*
X101238095Y-68220961D02*
X101142857Y-68316200D01*
X101142857Y-68316200D02*
X101000000Y-68363819D01*
X101000000Y-68363819D02*
X100761905Y-68363819D01*
X101809524Y-68363819D02*
X102000000Y-68363819D01*
X102000000Y-68363819D02*
X102095238Y-68316200D01*
X102095238Y-68316200D02*
X102142857Y-68268580D01*
X102142857Y-68268580D02*
X102238095Y-68125723D01*
X102238095Y-68125723D02*
X102285714Y-67935247D01*
X102285714Y-67935247D02*
X102285714Y-67554295D01*
X102285714Y-67554295D02*
X102238095Y-67459057D01*
X102238095Y-67459057D02*
X102190476Y-67411438D01*
X102190476Y-67411438D02*
X102095238Y-67363819D01*
X102095238Y-67363819D02*
X101904762Y-67363819D01*
X101904762Y-67363819D02*
X101809524Y-67411438D01*
X101809524Y-67411438D02*
X101761905Y-67459057D01*
X101761905Y-67459057D02*
X101714286Y-67554295D01*
X101714286Y-67554295D02*
X101714286Y-67792390D01*
X101714286Y-67792390D02*
X101761905Y-67887628D01*
X101761905Y-67887628D02*
X101809524Y-67935247D01*
X101809524Y-67935247D02*
X101904762Y-67982866D01*
X101904762Y-67982866D02*
X102095238Y-67982866D01*
X102095238Y-67982866D02*
X102190476Y-67935247D01*
X102190476Y-67935247D02*
X102238095Y-67887628D01*
X102238095Y-67887628D02*
X102285714Y-67792390D01*
X100285714Y-88863819D02*
X100285714Y-87863819D01*
X100285714Y-87863819D02*
X100523809Y-87863819D01*
X100523809Y-87863819D02*
X100666666Y-87911438D01*
X100666666Y-87911438D02*
X100761904Y-88006676D01*
X100761904Y-88006676D02*
X100809523Y-88101914D01*
X100809523Y-88101914D02*
X100857142Y-88292390D01*
X100857142Y-88292390D02*
X100857142Y-88435247D01*
X100857142Y-88435247D02*
X100809523Y-88625723D01*
X100809523Y-88625723D02*
X100761904Y-88720961D01*
X100761904Y-88720961D02*
X100666666Y-88816200D01*
X100666666Y-88816200D02*
X100523809Y-88863819D01*
X100523809Y-88863819D02*
X100285714Y-88863819D01*
X101809523Y-88863819D02*
X101238095Y-88863819D01*
X101523809Y-88863819D02*
X101523809Y-87863819D01*
X101523809Y-87863819D02*
X101428571Y-88006676D01*
X101428571Y-88006676D02*
X101333333Y-88101914D01*
X101333333Y-88101914D02*
X101238095Y-88149533D01*
X102142857Y-87863819D02*
X102761904Y-87863819D01*
X102761904Y-87863819D02*
X102428571Y-88244771D01*
X102428571Y-88244771D02*
X102571428Y-88244771D01*
X102571428Y-88244771D02*
X102666666Y-88292390D01*
X102666666Y-88292390D02*
X102714285Y-88340009D01*
X102714285Y-88340009D02*
X102761904Y-88435247D01*
X102761904Y-88435247D02*
X102761904Y-88673342D01*
X102761904Y-88673342D02*
X102714285Y-88768580D01*
X102714285Y-88768580D02*
X102666666Y-88816200D01*
X102666666Y-88816200D02*
X102571428Y-88863819D01*
X102571428Y-88863819D02*
X102285714Y-88863819D01*
X102285714Y-88863819D02*
X102190476Y-88816200D01*
X102190476Y-88816200D02*
X102142857Y-88768580D01*
X90535714Y-109113819D02*
X90535714Y-108113819D01*
X90535714Y-108113819D02*
X90773809Y-108113819D01*
X90773809Y-108113819D02*
X90916666Y-108161438D01*
X90916666Y-108161438D02*
X91011904Y-108256676D01*
X91011904Y-108256676D02*
X91059523Y-108351914D01*
X91059523Y-108351914D02*
X91107142Y-108542390D01*
X91107142Y-108542390D02*
X91107142Y-108685247D01*
X91107142Y-108685247D02*
X91059523Y-108875723D01*
X91059523Y-108875723D02*
X91011904Y-108970961D01*
X91011904Y-108970961D02*
X90916666Y-109066200D01*
X90916666Y-109066200D02*
X90773809Y-109113819D01*
X90773809Y-109113819D02*
X90535714Y-109113819D01*
X92059523Y-109113819D02*
X91488095Y-109113819D01*
X91773809Y-109113819D02*
X91773809Y-108113819D01*
X91773809Y-108113819D02*
X91678571Y-108256676D01*
X91678571Y-108256676D02*
X91583333Y-108351914D01*
X91583333Y-108351914D02*
X91488095Y-108399533D01*
X92964285Y-108113819D02*
X92488095Y-108113819D01*
X92488095Y-108113819D02*
X92440476Y-108590009D01*
X92440476Y-108590009D02*
X92488095Y-108542390D01*
X92488095Y-108542390D02*
X92583333Y-108494771D01*
X92583333Y-108494771D02*
X92821428Y-108494771D01*
X92821428Y-108494771D02*
X92916666Y-108542390D01*
X92916666Y-108542390D02*
X92964285Y-108590009D01*
X92964285Y-108590009D02*
X93011904Y-108685247D01*
X93011904Y-108685247D02*
X93011904Y-108923342D01*
X93011904Y-108923342D02*
X92964285Y-109018580D01*
X92964285Y-109018580D02*
X92916666Y-109066200D01*
X92916666Y-109066200D02*
X92821428Y-109113819D01*
X92821428Y-109113819D02*
X92583333Y-109113819D01*
X92583333Y-109113819D02*
X92488095Y-109066200D01*
X92488095Y-109066200D02*
X92440476Y-109018580D01*
X80035714Y-88863819D02*
X80035714Y-87863819D01*
X80035714Y-87863819D02*
X80273809Y-87863819D01*
X80273809Y-87863819D02*
X80416666Y-87911438D01*
X80416666Y-87911438D02*
X80511904Y-88006676D01*
X80511904Y-88006676D02*
X80559523Y-88101914D01*
X80559523Y-88101914D02*
X80607142Y-88292390D01*
X80607142Y-88292390D02*
X80607142Y-88435247D01*
X80607142Y-88435247D02*
X80559523Y-88625723D01*
X80559523Y-88625723D02*
X80511904Y-88720961D01*
X80511904Y-88720961D02*
X80416666Y-88816200D01*
X80416666Y-88816200D02*
X80273809Y-88863819D01*
X80273809Y-88863819D02*
X80035714Y-88863819D01*
X81559523Y-88863819D02*
X80988095Y-88863819D01*
X81273809Y-88863819D02*
X81273809Y-87863819D01*
X81273809Y-87863819D02*
X81178571Y-88006676D01*
X81178571Y-88006676D02*
X81083333Y-88101914D01*
X81083333Y-88101914D02*
X80988095Y-88149533D01*
X81940476Y-87959057D02*
X81988095Y-87911438D01*
X81988095Y-87911438D02*
X82083333Y-87863819D01*
X82083333Y-87863819D02*
X82321428Y-87863819D01*
X82321428Y-87863819D02*
X82416666Y-87911438D01*
X82416666Y-87911438D02*
X82464285Y-87959057D01*
X82464285Y-87959057D02*
X82511904Y-88054295D01*
X82511904Y-88054295D02*
X82511904Y-88149533D01*
X82511904Y-88149533D02*
X82464285Y-88292390D01*
X82464285Y-88292390D02*
X81892857Y-88863819D01*
X81892857Y-88863819D02*
X82511904Y-88863819D01*
X80511905Y-68613819D02*
X80511905Y-67613819D01*
X80511905Y-67613819D02*
X80750000Y-67613819D01*
X80750000Y-67613819D02*
X80892857Y-67661438D01*
X80892857Y-67661438D02*
X80988095Y-67756676D01*
X80988095Y-67756676D02*
X81035714Y-67851914D01*
X81035714Y-67851914D02*
X81083333Y-68042390D01*
X81083333Y-68042390D02*
X81083333Y-68185247D01*
X81083333Y-68185247D02*
X81035714Y-68375723D01*
X81035714Y-68375723D02*
X80988095Y-68470961D01*
X80988095Y-68470961D02*
X80892857Y-68566200D01*
X80892857Y-68566200D02*
X80750000Y-68613819D01*
X80750000Y-68613819D02*
X80511905Y-68613819D01*
X81654762Y-68042390D02*
X81559524Y-67994771D01*
X81559524Y-67994771D02*
X81511905Y-67947152D01*
X81511905Y-67947152D02*
X81464286Y-67851914D01*
X81464286Y-67851914D02*
X81464286Y-67804295D01*
X81464286Y-67804295D02*
X81511905Y-67709057D01*
X81511905Y-67709057D02*
X81559524Y-67661438D01*
X81559524Y-67661438D02*
X81654762Y-67613819D01*
X81654762Y-67613819D02*
X81845238Y-67613819D01*
X81845238Y-67613819D02*
X81940476Y-67661438D01*
X81940476Y-67661438D02*
X81988095Y-67709057D01*
X81988095Y-67709057D02*
X82035714Y-67804295D01*
X82035714Y-67804295D02*
X82035714Y-67851914D01*
X82035714Y-67851914D02*
X81988095Y-67947152D01*
X81988095Y-67947152D02*
X81940476Y-67994771D01*
X81940476Y-67994771D02*
X81845238Y-68042390D01*
X81845238Y-68042390D02*
X81654762Y-68042390D01*
X81654762Y-68042390D02*
X81559524Y-68090009D01*
X81559524Y-68090009D02*
X81511905Y-68137628D01*
X81511905Y-68137628D02*
X81464286Y-68232866D01*
X81464286Y-68232866D02*
X81464286Y-68423342D01*
X81464286Y-68423342D02*
X81511905Y-68518580D01*
X81511905Y-68518580D02*
X81559524Y-68566200D01*
X81559524Y-68566200D02*
X81654762Y-68613819D01*
X81654762Y-68613819D02*
X81845238Y-68613819D01*
X81845238Y-68613819D02*
X81940476Y-68566200D01*
X81940476Y-68566200D02*
X81988095Y-68518580D01*
X81988095Y-68518580D02*
X82035714Y-68423342D01*
X82035714Y-68423342D02*
X82035714Y-68232866D01*
X82035714Y-68232866D02*
X81988095Y-68137628D01*
X81988095Y-68137628D02*
X81940476Y-68090009D01*
X81940476Y-68090009D02*
X81845238Y-68042390D01*
X80511905Y-48363819D02*
X80511905Y-47363819D01*
X80511905Y-47363819D02*
X80750000Y-47363819D01*
X80750000Y-47363819D02*
X80892857Y-47411438D01*
X80892857Y-47411438D02*
X80988095Y-47506676D01*
X80988095Y-47506676D02*
X81035714Y-47601914D01*
X81035714Y-47601914D02*
X81083333Y-47792390D01*
X81083333Y-47792390D02*
X81083333Y-47935247D01*
X81083333Y-47935247D02*
X81035714Y-48125723D01*
X81035714Y-48125723D02*
X80988095Y-48220961D01*
X80988095Y-48220961D02*
X80892857Y-48316200D01*
X80892857Y-48316200D02*
X80750000Y-48363819D01*
X80750000Y-48363819D02*
X80511905Y-48363819D01*
X81988095Y-47363819D02*
X81511905Y-47363819D01*
X81511905Y-47363819D02*
X81464286Y-47840009D01*
X81464286Y-47840009D02*
X81511905Y-47792390D01*
X81511905Y-47792390D02*
X81607143Y-47744771D01*
X81607143Y-47744771D02*
X81845238Y-47744771D01*
X81845238Y-47744771D02*
X81940476Y-47792390D01*
X81940476Y-47792390D02*
X81988095Y-47840009D01*
X81988095Y-47840009D02*
X82035714Y-47935247D01*
X82035714Y-47935247D02*
X82035714Y-48173342D01*
X82035714Y-48173342D02*
X81988095Y-48268580D01*
X81988095Y-48268580D02*
X81940476Y-48316200D01*
X81940476Y-48316200D02*
X81845238Y-48363819D01*
X81845238Y-48363819D02*
X81607143Y-48363819D01*
X81607143Y-48363819D02*
X81511905Y-48316200D01*
X81511905Y-48316200D02*
X81464286Y-48268580D01*
X80511905Y-27863819D02*
X80511905Y-26863819D01*
X80511905Y-26863819D02*
X80750000Y-26863819D01*
X80750000Y-26863819D02*
X80892857Y-26911438D01*
X80892857Y-26911438D02*
X80988095Y-27006676D01*
X80988095Y-27006676D02*
X81035714Y-27101914D01*
X81035714Y-27101914D02*
X81083333Y-27292390D01*
X81083333Y-27292390D02*
X81083333Y-27435247D01*
X81083333Y-27435247D02*
X81035714Y-27625723D01*
X81035714Y-27625723D02*
X80988095Y-27720961D01*
X80988095Y-27720961D02*
X80892857Y-27816200D01*
X80892857Y-27816200D02*
X80750000Y-27863819D01*
X80750000Y-27863819D02*
X80511905Y-27863819D01*
X82035714Y-27863819D02*
X81464286Y-27863819D01*
X81750000Y-27863819D02*
X81750000Y-26863819D01*
X81750000Y-26863819D02*
X81654762Y-27006676D01*
X81654762Y-27006676D02*
X81559524Y-27101914D01*
X81559524Y-27101914D02*
X81464286Y-27149533D01*
X67799819Y-120095238D02*
X67799819Y-120666666D01*
X67799819Y-120380952D02*
X66799819Y-120380952D01*
X66799819Y-120380952D02*
X66942676Y-120476190D01*
X66942676Y-120476190D02*
X67037914Y-120571428D01*
X67037914Y-120571428D02*
X67085533Y-120666666D01*
X67799819Y-119666666D02*
X66799819Y-119666666D01*
X67418866Y-119571428D02*
X67799819Y-119285714D01*
X67133152Y-119285714D02*
X67514104Y-119666666D01*
X67799819Y-118285714D02*
X67323628Y-118619047D01*
X67799819Y-118857142D02*
X66799819Y-118857142D01*
X66799819Y-118857142D02*
X66799819Y-118476190D01*
X66799819Y-118476190D02*
X66847438Y-118380952D01*
X66847438Y-118380952D02*
X66895057Y-118333333D01*
X66895057Y-118333333D02*
X66990295Y-118285714D01*
X66990295Y-118285714D02*
X67133152Y-118285714D01*
X67133152Y-118285714D02*
X67228390Y-118333333D01*
X67228390Y-118333333D02*
X67276009Y-118380952D01*
X67276009Y-118380952D02*
X67323628Y-118476190D01*
X67323628Y-118476190D02*
X67323628Y-118857142D01*
X66895057Y-117904761D02*
X66847438Y-117857142D01*
X66847438Y-117857142D02*
X66799819Y-117761904D01*
X66799819Y-117761904D02*
X66799819Y-117523809D01*
X66799819Y-117523809D02*
X66847438Y-117428571D01*
X66847438Y-117428571D02*
X66895057Y-117380952D01*
X66895057Y-117380952D02*
X66990295Y-117333333D01*
X66990295Y-117333333D02*
X67085533Y-117333333D01*
X67085533Y-117333333D02*
X67228390Y-117380952D01*
X67228390Y-117380952D02*
X67799819Y-117952380D01*
X67799819Y-117952380D02*
X67799819Y-117333333D01*
X63799819Y-120057738D02*
X63799819Y-120629166D01*
X63799819Y-120343452D02*
X62799819Y-120343452D01*
X62799819Y-120343452D02*
X62942676Y-120438690D01*
X62942676Y-120438690D02*
X63037914Y-120533928D01*
X63037914Y-120533928D02*
X63085533Y-120629166D01*
X63799819Y-119629166D02*
X62799819Y-119629166D01*
X63418866Y-119533928D02*
X63799819Y-119248214D01*
X63133152Y-119248214D02*
X63514104Y-119629166D01*
X63799819Y-118248214D02*
X63323628Y-118581547D01*
X63799819Y-118819642D02*
X62799819Y-118819642D01*
X62799819Y-118819642D02*
X62799819Y-118438690D01*
X62799819Y-118438690D02*
X62847438Y-118343452D01*
X62847438Y-118343452D02*
X62895057Y-118295833D01*
X62895057Y-118295833D02*
X62990295Y-118248214D01*
X62990295Y-118248214D02*
X63133152Y-118248214D01*
X63133152Y-118248214D02*
X63228390Y-118295833D01*
X63228390Y-118295833D02*
X63276009Y-118343452D01*
X63276009Y-118343452D02*
X63323628Y-118438690D01*
X63323628Y-118438690D02*
X63323628Y-118819642D01*
X63799819Y-117295833D02*
X63799819Y-117867261D01*
X63799819Y-117581547D02*
X62799819Y-117581547D01*
X62799819Y-117581547D02*
X62942676Y-117676785D01*
X62942676Y-117676785D02*
X63037914Y-117772023D01*
X63037914Y-117772023D02*
X63085533Y-117867261D01*
X71310476Y-63034152D02*
X71310476Y-63700819D01*
X71072381Y-62653200D02*
X70834286Y-63367485D01*
X70834286Y-63367485D02*
X71453333Y-63367485D01*
X70786667Y-42380819D02*
X71453333Y-42380819D01*
X71453333Y-42380819D02*
X71024762Y-43380819D01*
X91154286Y-83116057D02*
X91201905Y-83068438D01*
X91201905Y-83068438D02*
X91297143Y-83020819D01*
X91297143Y-83020819D02*
X91535238Y-83020819D01*
X91535238Y-83020819D02*
X91630476Y-83068438D01*
X91630476Y-83068438D02*
X91678095Y-83116057D01*
X91678095Y-83116057D02*
X91725714Y-83211295D01*
X91725714Y-83211295D02*
X91725714Y-83306533D01*
X91725714Y-83306533D02*
X91678095Y-83449390D01*
X91678095Y-83449390D02*
X91106667Y-84020819D01*
X91106667Y-84020819D02*
X91725714Y-84020819D01*
X131699048Y-53159866D02*
X132460953Y-53159866D01*
X132080000Y-53540819D02*
X132080000Y-52778914D01*
X131699048Y-22679866D02*
X132460953Y-22679866D01*
X144154761Y-124704819D02*
X143678571Y-124704819D01*
X143678571Y-124704819D02*
X143678571Y-123704819D01*
X144488095Y-124181009D02*
X144821428Y-124181009D01*
X144964285Y-124704819D02*
X144488095Y-124704819D01*
X144488095Y-124704819D02*
X144488095Y-123704819D01*
X144488095Y-123704819D02*
X144964285Y-123704819D01*
X145392857Y-124704819D02*
X145392857Y-123704819D01*
X145392857Y-123704819D02*
X145630952Y-123704819D01*
X145630952Y-123704819D02*
X145773809Y-123752438D01*
X145773809Y-123752438D02*
X145869047Y-123847676D01*
X145869047Y-123847676D02*
X145916666Y-123942914D01*
X145916666Y-123942914D02*
X145964285Y-124133390D01*
X145964285Y-124133390D02*
X145964285Y-124276247D01*
X145964285Y-124276247D02*
X145916666Y-124466723D01*
X145916666Y-124466723D02*
X145869047Y-124561961D01*
X145869047Y-124561961D02*
X145773809Y-124657200D01*
X145773809Y-124657200D02*
X145630952Y-124704819D01*
X145630952Y-124704819D02*
X145392857Y-124704819D01*
X146916666Y-124704819D02*
X146345238Y-124704819D01*
X146630952Y-124704819D02*
X146630952Y-123704819D01*
X146630952Y-123704819D02*
X146535714Y-123847676D01*
X146535714Y-123847676D02*
X146440476Y-123942914D01*
X146440476Y-123942914D02*
X146345238Y-123990533D01*
X147488095Y-124133390D02*
X147392857Y-124085771D01*
X147392857Y-124085771D02*
X147345238Y-124038152D01*
X147345238Y-124038152D02*
X147297619Y-123942914D01*
X147297619Y-123942914D02*
X147297619Y-123895295D01*
X147297619Y-123895295D02*
X147345238Y-123800057D01*
X147345238Y-123800057D02*
X147392857Y-123752438D01*
X147392857Y-123752438D02*
X147488095Y-123704819D01*
X147488095Y-123704819D02*
X147678571Y-123704819D01*
X147678571Y-123704819D02*
X147773809Y-123752438D01*
X147773809Y-123752438D02*
X147821428Y-123800057D01*
X147821428Y-123800057D02*
X147869047Y-123895295D01*
X147869047Y-123895295D02*
X147869047Y-123942914D01*
X147869047Y-123942914D02*
X147821428Y-124038152D01*
X147821428Y-124038152D02*
X147773809Y-124085771D01*
X147773809Y-124085771D02*
X147678571Y-124133390D01*
X147678571Y-124133390D02*
X147488095Y-124133390D01*
X147488095Y-124133390D02*
X147392857Y-124181009D01*
X147392857Y-124181009D02*
X147345238Y-124228628D01*
X147345238Y-124228628D02*
X147297619Y-124323866D01*
X147297619Y-124323866D02*
X147297619Y-124514342D01*
X147297619Y-124514342D02*
X147345238Y-124609580D01*
X147345238Y-124609580D02*
X147392857Y-124657200D01*
X147392857Y-124657200D02*
X147488095Y-124704819D01*
X147488095Y-124704819D02*
X147678571Y-124704819D01*
X147678571Y-124704819D02*
X147773809Y-124657200D01*
X147773809Y-124657200D02*
X147821428Y-124609580D01*
X147821428Y-124609580D02*
X147869047Y-124514342D01*
X147869047Y-124514342D02*
X147869047Y-124323866D01*
X147869047Y-124323866D02*
X147821428Y-124228628D01*
X147821428Y-124228628D02*
X147773809Y-124181009D01*
X147773809Y-124181009D02*
X147678571Y-124133390D01*
X111760000Y-22060819D02*
X111760000Y-22298914D01*
X111521905Y-22203676D02*
X111760000Y-22298914D01*
X111760000Y-22298914D02*
X111998095Y-22203676D01*
X111617143Y-22489390D02*
X111760000Y-22298914D01*
X111760000Y-22298914D02*
X111902857Y-22489390D01*
X111426667Y-83020819D02*
X112045714Y-83020819D01*
X112045714Y-83020819D02*
X111712381Y-83401771D01*
X111712381Y-83401771D02*
X111855238Y-83401771D01*
X111855238Y-83401771D02*
X111950476Y-83449390D01*
X111950476Y-83449390D02*
X111998095Y-83497009D01*
X111998095Y-83497009D02*
X112045714Y-83592247D01*
X112045714Y-83592247D02*
X112045714Y-83830342D01*
X112045714Y-83830342D02*
X111998095Y-83925580D01*
X111998095Y-83925580D02*
X111950476Y-83973200D01*
X111950476Y-83973200D02*
X111855238Y-84020819D01*
X111855238Y-84020819D02*
X111569524Y-84020819D01*
X111569524Y-84020819D02*
X111474286Y-83973200D01*
X111474286Y-83973200D02*
X111426667Y-83925580D01*
X111950476Y-62700819D02*
X111760000Y-62700819D01*
X111760000Y-62700819D02*
X111664762Y-62748438D01*
X111664762Y-62748438D02*
X111617143Y-62796057D01*
X111617143Y-62796057D02*
X111521905Y-62938914D01*
X111521905Y-62938914D02*
X111474286Y-63129390D01*
X111474286Y-63129390D02*
X111474286Y-63510342D01*
X111474286Y-63510342D02*
X111521905Y-63605580D01*
X111521905Y-63605580D02*
X111569524Y-63653200D01*
X111569524Y-63653200D02*
X111664762Y-63700819D01*
X111664762Y-63700819D02*
X111855238Y-63700819D01*
X111855238Y-63700819D02*
X111950476Y-63653200D01*
X111950476Y-63653200D02*
X111998095Y-63605580D01*
X111998095Y-63605580D02*
X112045714Y-63510342D01*
X112045714Y-63510342D02*
X112045714Y-63272247D01*
X112045714Y-63272247D02*
X111998095Y-63177009D01*
X111998095Y-63177009D02*
X111950476Y-63129390D01*
X111950476Y-63129390D02*
X111855238Y-63081771D01*
X111855238Y-63081771D02*
X111664762Y-63081771D01*
X111664762Y-63081771D02*
X111569524Y-63129390D01*
X111569524Y-63129390D02*
X111521905Y-63177009D01*
X111521905Y-63177009D02*
X111474286Y-63272247D01*
X131699048Y-93657009D02*
X132460953Y-93657009D01*
X132460953Y-93942723D02*
X131699048Y-93942723D01*
X81232381Y-103340819D02*
X81327619Y-103340819D01*
X81327619Y-103340819D02*
X81422857Y-103388438D01*
X81422857Y-103388438D02*
X81470476Y-103436057D01*
X81470476Y-103436057D02*
X81518095Y-103531295D01*
X81518095Y-103531295D02*
X81565714Y-103721771D01*
X81565714Y-103721771D02*
X81565714Y-103959866D01*
X81565714Y-103959866D02*
X81518095Y-104150342D01*
X81518095Y-104150342D02*
X81470476Y-104245580D01*
X81470476Y-104245580D02*
X81422857Y-104293200D01*
X81422857Y-104293200D02*
X81327619Y-104340819D01*
X81327619Y-104340819D02*
X81232381Y-104340819D01*
X81232381Y-104340819D02*
X81137143Y-104293200D01*
X81137143Y-104293200D02*
X81089524Y-104245580D01*
X81089524Y-104245580D02*
X81041905Y-104150342D01*
X81041905Y-104150342D02*
X80994286Y-103959866D01*
X80994286Y-103959866D02*
X80994286Y-103721771D01*
X80994286Y-103721771D02*
X81041905Y-103531295D01*
X81041905Y-103531295D02*
X81089524Y-103436057D01*
X81089524Y-103436057D02*
X81137143Y-103388438D01*
X81137143Y-103388438D02*
X81232381Y-103340819D01*
X91344762Y-42809390D02*
X91249524Y-42761771D01*
X91249524Y-42761771D02*
X91201905Y-42714152D01*
X91201905Y-42714152D02*
X91154286Y-42618914D01*
X91154286Y-42618914D02*
X91154286Y-42571295D01*
X91154286Y-42571295D02*
X91201905Y-42476057D01*
X91201905Y-42476057D02*
X91249524Y-42428438D01*
X91249524Y-42428438D02*
X91344762Y-42380819D01*
X91344762Y-42380819D02*
X91535238Y-42380819D01*
X91535238Y-42380819D02*
X91630476Y-42428438D01*
X91630476Y-42428438D02*
X91678095Y-42476057D01*
X91678095Y-42476057D02*
X91725714Y-42571295D01*
X91725714Y-42571295D02*
X91725714Y-42618914D01*
X91725714Y-42618914D02*
X91678095Y-42714152D01*
X91678095Y-42714152D02*
X91630476Y-42761771D01*
X91630476Y-42761771D02*
X91535238Y-42809390D01*
X91535238Y-42809390D02*
X91344762Y-42809390D01*
X91344762Y-42809390D02*
X91249524Y-42857009D01*
X91249524Y-42857009D02*
X91201905Y-42904628D01*
X91201905Y-42904628D02*
X91154286Y-42999866D01*
X91154286Y-42999866D02*
X91154286Y-43190342D01*
X91154286Y-43190342D02*
X91201905Y-43285580D01*
X91201905Y-43285580D02*
X91249524Y-43333200D01*
X91249524Y-43333200D02*
X91344762Y-43380819D01*
X91344762Y-43380819D02*
X91535238Y-43380819D01*
X91535238Y-43380819D02*
X91630476Y-43333200D01*
X91630476Y-43333200D02*
X91678095Y-43285580D01*
X91678095Y-43285580D02*
X91725714Y-43190342D01*
X91725714Y-43190342D02*
X91725714Y-42999866D01*
X91725714Y-42999866D02*
X91678095Y-42904628D01*
X91678095Y-42904628D02*
X91630476Y-42857009D01*
X91630476Y-42857009D02*
X91535238Y-42809390D01*
X111760000Y-104245580D02*
X111807619Y-104293200D01*
X111807619Y-104293200D02*
X111760000Y-104340819D01*
X111760000Y-104340819D02*
X111712381Y-104293200D01*
X111712381Y-104293200D02*
X111760000Y-104245580D01*
X111760000Y-104245580D02*
X111760000Y-104340819D01*
X150404761Y-124704819D02*
X149928571Y-124704819D01*
X149928571Y-124704819D02*
X149928571Y-123704819D01*
X150738095Y-124181009D02*
X151071428Y-124181009D01*
X151214285Y-124704819D02*
X150738095Y-124704819D01*
X150738095Y-124704819D02*
X150738095Y-123704819D01*
X150738095Y-123704819D02*
X151214285Y-123704819D01*
X151642857Y-124704819D02*
X151642857Y-123704819D01*
X151642857Y-123704819D02*
X151880952Y-123704819D01*
X151880952Y-123704819D02*
X152023809Y-123752438D01*
X152023809Y-123752438D02*
X152119047Y-123847676D01*
X152119047Y-123847676D02*
X152166666Y-123942914D01*
X152166666Y-123942914D02*
X152214285Y-124133390D01*
X152214285Y-124133390D02*
X152214285Y-124276247D01*
X152214285Y-124276247D02*
X152166666Y-124466723D01*
X152166666Y-124466723D02*
X152119047Y-124561961D01*
X152119047Y-124561961D02*
X152023809Y-124657200D01*
X152023809Y-124657200D02*
X151880952Y-124704819D01*
X151880952Y-124704819D02*
X151642857Y-124704819D01*
X153166666Y-124704819D02*
X152595238Y-124704819D01*
X152880952Y-124704819D02*
X152880952Y-123704819D01*
X152880952Y-123704819D02*
X152785714Y-123847676D01*
X152785714Y-123847676D02*
X152690476Y-123942914D01*
X152690476Y-123942914D02*
X152595238Y-123990533D01*
X153642857Y-124704819D02*
X153833333Y-124704819D01*
X153833333Y-124704819D02*
X153928571Y-124657200D01*
X153928571Y-124657200D02*
X153976190Y-124609580D01*
X153976190Y-124609580D02*
X154071428Y-124466723D01*
X154071428Y-124466723D02*
X154119047Y-124276247D01*
X154119047Y-124276247D02*
X154119047Y-123895295D01*
X154119047Y-123895295D02*
X154071428Y-123800057D01*
X154071428Y-123800057D02*
X154023809Y-123752438D01*
X154023809Y-123752438D02*
X153928571Y-123704819D01*
X153928571Y-123704819D02*
X153738095Y-123704819D01*
X153738095Y-123704819D02*
X153642857Y-123752438D01*
X153642857Y-123752438D02*
X153595238Y-123800057D01*
X153595238Y-123800057D02*
X153547619Y-123895295D01*
X153547619Y-123895295D02*
X153547619Y-124133390D01*
X153547619Y-124133390D02*
X153595238Y-124228628D01*
X153595238Y-124228628D02*
X153642857Y-124276247D01*
X153642857Y-124276247D02*
X153738095Y-124323866D01*
X153738095Y-124323866D02*
X153928571Y-124323866D01*
X153928571Y-124323866D02*
X154023809Y-124276247D01*
X154023809Y-124276247D02*
X154071428Y-124228628D01*
X154071428Y-124228628D02*
X154119047Y-124133390D01*
X91678095Y-62700819D02*
X91201905Y-62700819D01*
X91201905Y-62700819D02*
X91154286Y-63177009D01*
X91154286Y-63177009D02*
X91201905Y-63129390D01*
X91201905Y-63129390D02*
X91297143Y-63081771D01*
X91297143Y-63081771D02*
X91535238Y-63081771D01*
X91535238Y-63081771D02*
X91630476Y-63129390D01*
X91630476Y-63129390D02*
X91678095Y-63177009D01*
X91678095Y-63177009D02*
X91725714Y-63272247D01*
X91725714Y-63272247D02*
X91725714Y-63510342D01*
X91725714Y-63510342D02*
X91678095Y-63605580D01*
X91678095Y-63605580D02*
X91630476Y-63653200D01*
X91630476Y-63653200D02*
X91535238Y-63700819D01*
X91535238Y-63700819D02*
X91297143Y-63700819D01*
X91297143Y-63700819D02*
X91201905Y-63653200D01*
X91201905Y-63653200D02*
X91154286Y-63605580D01*
X67453333Y-23060819D02*
X67453333Y-22060819D01*
X67453333Y-22060819D02*
X67786666Y-22775104D01*
X67786666Y-22775104D02*
X68119999Y-22060819D01*
X68119999Y-22060819D02*
X68119999Y-23060819D01*
X69024761Y-23060819D02*
X69024761Y-22537009D01*
X69024761Y-22537009D02*
X68977142Y-22441771D01*
X68977142Y-22441771D02*
X68881904Y-22394152D01*
X68881904Y-22394152D02*
X68691428Y-22394152D01*
X68691428Y-22394152D02*
X68596190Y-22441771D01*
X69024761Y-23013200D02*
X68929523Y-23060819D01*
X68929523Y-23060819D02*
X68691428Y-23060819D01*
X68691428Y-23060819D02*
X68596190Y-23013200D01*
X68596190Y-23013200D02*
X68548571Y-22917961D01*
X68548571Y-22917961D02*
X68548571Y-22822723D01*
X68548571Y-22822723D02*
X68596190Y-22727485D01*
X68596190Y-22727485D02*
X68691428Y-22679866D01*
X68691428Y-22679866D02*
X68929523Y-22679866D01*
X68929523Y-22679866D02*
X69024761Y-22632247D01*
X69929523Y-23013200D02*
X69834285Y-23060819D01*
X69834285Y-23060819D02*
X69643809Y-23060819D01*
X69643809Y-23060819D02*
X69548571Y-23013200D01*
X69548571Y-23013200D02*
X69500952Y-22965580D01*
X69500952Y-22965580D02*
X69453333Y-22870342D01*
X69453333Y-22870342D02*
X69453333Y-22584628D01*
X69453333Y-22584628D02*
X69500952Y-22489390D01*
X69500952Y-22489390D02*
X69548571Y-22441771D01*
X69548571Y-22441771D02*
X69643809Y-22394152D01*
X69643809Y-22394152D02*
X69834285Y-22394152D01*
X69834285Y-22394152D02*
X69929523Y-22441771D01*
X70358095Y-23060819D02*
X70358095Y-22394152D01*
X70358095Y-22584628D02*
X70405714Y-22489390D01*
X70405714Y-22489390D02*
X70453333Y-22441771D01*
X70453333Y-22441771D02*
X70548571Y-22394152D01*
X70548571Y-22394152D02*
X70643809Y-22394152D01*
X71120000Y-23060819D02*
X71024762Y-23013200D01*
X71024762Y-23013200D02*
X70977143Y-22965580D01*
X70977143Y-22965580D02*
X70929524Y-22870342D01*
X70929524Y-22870342D02*
X70929524Y-22584628D01*
X70929524Y-22584628D02*
X70977143Y-22489390D01*
X70977143Y-22489390D02*
X71024762Y-22441771D01*
X71024762Y-22441771D02*
X71120000Y-22394152D01*
X71120000Y-22394152D02*
X71262857Y-22394152D01*
X71262857Y-22394152D02*
X71358095Y-22441771D01*
X71358095Y-22441771D02*
X71405714Y-22489390D01*
X71405714Y-22489390D02*
X71453333Y-22584628D01*
X71453333Y-22584628D02*
X71453333Y-22870342D01*
X71453333Y-22870342D02*
X71405714Y-22965580D01*
X71405714Y-22965580D02*
X71358095Y-23013200D01*
X71358095Y-23013200D02*
X71262857Y-23060819D01*
X71262857Y-23060819D02*
X71120000Y-23060819D01*
X72643810Y-23060819D02*
X72643810Y-22060819D01*
X73215238Y-23060819D02*
X72786667Y-22489390D01*
X73215238Y-22060819D02*
X72643810Y-22632247D01*
X74024762Y-23013200D02*
X73929524Y-23060819D01*
X73929524Y-23060819D02*
X73739048Y-23060819D01*
X73739048Y-23060819D02*
X73643810Y-23013200D01*
X73643810Y-23013200D02*
X73596191Y-22917961D01*
X73596191Y-22917961D02*
X73596191Y-22537009D01*
X73596191Y-22537009D02*
X73643810Y-22441771D01*
X73643810Y-22441771D02*
X73739048Y-22394152D01*
X73739048Y-22394152D02*
X73929524Y-22394152D01*
X73929524Y-22394152D02*
X74024762Y-22441771D01*
X74024762Y-22441771D02*
X74072381Y-22537009D01*
X74072381Y-22537009D02*
X74072381Y-22632247D01*
X74072381Y-22632247D02*
X73596191Y-22727485D01*
X74405715Y-22394152D02*
X74643810Y-23060819D01*
X74881905Y-22394152D02*
X74643810Y-23060819D01*
X74643810Y-23060819D02*
X74548572Y-23298914D01*
X74548572Y-23298914D02*
X74500953Y-23346533D01*
X74500953Y-23346533D02*
X74405715Y-23394152D01*
X71405714Y-84020819D02*
X70834286Y-84020819D01*
X71120000Y-84020819D02*
X71120000Y-83020819D01*
X71120000Y-83020819D02*
X71024762Y-83163676D01*
X71024762Y-83163676D02*
X70929524Y-83258914D01*
X70929524Y-83258914D02*
X70834286Y-83306533D01*
X111569524Y-43380819D02*
X111760000Y-43380819D01*
X111760000Y-43380819D02*
X111855238Y-43333200D01*
X111855238Y-43333200D02*
X111902857Y-43285580D01*
X111902857Y-43285580D02*
X111998095Y-43142723D01*
X111998095Y-43142723D02*
X112045714Y-42952247D01*
X112045714Y-42952247D02*
X112045714Y-42571295D01*
X112045714Y-42571295D02*
X111998095Y-42476057D01*
X111998095Y-42476057D02*
X111950476Y-42428438D01*
X111950476Y-42428438D02*
X111855238Y-42380819D01*
X111855238Y-42380819D02*
X111664762Y-42380819D01*
X111664762Y-42380819D02*
X111569524Y-42428438D01*
X111569524Y-42428438D02*
X111521905Y-42476057D01*
X111521905Y-42476057D02*
X111474286Y-42571295D01*
X111474286Y-42571295D02*
X111474286Y-42809390D01*
X111474286Y-42809390D02*
X111521905Y-42904628D01*
X111521905Y-42904628D02*
X111569524Y-42952247D01*
X111569524Y-42952247D02*
X111664762Y-42999866D01*
X111664762Y-42999866D02*
X111855238Y-42999866D01*
X111855238Y-42999866D02*
X111950476Y-42952247D01*
X111950476Y-42952247D02*
X111998095Y-42904628D01*
X111998095Y-42904628D02*
X112045714Y-42809390D01*
X91868571Y-22013200D02*
X91011429Y-23298914D01*
D10*
%TO.C,D17*%
X140131000Y-110750000D02*
X139369000Y-111385000D01*
X139369000Y-110115000D01*
X140131000Y-110750000D01*
G36*
X140131000Y-110750000D02*
G01*
X139369000Y-111385000D01*
X139369000Y-110115000D01*
X140131000Y-110750000D01*
G37*
D14*
X142163000Y-111893000D02*
X142163000Y-109607000D01*
X142163000Y-109607000D02*
X137337000Y-109607000D01*
X137337000Y-109607000D02*
X137337000Y-111893000D01*
X137337000Y-111893000D02*
X142163000Y-111893000D01*
D10*
X141020000Y-112147000D02*
X140067500Y-112147000D01*
X140067500Y-111893000D01*
X141020000Y-111893000D01*
X141020000Y-112147000D01*
G36*
X141020000Y-112147000D02*
G01*
X140067500Y-112147000D01*
X140067500Y-111893000D01*
X141020000Y-111893000D01*
X141020000Y-112147000D01*
G37*
X141020000Y-109607000D02*
X140067500Y-109607000D01*
X140067500Y-109353000D01*
X141020000Y-109353000D01*
X141020000Y-109607000D01*
G36*
X141020000Y-109607000D02*
G01*
X140067500Y-109607000D01*
X140067500Y-109353000D01*
X141020000Y-109353000D01*
X141020000Y-109607000D01*
G37*
D14*
X140131000Y-111385000D02*
X140131000Y-110115000D01*
D10*
%TO.C,D11*%
X139881000Y-81250000D02*
X139119000Y-81885000D01*
X139119000Y-80615000D01*
X139881000Y-81250000D01*
G36*
X139881000Y-81250000D02*
G01*
X139119000Y-81885000D01*
X139119000Y-80615000D01*
X139881000Y-81250000D01*
G37*
D14*
X141913000Y-82393000D02*
X141913000Y-80107000D01*
X141913000Y-80107000D02*
X137087000Y-80107000D01*
X137087000Y-80107000D02*
X137087000Y-82393000D01*
X137087000Y-82393000D02*
X141913000Y-82393000D01*
D10*
X140770000Y-82647000D02*
X139817500Y-82647000D01*
X139817500Y-82393000D01*
X140770000Y-82393000D01*
X140770000Y-82647000D01*
G36*
X140770000Y-82647000D02*
G01*
X139817500Y-82647000D01*
X139817500Y-82393000D01*
X140770000Y-82393000D01*
X140770000Y-82647000D01*
G37*
X140770000Y-80107000D02*
X139817500Y-80107000D01*
X139817500Y-79853000D01*
X140770000Y-79853000D01*
X140770000Y-80107000D01*
G36*
X140770000Y-80107000D02*
G01*
X139817500Y-80107000D01*
X139817500Y-79853000D01*
X140770000Y-79853000D01*
X140770000Y-80107000D01*
G37*
D14*
X139881000Y-81885000D02*
X139881000Y-80615000D01*
D10*
%TO.C,D4*%
X139881000Y-40750000D02*
X139119000Y-41385000D01*
X139119000Y-40115000D01*
X139881000Y-40750000D01*
G36*
X139881000Y-40750000D02*
G01*
X139119000Y-41385000D01*
X139119000Y-40115000D01*
X139881000Y-40750000D01*
G37*
D14*
X141913000Y-41893000D02*
X141913000Y-39607000D01*
X141913000Y-39607000D02*
X137087000Y-39607000D01*
X137087000Y-39607000D02*
X137087000Y-41893000D01*
X137087000Y-41893000D02*
X141913000Y-41893000D01*
D10*
X140770000Y-42147000D02*
X139817500Y-42147000D01*
X139817500Y-41893000D01*
X140770000Y-41893000D01*
X140770000Y-42147000D01*
G36*
X140770000Y-42147000D02*
G01*
X139817500Y-42147000D01*
X139817500Y-41893000D01*
X140770000Y-41893000D01*
X140770000Y-42147000D01*
G37*
X140770000Y-39607000D02*
X139817500Y-39607000D01*
X139817500Y-39353000D01*
X140770000Y-39353000D01*
X140770000Y-39607000D01*
G36*
X140770000Y-39607000D02*
G01*
X139817500Y-39607000D01*
X139817500Y-39353000D01*
X140770000Y-39353000D01*
X140770000Y-39607000D01*
G37*
D14*
X139881000Y-41385000D02*
X139881000Y-40115000D01*
D10*
%TO.C,D3*%
X122131000Y-25000000D02*
X121369000Y-25635000D01*
X121369000Y-24365000D01*
X122131000Y-25000000D01*
G36*
X122131000Y-25000000D02*
G01*
X121369000Y-25635000D01*
X121369000Y-24365000D01*
X122131000Y-25000000D01*
G37*
D14*
X124163000Y-26143000D02*
X124163000Y-23857000D01*
X124163000Y-23857000D02*
X119337000Y-23857000D01*
X119337000Y-23857000D02*
X119337000Y-26143000D01*
X119337000Y-26143000D02*
X124163000Y-26143000D01*
D10*
X123020000Y-26397000D02*
X122067500Y-26397000D01*
X122067500Y-26143000D01*
X123020000Y-26143000D01*
X123020000Y-26397000D01*
G36*
X123020000Y-26397000D02*
G01*
X122067500Y-26397000D01*
X122067500Y-26143000D01*
X123020000Y-26143000D01*
X123020000Y-26397000D01*
G37*
X123020000Y-23857000D02*
X122067500Y-23857000D01*
X122067500Y-23603000D01*
X123020000Y-23603000D01*
X123020000Y-23857000D01*
G36*
X123020000Y-23857000D02*
G01*
X122067500Y-23857000D01*
X122067500Y-23603000D01*
X123020000Y-23603000D01*
X123020000Y-23857000D01*
G37*
D14*
X122131000Y-25635000D02*
X122131000Y-24365000D01*
D10*
%TO.C,D7*%
X122131000Y-45250000D02*
X121369000Y-45885000D01*
X121369000Y-44615000D01*
X122131000Y-45250000D01*
G36*
X122131000Y-45250000D02*
G01*
X121369000Y-45885000D01*
X121369000Y-44615000D01*
X122131000Y-45250000D01*
G37*
D14*
X124163000Y-46393000D02*
X124163000Y-44107000D01*
X124163000Y-44107000D02*
X119337000Y-44107000D01*
X119337000Y-44107000D02*
X119337000Y-46393000D01*
X119337000Y-46393000D02*
X124163000Y-46393000D01*
D10*
X123020000Y-46647000D02*
X122067500Y-46647000D01*
X122067500Y-46393000D01*
X123020000Y-46393000D01*
X123020000Y-46647000D01*
G36*
X123020000Y-46647000D02*
G01*
X122067500Y-46647000D01*
X122067500Y-46393000D01*
X123020000Y-46393000D01*
X123020000Y-46647000D01*
G37*
X123020000Y-44107000D02*
X122067500Y-44107000D01*
X122067500Y-43853000D01*
X123020000Y-43853000D01*
X123020000Y-44107000D01*
G36*
X123020000Y-44107000D02*
G01*
X122067500Y-44107000D01*
X122067500Y-43853000D01*
X123020000Y-43853000D01*
X123020000Y-44107000D01*
G37*
D14*
X122131000Y-45885000D02*
X122131000Y-44615000D01*
D10*
%TO.C,D10*%
X122131000Y-65750000D02*
X121369000Y-66385000D01*
X121369000Y-65115000D01*
X122131000Y-65750000D01*
G36*
X122131000Y-65750000D02*
G01*
X121369000Y-66385000D01*
X121369000Y-65115000D01*
X122131000Y-65750000D01*
G37*
D14*
X124163000Y-66893000D02*
X124163000Y-64607000D01*
X124163000Y-64607000D02*
X119337000Y-64607000D01*
X119337000Y-64607000D02*
X119337000Y-66893000D01*
X119337000Y-66893000D02*
X124163000Y-66893000D01*
D10*
X123020000Y-67147000D02*
X122067500Y-67147000D01*
X122067500Y-66893000D01*
X123020000Y-66893000D01*
X123020000Y-67147000D01*
G36*
X123020000Y-67147000D02*
G01*
X122067500Y-67147000D01*
X122067500Y-66893000D01*
X123020000Y-66893000D01*
X123020000Y-67147000D01*
G37*
X123020000Y-64607000D02*
X122067500Y-64607000D01*
X122067500Y-64353000D01*
X123020000Y-64353000D01*
X123020000Y-64607000D01*
G36*
X123020000Y-64607000D02*
G01*
X122067500Y-64607000D01*
X122067500Y-64353000D01*
X123020000Y-64353000D01*
X123020000Y-64607000D01*
G37*
D14*
X122131000Y-66385000D02*
X122131000Y-65115000D01*
D10*
%TO.C,D14*%
X122131000Y-86500000D02*
X121369000Y-87135000D01*
X121369000Y-85865000D01*
X122131000Y-86500000D01*
G36*
X122131000Y-86500000D02*
G01*
X121369000Y-87135000D01*
X121369000Y-85865000D01*
X122131000Y-86500000D01*
G37*
D14*
X124163000Y-87643000D02*
X124163000Y-85357000D01*
X124163000Y-85357000D02*
X119337000Y-85357000D01*
X119337000Y-85357000D02*
X119337000Y-87643000D01*
X119337000Y-87643000D02*
X124163000Y-87643000D01*
D10*
X123020000Y-87897000D02*
X122067500Y-87897000D01*
X122067500Y-87643000D01*
X123020000Y-87643000D01*
X123020000Y-87897000D01*
G36*
X123020000Y-87897000D02*
G01*
X122067500Y-87897000D01*
X122067500Y-87643000D01*
X123020000Y-87643000D01*
X123020000Y-87897000D01*
G37*
X123020000Y-85357000D02*
X122067500Y-85357000D01*
X122067500Y-85103000D01*
X123020000Y-85103000D01*
X123020000Y-85357000D01*
G36*
X123020000Y-85357000D02*
G01*
X122067500Y-85357000D01*
X122067500Y-85103000D01*
X123020000Y-85103000D01*
X123020000Y-85357000D01*
G37*
D14*
X122131000Y-87135000D02*
X122131000Y-85865000D01*
D10*
%TO.C,D16*%
X122131000Y-106500000D02*
X121369000Y-107135000D01*
X121369000Y-105865000D01*
X122131000Y-106500000D01*
G36*
X122131000Y-106500000D02*
G01*
X121369000Y-107135000D01*
X121369000Y-105865000D01*
X122131000Y-106500000D01*
G37*
D14*
X124163000Y-107643000D02*
X124163000Y-105357000D01*
X124163000Y-105357000D02*
X119337000Y-105357000D01*
X119337000Y-105357000D02*
X119337000Y-107643000D01*
X119337000Y-107643000D02*
X124163000Y-107643000D01*
D10*
X123020000Y-107897000D02*
X122067500Y-107897000D01*
X122067500Y-107643000D01*
X123020000Y-107643000D01*
X123020000Y-107897000D01*
G36*
X123020000Y-107897000D02*
G01*
X122067500Y-107897000D01*
X122067500Y-107643000D01*
X123020000Y-107643000D01*
X123020000Y-107897000D01*
G37*
X123020000Y-105357000D02*
X122067500Y-105357000D01*
X122067500Y-105103000D01*
X123020000Y-105103000D01*
X123020000Y-105357000D01*
G36*
X123020000Y-105357000D02*
G01*
X122067500Y-105357000D01*
X122067500Y-105103000D01*
X123020000Y-105103000D01*
X123020000Y-105357000D01*
G37*
D14*
X122131000Y-107135000D02*
X122131000Y-105865000D01*
D10*
%TO.C,D2*%
X101881000Y-25250000D02*
X101119000Y-25885000D01*
X101119000Y-24615000D01*
X101881000Y-25250000D01*
G36*
X101881000Y-25250000D02*
G01*
X101119000Y-25885000D01*
X101119000Y-24615000D01*
X101881000Y-25250000D01*
G37*
D14*
X103913000Y-26393000D02*
X103913000Y-24107000D01*
X103913000Y-24107000D02*
X99087000Y-24107000D01*
X99087000Y-24107000D02*
X99087000Y-26393000D01*
X99087000Y-26393000D02*
X103913000Y-26393000D01*
D10*
X102770000Y-26647000D02*
X101817500Y-26647000D01*
X101817500Y-26393000D01*
X102770000Y-26393000D01*
X102770000Y-26647000D01*
G36*
X102770000Y-26647000D02*
G01*
X101817500Y-26647000D01*
X101817500Y-26393000D01*
X102770000Y-26393000D01*
X102770000Y-26647000D01*
G37*
X102770000Y-24107000D02*
X101817500Y-24107000D01*
X101817500Y-23853000D01*
X102770000Y-23853000D01*
X102770000Y-24107000D01*
G36*
X102770000Y-24107000D02*
G01*
X101817500Y-24107000D01*
X101817500Y-23853000D01*
X102770000Y-23853000D01*
X102770000Y-24107000D01*
G37*
D14*
X101881000Y-25885000D02*
X101881000Y-24615000D01*
D10*
%TO.C,D6*%
X101881000Y-45750000D02*
X101119000Y-46385000D01*
X101119000Y-45115000D01*
X101881000Y-45750000D01*
G36*
X101881000Y-45750000D02*
G01*
X101119000Y-46385000D01*
X101119000Y-45115000D01*
X101881000Y-45750000D01*
G37*
D14*
X103913000Y-46893000D02*
X103913000Y-44607000D01*
X103913000Y-44607000D02*
X99087000Y-44607000D01*
X99087000Y-44607000D02*
X99087000Y-46893000D01*
X99087000Y-46893000D02*
X103913000Y-46893000D01*
D10*
X102770000Y-47147000D02*
X101817500Y-47147000D01*
X101817500Y-46893000D01*
X102770000Y-46893000D01*
X102770000Y-47147000D01*
G36*
X102770000Y-47147000D02*
G01*
X101817500Y-47147000D01*
X101817500Y-46893000D01*
X102770000Y-46893000D01*
X102770000Y-47147000D01*
G37*
X102770000Y-44607000D02*
X101817500Y-44607000D01*
X101817500Y-44353000D01*
X102770000Y-44353000D01*
X102770000Y-44607000D01*
G36*
X102770000Y-44607000D02*
G01*
X101817500Y-44607000D01*
X101817500Y-44353000D01*
X102770000Y-44353000D01*
X102770000Y-44607000D01*
G37*
D14*
X101881000Y-46385000D02*
X101881000Y-45115000D01*
D10*
%TO.C,D9*%
X101881000Y-65750000D02*
X101119000Y-66385000D01*
X101119000Y-65115000D01*
X101881000Y-65750000D01*
G36*
X101881000Y-65750000D02*
G01*
X101119000Y-66385000D01*
X101119000Y-65115000D01*
X101881000Y-65750000D01*
G37*
D14*
X103913000Y-66893000D02*
X103913000Y-64607000D01*
X103913000Y-64607000D02*
X99087000Y-64607000D01*
X99087000Y-64607000D02*
X99087000Y-66893000D01*
X99087000Y-66893000D02*
X103913000Y-66893000D01*
D10*
X102770000Y-67147000D02*
X101817500Y-67147000D01*
X101817500Y-66893000D01*
X102770000Y-66893000D01*
X102770000Y-67147000D01*
G36*
X102770000Y-67147000D02*
G01*
X101817500Y-67147000D01*
X101817500Y-66893000D01*
X102770000Y-66893000D01*
X102770000Y-67147000D01*
G37*
X102770000Y-64607000D02*
X101817500Y-64607000D01*
X101817500Y-64353000D01*
X102770000Y-64353000D01*
X102770000Y-64607000D01*
G36*
X102770000Y-64607000D02*
G01*
X101817500Y-64607000D01*
X101817500Y-64353000D01*
X102770000Y-64353000D01*
X102770000Y-64607000D01*
G37*
D14*
X101881000Y-66385000D02*
X101881000Y-65115000D01*
D10*
%TO.C,D13*%
X101881000Y-86250000D02*
X101119000Y-86885000D01*
X101119000Y-85615000D01*
X101881000Y-86250000D01*
G36*
X101881000Y-86250000D02*
G01*
X101119000Y-86885000D01*
X101119000Y-85615000D01*
X101881000Y-86250000D01*
G37*
D14*
X103913000Y-87393000D02*
X103913000Y-85107000D01*
X103913000Y-85107000D02*
X99087000Y-85107000D01*
X99087000Y-85107000D02*
X99087000Y-87393000D01*
X99087000Y-87393000D02*
X103913000Y-87393000D01*
D10*
X102770000Y-87647000D02*
X101817500Y-87647000D01*
X101817500Y-87393000D01*
X102770000Y-87393000D01*
X102770000Y-87647000D01*
G36*
X102770000Y-87647000D02*
G01*
X101817500Y-87647000D01*
X101817500Y-87393000D01*
X102770000Y-87393000D01*
X102770000Y-87647000D01*
G37*
X102770000Y-85107000D02*
X101817500Y-85107000D01*
X101817500Y-84853000D01*
X102770000Y-84853000D01*
X102770000Y-85107000D01*
G36*
X102770000Y-85107000D02*
G01*
X101817500Y-85107000D01*
X101817500Y-84853000D01*
X102770000Y-84853000D01*
X102770000Y-85107000D01*
G37*
D14*
X101881000Y-86885000D02*
X101881000Y-85615000D01*
D10*
%TO.C,D15*%
X92131000Y-106500000D02*
X91369000Y-107135000D01*
X91369000Y-105865000D01*
X92131000Y-106500000D01*
G36*
X92131000Y-106500000D02*
G01*
X91369000Y-107135000D01*
X91369000Y-105865000D01*
X92131000Y-106500000D01*
G37*
D14*
X94163000Y-107643000D02*
X94163000Y-105357000D01*
X94163000Y-105357000D02*
X89337000Y-105357000D01*
X89337000Y-105357000D02*
X89337000Y-107643000D01*
X89337000Y-107643000D02*
X94163000Y-107643000D01*
D10*
X93020000Y-107897000D02*
X92067500Y-107897000D01*
X92067500Y-107643000D01*
X93020000Y-107643000D01*
X93020000Y-107897000D01*
G36*
X93020000Y-107897000D02*
G01*
X92067500Y-107897000D01*
X92067500Y-107643000D01*
X93020000Y-107643000D01*
X93020000Y-107897000D01*
G37*
X93020000Y-105357000D02*
X92067500Y-105357000D01*
X92067500Y-105103000D01*
X93020000Y-105103000D01*
X93020000Y-105357000D01*
G36*
X93020000Y-105357000D02*
G01*
X92067500Y-105357000D01*
X92067500Y-105103000D01*
X93020000Y-105103000D01*
X93020000Y-105357000D01*
G37*
D14*
X92131000Y-107135000D02*
X92131000Y-105865000D01*
D10*
%TO.C,D12*%
X81631000Y-86250000D02*
X80869000Y-86885000D01*
X80869000Y-85615000D01*
X81631000Y-86250000D01*
G36*
X81631000Y-86250000D02*
G01*
X80869000Y-86885000D01*
X80869000Y-85615000D01*
X81631000Y-86250000D01*
G37*
D14*
X83663000Y-87393000D02*
X83663000Y-85107000D01*
X83663000Y-85107000D02*
X78837000Y-85107000D01*
X78837000Y-85107000D02*
X78837000Y-87393000D01*
X78837000Y-87393000D02*
X83663000Y-87393000D01*
D10*
X82520000Y-87647000D02*
X81567500Y-87647000D01*
X81567500Y-87393000D01*
X82520000Y-87393000D01*
X82520000Y-87647000D01*
G36*
X82520000Y-87647000D02*
G01*
X81567500Y-87647000D01*
X81567500Y-87393000D01*
X82520000Y-87393000D01*
X82520000Y-87647000D01*
G37*
X82520000Y-85107000D02*
X81567500Y-85107000D01*
X81567500Y-84853000D01*
X82520000Y-84853000D01*
X82520000Y-85107000D01*
G36*
X82520000Y-85107000D02*
G01*
X81567500Y-85107000D01*
X81567500Y-84853000D01*
X82520000Y-84853000D01*
X82520000Y-85107000D01*
G37*
D14*
X81631000Y-86885000D02*
X81631000Y-85615000D01*
D10*
%TO.C,D8*%
X81631000Y-66000000D02*
X80869000Y-66635000D01*
X80869000Y-65365000D01*
X81631000Y-66000000D01*
G36*
X81631000Y-66000000D02*
G01*
X80869000Y-66635000D01*
X80869000Y-65365000D01*
X81631000Y-66000000D01*
G37*
D14*
X83663000Y-67143000D02*
X83663000Y-64857000D01*
X83663000Y-64857000D02*
X78837000Y-64857000D01*
X78837000Y-64857000D02*
X78837000Y-67143000D01*
X78837000Y-67143000D02*
X83663000Y-67143000D01*
D10*
X82520000Y-67397000D02*
X81567500Y-67397000D01*
X81567500Y-67143000D01*
X82520000Y-67143000D01*
X82520000Y-67397000D01*
G36*
X82520000Y-67397000D02*
G01*
X81567500Y-67397000D01*
X81567500Y-67143000D01*
X82520000Y-67143000D01*
X82520000Y-67397000D01*
G37*
X82520000Y-64857000D02*
X81567500Y-64857000D01*
X81567500Y-64603000D01*
X82520000Y-64603000D01*
X82520000Y-64857000D01*
G36*
X82520000Y-64857000D02*
G01*
X81567500Y-64857000D01*
X81567500Y-64603000D01*
X82520000Y-64603000D01*
X82520000Y-64857000D01*
G37*
D14*
X81631000Y-66635000D02*
X81631000Y-65365000D01*
D10*
%TO.C,D5*%
X81631000Y-45750000D02*
X80869000Y-46385000D01*
X80869000Y-45115000D01*
X81631000Y-45750000D01*
G36*
X81631000Y-45750000D02*
G01*
X80869000Y-46385000D01*
X80869000Y-45115000D01*
X81631000Y-45750000D01*
G37*
D14*
X83663000Y-46893000D02*
X83663000Y-44607000D01*
X83663000Y-44607000D02*
X78837000Y-44607000D01*
X78837000Y-44607000D02*
X78837000Y-46893000D01*
X78837000Y-46893000D02*
X83663000Y-46893000D01*
D10*
X82520000Y-47147000D02*
X81567500Y-47147000D01*
X81567500Y-46893000D01*
X82520000Y-46893000D01*
X82520000Y-47147000D01*
G36*
X82520000Y-47147000D02*
G01*
X81567500Y-47147000D01*
X81567500Y-46893000D01*
X82520000Y-46893000D01*
X82520000Y-47147000D01*
G37*
X82520000Y-44607000D02*
X81567500Y-44607000D01*
X81567500Y-44353000D01*
X82520000Y-44353000D01*
X82520000Y-44607000D01*
G36*
X82520000Y-44607000D02*
G01*
X81567500Y-44607000D01*
X81567500Y-44353000D01*
X82520000Y-44353000D01*
X82520000Y-44607000D01*
G37*
D14*
X81631000Y-46385000D02*
X81631000Y-45115000D01*
D10*
%TO.C,D1*%
X81631000Y-25250000D02*
X80869000Y-25885000D01*
X80869000Y-24615000D01*
X81631000Y-25250000D01*
G36*
X81631000Y-25250000D02*
G01*
X80869000Y-25885000D01*
X80869000Y-24615000D01*
X81631000Y-25250000D01*
G37*
D14*
X83663000Y-26393000D02*
X83663000Y-24107000D01*
X83663000Y-24107000D02*
X78837000Y-24107000D01*
X78837000Y-24107000D02*
X78837000Y-26393000D01*
X78837000Y-26393000D02*
X83663000Y-26393000D01*
D10*
X82520000Y-26647000D02*
X81567500Y-26647000D01*
X81567500Y-26393000D01*
X82520000Y-26393000D01*
X82520000Y-26647000D01*
G36*
X82520000Y-26647000D02*
G01*
X81567500Y-26647000D01*
X81567500Y-26393000D01*
X82520000Y-26393000D01*
X82520000Y-26647000D01*
G37*
X82520000Y-24107000D02*
X81567500Y-24107000D01*
X81567500Y-23853000D01*
X82520000Y-23853000D01*
X82520000Y-24107000D01*
G36*
X82520000Y-24107000D02*
G01*
X81567500Y-24107000D01*
X81567500Y-23853000D01*
X82520000Y-23853000D01*
X82520000Y-24107000D01*
G37*
D14*
X81631000Y-25885000D02*
X81631000Y-24615000D01*
%TO.C,1kR2*%
X68050000Y-121300000D02*
X70450000Y-121300000D01*
X68050000Y-116700000D02*
X68050000Y-121300000D01*
X70450000Y-121300000D02*
X70450000Y-116700000D01*
X70450000Y-116700000D02*
X68050000Y-116700000D01*
%TO.C,1kR1*%
X64050000Y-121262500D02*
X66450000Y-121262500D01*
X64050000Y-116662500D02*
X64050000Y-121262500D01*
X66450000Y-121262500D02*
X66450000Y-116662500D01*
X66450000Y-116662500D02*
X64050000Y-116662500D01*
%TO.C,4*%
X64135000Y-64135000D02*
X78105000Y-64135000D01*
X64135000Y-78105000D02*
X64135000Y-64135000D01*
X78105000Y-64135000D02*
X78105000Y-78105000D01*
X78105000Y-78105000D02*
X64135000Y-78105000D01*
%TO.C,7*%
X64135000Y-43815000D02*
X78105000Y-43815000D01*
X64135000Y-57785000D02*
X64135000Y-43815000D01*
X78105000Y-43815000D02*
X78105000Y-57785000D01*
X78105000Y-57785000D02*
X64135000Y-57785000D01*
%TO.C,2*%
X84455000Y-84455000D02*
X98425000Y-84455000D01*
X84455000Y-98425000D02*
X84455000Y-84455000D01*
X98425000Y-84455000D02*
X98425000Y-98425000D01*
X98425000Y-98425000D02*
X84455000Y-98425000D01*
%TO.C,+*%
X125095000Y-53975000D02*
X139065000Y-53975000D01*
X125095000Y-67945000D02*
X125095000Y-53975000D01*
X139065000Y-53975000D02*
X139065000Y-67945000D01*
X139065000Y-67945000D02*
X125095000Y-67945000D01*
%TO.C,-*%
X125095000Y-23495000D02*
X139065000Y-23495000D01*
X125095000Y-37465000D02*
X125095000Y-23495000D01*
X139065000Y-23495000D02*
X139065000Y-37465000D01*
X139065000Y-37465000D02*
X125095000Y-37465000D01*
%TO.C,LED18*%
X148226500Y-128587500D02*
X148226500Y-125412500D01*
X148226500Y-125412500D02*
X143273500Y-125412500D01*
X146194500Y-127889000D02*
X146194500Y-126111000D01*
X143273500Y-128587500D02*
X148226500Y-128587500D01*
X143273500Y-125412500D02*
X143273500Y-128587500D01*
D10*
X146194500Y-127000000D02*
X145305500Y-127889000D01*
X145305500Y-126111000D01*
X146194500Y-127000000D01*
G36*
X146194500Y-127000000D02*
G01*
X145305500Y-127889000D01*
X145305500Y-126111000D01*
X146194500Y-127000000D01*
G37*
X147020000Y-128841500D02*
X146067500Y-128841500D01*
X146067500Y-128587500D01*
X147020000Y-128587500D01*
X147020000Y-128841500D01*
G36*
X147020000Y-128841500D02*
G01*
X146067500Y-128841500D01*
X146067500Y-128587500D01*
X147020000Y-128587500D01*
X147020000Y-128841500D01*
G37*
X147020000Y-125412500D02*
X146067500Y-125412500D01*
X146067500Y-125158500D01*
X147020000Y-125158500D01*
X147020000Y-125412500D01*
G36*
X147020000Y-125412500D02*
G01*
X146067500Y-125412500D01*
X146067500Y-125158500D01*
X147020000Y-125158500D01*
X147020000Y-125412500D01*
G37*
D14*
%TO.C,\u002A*%
X104775000Y-23495000D02*
X118745000Y-23495000D01*
X104775000Y-37465000D02*
X104775000Y-23495000D01*
X118745000Y-23495000D02*
X118745000Y-37465000D01*
X118745000Y-37465000D02*
X104775000Y-37465000D01*
%TO.C,3*%
X104775000Y-84455000D02*
X118745000Y-84455000D01*
X104775000Y-98425000D02*
X104775000Y-84455000D01*
X118745000Y-84455000D02*
X118745000Y-98425000D01*
X118745000Y-98425000D02*
X104775000Y-98425000D01*
%TO.C,6*%
X104775000Y-64135000D02*
X118745000Y-64135000D01*
X104775000Y-78105000D02*
X104775000Y-64135000D01*
X118745000Y-64135000D02*
X118745000Y-78105000D01*
X118745000Y-78105000D02*
X104775000Y-78105000D01*
%TO.C,=*%
X125095000Y-94615000D02*
X139065000Y-94615000D01*
X125095000Y-108585000D02*
X125095000Y-94615000D01*
X139065000Y-94615000D02*
X139065000Y-108585000D01*
X139065000Y-108585000D02*
X125095000Y-108585000D01*
%TO.C,0*%
X74295000Y-104775000D02*
X88265000Y-104775000D01*
X74295000Y-118745000D02*
X74295000Y-104775000D01*
X88265000Y-104775000D02*
X88265000Y-118745000D01*
X88265000Y-118745000D02*
X74295000Y-118745000D01*
%TO.C,8*%
X84455000Y-43815000D02*
X98425000Y-43815000D01*
X84455000Y-57785000D02*
X84455000Y-43815000D01*
X98425000Y-43815000D02*
X98425000Y-57785000D01*
X98425000Y-57785000D02*
X84455000Y-57785000D01*
%TO.C,.*%
X104775000Y-104775000D02*
X118745000Y-104775000D01*
X104775000Y-118745000D02*
X104775000Y-104775000D01*
X118745000Y-104775000D02*
X118745000Y-118745000D01*
X118745000Y-118745000D02*
X104775000Y-118745000D01*
%TO.C,LED19*%
X154476500Y-128587500D02*
X154476500Y-125412500D01*
X154476500Y-125412500D02*
X149523500Y-125412500D01*
X152444500Y-127889000D02*
X152444500Y-126111000D01*
X149523500Y-128587500D02*
X154476500Y-128587500D01*
X149523500Y-125412500D02*
X149523500Y-128587500D01*
D10*
X152444500Y-127000000D02*
X151555500Y-127889000D01*
X151555500Y-126111000D01*
X152444500Y-127000000D01*
G36*
X152444500Y-127000000D02*
G01*
X151555500Y-127889000D01*
X151555500Y-126111000D01*
X152444500Y-127000000D01*
G37*
X153270000Y-128841500D02*
X152317500Y-128841500D01*
X152317500Y-128587500D01*
X153270000Y-128587500D01*
X153270000Y-128841500D01*
G36*
X153270000Y-128841500D02*
G01*
X152317500Y-128841500D01*
X152317500Y-128587500D01*
X153270000Y-128587500D01*
X153270000Y-128841500D01*
G37*
X153270000Y-125412500D02*
X152317500Y-125412500D01*
X152317500Y-125158500D01*
X153270000Y-125158500D01*
X153270000Y-125412500D01*
G36*
X153270000Y-125412500D02*
G01*
X152317500Y-125412500D01*
X152317500Y-125158500D01*
X153270000Y-125158500D01*
X153270000Y-125412500D01*
G37*
D14*
%TO.C,5*%
X84455000Y-64135000D02*
X98425000Y-64135000D01*
X84455000Y-78105000D02*
X84455000Y-64135000D01*
X98425000Y-64135000D02*
X98425000Y-78105000D01*
X98425000Y-78105000D02*
X84455000Y-78105000D01*
%TO.C,Macro Key*%
X64135000Y-23495000D02*
X78105000Y-23495000D01*
X64135000Y-37465000D02*
X64135000Y-23495000D01*
X78105000Y-23495000D02*
X78105000Y-37465000D01*
X78105000Y-37465000D02*
X64135000Y-37465000D01*
D11*
%TO.C,REF\u002A\u002A*%
X144030000Y-23030000D02*
X144030000Y-53510000D01*
X144030000Y-23030000D02*
X149110000Y-23030000D01*
X149110000Y-20490000D02*
X156730000Y-20490000D01*
X149110000Y-23030000D02*
X149110000Y-20490000D01*
X156730000Y-20490000D02*
X156730000Y-23030000D01*
X156730000Y-23030000D02*
X161810000Y-23030000D01*
X161810000Y-23030000D02*
X161810000Y-53510000D01*
X161810000Y-53510000D02*
X144030000Y-53510000D01*
D14*
%TO.C,1*%
X64135000Y-84455000D02*
X78105000Y-84455000D01*
X64135000Y-98425000D02*
X64135000Y-84455000D01*
X78105000Y-84455000D02*
X78105000Y-98425000D01*
X78105000Y-98425000D02*
X64135000Y-98425000D01*
%TO.C,9*%
X104775000Y-43815000D02*
X118745000Y-43815000D01*
X104775000Y-57785000D02*
X104775000Y-43815000D01*
X118745000Y-43815000D02*
X118745000Y-57785000D01*
X118745000Y-57785000D02*
X104775000Y-57785000D01*
%TO.C,/*%
X84455000Y-23495000D02*
X98425000Y-23495000D01*
X84455000Y-37465000D02*
X84455000Y-23495000D01*
X98425000Y-23495000D02*
X98425000Y-37465000D01*
X98425000Y-37465000D02*
X84455000Y-37465000D01*
%TD*%
D15*
%TO.C,REF\u002A\u002A*%
X145300000Y-24300000D03*
D16*
X145300000Y-26840000D03*
X145300000Y-29380000D03*
X145300000Y-31920000D03*
X145300000Y-34460000D03*
X145300000Y-37000000D03*
X145300000Y-39540000D03*
X145300000Y-42080000D03*
X145300000Y-44620000D03*
X145300000Y-47160000D03*
X145300000Y-49700000D03*
X145300000Y-52240000D03*
X160540000Y-52240000D03*
X160540000Y-49700000D03*
X160540000Y-47160000D03*
X160540000Y-44620000D03*
X160540000Y-42080000D03*
X160540000Y-39540000D03*
X160540000Y-37000000D03*
X160540000Y-34460000D03*
X160540000Y-31920000D03*
X160540000Y-29380000D03*
X160540000Y-26840000D03*
X160540000Y-24300000D03*
%TD*%
M02*
