%TF.GenerationSoftware,KiCad,Pcbnew,8.0.3*%
%TF.CreationDate,2024-06-18T21:33:05+02:00*%
%TF.ProjectId,macro=REV2,6d616372-6f3d-4524-9556-322e6b696361,2*%
%TF.SameCoordinates,Original*%
%TF.FileFunction,Drillmap*%
%TF.FilePolarity,Positive*%
%FSLAX45Y45*%
G04 Gerber Fmt 4.5, Leading zero omitted, Abs format (unit mm)*
G04 Created by KiCad (PCBNEW 8.0.3) date 2024-06-18 21:33:05*
%MOMM*%
%LPD*%
G01*
G04 APERTURE LIST*
%ADD10C,0.200000*%
%ADD11C,0.400000*%
G04 APERTURE END LIST*
D10*
X6070600Y-2032000D02*
X16270600Y-2032000D01*
X16270600Y-13032000D01*
X6070600Y-13032000D01*
X6070600Y-2032000D01*
D11*
X6912000Y-2848000D02*
X7312000Y-3248000D01*
X7312000Y-2848000D02*
X6912000Y-3248000D01*
X6912000Y-4880000D02*
X7312000Y-5280000D01*
X7312000Y-4880000D02*
X6912000Y-5280000D01*
X6912000Y-6912000D02*
X7312000Y-7312000D01*
X7312000Y-6912000D02*
X6912000Y-7312000D01*
X6912000Y-8944000D02*
X7312000Y-9344000D01*
X7312000Y-8944000D02*
X6912000Y-9344000D01*
X7928000Y-10976000D02*
X8328000Y-11376000D01*
X8328000Y-10976000D02*
X7928000Y-11376000D01*
X8944000Y-2848000D02*
X9344000Y-3248000D01*
X9344000Y-2848000D02*
X8944000Y-3248000D01*
X8944000Y-4880000D02*
X9344000Y-5280000D01*
X9344000Y-4880000D02*
X8944000Y-5280000D01*
X8944000Y-6912000D02*
X9344000Y-7312000D01*
X9344000Y-6912000D02*
X8944000Y-7312000D01*
X8944000Y-8944000D02*
X9344000Y-9344000D01*
X9344000Y-8944000D02*
X8944000Y-9344000D01*
X10976000Y-2848000D02*
X11376000Y-3248000D01*
X11376000Y-2848000D02*
X10976000Y-3248000D01*
X10976000Y-4880000D02*
X11376000Y-5280000D01*
X11376000Y-4880000D02*
X10976000Y-5280000D01*
X10976000Y-6912000D02*
X11376000Y-7312000D01*
X11376000Y-6912000D02*
X10976000Y-7312000D01*
X10976000Y-8944000D02*
X11376000Y-9344000D01*
X11376000Y-8944000D02*
X10976000Y-9344000D01*
X10976000Y-10976000D02*
X11376000Y-11376000D01*
X11376000Y-10976000D02*
X10976000Y-11376000D01*
X13008000Y-2848000D02*
X13408000Y-3248000D01*
X13408000Y-2848000D02*
X13008000Y-3248000D01*
X13008000Y-5896000D02*
X13408000Y-6296000D01*
X13408000Y-5896000D02*
X13008000Y-6296000D01*
X13008000Y-9960000D02*
X13408000Y-10360000D01*
X13408000Y-9960000D02*
X13008000Y-10360000D01*
D10*
X6321377Y-13353484D02*
X6321377Y-13153484D01*
X6321377Y-13153484D02*
X6368996Y-13153484D01*
X6368996Y-13153484D02*
X6397567Y-13163008D01*
X6397567Y-13163008D02*
X6416615Y-13182055D01*
X6416615Y-13182055D02*
X6426139Y-13201103D01*
X6426139Y-13201103D02*
X6435662Y-13239198D01*
X6435662Y-13239198D02*
X6435662Y-13267769D01*
X6435662Y-13267769D02*
X6426139Y-13305865D01*
X6426139Y-13305865D02*
X6416615Y-13324912D01*
X6416615Y-13324912D02*
X6397567Y-13343960D01*
X6397567Y-13343960D02*
X6368996Y-13353484D01*
X6368996Y-13353484D02*
X6321377Y-13353484D01*
X6521377Y-13353484D02*
X6521377Y-13220150D01*
X6521377Y-13258246D02*
X6530901Y-13239198D01*
X6530901Y-13239198D02*
X6540424Y-13229674D01*
X6540424Y-13229674D02*
X6559472Y-13220150D01*
X6559472Y-13220150D02*
X6578520Y-13220150D01*
X6645186Y-13353484D02*
X6645186Y-13220150D01*
X6645186Y-13153484D02*
X6635662Y-13163008D01*
X6635662Y-13163008D02*
X6645186Y-13172531D01*
X6645186Y-13172531D02*
X6654710Y-13163008D01*
X6654710Y-13163008D02*
X6645186Y-13153484D01*
X6645186Y-13153484D02*
X6645186Y-13172531D01*
X6768996Y-13353484D02*
X6749948Y-13343960D01*
X6749948Y-13343960D02*
X6740424Y-13324912D01*
X6740424Y-13324912D02*
X6740424Y-13153484D01*
X6873758Y-13353484D02*
X6854710Y-13343960D01*
X6854710Y-13343960D02*
X6845186Y-13324912D01*
X6845186Y-13324912D02*
X6845186Y-13153484D01*
X7102329Y-13353484D02*
X7102329Y-13153484D01*
X7102329Y-13153484D02*
X7168996Y-13296341D01*
X7168996Y-13296341D02*
X7235662Y-13153484D01*
X7235662Y-13153484D02*
X7235662Y-13353484D01*
X7416615Y-13353484D02*
X7416615Y-13248722D01*
X7416615Y-13248722D02*
X7407091Y-13229674D01*
X7407091Y-13229674D02*
X7388043Y-13220150D01*
X7388043Y-13220150D02*
X7349948Y-13220150D01*
X7349948Y-13220150D02*
X7330901Y-13229674D01*
X7416615Y-13343960D02*
X7397567Y-13353484D01*
X7397567Y-13353484D02*
X7349948Y-13353484D01*
X7349948Y-13353484D02*
X7330901Y-13343960D01*
X7330901Y-13343960D02*
X7321377Y-13324912D01*
X7321377Y-13324912D02*
X7321377Y-13305865D01*
X7321377Y-13305865D02*
X7330901Y-13286817D01*
X7330901Y-13286817D02*
X7349948Y-13277293D01*
X7349948Y-13277293D02*
X7397567Y-13277293D01*
X7397567Y-13277293D02*
X7416615Y-13267769D01*
X7511853Y-13220150D02*
X7511853Y-13420150D01*
X7511853Y-13229674D02*
X7530901Y-13220150D01*
X7530901Y-13220150D02*
X7568996Y-13220150D01*
X7568996Y-13220150D02*
X7588043Y-13229674D01*
X7588043Y-13229674D02*
X7597567Y-13239198D01*
X7597567Y-13239198D02*
X7607091Y-13258246D01*
X7607091Y-13258246D02*
X7607091Y-13315388D01*
X7607091Y-13315388D02*
X7597567Y-13334436D01*
X7597567Y-13334436D02*
X7588043Y-13343960D01*
X7588043Y-13343960D02*
X7568996Y-13353484D01*
X7568996Y-13353484D02*
X7530901Y-13353484D01*
X7530901Y-13353484D02*
X7511853Y-13343960D01*
X7692805Y-13334436D02*
X7702329Y-13343960D01*
X7702329Y-13343960D02*
X7692805Y-13353484D01*
X7692805Y-13353484D02*
X7683282Y-13343960D01*
X7683282Y-13343960D02*
X7692805Y-13334436D01*
X7692805Y-13334436D02*
X7692805Y-13353484D01*
X7692805Y-13229674D02*
X7702329Y-13239198D01*
X7702329Y-13239198D02*
X7692805Y-13248722D01*
X7692805Y-13248722D02*
X7683282Y-13239198D01*
X7683282Y-13239198D02*
X7692805Y-13229674D01*
X7692805Y-13229674D02*
X7692805Y-13248722D01*
X5860600Y-13582000D02*
X6060600Y-13782000D01*
X6060600Y-13582000D02*
X5860600Y-13782000D01*
X6407091Y-13640150D02*
X6407091Y-13773484D01*
X6359472Y-13563960D02*
X6311853Y-13706817D01*
X6311853Y-13706817D02*
X6435662Y-13706817D01*
X6511853Y-13754436D02*
X6521377Y-13763960D01*
X6521377Y-13763960D02*
X6511853Y-13773484D01*
X6511853Y-13773484D02*
X6502329Y-13763960D01*
X6502329Y-13763960D02*
X6511853Y-13754436D01*
X6511853Y-13754436D02*
X6511853Y-13773484D01*
X6645186Y-13573484D02*
X6664234Y-13573484D01*
X6664234Y-13573484D02*
X6683282Y-13583008D01*
X6683282Y-13583008D02*
X6692805Y-13592531D01*
X6692805Y-13592531D02*
X6702329Y-13611579D01*
X6702329Y-13611579D02*
X6711853Y-13649674D01*
X6711853Y-13649674D02*
X6711853Y-13697293D01*
X6711853Y-13697293D02*
X6702329Y-13735388D01*
X6702329Y-13735388D02*
X6692805Y-13754436D01*
X6692805Y-13754436D02*
X6683282Y-13763960D01*
X6683282Y-13763960D02*
X6664234Y-13773484D01*
X6664234Y-13773484D02*
X6645186Y-13773484D01*
X6645186Y-13773484D02*
X6626139Y-13763960D01*
X6626139Y-13763960D02*
X6616615Y-13754436D01*
X6616615Y-13754436D02*
X6607091Y-13735388D01*
X6607091Y-13735388D02*
X6597567Y-13697293D01*
X6597567Y-13697293D02*
X6597567Y-13649674D01*
X6597567Y-13649674D02*
X6607091Y-13611579D01*
X6607091Y-13611579D02*
X6616615Y-13592531D01*
X6616615Y-13592531D02*
X6626139Y-13583008D01*
X6626139Y-13583008D02*
X6645186Y-13573484D01*
X6835662Y-13573484D02*
X6854710Y-13573484D01*
X6854710Y-13573484D02*
X6873758Y-13583008D01*
X6873758Y-13583008D02*
X6883282Y-13592531D01*
X6883282Y-13592531D02*
X6892805Y-13611579D01*
X6892805Y-13611579D02*
X6902329Y-13649674D01*
X6902329Y-13649674D02*
X6902329Y-13697293D01*
X6902329Y-13697293D02*
X6892805Y-13735388D01*
X6892805Y-13735388D02*
X6883282Y-13754436D01*
X6883282Y-13754436D02*
X6873758Y-13763960D01*
X6873758Y-13763960D02*
X6854710Y-13773484D01*
X6854710Y-13773484D02*
X6835662Y-13773484D01*
X6835662Y-13773484D02*
X6816615Y-13763960D01*
X6816615Y-13763960D02*
X6807091Y-13754436D01*
X6807091Y-13754436D02*
X6797567Y-13735388D01*
X6797567Y-13735388D02*
X6788043Y-13697293D01*
X6788043Y-13697293D02*
X6788043Y-13649674D01*
X6788043Y-13649674D02*
X6797567Y-13611579D01*
X6797567Y-13611579D02*
X6807091Y-13592531D01*
X6807091Y-13592531D02*
X6816615Y-13583008D01*
X6816615Y-13583008D02*
X6835662Y-13573484D01*
X7026139Y-13573484D02*
X7045186Y-13573484D01*
X7045186Y-13573484D02*
X7064234Y-13583008D01*
X7064234Y-13583008D02*
X7073758Y-13592531D01*
X7073758Y-13592531D02*
X7083282Y-13611579D01*
X7083282Y-13611579D02*
X7092805Y-13649674D01*
X7092805Y-13649674D02*
X7092805Y-13697293D01*
X7092805Y-13697293D02*
X7083282Y-13735388D01*
X7083282Y-13735388D02*
X7073758Y-13754436D01*
X7073758Y-13754436D02*
X7064234Y-13763960D01*
X7064234Y-13763960D02*
X7045186Y-13773484D01*
X7045186Y-13773484D02*
X7026139Y-13773484D01*
X7026139Y-13773484D02*
X7007091Y-13763960D01*
X7007091Y-13763960D02*
X6997567Y-13754436D01*
X6997567Y-13754436D02*
X6988043Y-13735388D01*
X6988043Y-13735388D02*
X6978520Y-13697293D01*
X6978520Y-13697293D02*
X6978520Y-13649674D01*
X6978520Y-13649674D02*
X6988043Y-13611579D01*
X6988043Y-13611579D02*
X6997567Y-13592531D01*
X6997567Y-13592531D02*
X7007091Y-13583008D01*
X7007091Y-13583008D02*
X7026139Y-13573484D01*
X7178520Y-13773484D02*
X7178520Y-13640150D01*
X7178520Y-13659198D02*
X7188043Y-13649674D01*
X7188043Y-13649674D02*
X7207091Y-13640150D01*
X7207091Y-13640150D02*
X7235663Y-13640150D01*
X7235663Y-13640150D02*
X7254710Y-13649674D01*
X7254710Y-13649674D02*
X7264234Y-13668722D01*
X7264234Y-13668722D02*
X7264234Y-13773484D01*
X7264234Y-13668722D02*
X7273758Y-13649674D01*
X7273758Y-13649674D02*
X7292805Y-13640150D01*
X7292805Y-13640150D02*
X7321377Y-13640150D01*
X7321377Y-13640150D02*
X7340424Y-13649674D01*
X7340424Y-13649674D02*
X7349948Y-13668722D01*
X7349948Y-13668722D02*
X7349948Y-13773484D01*
X7445186Y-13773484D02*
X7445186Y-13640150D01*
X7445186Y-13659198D02*
X7454710Y-13649674D01*
X7454710Y-13649674D02*
X7473758Y-13640150D01*
X7473758Y-13640150D02*
X7502329Y-13640150D01*
X7502329Y-13640150D02*
X7521377Y-13649674D01*
X7521377Y-13649674D02*
X7530901Y-13668722D01*
X7530901Y-13668722D02*
X7530901Y-13773484D01*
X7530901Y-13668722D02*
X7540424Y-13649674D01*
X7540424Y-13649674D02*
X7559472Y-13640150D01*
X7559472Y-13640150D02*
X7588043Y-13640150D01*
X7588043Y-13640150D02*
X7607091Y-13649674D01*
X7607091Y-13649674D02*
X7616615Y-13668722D01*
X7616615Y-13668722D02*
X7616615Y-13773484D01*
X8007091Y-13563960D02*
X7835663Y-13821103D01*
X8264234Y-13573484D02*
X8283282Y-13573484D01*
X8283282Y-13573484D02*
X8302329Y-13583008D01*
X8302329Y-13583008D02*
X8311853Y-13592531D01*
X8311853Y-13592531D02*
X8321377Y-13611579D01*
X8321377Y-13611579D02*
X8330901Y-13649674D01*
X8330901Y-13649674D02*
X8330901Y-13697293D01*
X8330901Y-13697293D02*
X8321377Y-13735388D01*
X8321377Y-13735388D02*
X8311853Y-13754436D01*
X8311853Y-13754436D02*
X8302329Y-13763960D01*
X8302329Y-13763960D02*
X8283282Y-13773484D01*
X8283282Y-13773484D02*
X8264234Y-13773484D01*
X8264234Y-13773484D02*
X8245186Y-13763960D01*
X8245186Y-13763960D02*
X8235663Y-13754436D01*
X8235663Y-13754436D02*
X8226139Y-13735388D01*
X8226139Y-13735388D02*
X8216615Y-13697293D01*
X8216615Y-13697293D02*
X8216615Y-13649674D01*
X8216615Y-13649674D02*
X8226139Y-13611579D01*
X8226139Y-13611579D02*
X8235663Y-13592531D01*
X8235663Y-13592531D02*
X8245186Y-13583008D01*
X8245186Y-13583008D02*
X8264234Y-13573484D01*
X8416615Y-13754436D02*
X8426139Y-13763960D01*
X8426139Y-13763960D02*
X8416615Y-13773484D01*
X8416615Y-13773484D02*
X8407091Y-13763960D01*
X8407091Y-13763960D02*
X8416615Y-13754436D01*
X8416615Y-13754436D02*
X8416615Y-13773484D01*
X8616615Y-13773484D02*
X8502329Y-13773484D01*
X8559472Y-13773484D02*
X8559472Y-13573484D01*
X8559472Y-13573484D02*
X8540425Y-13602055D01*
X8540425Y-13602055D02*
X8521377Y-13621103D01*
X8521377Y-13621103D02*
X8502329Y-13630627D01*
X8797568Y-13573484D02*
X8702329Y-13573484D01*
X8702329Y-13573484D02*
X8692806Y-13668722D01*
X8692806Y-13668722D02*
X8702329Y-13659198D01*
X8702329Y-13659198D02*
X8721377Y-13649674D01*
X8721377Y-13649674D02*
X8768996Y-13649674D01*
X8768996Y-13649674D02*
X8788044Y-13659198D01*
X8788044Y-13659198D02*
X8797568Y-13668722D01*
X8797568Y-13668722D02*
X8807091Y-13687769D01*
X8807091Y-13687769D02*
X8807091Y-13735388D01*
X8807091Y-13735388D02*
X8797568Y-13754436D01*
X8797568Y-13754436D02*
X8788044Y-13763960D01*
X8788044Y-13763960D02*
X8768996Y-13773484D01*
X8768996Y-13773484D02*
X8721377Y-13773484D01*
X8721377Y-13773484D02*
X8702329Y-13763960D01*
X8702329Y-13763960D02*
X8692806Y-13754436D01*
X8873758Y-13573484D02*
X9007091Y-13573484D01*
X9007091Y-13573484D02*
X8921377Y-13773484D01*
X9178520Y-13573484D02*
X9083282Y-13573484D01*
X9083282Y-13573484D02*
X9073758Y-13668722D01*
X9073758Y-13668722D02*
X9083282Y-13659198D01*
X9083282Y-13659198D02*
X9102329Y-13649674D01*
X9102329Y-13649674D02*
X9149949Y-13649674D01*
X9149949Y-13649674D02*
X9168996Y-13659198D01*
X9168996Y-13659198D02*
X9178520Y-13668722D01*
X9178520Y-13668722D02*
X9188044Y-13687769D01*
X9188044Y-13687769D02*
X9188044Y-13735388D01*
X9188044Y-13735388D02*
X9178520Y-13754436D01*
X9178520Y-13754436D02*
X9168996Y-13763960D01*
X9168996Y-13763960D02*
X9149949Y-13773484D01*
X9149949Y-13773484D02*
X9102329Y-13773484D01*
X9102329Y-13773484D02*
X9083282Y-13763960D01*
X9083282Y-13763960D02*
X9073758Y-13754436D01*
X9264234Y-13573484D02*
X9264234Y-13611579D01*
X9340425Y-13573484D02*
X9340425Y-13611579D01*
X9635663Y-13849674D02*
X9626139Y-13840150D01*
X9626139Y-13840150D02*
X9607091Y-13811579D01*
X9607091Y-13811579D02*
X9597568Y-13792531D01*
X9597568Y-13792531D02*
X9588044Y-13763960D01*
X9588044Y-13763960D02*
X9578520Y-13716341D01*
X9578520Y-13716341D02*
X9578520Y-13678246D01*
X9578520Y-13678246D02*
X9588044Y-13630627D01*
X9588044Y-13630627D02*
X9597568Y-13602055D01*
X9597568Y-13602055D02*
X9607091Y-13583008D01*
X9607091Y-13583008D02*
X9626139Y-13554436D01*
X9626139Y-13554436D02*
X9635663Y-13544912D01*
X9816615Y-13773484D02*
X9702330Y-13773484D01*
X9759472Y-13773484D02*
X9759472Y-13573484D01*
X9759472Y-13573484D02*
X9740425Y-13602055D01*
X9740425Y-13602055D02*
X9721377Y-13621103D01*
X9721377Y-13621103D02*
X9702330Y-13630627D01*
X9883282Y-13573484D02*
X10016615Y-13573484D01*
X10016615Y-13573484D02*
X9930901Y-13773484D01*
X10245187Y-13773484D02*
X10245187Y-13573484D01*
X10330901Y-13773484D02*
X10330901Y-13668722D01*
X10330901Y-13668722D02*
X10321377Y-13649674D01*
X10321377Y-13649674D02*
X10302330Y-13640150D01*
X10302330Y-13640150D02*
X10273758Y-13640150D01*
X10273758Y-13640150D02*
X10254711Y-13649674D01*
X10254711Y-13649674D02*
X10245187Y-13659198D01*
X10454711Y-13773484D02*
X10435663Y-13763960D01*
X10435663Y-13763960D02*
X10426139Y-13754436D01*
X10426139Y-13754436D02*
X10416615Y-13735388D01*
X10416615Y-13735388D02*
X10416615Y-13678246D01*
X10416615Y-13678246D02*
X10426139Y-13659198D01*
X10426139Y-13659198D02*
X10435663Y-13649674D01*
X10435663Y-13649674D02*
X10454711Y-13640150D01*
X10454711Y-13640150D02*
X10483282Y-13640150D01*
X10483282Y-13640150D02*
X10502330Y-13649674D01*
X10502330Y-13649674D02*
X10511853Y-13659198D01*
X10511853Y-13659198D02*
X10521377Y-13678246D01*
X10521377Y-13678246D02*
X10521377Y-13735388D01*
X10521377Y-13735388D02*
X10511853Y-13754436D01*
X10511853Y-13754436D02*
X10502330Y-13763960D01*
X10502330Y-13763960D02*
X10483282Y-13773484D01*
X10483282Y-13773484D02*
X10454711Y-13773484D01*
X10635663Y-13773484D02*
X10616615Y-13763960D01*
X10616615Y-13763960D02*
X10607092Y-13744912D01*
X10607092Y-13744912D02*
X10607092Y-13573484D01*
X10788044Y-13763960D02*
X10768996Y-13773484D01*
X10768996Y-13773484D02*
X10730901Y-13773484D01*
X10730901Y-13773484D02*
X10711853Y-13763960D01*
X10711853Y-13763960D02*
X10702330Y-13744912D01*
X10702330Y-13744912D02*
X10702330Y-13668722D01*
X10702330Y-13668722D02*
X10711853Y-13649674D01*
X10711853Y-13649674D02*
X10730901Y-13640150D01*
X10730901Y-13640150D02*
X10768996Y-13640150D01*
X10768996Y-13640150D02*
X10788044Y-13649674D01*
X10788044Y-13649674D02*
X10797568Y-13668722D01*
X10797568Y-13668722D02*
X10797568Y-13687769D01*
X10797568Y-13687769D02*
X10702330Y-13706817D01*
X10873758Y-13763960D02*
X10892806Y-13773484D01*
X10892806Y-13773484D02*
X10930901Y-13773484D01*
X10930901Y-13773484D02*
X10949949Y-13763960D01*
X10949949Y-13763960D02*
X10959473Y-13744912D01*
X10959473Y-13744912D02*
X10959473Y-13735388D01*
X10959473Y-13735388D02*
X10949949Y-13716341D01*
X10949949Y-13716341D02*
X10930901Y-13706817D01*
X10930901Y-13706817D02*
X10902330Y-13706817D01*
X10902330Y-13706817D02*
X10883282Y-13697293D01*
X10883282Y-13697293D02*
X10873758Y-13678246D01*
X10873758Y-13678246D02*
X10873758Y-13668722D01*
X10873758Y-13668722D02*
X10883282Y-13649674D01*
X10883282Y-13649674D02*
X10902330Y-13640150D01*
X10902330Y-13640150D02*
X10930901Y-13640150D01*
X10930901Y-13640150D02*
X10949949Y-13649674D01*
X11026139Y-13849674D02*
X11035663Y-13840150D01*
X11035663Y-13840150D02*
X11054711Y-13811579D01*
X11054711Y-13811579D02*
X11064234Y-13792531D01*
X11064234Y-13792531D02*
X11073758Y-13763960D01*
X11073758Y-13763960D02*
X11083282Y-13716341D01*
X11083282Y-13716341D02*
X11083282Y-13678246D01*
X11083282Y-13678246D02*
X11073758Y-13630627D01*
X11073758Y-13630627D02*
X11064234Y-13602055D01*
X11064234Y-13602055D02*
X11054711Y-13583008D01*
X11054711Y-13583008D02*
X11035663Y-13554436D01*
X11035663Y-13554436D02*
X11026139Y-13544912D01*
X11388044Y-13849674D02*
X11378520Y-13840150D01*
X11378520Y-13840150D02*
X11359472Y-13811579D01*
X11359472Y-13811579D02*
X11349949Y-13792531D01*
X11349949Y-13792531D02*
X11340425Y-13763960D01*
X11340425Y-13763960D02*
X11330901Y-13716341D01*
X11330901Y-13716341D02*
X11330901Y-13678246D01*
X11330901Y-13678246D02*
X11340425Y-13630627D01*
X11340425Y-13630627D02*
X11349949Y-13602055D01*
X11349949Y-13602055D02*
X11359472Y-13583008D01*
X11359472Y-13583008D02*
X11378520Y-13554436D01*
X11378520Y-13554436D02*
X11388044Y-13544912D01*
X11464234Y-13640150D02*
X11464234Y-13773484D01*
X11464234Y-13659198D02*
X11473758Y-13649674D01*
X11473758Y-13649674D02*
X11492806Y-13640150D01*
X11492806Y-13640150D02*
X11521377Y-13640150D01*
X11521377Y-13640150D02*
X11540425Y-13649674D01*
X11540425Y-13649674D02*
X11549949Y-13668722D01*
X11549949Y-13668722D02*
X11549949Y-13773484D01*
X11673758Y-13773484D02*
X11654711Y-13763960D01*
X11654711Y-13763960D02*
X11645187Y-13754436D01*
X11645187Y-13754436D02*
X11635663Y-13735388D01*
X11635663Y-13735388D02*
X11635663Y-13678246D01*
X11635663Y-13678246D02*
X11645187Y-13659198D01*
X11645187Y-13659198D02*
X11654711Y-13649674D01*
X11654711Y-13649674D02*
X11673758Y-13640150D01*
X11673758Y-13640150D02*
X11702330Y-13640150D01*
X11702330Y-13640150D02*
X11721377Y-13649674D01*
X11721377Y-13649674D02*
X11730901Y-13659198D01*
X11730901Y-13659198D02*
X11740425Y-13678246D01*
X11740425Y-13678246D02*
X11740425Y-13735388D01*
X11740425Y-13735388D02*
X11730901Y-13754436D01*
X11730901Y-13754436D02*
X11721377Y-13763960D01*
X11721377Y-13763960D02*
X11702330Y-13773484D01*
X11702330Y-13773484D02*
X11673758Y-13773484D01*
X11797568Y-13640150D02*
X11873758Y-13640150D01*
X11826139Y-13573484D02*
X11826139Y-13744912D01*
X11826139Y-13744912D02*
X11835663Y-13763960D01*
X11835663Y-13763960D02*
X11854711Y-13773484D01*
X11854711Y-13773484D02*
X11873758Y-13773484D01*
X12092806Y-13640150D02*
X12092806Y-13840150D01*
X12092806Y-13649674D02*
X12111853Y-13640150D01*
X12111853Y-13640150D02*
X12149949Y-13640150D01*
X12149949Y-13640150D02*
X12168996Y-13649674D01*
X12168996Y-13649674D02*
X12178520Y-13659198D01*
X12178520Y-13659198D02*
X12188044Y-13678246D01*
X12188044Y-13678246D02*
X12188044Y-13735388D01*
X12188044Y-13735388D02*
X12178520Y-13754436D01*
X12178520Y-13754436D02*
X12168996Y-13763960D01*
X12168996Y-13763960D02*
X12149949Y-13773484D01*
X12149949Y-13773484D02*
X12111853Y-13773484D01*
X12111853Y-13773484D02*
X12092806Y-13763960D01*
X12302330Y-13773484D02*
X12283282Y-13763960D01*
X12283282Y-13763960D02*
X12273758Y-13744912D01*
X12273758Y-13744912D02*
X12273758Y-13573484D01*
X12464234Y-13773484D02*
X12464234Y-13668722D01*
X12464234Y-13668722D02*
X12454711Y-13649674D01*
X12454711Y-13649674D02*
X12435663Y-13640150D01*
X12435663Y-13640150D02*
X12397568Y-13640150D01*
X12397568Y-13640150D02*
X12378520Y-13649674D01*
X12464234Y-13763960D02*
X12445187Y-13773484D01*
X12445187Y-13773484D02*
X12397568Y-13773484D01*
X12397568Y-13773484D02*
X12378520Y-13763960D01*
X12378520Y-13763960D02*
X12368996Y-13744912D01*
X12368996Y-13744912D02*
X12368996Y-13725865D01*
X12368996Y-13725865D02*
X12378520Y-13706817D01*
X12378520Y-13706817D02*
X12397568Y-13697293D01*
X12397568Y-13697293D02*
X12445187Y-13697293D01*
X12445187Y-13697293D02*
X12464234Y-13687769D01*
X12530901Y-13640150D02*
X12607092Y-13640150D01*
X12559473Y-13573484D02*
X12559473Y-13744912D01*
X12559473Y-13744912D02*
X12568996Y-13763960D01*
X12568996Y-13763960D02*
X12588044Y-13773484D01*
X12588044Y-13773484D02*
X12607092Y-13773484D01*
X12749949Y-13763960D02*
X12730901Y-13773484D01*
X12730901Y-13773484D02*
X12692806Y-13773484D01*
X12692806Y-13773484D02*
X12673758Y-13763960D01*
X12673758Y-13763960D02*
X12664234Y-13744912D01*
X12664234Y-13744912D02*
X12664234Y-13668722D01*
X12664234Y-13668722D02*
X12673758Y-13649674D01*
X12673758Y-13649674D02*
X12692806Y-13640150D01*
X12692806Y-13640150D02*
X12730901Y-13640150D01*
X12730901Y-13640150D02*
X12749949Y-13649674D01*
X12749949Y-13649674D02*
X12759473Y-13668722D01*
X12759473Y-13668722D02*
X12759473Y-13687769D01*
X12759473Y-13687769D02*
X12664234Y-13706817D01*
X12930901Y-13773484D02*
X12930901Y-13573484D01*
X12930901Y-13763960D02*
X12911854Y-13773484D01*
X12911854Y-13773484D02*
X12873758Y-13773484D01*
X12873758Y-13773484D02*
X12854711Y-13763960D01*
X12854711Y-13763960D02*
X12845187Y-13754436D01*
X12845187Y-13754436D02*
X12835663Y-13735388D01*
X12835663Y-13735388D02*
X12835663Y-13678246D01*
X12835663Y-13678246D02*
X12845187Y-13659198D01*
X12845187Y-13659198D02*
X12854711Y-13649674D01*
X12854711Y-13649674D02*
X12873758Y-13640150D01*
X12873758Y-13640150D02*
X12911854Y-13640150D01*
X12911854Y-13640150D02*
X12930901Y-13649674D01*
X13007092Y-13849674D02*
X13016615Y-13840150D01*
X13016615Y-13840150D02*
X13035663Y-13811579D01*
X13035663Y-13811579D02*
X13045187Y-13792531D01*
X13045187Y-13792531D02*
X13054711Y-13763960D01*
X13054711Y-13763960D02*
X13064234Y-13716341D01*
X13064234Y-13716341D02*
X13064234Y-13678246D01*
X13064234Y-13678246D02*
X13054711Y-13630627D01*
X13054711Y-13630627D02*
X13045187Y-13602055D01*
X13045187Y-13602055D02*
X13035663Y-13583008D01*
X13035663Y-13583008D02*
X13016615Y-13554436D01*
X13016615Y-13554436D02*
X13007092Y-13544912D01*
M02*
