M48
; DRILL file {KiCad 8.0.3} date 2024-06-18T21:33:01+0200
; FORMAT={-:-/ absolute / metric / decimal}
; #@! TF.CreationDate,2024-06-18T21:33:01+02:00
; #@! TF.GenerationSoftware,Kicad,Pcbnew,8.0.3
; #@! TF.FileFunction,Plated,1,2,PTH
FMAT,2
METRIC
; #@! TA.AperFunction,Plated,PTH,ComponentDrill
T1C0.750
; #@! TA.AperFunction,Plated,PTH,ComponentDrill
T2C1.100
; #@! TA.AperFunction,Plated,PTH,ComponentDrill
T3C1.500
; #@! TA.AperFunction,Plated,PTH,ViaDrill
T4C5.000
%
G90
G05
T1
X74.46Y-101.2
X74.69Y-61.0
X74.69Y-81.28
X74.96Y-40.5
X77.0Y-101.2
X77.23Y-61.0
X77.23Y-81.28
X77.5Y-40.5
X84.99Y-122.28
X87.53Y-122.28
X94.29Y-61.15
X94.46Y-40.6
X94.59Y-81.28
X94.94Y-101.8
X96.83Y-61.15
X97.0Y-40.6
X97.13Y-81.28
X97.48Y-101.8
X115.01Y-101.5
X115.26Y-60.8
X115.34Y-40.5
X115.38Y-122.582
X115.44Y-81.3
X117.55Y-101.5
X117.8Y-60.8
X117.88Y-40.5
X117.92Y-122.582
X117.98Y-81.3
X135.89Y-40.8
X135.89Y-112.03
X136.13Y-71.93
X138.43Y-40.8
X138.43Y-112.03
X138.67Y-71.93
X145.0Y-61.75
X145.0Y-64.29
X149.73Y-61.73
X149.73Y-64.27
X154.73Y-61.73
X154.73Y-64.27
X159.73Y-61.73
X159.73Y-64.27
T2
X145.3Y-24.3
X145.3Y-26.84
X145.3Y-29.38
X145.3Y-31.92
X145.3Y-34.46
X145.3Y-37.0
X145.3Y-39.54
X145.3Y-42.08
X145.3Y-44.62
X145.3Y-47.16
X145.3Y-49.7
X145.3Y-52.24
X160.54Y-24.3
X160.54Y-26.84
X160.54Y-29.38
X160.54Y-31.92
X160.54Y-34.46
X160.54Y-37.0
X160.54Y-39.54
X160.54Y-42.08
X160.54Y-44.62
X160.54Y-47.16
X160.54Y-49.7
X160.54Y-52.24
T3
X67.31Y-27.94
X67.31Y-48.26
X67.31Y-68.58
X67.31Y-88.9
X73.66Y-25.4
X73.66Y-45.72
X73.66Y-66.04
X73.66Y-86.36
X77.47Y-109.22
X83.82Y-106.68
X87.63Y-27.94
X87.63Y-48.26
X87.63Y-68.58
X87.63Y-88.9
X93.98Y-25.4
X93.98Y-45.72
X93.98Y-66.04
X93.98Y-86.36
X107.95Y-27.94
X107.95Y-48.26
X107.95Y-68.58
X107.95Y-88.9
X107.95Y-109.22
X114.3Y-25.4
X114.3Y-45.72
X114.3Y-66.04
X114.3Y-86.36
X114.3Y-106.68
X128.27Y-27.94
X128.27Y-58.42
X128.27Y-99.06
X134.62Y-25.4
X134.62Y-55.88
X134.62Y-96.52
T4
X64.25Y-127.0
X82.0Y-81.75
X82.5Y-41.0
X123.0Y-41.0
X124.5Y-81.0
X159.0Y-126.75
M30
