%TF.GenerationSoftware,KiCad,Pcbnew,8.0.3*%
%TF.CreationDate,2024-06-18T21:33:05+02:00*%
%TF.ProjectId,macro=REV2,6d616372-6f3d-4524-9556-322e6b696361,2*%
%TF.SameCoordinates,Original*%
%TF.FileFunction,Drillmap*%
%TF.FilePolarity,Positive*%
%FSLAX45Y45*%
G04 Gerber Fmt 4.5, Leading zero omitted, Abs format (unit mm)*
G04 Created by KiCad (PCBNEW 8.0.3) date 2024-06-18 21:33:05*
%MOMM*%
%LPD*%
G01*
G04 APERTURE LIST*
%ADD10C,0.200000*%
%ADD11C,0.100000*%
%ADD12C,0.110000*%
%ADD13C,0.150000*%
%ADD14C,0.500000*%
G04 APERTURE END LIST*
D10*
X6070600Y-2032000D02*
X16270600Y-2032000D01*
X16270600Y-13032000D01*
X6070600Y-13032000D01*
X6070600Y-2032000D01*
D11*
X7408500Y-10082500D02*
X7483500Y-10157500D01*
X7483500Y-10082500D02*
X7408500Y-10157500D01*
X7431500Y-6062500D02*
X7506500Y-6137500D01*
X7506500Y-6062500D02*
X7431500Y-6137500D01*
X7431500Y-8090500D02*
X7506500Y-8165500D01*
X7506500Y-8090500D02*
X7431500Y-8165500D01*
X7458500Y-4012500D02*
X7533500Y-4087500D01*
X7533500Y-4012500D02*
X7458500Y-4087500D01*
X7662500Y-10082500D02*
X7737500Y-10157500D01*
X7737500Y-10082500D02*
X7662500Y-10157500D01*
X7685500Y-6062500D02*
X7760500Y-6137500D01*
X7760500Y-6062500D02*
X7685500Y-6137500D01*
X7685500Y-8090500D02*
X7760500Y-8165500D01*
X7760500Y-8090500D02*
X7685500Y-8165500D01*
X7712500Y-4012500D02*
X7787500Y-4087500D01*
X7787500Y-4012500D02*
X7712500Y-4087500D01*
X8461500Y-12190500D02*
X8536500Y-12265500D01*
X8536500Y-12190500D02*
X8461500Y-12265500D01*
X8715500Y-12190500D02*
X8790500Y-12265500D01*
X8790500Y-12190500D02*
X8715500Y-12265500D01*
X9391500Y-6077500D02*
X9466500Y-6152500D01*
X9466500Y-6077500D02*
X9391500Y-6152500D01*
X9408500Y-4022500D02*
X9483500Y-4097500D01*
X9483500Y-4022500D02*
X9408500Y-4097500D01*
X9421500Y-8090500D02*
X9496500Y-8165500D01*
X9496500Y-8090500D02*
X9421500Y-8165500D01*
X9456500Y-10142500D02*
X9531500Y-10217500D01*
X9531500Y-10142500D02*
X9456500Y-10217500D01*
X9645500Y-6077500D02*
X9720500Y-6152500D01*
X9720500Y-6077500D02*
X9645500Y-6152500D01*
X9662500Y-4022500D02*
X9737500Y-4097500D01*
X9737500Y-4022500D02*
X9662500Y-4097500D01*
X9675500Y-8090500D02*
X9750500Y-8165500D01*
X9750500Y-8090500D02*
X9675500Y-8165500D01*
X9710500Y-10142500D02*
X9785500Y-10217500D01*
X9785500Y-10142500D02*
X9710500Y-10217500D01*
X11463500Y-10112500D02*
X11538500Y-10187500D01*
X11538500Y-10112500D02*
X11463500Y-10187500D01*
X11488500Y-6042500D02*
X11563500Y-6117500D01*
X11563500Y-6042500D02*
X11488500Y-6117500D01*
X11496500Y-4012500D02*
X11571500Y-4087500D01*
X11571500Y-4012500D02*
X11496500Y-4087500D01*
X11500500Y-12220700D02*
X11575500Y-12295700D01*
X11575500Y-12220700D02*
X11500500Y-12295700D01*
X11506500Y-8092500D02*
X11581500Y-8167500D01*
X11581500Y-8092500D02*
X11506500Y-8167500D01*
X11717500Y-10112500D02*
X11792500Y-10187500D01*
X11792500Y-10112500D02*
X11717500Y-10187500D01*
X11742500Y-6042500D02*
X11817500Y-6117500D01*
X11817500Y-6042500D02*
X11742500Y-6117500D01*
X11750500Y-4012500D02*
X11825500Y-4087500D01*
X11825500Y-4012500D02*
X11750500Y-4087500D01*
X11754500Y-12220700D02*
X11829500Y-12295700D01*
X11829500Y-12220700D02*
X11754500Y-12295700D01*
X11760500Y-8092500D02*
X11835500Y-8167500D01*
X11835500Y-8092500D02*
X11760500Y-8167500D01*
X13551500Y-4042500D02*
X13626500Y-4117500D01*
X13626500Y-4042500D02*
X13551500Y-4117500D01*
X13551500Y-11165500D02*
X13626500Y-11240500D01*
X13626500Y-11165500D02*
X13551500Y-11240500D01*
X13575500Y-7155500D02*
X13650500Y-7230500D01*
X13650500Y-7155500D02*
X13575500Y-7230500D01*
X13805500Y-4042500D02*
X13880500Y-4117500D01*
X13880500Y-4042500D02*
X13805500Y-4117500D01*
X13805500Y-11165500D02*
X13880500Y-11240500D01*
X13880500Y-11165500D02*
X13805500Y-11240500D01*
X13829500Y-7155500D02*
X13904500Y-7230500D01*
X13904500Y-7155500D02*
X13829500Y-7230500D01*
X14462500Y-6137500D02*
X14537500Y-6212500D01*
X14537500Y-6137500D02*
X14462500Y-6212500D01*
X14462500Y-6391500D02*
X14537500Y-6466500D01*
X14537500Y-6391500D02*
X14462500Y-6466500D01*
X14935500Y-6135500D02*
X15010500Y-6210500D01*
X15010500Y-6135500D02*
X14935500Y-6210500D01*
X14935500Y-6389500D02*
X15010500Y-6464500D01*
X15010500Y-6389500D02*
X14935500Y-6464500D01*
X15435500Y-6135500D02*
X15510500Y-6210500D01*
X15510500Y-6135500D02*
X15435500Y-6210500D01*
X15435500Y-6389500D02*
X15510500Y-6464500D01*
X15510500Y-6389500D02*
X15435500Y-6464500D01*
X15935500Y-6135500D02*
X16010500Y-6210500D01*
X16010500Y-6135500D02*
X15935500Y-6210500D01*
X15935500Y-6389500D02*
X16010500Y-6464500D01*
X16010500Y-6389500D02*
X15935500Y-6464500D01*
D12*
X14585000Y-2430000D02*
G75*
G02*
X14475000Y-2430000I-55000J0D01*
G01*
X14475000Y-2430000D02*
G75*
G02*
X14585000Y-2430000I55000J0D01*
G01*
X14585000Y-2684000D02*
G75*
G02*
X14475000Y-2684000I-55000J0D01*
G01*
X14475000Y-2684000D02*
G75*
G02*
X14585000Y-2684000I55000J0D01*
G01*
X14585000Y-2938000D02*
G75*
G02*
X14475000Y-2938000I-55000J0D01*
G01*
X14475000Y-2938000D02*
G75*
G02*
X14585000Y-2938000I55000J0D01*
G01*
X14585000Y-3192000D02*
G75*
G02*
X14475000Y-3192000I-55000J0D01*
G01*
X14475000Y-3192000D02*
G75*
G02*
X14585000Y-3192000I55000J0D01*
G01*
X14585000Y-3446000D02*
G75*
G02*
X14475000Y-3446000I-55000J0D01*
G01*
X14475000Y-3446000D02*
G75*
G02*
X14585000Y-3446000I55000J0D01*
G01*
X14585000Y-3700000D02*
G75*
G02*
X14475000Y-3700000I-55000J0D01*
G01*
X14475000Y-3700000D02*
G75*
G02*
X14585000Y-3700000I55000J0D01*
G01*
X14585000Y-3954000D02*
G75*
G02*
X14475000Y-3954000I-55000J0D01*
G01*
X14475000Y-3954000D02*
G75*
G02*
X14585000Y-3954000I55000J0D01*
G01*
X14585000Y-4208000D02*
G75*
G02*
X14475000Y-4208000I-55000J0D01*
G01*
X14475000Y-4208000D02*
G75*
G02*
X14585000Y-4208000I55000J0D01*
G01*
X14585000Y-4462000D02*
G75*
G02*
X14475000Y-4462000I-55000J0D01*
G01*
X14475000Y-4462000D02*
G75*
G02*
X14585000Y-4462000I55000J0D01*
G01*
X14585000Y-4716000D02*
G75*
G02*
X14475000Y-4716000I-55000J0D01*
G01*
X14475000Y-4716000D02*
G75*
G02*
X14585000Y-4716000I55000J0D01*
G01*
X14585000Y-4970000D02*
G75*
G02*
X14475000Y-4970000I-55000J0D01*
G01*
X14475000Y-4970000D02*
G75*
G02*
X14585000Y-4970000I55000J0D01*
G01*
X14585000Y-5224000D02*
G75*
G02*
X14475000Y-5224000I-55000J0D01*
G01*
X14475000Y-5224000D02*
G75*
G02*
X14585000Y-5224000I55000J0D01*
G01*
X16109000Y-2430000D02*
G75*
G02*
X15999000Y-2430000I-55000J0D01*
G01*
X15999000Y-2430000D02*
G75*
G02*
X16109000Y-2430000I55000J0D01*
G01*
X16109000Y-2684000D02*
G75*
G02*
X15999000Y-2684000I-55000J0D01*
G01*
X15999000Y-2684000D02*
G75*
G02*
X16109000Y-2684000I55000J0D01*
G01*
X16109000Y-2938000D02*
G75*
G02*
X15999000Y-2938000I-55000J0D01*
G01*
X15999000Y-2938000D02*
G75*
G02*
X16109000Y-2938000I55000J0D01*
G01*
X16109000Y-3192000D02*
G75*
G02*
X15999000Y-3192000I-55000J0D01*
G01*
X15999000Y-3192000D02*
G75*
G02*
X16109000Y-3192000I55000J0D01*
G01*
X16109000Y-3446000D02*
G75*
G02*
X15999000Y-3446000I-55000J0D01*
G01*
X15999000Y-3446000D02*
G75*
G02*
X16109000Y-3446000I55000J0D01*
G01*
X16109000Y-3700000D02*
G75*
G02*
X15999000Y-3700000I-55000J0D01*
G01*
X15999000Y-3700000D02*
G75*
G02*
X16109000Y-3700000I55000J0D01*
G01*
X16109000Y-3954000D02*
G75*
G02*
X15999000Y-3954000I-55000J0D01*
G01*
X15999000Y-3954000D02*
G75*
G02*
X16109000Y-3954000I55000J0D01*
G01*
X16109000Y-4208000D02*
G75*
G02*
X15999000Y-4208000I-55000J0D01*
G01*
X15999000Y-4208000D02*
G75*
G02*
X16109000Y-4208000I55000J0D01*
G01*
X16109000Y-4462000D02*
G75*
G02*
X15999000Y-4462000I-55000J0D01*
G01*
X15999000Y-4462000D02*
G75*
G02*
X16109000Y-4462000I55000J0D01*
G01*
X16109000Y-4716000D02*
G75*
G02*
X15999000Y-4716000I-55000J0D01*
G01*
X15999000Y-4716000D02*
G75*
G02*
X16109000Y-4716000I55000J0D01*
G01*
X16109000Y-4970000D02*
G75*
G02*
X15999000Y-4970000I-55000J0D01*
G01*
X15999000Y-4970000D02*
G75*
G02*
X16109000Y-4970000I55000J0D01*
G01*
X16109000Y-5224000D02*
G75*
G02*
X15999000Y-5224000I-55000J0D01*
G01*
X15999000Y-5224000D02*
G75*
G02*
X16109000Y-5224000I55000J0D01*
G01*
D13*
X6731000Y-2719000D02*
X6731000Y-2869000D01*
X6656000Y-2794000D02*
X6806000Y-2794000D01*
X6731000Y-4751000D02*
X6731000Y-4901000D01*
X6656000Y-4826000D02*
X6806000Y-4826000D01*
X6731000Y-6783000D02*
X6731000Y-6933000D01*
X6656000Y-6858000D02*
X6806000Y-6858000D01*
X6731000Y-8815000D02*
X6731000Y-8965000D01*
X6656000Y-8890000D02*
X6806000Y-8890000D01*
X7366000Y-2465000D02*
X7366000Y-2615000D01*
X7291000Y-2540000D02*
X7441000Y-2540000D01*
X7366000Y-4497000D02*
X7366000Y-4647000D01*
X7291000Y-4572000D02*
X7441000Y-4572000D01*
X7366000Y-6529000D02*
X7366000Y-6679000D01*
X7291000Y-6604000D02*
X7441000Y-6604000D01*
X7366000Y-8561000D02*
X7366000Y-8711000D01*
X7291000Y-8636000D02*
X7441000Y-8636000D01*
X7747000Y-10847000D02*
X7747000Y-10997000D01*
X7672000Y-10922000D02*
X7822000Y-10922000D01*
X8382000Y-10593000D02*
X8382000Y-10743000D01*
X8307000Y-10668000D02*
X8457000Y-10668000D01*
X8763000Y-2719000D02*
X8763000Y-2869000D01*
X8688000Y-2794000D02*
X8838000Y-2794000D01*
X8763000Y-4751000D02*
X8763000Y-4901000D01*
X8688000Y-4826000D02*
X8838000Y-4826000D01*
X8763000Y-6783000D02*
X8763000Y-6933000D01*
X8688000Y-6858000D02*
X8838000Y-6858000D01*
X8763000Y-8815000D02*
X8763000Y-8965000D01*
X8688000Y-8890000D02*
X8838000Y-8890000D01*
X9398000Y-2465000D02*
X9398000Y-2615000D01*
X9323000Y-2540000D02*
X9473000Y-2540000D01*
X9398000Y-4497000D02*
X9398000Y-4647000D01*
X9323000Y-4572000D02*
X9473000Y-4572000D01*
X9398000Y-6529000D02*
X9398000Y-6679000D01*
X9323000Y-6604000D02*
X9473000Y-6604000D01*
X9398000Y-8561000D02*
X9398000Y-8711000D01*
X9323000Y-8636000D02*
X9473000Y-8636000D01*
X10795000Y-2719000D02*
X10795000Y-2869000D01*
X10720000Y-2794000D02*
X10870000Y-2794000D01*
X10795000Y-4751000D02*
X10795000Y-4901000D01*
X10720000Y-4826000D02*
X10870000Y-4826000D01*
X10795000Y-6783000D02*
X10795000Y-6933000D01*
X10720000Y-6858000D02*
X10870000Y-6858000D01*
X10795000Y-8815000D02*
X10795000Y-8965000D01*
X10720000Y-8890000D02*
X10870000Y-8890000D01*
X10795000Y-10847000D02*
X10795000Y-10997000D01*
X10720000Y-10922000D02*
X10870000Y-10922000D01*
X11430000Y-2465000D02*
X11430000Y-2615000D01*
X11355000Y-2540000D02*
X11505000Y-2540000D01*
X11430000Y-4497000D02*
X11430000Y-4647000D01*
X11355000Y-4572000D02*
X11505000Y-4572000D01*
X11430000Y-6529000D02*
X11430000Y-6679000D01*
X11355000Y-6604000D02*
X11505000Y-6604000D01*
X11430000Y-8561000D02*
X11430000Y-8711000D01*
X11355000Y-8636000D02*
X11505000Y-8636000D01*
X11430000Y-10593000D02*
X11430000Y-10743000D01*
X11355000Y-10668000D02*
X11505000Y-10668000D01*
X12827000Y-2719000D02*
X12827000Y-2869000D01*
X12752000Y-2794000D02*
X12902000Y-2794000D01*
X12827000Y-5767000D02*
X12827000Y-5917000D01*
X12752000Y-5842000D02*
X12902000Y-5842000D01*
X12827000Y-9831000D02*
X12827000Y-9981000D01*
X12752000Y-9906000D02*
X12902000Y-9906000D01*
X13462000Y-2465000D02*
X13462000Y-2615000D01*
X13387000Y-2540000D02*
X13537000Y-2540000D01*
X13462000Y-5513000D02*
X13462000Y-5663000D01*
X13387000Y-5588000D02*
X13537000Y-5588000D01*
X13462000Y-9577000D02*
X13462000Y-9727000D01*
X13387000Y-9652000D02*
X13537000Y-9652000D01*
D14*
X6601778Y-12876778D02*
X6601778Y-12523222D01*
X6248222Y-12523222D01*
X6248222Y-12876778D01*
X6601778Y-12876778D01*
X8376778Y-8351778D02*
X8376778Y-7998222D01*
X8023222Y-7998222D01*
X8023222Y-8351778D01*
X8376778Y-8351778D01*
X8426778Y-4276778D02*
X8426778Y-3923222D01*
X8073222Y-3923222D01*
X8073222Y-4276778D01*
X8426778Y-4276778D01*
X12476778Y-4276778D02*
X12476778Y-3923222D01*
X12123222Y-3923222D01*
X12123222Y-4276778D01*
X12476778Y-4276778D01*
X12626778Y-8276778D02*
X12626778Y-7923222D01*
X12273222Y-7923222D01*
X12273222Y-8276778D01*
X12626778Y-8276778D01*
X16076778Y-12851778D02*
X16076778Y-12498222D01*
X15723222Y-12498222D01*
X15723222Y-12851778D01*
X16076778Y-12851778D01*
D10*
X6321377Y-13353484D02*
X6321377Y-13153484D01*
X6321377Y-13153484D02*
X6368996Y-13153484D01*
X6368996Y-13153484D02*
X6397567Y-13163008D01*
X6397567Y-13163008D02*
X6416615Y-13182055D01*
X6416615Y-13182055D02*
X6426139Y-13201103D01*
X6426139Y-13201103D02*
X6435662Y-13239198D01*
X6435662Y-13239198D02*
X6435662Y-13267769D01*
X6435662Y-13267769D02*
X6426139Y-13305865D01*
X6426139Y-13305865D02*
X6416615Y-13324912D01*
X6416615Y-13324912D02*
X6397567Y-13343960D01*
X6397567Y-13343960D02*
X6368996Y-13353484D01*
X6368996Y-13353484D02*
X6321377Y-13353484D01*
X6521377Y-13353484D02*
X6521377Y-13220150D01*
X6521377Y-13258246D02*
X6530901Y-13239198D01*
X6530901Y-13239198D02*
X6540424Y-13229674D01*
X6540424Y-13229674D02*
X6559472Y-13220150D01*
X6559472Y-13220150D02*
X6578520Y-13220150D01*
X6645186Y-13353484D02*
X6645186Y-13220150D01*
X6645186Y-13153484D02*
X6635662Y-13163008D01*
X6635662Y-13163008D02*
X6645186Y-13172531D01*
X6645186Y-13172531D02*
X6654710Y-13163008D01*
X6654710Y-13163008D02*
X6645186Y-13153484D01*
X6645186Y-13153484D02*
X6645186Y-13172531D01*
X6768996Y-13353484D02*
X6749948Y-13343960D01*
X6749948Y-13343960D02*
X6740424Y-13324912D01*
X6740424Y-13324912D02*
X6740424Y-13153484D01*
X6873758Y-13353484D02*
X6854710Y-13343960D01*
X6854710Y-13343960D02*
X6845186Y-13324912D01*
X6845186Y-13324912D02*
X6845186Y-13153484D01*
X7102329Y-13353484D02*
X7102329Y-13153484D01*
X7102329Y-13153484D02*
X7168996Y-13296341D01*
X7168996Y-13296341D02*
X7235662Y-13153484D01*
X7235662Y-13153484D02*
X7235662Y-13353484D01*
X7416615Y-13353484D02*
X7416615Y-13248722D01*
X7416615Y-13248722D02*
X7407091Y-13229674D01*
X7407091Y-13229674D02*
X7388043Y-13220150D01*
X7388043Y-13220150D02*
X7349948Y-13220150D01*
X7349948Y-13220150D02*
X7330901Y-13229674D01*
X7416615Y-13343960D02*
X7397567Y-13353484D01*
X7397567Y-13353484D02*
X7349948Y-13353484D01*
X7349948Y-13353484D02*
X7330901Y-13343960D01*
X7330901Y-13343960D02*
X7321377Y-13324912D01*
X7321377Y-13324912D02*
X7321377Y-13305865D01*
X7321377Y-13305865D02*
X7330901Y-13286817D01*
X7330901Y-13286817D02*
X7349948Y-13277293D01*
X7349948Y-13277293D02*
X7397567Y-13277293D01*
X7397567Y-13277293D02*
X7416615Y-13267769D01*
X7511853Y-13220150D02*
X7511853Y-13420150D01*
X7511853Y-13229674D02*
X7530901Y-13220150D01*
X7530901Y-13220150D02*
X7568996Y-13220150D01*
X7568996Y-13220150D02*
X7588043Y-13229674D01*
X7588043Y-13229674D02*
X7597567Y-13239198D01*
X7597567Y-13239198D02*
X7607091Y-13258246D01*
X7607091Y-13258246D02*
X7607091Y-13315388D01*
X7607091Y-13315388D02*
X7597567Y-13334436D01*
X7597567Y-13334436D02*
X7588043Y-13343960D01*
X7588043Y-13343960D02*
X7568996Y-13353484D01*
X7568996Y-13353484D02*
X7530901Y-13353484D01*
X7530901Y-13353484D02*
X7511853Y-13343960D01*
X7692805Y-13334436D02*
X7702329Y-13343960D01*
X7702329Y-13343960D02*
X7692805Y-13353484D01*
X7692805Y-13353484D02*
X7683282Y-13343960D01*
X7683282Y-13343960D02*
X7692805Y-13334436D01*
X7692805Y-13334436D02*
X7692805Y-13353484D01*
X7692805Y-13229674D02*
X7702329Y-13239198D01*
X7702329Y-13239198D02*
X7692805Y-13248722D01*
X7692805Y-13248722D02*
X7683282Y-13239198D01*
X7683282Y-13239198D02*
X7692805Y-13229674D01*
X7692805Y-13229674D02*
X7692805Y-13248722D01*
D11*
X5985600Y-13644500D02*
X6060600Y-13719500D01*
X6060600Y-13644500D02*
X5985600Y-13719500D01*
D10*
X6359472Y-13573484D02*
X6378520Y-13573484D01*
X6378520Y-13573484D02*
X6397567Y-13583008D01*
X6397567Y-13583008D02*
X6407091Y-13592531D01*
X6407091Y-13592531D02*
X6416615Y-13611579D01*
X6416615Y-13611579D02*
X6426139Y-13649674D01*
X6426139Y-13649674D02*
X6426139Y-13697293D01*
X6426139Y-13697293D02*
X6416615Y-13735388D01*
X6416615Y-13735388D02*
X6407091Y-13754436D01*
X6407091Y-13754436D02*
X6397567Y-13763960D01*
X6397567Y-13763960D02*
X6378520Y-13773484D01*
X6378520Y-13773484D02*
X6359472Y-13773484D01*
X6359472Y-13773484D02*
X6340424Y-13763960D01*
X6340424Y-13763960D02*
X6330901Y-13754436D01*
X6330901Y-13754436D02*
X6321377Y-13735388D01*
X6321377Y-13735388D02*
X6311853Y-13697293D01*
X6311853Y-13697293D02*
X6311853Y-13649674D01*
X6311853Y-13649674D02*
X6321377Y-13611579D01*
X6321377Y-13611579D02*
X6330901Y-13592531D01*
X6330901Y-13592531D02*
X6340424Y-13583008D01*
X6340424Y-13583008D02*
X6359472Y-13573484D01*
X6511853Y-13754436D02*
X6521377Y-13763960D01*
X6521377Y-13763960D02*
X6511853Y-13773484D01*
X6511853Y-13773484D02*
X6502329Y-13763960D01*
X6502329Y-13763960D02*
X6511853Y-13754436D01*
X6511853Y-13754436D02*
X6511853Y-13773484D01*
X6588043Y-13573484D02*
X6721377Y-13573484D01*
X6721377Y-13573484D02*
X6635662Y-13773484D01*
X6892805Y-13573484D02*
X6797567Y-13573484D01*
X6797567Y-13573484D02*
X6788043Y-13668722D01*
X6788043Y-13668722D02*
X6797567Y-13659198D01*
X6797567Y-13659198D02*
X6816615Y-13649674D01*
X6816615Y-13649674D02*
X6864234Y-13649674D01*
X6864234Y-13649674D02*
X6883282Y-13659198D01*
X6883282Y-13659198D02*
X6892805Y-13668722D01*
X6892805Y-13668722D02*
X6902329Y-13687769D01*
X6902329Y-13687769D02*
X6902329Y-13735388D01*
X6902329Y-13735388D02*
X6892805Y-13754436D01*
X6892805Y-13754436D02*
X6883282Y-13763960D01*
X6883282Y-13763960D02*
X6864234Y-13773484D01*
X6864234Y-13773484D02*
X6816615Y-13773484D01*
X6816615Y-13773484D02*
X6797567Y-13763960D01*
X6797567Y-13763960D02*
X6788043Y-13754436D01*
X7026139Y-13573484D02*
X7045186Y-13573484D01*
X7045186Y-13573484D02*
X7064234Y-13583008D01*
X7064234Y-13583008D02*
X7073758Y-13592531D01*
X7073758Y-13592531D02*
X7083282Y-13611579D01*
X7083282Y-13611579D02*
X7092805Y-13649674D01*
X7092805Y-13649674D02*
X7092805Y-13697293D01*
X7092805Y-13697293D02*
X7083282Y-13735388D01*
X7083282Y-13735388D02*
X7073758Y-13754436D01*
X7073758Y-13754436D02*
X7064234Y-13763960D01*
X7064234Y-13763960D02*
X7045186Y-13773484D01*
X7045186Y-13773484D02*
X7026139Y-13773484D01*
X7026139Y-13773484D02*
X7007091Y-13763960D01*
X7007091Y-13763960D02*
X6997567Y-13754436D01*
X6997567Y-13754436D02*
X6988043Y-13735388D01*
X6988043Y-13735388D02*
X6978520Y-13697293D01*
X6978520Y-13697293D02*
X6978520Y-13649674D01*
X6978520Y-13649674D02*
X6988043Y-13611579D01*
X6988043Y-13611579D02*
X6997567Y-13592531D01*
X6997567Y-13592531D02*
X7007091Y-13583008D01*
X7007091Y-13583008D02*
X7026139Y-13573484D01*
X7178520Y-13773484D02*
X7178520Y-13640150D01*
X7178520Y-13659198D02*
X7188043Y-13649674D01*
X7188043Y-13649674D02*
X7207091Y-13640150D01*
X7207091Y-13640150D02*
X7235663Y-13640150D01*
X7235663Y-13640150D02*
X7254710Y-13649674D01*
X7254710Y-13649674D02*
X7264234Y-13668722D01*
X7264234Y-13668722D02*
X7264234Y-13773484D01*
X7264234Y-13668722D02*
X7273758Y-13649674D01*
X7273758Y-13649674D02*
X7292805Y-13640150D01*
X7292805Y-13640150D02*
X7321377Y-13640150D01*
X7321377Y-13640150D02*
X7340424Y-13649674D01*
X7340424Y-13649674D02*
X7349948Y-13668722D01*
X7349948Y-13668722D02*
X7349948Y-13773484D01*
X7445186Y-13773484D02*
X7445186Y-13640150D01*
X7445186Y-13659198D02*
X7454710Y-13649674D01*
X7454710Y-13649674D02*
X7473758Y-13640150D01*
X7473758Y-13640150D02*
X7502329Y-13640150D01*
X7502329Y-13640150D02*
X7521377Y-13649674D01*
X7521377Y-13649674D02*
X7530901Y-13668722D01*
X7530901Y-13668722D02*
X7530901Y-13773484D01*
X7530901Y-13668722D02*
X7540424Y-13649674D01*
X7540424Y-13649674D02*
X7559472Y-13640150D01*
X7559472Y-13640150D02*
X7588043Y-13640150D01*
X7588043Y-13640150D02*
X7607091Y-13649674D01*
X7607091Y-13649674D02*
X7616615Y-13668722D01*
X7616615Y-13668722D02*
X7616615Y-13773484D01*
X8007091Y-13563960D02*
X7835663Y-13821103D01*
X8264234Y-13573484D02*
X8283282Y-13573484D01*
X8283282Y-13573484D02*
X8302329Y-13583008D01*
X8302329Y-13583008D02*
X8311853Y-13592531D01*
X8311853Y-13592531D02*
X8321377Y-13611579D01*
X8321377Y-13611579D02*
X8330901Y-13649674D01*
X8330901Y-13649674D02*
X8330901Y-13697293D01*
X8330901Y-13697293D02*
X8321377Y-13735388D01*
X8321377Y-13735388D02*
X8311853Y-13754436D01*
X8311853Y-13754436D02*
X8302329Y-13763960D01*
X8302329Y-13763960D02*
X8283282Y-13773484D01*
X8283282Y-13773484D02*
X8264234Y-13773484D01*
X8264234Y-13773484D02*
X8245186Y-13763960D01*
X8245186Y-13763960D02*
X8235663Y-13754436D01*
X8235663Y-13754436D02*
X8226139Y-13735388D01*
X8226139Y-13735388D02*
X8216615Y-13697293D01*
X8216615Y-13697293D02*
X8216615Y-13649674D01*
X8216615Y-13649674D02*
X8226139Y-13611579D01*
X8226139Y-13611579D02*
X8235663Y-13592531D01*
X8235663Y-13592531D02*
X8245186Y-13583008D01*
X8245186Y-13583008D02*
X8264234Y-13573484D01*
X8416615Y-13754436D02*
X8426139Y-13763960D01*
X8426139Y-13763960D02*
X8416615Y-13773484D01*
X8416615Y-13773484D02*
X8407091Y-13763960D01*
X8407091Y-13763960D02*
X8416615Y-13754436D01*
X8416615Y-13754436D02*
X8416615Y-13773484D01*
X8549948Y-13573484D02*
X8568996Y-13573484D01*
X8568996Y-13573484D02*
X8588044Y-13583008D01*
X8588044Y-13583008D02*
X8597568Y-13592531D01*
X8597568Y-13592531D02*
X8607091Y-13611579D01*
X8607091Y-13611579D02*
X8616615Y-13649674D01*
X8616615Y-13649674D02*
X8616615Y-13697293D01*
X8616615Y-13697293D02*
X8607091Y-13735388D01*
X8607091Y-13735388D02*
X8597568Y-13754436D01*
X8597568Y-13754436D02*
X8588044Y-13763960D01*
X8588044Y-13763960D02*
X8568996Y-13773484D01*
X8568996Y-13773484D02*
X8549948Y-13773484D01*
X8549948Y-13773484D02*
X8530901Y-13763960D01*
X8530901Y-13763960D02*
X8521377Y-13754436D01*
X8521377Y-13754436D02*
X8511853Y-13735388D01*
X8511853Y-13735388D02*
X8502329Y-13697293D01*
X8502329Y-13697293D02*
X8502329Y-13649674D01*
X8502329Y-13649674D02*
X8511853Y-13611579D01*
X8511853Y-13611579D02*
X8521377Y-13592531D01*
X8521377Y-13592531D02*
X8530901Y-13583008D01*
X8530901Y-13583008D02*
X8549948Y-13573484D01*
X8692806Y-13592531D02*
X8702329Y-13583008D01*
X8702329Y-13583008D02*
X8721377Y-13573484D01*
X8721377Y-13573484D02*
X8768996Y-13573484D01*
X8768996Y-13573484D02*
X8788044Y-13583008D01*
X8788044Y-13583008D02*
X8797568Y-13592531D01*
X8797568Y-13592531D02*
X8807091Y-13611579D01*
X8807091Y-13611579D02*
X8807091Y-13630627D01*
X8807091Y-13630627D02*
X8797568Y-13659198D01*
X8797568Y-13659198D02*
X8683282Y-13773484D01*
X8683282Y-13773484D02*
X8807091Y-13773484D01*
X8902329Y-13773484D02*
X8940425Y-13773484D01*
X8940425Y-13773484D02*
X8959472Y-13763960D01*
X8959472Y-13763960D02*
X8968996Y-13754436D01*
X8968996Y-13754436D02*
X8988044Y-13725865D01*
X8988044Y-13725865D02*
X8997568Y-13687769D01*
X8997568Y-13687769D02*
X8997568Y-13611579D01*
X8997568Y-13611579D02*
X8988044Y-13592531D01*
X8988044Y-13592531D02*
X8978520Y-13583008D01*
X8978520Y-13583008D02*
X8959472Y-13573484D01*
X8959472Y-13573484D02*
X8921377Y-13573484D01*
X8921377Y-13573484D02*
X8902329Y-13583008D01*
X8902329Y-13583008D02*
X8892806Y-13592531D01*
X8892806Y-13592531D02*
X8883282Y-13611579D01*
X8883282Y-13611579D02*
X8883282Y-13659198D01*
X8883282Y-13659198D02*
X8892806Y-13678246D01*
X8892806Y-13678246D02*
X8902329Y-13687769D01*
X8902329Y-13687769D02*
X8921377Y-13697293D01*
X8921377Y-13697293D02*
X8959472Y-13697293D01*
X8959472Y-13697293D02*
X8978520Y-13687769D01*
X8978520Y-13687769D02*
X8988044Y-13678246D01*
X8988044Y-13678246D02*
X8997568Y-13659198D01*
X9178520Y-13573484D02*
X9083282Y-13573484D01*
X9083282Y-13573484D02*
X9073758Y-13668722D01*
X9073758Y-13668722D02*
X9083282Y-13659198D01*
X9083282Y-13659198D02*
X9102329Y-13649674D01*
X9102329Y-13649674D02*
X9149949Y-13649674D01*
X9149949Y-13649674D02*
X9168996Y-13659198D01*
X9168996Y-13659198D02*
X9178520Y-13668722D01*
X9178520Y-13668722D02*
X9188044Y-13687769D01*
X9188044Y-13687769D02*
X9188044Y-13735388D01*
X9188044Y-13735388D02*
X9178520Y-13754436D01*
X9178520Y-13754436D02*
X9168996Y-13763960D01*
X9168996Y-13763960D02*
X9149949Y-13773484D01*
X9149949Y-13773484D02*
X9102329Y-13773484D01*
X9102329Y-13773484D02*
X9083282Y-13763960D01*
X9083282Y-13763960D02*
X9073758Y-13754436D01*
X9264234Y-13573484D02*
X9264234Y-13611579D01*
X9340425Y-13573484D02*
X9340425Y-13611579D01*
X9635663Y-13849674D02*
X9626139Y-13840150D01*
X9626139Y-13840150D02*
X9607091Y-13811579D01*
X9607091Y-13811579D02*
X9597568Y-13792531D01*
X9597568Y-13792531D02*
X9588044Y-13763960D01*
X9588044Y-13763960D02*
X9578520Y-13716341D01*
X9578520Y-13716341D02*
X9578520Y-13678246D01*
X9578520Y-13678246D02*
X9588044Y-13630627D01*
X9588044Y-13630627D02*
X9597568Y-13602055D01*
X9597568Y-13602055D02*
X9607091Y-13583008D01*
X9607091Y-13583008D02*
X9626139Y-13554436D01*
X9626139Y-13554436D02*
X9635663Y-13544912D01*
X9797568Y-13640150D02*
X9797568Y-13773484D01*
X9749949Y-13563960D02*
X9702330Y-13706817D01*
X9702330Y-13706817D02*
X9826139Y-13706817D01*
X9892806Y-13592531D02*
X9902330Y-13583008D01*
X9902330Y-13583008D02*
X9921377Y-13573484D01*
X9921377Y-13573484D02*
X9968996Y-13573484D01*
X9968996Y-13573484D02*
X9988044Y-13583008D01*
X9988044Y-13583008D02*
X9997568Y-13592531D01*
X9997568Y-13592531D02*
X10007091Y-13611579D01*
X10007091Y-13611579D02*
X10007091Y-13630627D01*
X10007091Y-13630627D02*
X9997568Y-13659198D01*
X9997568Y-13659198D02*
X9883282Y-13773484D01*
X9883282Y-13773484D02*
X10007091Y-13773484D01*
X10245187Y-13773484D02*
X10245187Y-13573484D01*
X10330901Y-13773484D02*
X10330901Y-13668722D01*
X10330901Y-13668722D02*
X10321377Y-13649674D01*
X10321377Y-13649674D02*
X10302330Y-13640150D01*
X10302330Y-13640150D02*
X10273758Y-13640150D01*
X10273758Y-13640150D02*
X10254711Y-13649674D01*
X10254711Y-13649674D02*
X10245187Y-13659198D01*
X10454711Y-13773484D02*
X10435663Y-13763960D01*
X10435663Y-13763960D02*
X10426139Y-13754436D01*
X10426139Y-13754436D02*
X10416615Y-13735388D01*
X10416615Y-13735388D02*
X10416615Y-13678246D01*
X10416615Y-13678246D02*
X10426139Y-13659198D01*
X10426139Y-13659198D02*
X10435663Y-13649674D01*
X10435663Y-13649674D02*
X10454711Y-13640150D01*
X10454711Y-13640150D02*
X10483282Y-13640150D01*
X10483282Y-13640150D02*
X10502330Y-13649674D01*
X10502330Y-13649674D02*
X10511853Y-13659198D01*
X10511853Y-13659198D02*
X10521377Y-13678246D01*
X10521377Y-13678246D02*
X10521377Y-13735388D01*
X10521377Y-13735388D02*
X10511853Y-13754436D01*
X10511853Y-13754436D02*
X10502330Y-13763960D01*
X10502330Y-13763960D02*
X10483282Y-13773484D01*
X10483282Y-13773484D02*
X10454711Y-13773484D01*
X10635663Y-13773484D02*
X10616615Y-13763960D01*
X10616615Y-13763960D02*
X10607092Y-13744912D01*
X10607092Y-13744912D02*
X10607092Y-13573484D01*
X10788044Y-13763960D02*
X10768996Y-13773484D01*
X10768996Y-13773484D02*
X10730901Y-13773484D01*
X10730901Y-13773484D02*
X10711853Y-13763960D01*
X10711853Y-13763960D02*
X10702330Y-13744912D01*
X10702330Y-13744912D02*
X10702330Y-13668722D01*
X10702330Y-13668722D02*
X10711853Y-13649674D01*
X10711853Y-13649674D02*
X10730901Y-13640150D01*
X10730901Y-13640150D02*
X10768996Y-13640150D01*
X10768996Y-13640150D02*
X10788044Y-13649674D01*
X10788044Y-13649674D02*
X10797568Y-13668722D01*
X10797568Y-13668722D02*
X10797568Y-13687769D01*
X10797568Y-13687769D02*
X10702330Y-13706817D01*
X10873758Y-13763960D02*
X10892806Y-13773484D01*
X10892806Y-13773484D02*
X10930901Y-13773484D01*
X10930901Y-13773484D02*
X10949949Y-13763960D01*
X10949949Y-13763960D02*
X10959473Y-13744912D01*
X10959473Y-13744912D02*
X10959473Y-13735388D01*
X10959473Y-13735388D02*
X10949949Y-13716341D01*
X10949949Y-13716341D02*
X10930901Y-13706817D01*
X10930901Y-13706817D02*
X10902330Y-13706817D01*
X10902330Y-13706817D02*
X10883282Y-13697293D01*
X10883282Y-13697293D02*
X10873758Y-13678246D01*
X10873758Y-13678246D02*
X10873758Y-13668722D01*
X10873758Y-13668722D02*
X10883282Y-13649674D01*
X10883282Y-13649674D02*
X10902330Y-13640150D01*
X10902330Y-13640150D02*
X10930901Y-13640150D01*
X10930901Y-13640150D02*
X10949949Y-13649674D01*
X11026139Y-13849674D02*
X11035663Y-13840150D01*
X11035663Y-13840150D02*
X11054711Y-13811579D01*
X11054711Y-13811579D02*
X11064234Y-13792531D01*
X11064234Y-13792531D02*
X11073758Y-13763960D01*
X11073758Y-13763960D02*
X11083282Y-13716341D01*
X11083282Y-13716341D02*
X11083282Y-13678246D01*
X11083282Y-13678246D02*
X11073758Y-13630627D01*
X11073758Y-13630627D02*
X11064234Y-13602055D01*
X11064234Y-13602055D02*
X11054711Y-13583008D01*
X11054711Y-13583008D02*
X11035663Y-13554436D01*
X11035663Y-13554436D02*
X11026139Y-13544912D01*
D12*
X6060600Y-13946000D02*
G75*
G02*
X5950600Y-13946000I-55000J0D01*
G01*
X5950600Y-13946000D02*
G75*
G02*
X6060600Y-13946000I55000J0D01*
G01*
D10*
X6426139Y-14037484D02*
X6311853Y-14037484D01*
X6368996Y-14037484D02*
X6368996Y-13837484D01*
X6368996Y-13837484D02*
X6349948Y-13866055D01*
X6349948Y-13866055D02*
X6330901Y-13885103D01*
X6330901Y-13885103D02*
X6311853Y-13894627D01*
X6511853Y-14018436D02*
X6521377Y-14027960D01*
X6521377Y-14027960D02*
X6511853Y-14037484D01*
X6511853Y-14037484D02*
X6502329Y-14027960D01*
X6502329Y-14027960D02*
X6511853Y-14018436D01*
X6511853Y-14018436D02*
X6511853Y-14037484D01*
X6711853Y-14037484D02*
X6597567Y-14037484D01*
X6654710Y-14037484D02*
X6654710Y-13837484D01*
X6654710Y-13837484D02*
X6635662Y-13866055D01*
X6635662Y-13866055D02*
X6616615Y-13885103D01*
X6616615Y-13885103D02*
X6597567Y-13894627D01*
X6835662Y-13837484D02*
X6854710Y-13837484D01*
X6854710Y-13837484D02*
X6873758Y-13847008D01*
X6873758Y-13847008D02*
X6883282Y-13856531D01*
X6883282Y-13856531D02*
X6892805Y-13875579D01*
X6892805Y-13875579D02*
X6902329Y-13913674D01*
X6902329Y-13913674D02*
X6902329Y-13961293D01*
X6902329Y-13961293D02*
X6892805Y-13999388D01*
X6892805Y-13999388D02*
X6883282Y-14018436D01*
X6883282Y-14018436D02*
X6873758Y-14027960D01*
X6873758Y-14027960D02*
X6854710Y-14037484D01*
X6854710Y-14037484D02*
X6835662Y-14037484D01*
X6835662Y-14037484D02*
X6816615Y-14027960D01*
X6816615Y-14027960D02*
X6807091Y-14018436D01*
X6807091Y-14018436D02*
X6797567Y-13999388D01*
X6797567Y-13999388D02*
X6788043Y-13961293D01*
X6788043Y-13961293D02*
X6788043Y-13913674D01*
X6788043Y-13913674D02*
X6797567Y-13875579D01*
X6797567Y-13875579D02*
X6807091Y-13856531D01*
X6807091Y-13856531D02*
X6816615Y-13847008D01*
X6816615Y-13847008D02*
X6835662Y-13837484D01*
X7026139Y-13837484D02*
X7045186Y-13837484D01*
X7045186Y-13837484D02*
X7064234Y-13847008D01*
X7064234Y-13847008D02*
X7073758Y-13856531D01*
X7073758Y-13856531D02*
X7083282Y-13875579D01*
X7083282Y-13875579D02*
X7092805Y-13913674D01*
X7092805Y-13913674D02*
X7092805Y-13961293D01*
X7092805Y-13961293D02*
X7083282Y-13999388D01*
X7083282Y-13999388D02*
X7073758Y-14018436D01*
X7073758Y-14018436D02*
X7064234Y-14027960D01*
X7064234Y-14027960D02*
X7045186Y-14037484D01*
X7045186Y-14037484D02*
X7026139Y-14037484D01*
X7026139Y-14037484D02*
X7007091Y-14027960D01*
X7007091Y-14027960D02*
X6997567Y-14018436D01*
X6997567Y-14018436D02*
X6988043Y-13999388D01*
X6988043Y-13999388D02*
X6978520Y-13961293D01*
X6978520Y-13961293D02*
X6978520Y-13913674D01*
X6978520Y-13913674D02*
X6988043Y-13875579D01*
X6988043Y-13875579D02*
X6997567Y-13856531D01*
X6997567Y-13856531D02*
X7007091Y-13847008D01*
X7007091Y-13847008D02*
X7026139Y-13837484D01*
X7178520Y-14037484D02*
X7178520Y-13904150D01*
X7178520Y-13923198D02*
X7188043Y-13913674D01*
X7188043Y-13913674D02*
X7207091Y-13904150D01*
X7207091Y-13904150D02*
X7235663Y-13904150D01*
X7235663Y-13904150D02*
X7254710Y-13913674D01*
X7254710Y-13913674D02*
X7264234Y-13932722D01*
X7264234Y-13932722D02*
X7264234Y-14037484D01*
X7264234Y-13932722D02*
X7273758Y-13913674D01*
X7273758Y-13913674D02*
X7292805Y-13904150D01*
X7292805Y-13904150D02*
X7321377Y-13904150D01*
X7321377Y-13904150D02*
X7340424Y-13913674D01*
X7340424Y-13913674D02*
X7349948Y-13932722D01*
X7349948Y-13932722D02*
X7349948Y-14037484D01*
X7445186Y-14037484D02*
X7445186Y-13904150D01*
X7445186Y-13923198D02*
X7454710Y-13913674D01*
X7454710Y-13913674D02*
X7473758Y-13904150D01*
X7473758Y-13904150D02*
X7502329Y-13904150D01*
X7502329Y-13904150D02*
X7521377Y-13913674D01*
X7521377Y-13913674D02*
X7530901Y-13932722D01*
X7530901Y-13932722D02*
X7530901Y-14037484D01*
X7530901Y-13932722D02*
X7540424Y-13913674D01*
X7540424Y-13913674D02*
X7559472Y-13904150D01*
X7559472Y-13904150D02*
X7588043Y-13904150D01*
X7588043Y-13904150D02*
X7607091Y-13913674D01*
X7607091Y-13913674D02*
X7616615Y-13932722D01*
X7616615Y-13932722D02*
X7616615Y-14037484D01*
X8007091Y-13827960D02*
X7835663Y-14085103D01*
X8264234Y-13837484D02*
X8283282Y-13837484D01*
X8283282Y-13837484D02*
X8302329Y-13847008D01*
X8302329Y-13847008D02*
X8311853Y-13856531D01*
X8311853Y-13856531D02*
X8321377Y-13875579D01*
X8321377Y-13875579D02*
X8330901Y-13913674D01*
X8330901Y-13913674D02*
X8330901Y-13961293D01*
X8330901Y-13961293D02*
X8321377Y-13999388D01*
X8321377Y-13999388D02*
X8311853Y-14018436D01*
X8311853Y-14018436D02*
X8302329Y-14027960D01*
X8302329Y-14027960D02*
X8283282Y-14037484D01*
X8283282Y-14037484D02*
X8264234Y-14037484D01*
X8264234Y-14037484D02*
X8245186Y-14027960D01*
X8245186Y-14027960D02*
X8235663Y-14018436D01*
X8235663Y-14018436D02*
X8226139Y-13999388D01*
X8226139Y-13999388D02*
X8216615Y-13961293D01*
X8216615Y-13961293D02*
X8216615Y-13913674D01*
X8216615Y-13913674D02*
X8226139Y-13875579D01*
X8226139Y-13875579D02*
X8235663Y-13856531D01*
X8235663Y-13856531D02*
X8245186Y-13847008D01*
X8245186Y-13847008D02*
X8264234Y-13837484D01*
X8416615Y-14018436D02*
X8426139Y-14027960D01*
X8426139Y-14027960D02*
X8416615Y-14037484D01*
X8416615Y-14037484D02*
X8407091Y-14027960D01*
X8407091Y-14027960D02*
X8416615Y-14018436D01*
X8416615Y-14018436D02*
X8416615Y-14037484D01*
X8549948Y-13837484D02*
X8568996Y-13837484D01*
X8568996Y-13837484D02*
X8588044Y-13847008D01*
X8588044Y-13847008D02*
X8597568Y-13856531D01*
X8597568Y-13856531D02*
X8607091Y-13875579D01*
X8607091Y-13875579D02*
X8616615Y-13913674D01*
X8616615Y-13913674D02*
X8616615Y-13961293D01*
X8616615Y-13961293D02*
X8607091Y-13999388D01*
X8607091Y-13999388D02*
X8597568Y-14018436D01*
X8597568Y-14018436D02*
X8588044Y-14027960D01*
X8588044Y-14027960D02*
X8568996Y-14037484D01*
X8568996Y-14037484D02*
X8549948Y-14037484D01*
X8549948Y-14037484D02*
X8530901Y-14027960D01*
X8530901Y-14027960D02*
X8521377Y-14018436D01*
X8521377Y-14018436D02*
X8511853Y-13999388D01*
X8511853Y-13999388D02*
X8502329Y-13961293D01*
X8502329Y-13961293D02*
X8502329Y-13913674D01*
X8502329Y-13913674D02*
X8511853Y-13875579D01*
X8511853Y-13875579D02*
X8521377Y-13856531D01*
X8521377Y-13856531D02*
X8530901Y-13847008D01*
X8530901Y-13847008D02*
X8549948Y-13837484D01*
X8788044Y-13904150D02*
X8788044Y-14037484D01*
X8740425Y-13827960D02*
X8692806Y-13970817D01*
X8692806Y-13970817D02*
X8816615Y-13970817D01*
X8873758Y-13837484D02*
X8997568Y-13837484D01*
X8997568Y-13837484D02*
X8930901Y-13913674D01*
X8930901Y-13913674D02*
X8959472Y-13913674D01*
X8959472Y-13913674D02*
X8978520Y-13923198D01*
X8978520Y-13923198D02*
X8988044Y-13932722D01*
X8988044Y-13932722D02*
X8997568Y-13951769D01*
X8997568Y-13951769D02*
X8997568Y-13999388D01*
X8997568Y-13999388D02*
X8988044Y-14018436D01*
X8988044Y-14018436D02*
X8978520Y-14027960D01*
X8978520Y-14027960D02*
X8959472Y-14037484D01*
X8959472Y-14037484D02*
X8902329Y-14037484D01*
X8902329Y-14037484D02*
X8883282Y-14027960D01*
X8883282Y-14027960D02*
X8873758Y-14018436D01*
X9064234Y-13837484D02*
X9188044Y-13837484D01*
X9188044Y-13837484D02*
X9121377Y-13913674D01*
X9121377Y-13913674D02*
X9149949Y-13913674D01*
X9149949Y-13913674D02*
X9168996Y-13923198D01*
X9168996Y-13923198D02*
X9178520Y-13932722D01*
X9178520Y-13932722D02*
X9188044Y-13951769D01*
X9188044Y-13951769D02*
X9188044Y-13999388D01*
X9188044Y-13999388D02*
X9178520Y-14018436D01*
X9178520Y-14018436D02*
X9168996Y-14027960D01*
X9168996Y-14027960D02*
X9149949Y-14037484D01*
X9149949Y-14037484D02*
X9092806Y-14037484D01*
X9092806Y-14037484D02*
X9073758Y-14027960D01*
X9073758Y-14027960D02*
X9064234Y-14018436D01*
X9264234Y-13837484D02*
X9264234Y-13875579D01*
X9340425Y-13837484D02*
X9340425Y-13875579D01*
X9635663Y-14113674D02*
X9626139Y-14104150D01*
X9626139Y-14104150D02*
X9607091Y-14075579D01*
X9607091Y-14075579D02*
X9597568Y-14056531D01*
X9597568Y-14056531D02*
X9588044Y-14027960D01*
X9588044Y-14027960D02*
X9578520Y-13980341D01*
X9578520Y-13980341D02*
X9578520Y-13942246D01*
X9578520Y-13942246D02*
X9588044Y-13894627D01*
X9588044Y-13894627D02*
X9597568Y-13866055D01*
X9597568Y-13866055D02*
X9607091Y-13847008D01*
X9607091Y-13847008D02*
X9626139Y-13818436D01*
X9626139Y-13818436D02*
X9635663Y-13808912D01*
X9702330Y-13856531D02*
X9711853Y-13847008D01*
X9711853Y-13847008D02*
X9730901Y-13837484D01*
X9730901Y-13837484D02*
X9778520Y-13837484D01*
X9778520Y-13837484D02*
X9797568Y-13847008D01*
X9797568Y-13847008D02*
X9807091Y-13856531D01*
X9807091Y-13856531D02*
X9816615Y-13875579D01*
X9816615Y-13875579D02*
X9816615Y-13894627D01*
X9816615Y-13894627D02*
X9807091Y-13923198D01*
X9807091Y-13923198D02*
X9692806Y-14037484D01*
X9692806Y-14037484D02*
X9816615Y-14037484D01*
X9988044Y-13904150D02*
X9988044Y-14037484D01*
X9940425Y-13827960D02*
X9892806Y-13970817D01*
X9892806Y-13970817D02*
X10016615Y-13970817D01*
X10245187Y-14037484D02*
X10245187Y-13837484D01*
X10330901Y-14037484D02*
X10330901Y-13932722D01*
X10330901Y-13932722D02*
X10321377Y-13913674D01*
X10321377Y-13913674D02*
X10302330Y-13904150D01*
X10302330Y-13904150D02*
X10273758Y-13904150D01*
X10273758Y-13904150D02*
X10254711Y-13913674D01*
X10254711Y-13913674D02*
X10245187Y-13923198D01*
X10454711Y-14037484D02*
X10435663Y-14027960D01*
X10435663Y-14027960D02*
X10426139Y-14018436D01*
X10426139Y-14018436D02*
X10416615Y-13999388D01*
X10416615Y-13999388D02*
X10416615Y-13942246D01*
X10416615Y-13942246D02*
X10426139Y-13923198D01*
X10426139Y-13923198D02*
X10435663Y-13913674D01*
X10435663Y-13913674D02*
X10454711Y-13904150D01*
X10454711Y-13904150D02*
X10483282Y-13904150D01*
X10483282Y-13904150D02*
X10502330Y-13913674D01*
X10502330Y-13913674D02*
X10511853Y-13923198D01*
X10511853Y-13923198D02*
X10521377Y-13942246D01*
X10521377Y-13942246D02*
X10521377Y-13999388D01*
X10521377Y-13999388D02*
X10511853Y-14018436D01*
X10511853Y-14018436D02*
X10502330Y-14027960D01*
X10502330Y-14027960D02*
X10483282Y-14037484D01*
X10483282Y-14037484D02*
X10454711Y-14037484D01*
X10635663Y-14037484D02*
X10616615Y-14027960D01*
X10616615Y-14027960D02*
X10607092Y-14008912D01*
X10607092Y-14008912D02*
X10607092Y-13837484D01*
X10788044Y-14027960D02*
X10768996Y-14037484D01*
X10768996Y-14037484D02*
X10730901Y-14037484D01*
X10730901Y-14037484D02*
X10711853Y-14027960D01*
X10711853Y-14027960D02*
X10702330Y-14008912D01*
X10702330Y-14008912D02*
X10702330Y-13932722D01*
X10702330Y-13932722D02*
X10711853Y-13913674D01*
X10711853Y-13913674D02*
X10730901Y-13904150D01*
X10730901Y-13904150D02*
X10768996Y-13904150D01*
X10768996Y-13904150D02*
X10788044Y-13913674D01*
X10788044Y-13913674D02*
X10797568Y-13932722D01*
X10797568Y-13932722D02*
X10797568Y-13951769D01*
X10797568Y-13951769D02*
X10702330Y-13970817D01*
X10873758Y-14027960D02*
X10892806Y-14037484D01*
X10892806Y-14037484D02*
X10930901Y-14037484D01*
X10930901Y-14037484D02*
X10949949Y-14027960D01*
X10949949Y-14027960D02*
X10959473Y-14008912D01*
X10959473Y-14008912D02*
X10959473Y-13999388D01*
X10959473Y-13999388D02*
X10949949Y-13980341D01*
X10949949Y-13980341D02*
X10930901Y-13970817D01*
X10930901Y-13970817D02*
X10902330Y-13970817D01*
X10902330Y-13970817D02*
X10883282Y-13961293D01*
X10883282Y-13961293D02*
X10873758Y-13942246D01*
X10873758Y-13942246D02*
X10873758Y-13932722D01*
X10873758Y-13932722D02*
X10883282Y-13913674D01*
X10883282Y-13913674D02*
X10902330Y-13904150D01*
X10902330Y-13904150D02*
X10930901Y-13904150D01*
X10930901Y-13904150D02*
X10949949Y-13913674D01*
X11026139Y-14113674D02*
X11035663Y-14104150D01*
X11035663Y-14104150D02*
X11054711Y-14075579D01*
X11054711Y-14075579D02*
X11064234Y-14056531D01*
X11064234Y-14056531D02*
X11073758Y-14027960D01*
X11073758Y-14027960D02*
X11083282Y-13980341D01*
X11083282Y-13980341D02*
X11083282Y-13942246D01*
X11083282Y-13942246D02*
X11073758Y-13894627D01*
X11073758Y-13894627D02*
X11064234Y-13866055D01*
X11064234Y-13866055D02*
X11054711Y-13847008D01*
X11054711Y-13847008D02*
X11035663Y-13818436D01*
X11035663Y-13818436D02*
X11026139Y-13808912D01*
D13*
X5985600Y-14135000D02*
X5985600Y-14285000D01*
X5910600Y-14210000D02*
X6060600Y-14210000D01*
D10*
X6426139Y-14301484D02*
X6311853Y-14301484D01*
X6368996Y-14301484D02*
X6368996Y-14101484D01*
X6368996Y-14101484D02*
X6349948Y-14130055D01*
X6349948Y-14130055D02*
X6330901Y-14149103D01*
X6330901Y-14149103D02*
X6311853Y-14158627D01*
X6511853Y-14282436D02*
X6521377Y-14291960D01*
X6521377Y-14291960D02*
X6511853Y-14301484D01*
X6511853Y-14301484D02*
X6502329Y-14291960D01*
X6502329Y-14291960D02*
X6511853Y-14282436D01*
X6511853Y-14282436D02*
X6511853Y-14301484D01*
X6702329Y-14101484D02*
X6607091Y-14101484D01*
X6607091Y-14101484D02*
X6597567Y-14196722D01*
X6597567Y-14196722D02*
X6607091Y-14187198D01*
X6607091Y-14187198D02*
X6626139Y-14177674D01*
X6626139Y-14177674D02*
X6673758Y-14177674D01*
X6673758Y-14177674D02*
X6692805Y-14187198D01*
X6692805Y-14187198D02*
X6702329Y-14196722D01*
X6702329Y-14196722D02*
X6711853Y-14215769D01*
X6711853Y-14215769D02*
X6711853Y-14263388D01*
X6711853Y-14263388D02*
X6702329Y-14282436D01*
X6702329Y-14282436D02*
X6692805Y-14291960D01*
X6692805Y-14291960D02*
X6673758Y-14301484D01*
X6673758Y-14301484D02*
X6626139Y-14301484D01*
X6626139Y-14301484D02*
X6607091Y-14291960D01*
X6607091Y-14291960D02*
X6597567Y-14282436D01*
X6835662Y-14101484D02*
X6854710Y-14101484D01*
X6854710Y-14101484D02*
X6873758Y-14111008D01*
X6873758Y-14111008D02*
X6883282Y-14120531D01*
X6883282Y-14120531D02*
X6892805Y-14139579D01*
X6892805Y-14139579D02*
X6902329Y-14177674D01*
X6902329Y-14177674D02*
X6902329Y-14225293D01*
X6902329Y-14225293D02*
X6892805Y-14263388D01*
X6892805Y-14263388D02*
X6883282Y-14282436D01*
X6883282Y-14282436D02*
X6873758Y-14291960D01*
X6873758Y-14291960D02*
X6854710Y-14301484D01*
X6854710Y-14301484D02*
X6835662Y-14301484D01*
X6835662Y-14301484D02*
X6816615Y-14291960D01*
X6816615Y-14291960D02*
X6807091Y-14282436D01*
X6807091Y-14282436D02*
X6797567Y-14263388D01*
X6797567Y-14263388D02*
X6788043Y-14225293D01*
X6788043Y-14225293D02*
X6788043Y-14177674D01*
X6788043Y-14177674D02*
X6797567Y-14139579D01*
X6797567Y-14139579D02*
X6807091Y-14120531D01*
X6807091Y-14120531D02*
X6816615Y-14111008D01*
X6816615Y-14111008D02*
X6835662Y-14101484D01*
X7026139Y-14101484D02*
X7045186Y-14101484D01*
X7045186Y-14101484D02*
X7064234Y-14111008D01*
X7064234Y-14111008D02*
X7073758Y-14120531D01*
X7073758Y-14120531D02*
X7083282Y-14139579D01*
X7083282Y-14139579D02*
X7092805Y-14177674D01*
X7092805Y-14177674D02*
X7092805Y-14225293D01*
X7092805Y-14225293D02*
X7083282Y-14263388D01*
X7083282Y-14263388D02*
X7073758Y-14282436D01*
X7073758Y-14282436D02*
X7064234Y-14291960D01*
X7064234Y-14291960D02*
X7045186Y-14301484D01*
X7045186Y-14301484D02*
X7026139Y-14301484D01*
X7026139Y-14301484D02*
X7007091Y-14291960D01*
X7007091Y-14291960D02*
X6997567Y-14282436D01*
X6997567Y-14282436D02*
X6988043Y-14263388D01*
X6988043Y-14263388D02*
X6978520Y-14225293D01*
X6978520Y-14225293D02*
X6978520Y-14177674D01*
X6978520Y-14177674D02*
X6988043Y-14139579D01*
X6988043Y-14139579D02*
X6997567Y-14120531D01*
X6997567Y-14120531D02*
X7007091Y-14111008D01*
X7007091Y-14111008D02*
X7026139Y-14101484D01*
X7178520Y-14301484D02*
X7178520Y-14168150D01*
X7178520Y-14187198D02*
X7188043Y-14177674D01*
X7188043Y-14177674D02*
X7207091Y-14168150D01*
X7207091Y-14168150D02*
X7235663Y-14168150D01*
X7235663Y-14168150D02*
X7254710Y-14177674D01*
X7254710Y-14177674D02*
X7264234Y-14196722D01*
X7264234Y-14196722D02*
X7264234Y-14301484D01*
X7264234Y-14196722D02*
X7273758Y-14177674D01*
X7273758Y-14177674D02*
X7292805Y-14168150D01*
X7292805Y-14168150D02*
X7321377Y-14168150D01*
X7321377Y-14168150D02*
X7340424Y-14177674D01*
X7340424Y-14177674D02*
X7349948Y-14196722D01*
X7349948Y-14196722D02*
X7349948Y-14301484D01*
X7445186Y-14301484D02*
X7445186Y-14168150D01*
X7445186Y-14187198D02*
X7454710Y-14177674D01*
X7454710Y-14177674D02*
X7473758Y-14168150D01*
X7473758Y-14168150D02*
X7502329Y-14168150D01*
X7502329Y-14168150D02*
X7521377Y-14177674D01*
X7521377Y-14177674D02*
X7530901Y-14196722D01*
X7530901Y-14196722D02*
X7530901Y-14301484D01*
X7530901Y-14196722D02*
X7540424Y-14177674D01*
X7540424Y-14177674D02*
X7559472Y-14168150D01*
X7559472Y-14168150D02*
X7588043Y-14168150D01*
X7588043Y-14168150D02*
X7607091Y-14177674D01*
X7607091Y-14177674D02*
X7616615Y-14196722D01*
X7616615Y-14196722D02*
X7616615Y-14301484D01*
X8007091Y-14091960D02*
X7835663Y-14349103D01*
X8264234Y-14101484D02*
X8283282Y-14101484D01*
X8283282Y-14101484D02*
X8302329Y-14111008D01*
X8302329Y-14111008D02*
X8311853Y-14120531D01*
X8311853Y-14120531D02*
X8321377Y-14139579D01*
X8321377Y-14139579D02*
X8330901Y-14177674D01*
X8330901Y-14177674D02*
X8330901Y-14225293D01*
X8330901Y-14225293D02*
X8321377Y-14263388D01*
X8321377Y-14263388D02*
X8311853Y-14282436D01*
X8311853Y-14282436D02*
X8302329Y-14291960D01*
X8302329Y-14291960D02*
X8283282Y-14301484D01*
X8283282Y-14301484D02*
X8264234Y-14301484D01*
X8264234Y-14301484D02*
X8245186Y-14291960D01*
X8245186Y-14291960D02*
X8235663Y-14282436D01*
X8235663Y-14282436D02*
X8226139Y-14263388D01*
X8226139Y-14263388D02*
X8216615Y-14225293D01*
X8216615Y-14225293D02*
X8216615Y-14177674D01*
X8216615Y-14177674D02*
X8226139Y-14139579D01*
X8226139Y-14139579D02*
X8235663Y-14120531D01*
X8235663Y-14120531D02*
X8245186Y-14111008D01*
X8245186Y-14111008D02*
X8264234Y-14101484D01*
X8416615Y-14282436D02*
X8426139Y-14291960D01*
X8426139Y-14291960D02*
X8416615Y-14301484D01*
X8416615Y-14301484D02*
X8407091Y-14291960D01*
X8407091Y-14291960D02*
X8416615Y-14282436D01*
X8416615Y-14282436D02*
X8416615Y-14301484D01*
X8549948Y-14101484D02*
X8568996Y-14101484D01*
X8568996Y-14101484D02*
X8588044Y-14111008D01*
X8588044Y-14111008D02*
X8597568Y-14120531D01*
X8597568Y-14120531D02*
X8607091Y-14139579D01*
X8607091Y-14139579D02*
X8616615Y-14177674D01*
X8616615Y-14177674D02*
X8616615Y-14225293D01*
X8616615Y-14225293D02*
X8607091Y-14263388D01*
X8607091Y-14263388D02*
X8597568Y-14282436D01*
X8597568Y-14282436D02*
X8588044Y-14291960D01*
X8588044Y-14291960D02*
X8568996Y-14301484D01*
X8568996Y-14301484D02*
X8549948Y-14301484D01*
X8549948Y-14301484D02*
X8530901Y-14291960D01*
X8530901Y-14291960D02*
X8521377Y-14282436D01*
X8521377Y-14282436D02*
X8511853Y-14263388D01*
X8511853Y-14263388D02*
X8502329Y-14225293D01*
X8502329Y-14225293D02*
X8502329Y-14177674D01*
X8502329Y-14177674D02*
X8511853Y-14139579D01*
X8511853Y-14139579D02*
X8521377Y-14120531D01*
X8521377Y-14120531D02*
X8530901Y-14111008D01*
X8530901Y-14111008D02*
X8549948Y-14101484D01*
X8797568Y-14101484D02*
X8702329Y-14101484D01*
X8702329Y-14101484D02*
X8692806Y-14196722D01*
X8692806Y-14196722D02*
X8702329Y-14187198D01*
X8702329Y-14187198D02*
X8721377Y-14177674D01*
X8721377Y-14177674D02*
X8768996Y-14177674D01*
X8768996Y-14177674D02*
X8788044Y-14187198D01*
X8788044Y-14187198D02*
X8797568Y-14196722D01*
X8797568Y-14196722D02*
X8807091Y-14215769D01*
X8807091Y-14215769D02*
X8807091Y-14263388D01*
X8807091Y-14263388D02*
X8797568Y-14282436D01*
X8797568Y-14282436D02*
X8788044Y-14291960D01*
X8788044Y-14291960D02*
X8768996Y-14301484D01*
X8768996Y-14301484D02*
X8721377Y-14301484D01*
X8721377Y-14301484D02*
X8702329Y-14291960D01*
X8702329Y-14291960D02*
X8692806Y-14282436D01*
X8902329Y-14301484D02*
X8940425Y-14301484D01*
X8940425Y-14301484D02*
X8959472Y-14291960D01*
X8959472Y-14291960D02*
X8968996Y-14282436D01*
X8968996Y-14282436D02*
X8988044Y-14253865D01*
X8988044Y-14253865D02*
X8997568Y-14215769D01*
X8997568Y-14215769D02*
X8997568Y-14139579D01*
X8997568Y-14139579D02*
X8988044Y-14120531D01*
X8988044Y-14120531D02*
X8978520Y-14111008D01*
X8978520Y-14111008D02*
X8959472Y-14101484D01*
X8959472Y-14101484D02*
X8921377Y-14101484D01*
X8921377Y-14101484D02*
X8902329Y-14111008D01*
X8902329Y-14111008D02*
X8892806Y-14120531D01*
X8892806Y-14120531D02*
X8883282Y-14139579D01*
X8883282Y-14139579D02*
X8883282Y-14187198D01*
X8883282Y-14187198D02*
X8892806Y-14206246D01*
X8892806Y-14206246D02*
X8902329Y-14215769D01*
X8902329Y-14215769D02*
X8921377Y-14225293D01*
X8921377Y-14225293D02*
X8959472Y-14225293D01*
X8959472Y-14225293D02*
X8978520Y-14215769D01*
X8978520Y-14215769D02*
X8988044Y-14206246D01*
X8988044Y-14206246D02*
X8997568Y-14187198D01*
X9188044Y-14301484D02*
X9073758Y-14301484D01*
X9130901Y-14301484D02*
X9130901Y-14101484D01*
X9130901Y-14101484D02*
X9111853Y-14130055D01*
X9111853Y-14130055D02*
X9092806Y-14149103D01*
X9092806Y-14149103D02*
X9073758Y-14158627D01*
X9264234Y-14101484D02*
X9264234Y-14139579D01*
X9340425Y-14101484D02*
X9340425Y-14139579D01*
X9635663Y-14377674D02*
X9626139Y-14368150D01*
X9626139Y-14368150D02*
X9607091Y-14339579D01*
X9607091Y-14339579D02*
X9597568Y-14320531D01*
X9597568Y-14320531D02*
X9588044Y-14291960D01*
X9588044Y-14291960D02*
X9578520Y-14244341D01*
X9578520Y-14244341D02*
X9578520Y-14206246D01*
X9578520Y-14206246D02*
X9588044Y-14158627D01*
X9588044Y-14158627D02*
X9597568Y-14130055D01*
X9597568Y-14130055D02*
X9607091Y-14111008D01*
X9607091Y-14111008D02*
X9626139Y-14082436D01*
X9626139Y-14082436D02*
X9635663Y-14072912D01*
X9692806Y-14101484D02*
X9816615Y-14101484D01*
X9816615Y-14101484D02*
X9749949Y-14177674D01*
X9749949Y-14177674D02*
X9778520Y-14177674D01*
X9778520Y-14177674D02*
X9797568Y-14187198D01*
X9797568Y-14187198D02*
X9807091Y-14196722D01*
X9807091Y-14196722D02*
X9816615Y-14215769D01*
X9816615Y-14215769D02*
X9816615Y-14263388D01*
X9816615Y-14263388D02*
X9807091Y-14282436D01*
X9807091Y-14282436D02*
X9797568Y-14291960D01*
X9797568Y-14291960D02*
X9778520Y-14301484D01*
X9778520Y-14301484D02*
X9721377Y-14301484D01*
X9721377Y-14301484D02*
X9702330Y-14291960D01*
X9702330Y-14291960D02*
X9692806Y-14282436D01*
X9988044Y-14168150D02*
X9988044Y-14301484D01*
X9940425Y-14091960D02*
X9892806Y-14234817D01*
X9892806Y-14234817D02*
X10016615Y-14234817D01*
X10245187Y-14301484D02*
X10245187Y-14101484D01*
X10330901Y-14301484D02*
X10330901Y-14196722D01*
X10330901Y-14196722D02*
X10321377Y-14177674D01*
X10321377Y-14177674D02*
X10302330Y-14168150D01*
X10302330Y-14168150D02*
X10273758Y-14168150D01*
X10273758Y-14168150D02*
X10254711Y-14177674D01*
X10254711Y-14177674D02*
X10245187Y-14187198D01*
X10454711Y-14301484D02*
X10435663Y-14291960D01*
X10435663Y-14291960D02*
X10426139Y-14282436D01*
X10426139Y-14282436D02*
X10416615Y-14263388D01*
X10416615Y-14263388D02*
X10416615Y-14206246D01*
X10416615Y-14206246D02*
X10426139Y-14187198D01*
X10426139Y-14187198D02*
X10435663Y-14177674D01*
X10435663Y-14177674D02*
X10454711Y-14168150D01*
X10454711Y-14168150D02*
X10483282Y-14168150D01*
X10483282Y-14168150D02*
X10502330Y-14177674D01*
X10502330Y-14177674D02*
X10511853Y-14187198D01*
X10511853Y-14187198D02*
X10521377Y-14206246D01*
X10521377Y-14206246D02*
X10521377Y-14263388D01*
X10521377Y-14263388D02*
X10511853Y-14282436D01*
X10511853Y-14282436D02*
X10502330Y-14291960D01*
X10502330Y-14291960D02*
X10483282Y-14301484D01*
X10483282Y-14301484D02*
X10454711Y-14301484D01*
X10635663Y-14301484D02*
X10616615Y-14291960D01*
X10616615Y-14291960D02*
X10607092Y-14272912D01*
X10607092Y-14272912D02*
X10607092Y-14101484D01*
X10788044Y-14291960D02*
X10768996Y-14301484D01*
X10768996Y-14301484D02*
X10730901Y-14301484D01*
X10730901Y-14301484D02*
X10711853Y-14291960D01*
X10711853Y-14291960D02*
X10702330Y-14272912D01*
X10702330Y-14272912D02*
X10702330Y-14196722D01*
X10702330Y-14196722D02*
X10711853Y-14177674D01*
X10711853Y-14177674D02*
X10730901Y-14168150D01*
X10730901Y-14168150D02*
X10768996Y-14168150D01*
X10768996Y-14168150D02*
X10788044Y-14177674D01*
X10788044Y-14177674D02*
X10797568Y-14196722D01*
X10797568Y-14196722D02*
X10797568Y-14215769D01*
X10797568Y-14215769D02*
X10702330Y-14234817D01*
X10873758Y-14291960D02*
X10892806Y-14301484D01*
X10892806Y-14301484D02*
X10930901Y-14301484D01*
X10930901Y-14301484D02*
X10949949Y-14291960D01*
X10949949Y-14291960D02*
X10959473Y-14272912D01*
X10959473Y-14272912D02*
X10959473Y-14263388D01*
X10959473Y-14263388D02*
X10949949Y-14244341D01*
X10949949Y-14244341D02*
X10930901Y-14234817D01*
X10930901Y-14234817D02*
X10902330Y-14234817D01*
X10902330Y-14234817D02*
X10883282Y-14225293D01*
X10883282Y-14225293D02*
X10873758Y-14206246D01*
X10873758Y-14206246D02*
X10873758Y-14196722D01*
X10873758Y-14196722D02*
X10883282Y-14177674D01*
X10883282Y-14177674D02*
X10902330Y-14168150D01*
X10902330Y-14168150D02*
X10930901Y-14168150D01*
X10930901Y-14168150D02*
X10949949Y-14177674D01*
X11026139Y-14377674D02*
X11035663Y-14368150D01*
X11035663Y-14368150D02*
X11054711Y-14339579D01*
X11054711Y-14339579D02*
X11064234Y-14320531D01*
X11064234Y-14320531D02*
X11073758Y-14291960D01*
X11073758Y-14291960D02*
X11083282Y-14244341D01*
X11083282Y-14244341D02*
X11083282Y-14206246D01*
X11083282Y-14206246D02*
X11073758Y-14158627D01*
X11073758Y-14158627D02*
X11064234Y-14130055D01*
X11064234Y-14130055D02*
X11054711Y-14111008D01*
X11054711Y-14111008D02*
X11035663Y-14082436D01*
X11035663Y-14082436D02*
X11026139Y-14072912D01*
X6031311Y-14550711D02*
X6031311Y-14409289D01*
X5889889Y-14409289D01*
X5889889Y-14550711D01*
X6031311Y-14550711D01*
X6416615Y-14371484D02*
X6321377Y-14371484D01*
X6321377Y-14371484D02*
X6311853Y-14466722D01*
X6311853Y-14466722D02*
X6321377Y-14457198D01*
X6321377Y-14457198D02*
X6340424Y-14447674D01*
X6340424Y-14447674D02*
X6388043Y-14447674D01*
X6388043Y-14447674D02*
X6407091Y-14457198D01*
X6407091Y-14457198D02*
X6416615Y-14466722D01*
X6416615Y-14466722D02*
X6426139Y-14485769D01*
X6426139Y-14485769D02*
X6426139Y-14533388D01*
X6426139Y-14533388D02*
X6416615Y-14552436D01*
X6416615Y-14552436D02*
X6407091Y-14561960D01*
X6407091Y-14561960D02*
X6388043Y-14571484D01*
X6388043Y-14571484D02*
X6340424Y-14571484D01*
X6340424Y-14571484D02*
X6321377Y-14561960D01*
X6321377Y-14561960D02*
X6311853Y-14552436D01*
X6511853Y-14552436D02*
X6521377Y-14561960D01*
X6521377Y-14561960D02*
X6511853Y-14571484D01*
X6511853Y-14571484D02*
X6502329Y-14561960D01*
X6502329Y-14561960D02*
X6511853Y-14552436D01*
X6511853Y-14552436D02*
X6511853Y-14571484D01*
X6645186Y-14371484D02*
X6664234Y-14371484D01*
X6664234Y-14371484D02*
X6683282Y-14381008D01*
X6683282Y-14381008D02*
X6692805Y-14390531D01*
X6692805Y-14390531D02*
X6702329Y-14409579D01*
X6702329Y-14409579D02*
X6711853Y-14447674D01*
X6711853Y-14447674D02*
X6711853Y-14495293D01*
X6711853Y-14495293D02*
X6702329Y-14533388D01*
X6702329Y-14533388D02*
X6692805Y-14552436D01*
X6692805Y-14552436D02*
X6683282Y-14561960D01*
X6683282Y-14561960D02*
X6664234Y-14571484D01*
X6664234Y-14571484D02*
X6645186Y-14571484D01*
X6645186Y-14571484D02*
X6626139Y-14561960D01*
X6626139Y-14561960D02*
X6616615Y-14552436D01*
X6616615Y-14552436D02*
X6607091Y-14533388D01*
X6607091Y-14533388D02*
X6597567Y-14495293D01*
X6597567Y-14495293D02*
X6597567Y-14447674D01*
X6597567Y-14447674D02*
X6607091Y-14409579D01*
X6607091Y-14409579D02*
X6616615Y-14390531D01*
X6616615Y-14390531D02*
X6626139Y-14381008D01*
X6626139Y-14381008D02*
X6645186Y-14371484D01*
X6835662Y-14371484D02*
X6854710Y-14371484D01*
X6854710Y-14371484D02*
X6873758Y-14381008D01*
X6873758Y-14381008D02*
X6883282Y-14390531D01*
X6883282Y-14390531D02*
X6892805Y-14409579D01*
X6892805Y-14409579D02*
X6902329Y-14447674D01*
X6902329Y-14447674D02*
X6902329Y-14495293D01*
X6902329Y-14495293D02*
X6892805Y-14533388D01*
X6892805Y-14533388D02*
X6883282Y-14552436D01*
X6883282Y-14552436D02*
X6873758Y-14561960D01*
X6873758Y-14561960D02*
X6854710Y-14571484D01*
X6854710Y-14571484D02*
X6835662Y-14571484D01*
X6835662Y-14571484D02*
X6816615Y-14561960D01*
X6816615Y-14561960D02*
X6807091Y-14552436D01*
X6807091Y-14552436D02*
X6797567Y-14533388D01*
X6797567Y-14533388D02*
X6788043Y-14495293D01*
X6788043Y-14495293D02*
X6788043Y-14447674D01*
X6788043Y-14447674D02*
X6797567Y-14409579D01*
X6797567Y-14409579D02*
X6807091Y-14390531D01*
X6807091Y-14390531D02*
X6816615Y-14381008D01*
X6816615Y-14381008D02*
X6835662Y-14371484D01*
X7026139Y-14371484D02*
X7045186Y-14371484D01*
X7045186Y-14371484D02*
X7064234Y-14381008D01*
X7064234Y-14381008D02*
X7073758Y-14390531D01*
X7073758Y-14390531D02*
X7083282Y-14409579D01*
X7083282Y-14409579D02*
X7092805Y-14447674D01*
X7092805Y-14447674D02*
X7092805Y-14495293D01*
X7092805Y-14495293D02*
X7083282Y-14533388D01*
X7083282Y-14533388D02*
X7073758Y-14552436D01*
X7073758Y-14552436D02*
X7064234Y-14561960D01*
X7064234Y-14561960D02*
X7045186Y-14571484D01*
X7045186Y-14571484D02*
X7026139Y-14571484D01*
X7026139Y-14571484D02*
X7007091Y-14561960D01*
X7007091Y-14561960D02*
X6997567Y-14552436D01*
X6997567Y-14552436D02*
X6988043Y-14533388D01*
X6988043Y-14533388D02*
X6978520Y-14495293D01*
X6978520Y-14495293D02*
X6978520Y-14447674D01*
X6978520Y-14447674D02*
X6988043Y-14409579D01*
X6988043Y-14409579D02*
X6997567Y-14390531D01*
X6997567Y-14390531D02*
X7007091Y-14381008D01*
X7007091Y-14381008D02*
X7026139Y-14371484D01*
X7178520Y-14571484D02*
X7178520Y-14438150D01*
X7178520Y-14457198D02*
X7188043Y-14447674D01*
X7188043Y-14447674D02*
X7207091Y-14438150D01*
X7207091Y-14438150D02*
X7235663Y-14438150D01*
X7235663Y-14438150D02*
X7254710Y-14447674D01*
X7254710Y-14447674D02*
X7264234Y-14466722D01*
X7264234Y-14466722D02*
X7264234Y-14571484D01*
X7264234Y-14466722D02*
X7273758Y-14447674D01*
X7273758Y-14447674D02*
X7292805Y-14438150D01*
X7292805Y-14438150D02*
X7321377Y-14438150D01*
X7321377Y-14438150D02*
X7340424Y-14447674D01*
X7340424Y-14447674D02*
X7349948Y-14466722D01*
X7349948Y-14466722D02*
X7349948Y-14571484D01*
X7445186Y-14571484D02*
X7445186Y-14438150D01*
X7445186Y-14457198D02*
X7454710Y-14447674D01*
X7454710Y-14447674D02*
X7473758Y-14438150D01*
X7473758Y-14438150D02*
X7502329Y-14438150D01*
X7502329Y-14438150D02*
X7521377Y-14447674D01*
X7521377Y-14447674D02*
X7530901Y-14466722D01*
X7530901Y-14466722D02*
X7530901Y-14571484D01*
X7530901Y-14466722D02*
X7540424Y-14447674D01*
X7540424Y-14447674D02*
X7559472Y-14438150D01*
X7559472Y-14438150D02*
X7588043Y-14438150D01*
X7588043Y-14438150D02*
X7607091Y-14447674D01*
X7607091Y-14447674D02*
X7616615Y-14466722D01*
X7616615Y-14466722D02*
X7616615Y-14571484D01*
X8007091Y-14361960D02*
X7835663Y-14619103D01*
X8264234Y-14371484D02*
X8283282Y-14371484D01*
X8283282Y-14371484D02*
X8302329Y-14381008D01*
X8302329Y-14381008D02*
X8311853Y-14390531D01*
X8311853Y-14390531D02*
X8321377Y-14409579D01*
X8321377Y-14409579D02*
X8330901Y-14447674D01*
X8330901Y-14447674D02*
X8330901Y-14495293D01*
X8330901Y-14495293D02*
X8321377Y-14533388D01*
X8321377Y-14533388D02*
X8311853Y-14552436D01*
X8311853Y-14552436D02*
X8302329Y-14561960D01*
X8302329Y-14561960D02*
X8283282Y-14571484D01*
X8283282Y-14571484D02*
X8264234Y-14571484D01*
X8264234Y-14571484D02*
X8245186Y-14561960D01*
X8245186Y-14561960D02*
X8235663Y-14552436D01*
X8235663Y-14552436D02*
X8226139Y-14533388D01*
X8226139Y-14533388D02*
X8216615Y-14495293D01*
X8216615Y-14495293D02*
X8216615Y-14447674D01*
X8216615Y-14447674D02*
X8226139Y-14409579D01*
X8226139Y-14409579D02*
X8235663Y-14390531D01*
X8235663Y-14390531D02*
X8245186Y-14381008D01*
X8245186Y-14381008D02*
X8264234Y-14371484D01*
X8416615Y-14552436D02*
X8426139Y-14561960D01*
X8426139Y-14561960D02*
X8416615Y-14571484D01*
X8416615Y-14571484D02*
X8407091Y-14561960D01*
X8407091Y-14561960D02*
X8416615Y-14552436D01*
X8416615Y-14552436D02*
X8416615Y-14571484D01*
X8616615Y-14571484D02*
X8502329Y-14571484D01*
X8559472Y-14571484D02*
X8559472Y-14371484D01*
X8559472Y-14371484D02*
X8540425Y-14400055D01*
X8540425Y-14400055D02*
X8521377Y-14419103D01*
X8521377Y-14419103D02*
X8502329Y-14428627D01*
X8711853Y-14571484D02*
X8749948Y-14571484D01*
X8749948Y-14571484D02*
X8768996Y-14561960D01*
X8768996Y-14561960D02*
X8778520Y-14552436D01*
X8778520Y-14552436D02*
X8797568Y-14523865D01*
X8797568Y-14523865D02*
X8807091Y-14485769D01*
X8807091Y-14485769D02*
X8807091Y-14409579D01*
X8807091Y-14409579D02*
X8797568Y-14390531D01*
X8797568Y-14390531D02*
X8788044Y-14381008D01*
X8788044Y-14381008D02*
X8768996Y-14371484D01*
X8768996Y-14371484D02*
X8730901Y-14371484D01*
X8730901Y-14371484D02*
X8711853Y-14381008D01*
X8711853Y-14381008D02*
X8702329Y-14390531D01*
X8702329Y-14390531D02*
X8692806Y-14409579D01*
X8692806Y-14409579D02*
X8692806Y-14457198D01*
X8692806Y-14457198D02*
X8702329Y-14476246D01*
X8702329Y-14476246D02*
X8711853Y-14485769D01*
X8711853Y-14485769D02*
X8730901Y-14495293D01*
X8730901Y-14495293D02*
X8768996Y-14495293D01*
X8768996Y-14495293D02*
X8788044Y-14485769D01*
X8788044Y-14485769D02*
X8797568Y-14476246D01*
X8797568Y-14476246D02*
X8807091Y-14457198D01*
X8978520Y-14371484D02*
X8940425Y-14371484D01*
X8940425Y-14371484D02*
X8921377Y-14381008D01*
X8921377Y-14381008D02*
X8911853Y-14390531D01*
X8911853Y-14390531D02*
X8892806Y-14419103D01*
X8892806Y-14419103D02*
X8883282Y-14457198D01*
X8883282Y-14457198D02*
X8883282Y-14533388D01*
X8883282Y-14533388D02*
X8892806Y-14552436D01*
X8892806Y-14552436D02*
X8902329Y-14561960D01*
X8902329Y-14561960D02*
X8921377Y-14571484D01*
X8921377Y-14571484D02*
X8959472Y-14571484D01*
X8959472Y-14571484D02*
X8978520Y-14561960D01*
X8978520Y-14561960D02*
X8988044Y-14552436D01*
X8988044Y-14552436D02*
X8997568Y-14533388D01*
X8997568Y-14533388D02*
X8997568Y-14485769D01*
X8997568Y-14485769D02*
X8988044Y-14466722D01*
X8988044Y-14466722D02*
X8978520Y-14457198D01*
X8978520Y-14457198D02*
X8959472Y-14447674D01*
X8959472Y-14447674D02*
X8921377Y-14447674D01*
X8921377Y-14447674D02*
X8902329Y-14457198D01*
X8902329Y-14457198D02*
X8892806Y-14466722D01*
X8892806Y-14466722D02*
X8883282Y-14485769D01*
X9092806Y-14571484D02*
X9130901Y-14571484D01*
X9130901Y-14571484D02*
X9149949Y-14561960D01*
X9149949Y-14561960D02*
X9159472Y-14552436D01*
X9159472Y-14552436D02*
X9178520Y-14523865D01*
X9178520Y-14523865D02*
X9188044Y-14485769D01*
X9188044Y-14485769D02*
X9188044Y-14409579D01*
X9188044Y-14409579D02*
X9178520Y-14390531D01*
X9178520Y-14390531D02*
X9168996Y-14381008D01*
X9168996Y-14381008D02*
X9149949Y-14371484D01*
X9149949Y-14371484D02*
X9111853Y-14371484D01*
X9111853Y-14371484D02*
X9092806Y-14381008D01*
X9092806Y-14381008D02*
X9083282Y-14390531D01*
X9083282Y-14390531D02*
X9073758Y-14409579D01*
X9073758Y-14409579D02*
X9073758Y-14457198D01*
X9073758Y-14457198D02*
X9083282Y-14476246D01*
X9083282Y-14476246D02*
X9092806Y-14485769D01*
X9092806Y-14485769D02*
X9111853Y-14495293D01*
X9111853Y-14495293D02*
X9149949Y-14495293D01*
X9149949Y-14495293D02*
X9168996Y-14485769D01*
X9168996Y-14485769D02*
X9178520Y-14476246D01*
X9178520Y-14476246D02*
X9188044Y-14457198D01*
X9264234Y-14371484D02*
X9264234Y-14409579D01*
X9340425Y-14371484D02*
X9340425Y-14409579D01*
X9635663Y-14647674D02*
X9626139Y-14638150D01*
X9626139Y-14638150D02*
X9607091Y-14609579D01*
X9607091Y-14609579D02*
X9597568Y-14590531D01*
X9597568Y-14590531D02*
X9588044Y-14561960D01*
X9588044Y-14561960D02*
X9578520Y-14514341D01*
X9578520Y-14514341D02*
X9578520Y-14476246D01*
X9578520Y-14476246D02*
X9588044Y-14428627D01*
X9588044Y-14428627D02*
X9597568Y-14400055D01*
X9597568Y-14400055D02*
X9607091Y-14381008D01*
X9607091Y-14381008D02*
X9626139Y-14352436D01*
X9626139Y-14352436D02*
X9635663Y-14342912D01*
X9797568Y-14371484D02*
X9759472Y-14371484D01*
X9759472Y-14371484D02*
X9740425Y-14381008D01*
X9740425Y-14381008D02*
X9730901Y-14390531D01*
X9730901Y-14390531D02*
X9711853Y-14419103D01*
X9711853Y-14419103D02*
X9702330Y-14457198D01*
X9702330Y-14457198D02*
X9702330Y-14533388D01*
X9702330Y-14533388D02*
X9711853Y-14552436D01*
X9711853Y-14552436D02*
X9721377Y-14561960D01*
X9721377Y-14561960D02*
X9740425Y-14571484D01*
X9740425Y-14571484D02*
X9778520Y-14571484D01*
X9778520Y-14571484D02*
X9797568Y-14561960D01*
X9797568Y-14561960D02*
X9807091Y-14552436D01*
X9807091Y-14552436D02*
X9816615Y-14533388D01*
X9816615Y-14533388D02*
X9816615Y-14485769D01*
X9816615Y-14485769D02*
X9807091Y-14466722D01*
X9807091Y-14466722D02*
X9797568Y-14457198D01*
X9797568Y-14457198D02*
X9778520Y-14447674D01*
X9778520Y-14447674D02*
X9740425Y-14447674D01*
X9740425Y-14447674D02*
X9721377Y-14457198D01*
X9721377Y-14457198D02*
X9711853Y-14466722D01*
X9711853Y-14466722D02*
X9702330Y-14485769D01*
X10054711Y-14571484D02*
X10054711Y-14371484D01*
X10140425Y-14571484D02*
X10140425Y-14466722D01*
X10140425Y-14466722D02*
X10130901Y-14447674D01*
X10130901Y-14447674D02*
X10111853Y-14438150D01*
X10111853Y-14438150D02*
X10083282Y-14438150D01*
X10083282Y-14438150D02*
X10064234Y-14447674D01*
X10064234Y-14447674D02*
X10054711Y-14457198D01*
X10264234Y-14571484D02*
X10245187Y-14561960D01*
X10245187Y-14561960D02*
X10235663Y-14552436D01*
X10235663Y-14552436D02*
X10226139Y-14533388D01*
X10226139Y-14533388D02*
X10226139Y-14476246D01*
X10226139Y-14476246D02*
X10235663Y-14457198D01*
X10235663Y-14457198D02*
X10245187Y-14447674D01*
X10245187Y-14447674D02*
X10264234Y-14438150D01*
X10264234Y-14438150D02*
X10292806Y-14438150D01*
X10292806Y-14438150D02*
X10311853Y-14447674D01*
X10311853Y-14447674D02*
X10321377Y-14457198D01*
X10321377Y-14457198D02*
X10330901Y-14476246D01*
X10330901Y-14476246D02*
X10330901Y-14533388D01*
X10330901Y-14533388D02*
X10321377Y-14552436D01*
X10321377Y-14552436D02*
X10311853Y-14561960D01*
X10311853Y-14561960D02*
X10292806Y-14571484D01*
X10292806Y-14571484D02*
X10264234Y-14571484D01*
X10445187Y-14571484D02*
X10426139Y-14561960D01*
X10426139Y-14561960D02*
X10416615Y-14542912D01*
X10416615Y-14542912D02*
X10416615Y-14371484D01*
X10597568Y-14561960D02*
X10578520Y-14571484D01*
X10578520Y-14571484D02*
X10540425Y-14571484D01*
X10540425Y-14571484D02*
X10521377Y-14561960D01*
X10521377Y-14561960D02*
X10511853Y-14542912D01*
X10511853Y-14542912D02*
X10511853Y-14466722D01*
X10511853Y-14466722D02*
X10521377Y-14447674D01*
X10521377Y-14447674D02*
X10540425Y-14438150D01*
X10540425Y-14438150D02*
X10578520Y-14438150D01*
X10578520Y-14438150D02*
X10597568Y-14447674D01*
X10597568Y-14447674D02*
X10607092Y-14466722D01*
X10607092Y-14466722D02*
X10607092Y-14485769D01*
X10607092Y-14485769D02*
X10511853Y-14504817D01*
X10683282Y-14561960D02*
X10702330Y-14571484D01*
X10702330Y-14571484D02*
X10740425Y-14571484D01*
X10740425Y-14571484D02*
X10759473Y-14561960D01*
X10759473Y-14561960D02*
X10768996Y-14542912D01*
X10768996Y-14542912D02*
X10768996Y-14533388D01*
X10768996Y-14533388D02*
X10759473Y-14514341D01*
X10759473Y-14514341D02*
X10740425Y-14504817D01*
X10740425Y-14504817D02*
X10711853Y-14504817D01*
X10711853Y-14504817D02*
X10692806Y-14495293D01*
X10692806Y-14495293D02*
X10683282Y-14476246D01*
X10683282Y-14476246D02*
X10683282Y-14466722D01*
X10683282Y-14466722D02*
X10692806Y-14447674D01*
X10692806Y-14447674D02*
X10711853Y-14438150D01*
X10711853Y-14438150D02*
X10740425Y-14438150D01*
X10740425Y-14438150D02*
X10759473Y-14447674D01*
X10835663Y-14647674D02*
X10845187Y-14638150D01*
X10845187Y-14638150D02*
X10864234Y-14609579D01*
X10864234Y-14609579D02*
X10873758Y-14590531D01*
X10873758Y-14590531D02*
X10883282Y-14561960D01*
X10883282Y-14561960D02*
X10892806Y-14514341D01*
X10892806Y-14514341D02*
X10892806Y-14476246D01*
X10892806Y-14476246D02*
X10883282Y-14428627D01*
X10883282Y-14428627D02*
X10873758Y-14400055D01*
X10873758Y-14400055D02*
X10864234Y-14381008D01*
X10864234Y-14381008D02*
X10845187Y-14352436D01*
X10845187Y-14352436D02*
X10835663Y-14342912D01*
M02*
