%TF.GenerationSoftware,KiCad,Pcbnew,8.0.3*%
%TF.CreationDate,2024-06-20T00:33:24+02:00*%
%TF.ProjectId,macro=REV2,6d616372-6f3d-4524-9556-322e6b696361,2*%
%TF.SameCoordinates,Original*%
%TF.FileFunction,Copper,L1,Top*%
%TF.FilePolarity,Positive*%
%FSLAX46Y46*%
G04 Gerber Fmt 4.6, Leading zero omitted, Abs format (unit mm)*
G04 Created by KiCad (PCBNEW 8.0.3) date 2024-06-20 00:33:24*
%MOMM*%
%LPD*%
G01*
G04 APERTURE LIST*
G04 Aperture macros list*
%AMRoundRect*
0 Rectangle with rounded corners*
0 $1 Rounding radius*
0 $2 $3 $4 $5 $6 $7 $8 $9 X,Y pos of 4 corners*
0 Add a 4 corners polygon primitive as box body*
4,1,4,$2,$3,$4,$5,$6,$7,$8,$9,$2,$3,0*
0 Add four circle primitives for the rounded corners*
1,1,$1+$1,$2,$3*
1,1,$1+$1,$4,$5*
1,1,$1+$1,$6,$7*
1,1,$1+$1,$8,$9*
0 Add four rect primitives between the rounded corners*
20,1,$1+$1,$2,$3,$4,$5,0*
20,1,$1+$1,$4,$5,$6,$7,0*
20,1,$1+$1,$6,$7,$8,$9,0*
20,1,$1+$1,$8,$9,$2,$3,0*%
G04 Aperture macros list end*
%ADD10C,0.100000*%
%ADD11C,0.150000*%
%ADD12C,0.300000*%
%ADD13C,0.400000*%
%TA.AperFunction,SMDPad,CuDef*%
%ADD14RoundRect,0.250001X0.462499X0.624999X-0.462499X0.624999X-0.462499X-0.624999X0.462499X-0.624999X0*%
%TD*%
%TA.AperFunction,SMDPad,CuDef*%
%ADD15RoundRect,0.250000X0.625000X-0.312500X0.625000X0.312500X-0.625000X0.312500X-0.625000X-0.312500X0*%
%TD*%
%TA.AperFunction,ComponentPad*%
%ADD16C,2.200000*%
%TD*%
%TA.AperFunction,SMDPad,CuDef*%
%ADD17RoundRect,0.250001X0.462499X1.074999X-0.462499X1.074999X-0.462499X-1.074999X0.462499X-1.074999X0*%
%TD*%
%TA.AperFunction,ComponentPad*%
%ADD18R,1.600000X1.600000*%
%TD*%
%TA.AperFunction,ComponentPad*%
%ADD19C,1.600000*%
%TD*%
%TA.AperFunction,ViaPad*%
%ADD20C,5.100000*%
%TD*%
%TA.AperFunction,Conductor*%
%ADD21C,1.000000*%
%TD*%
%TA.AperFunction,Conductor*%
%ADD22C,0.250000*%
%TD*%
%TA.AperFunction,Conductor*%
%ADD23C,0.600000*%
%TD*%
G04 APERTURE END LIST*
D10*
D11*
X177002200Y-166007200D02*
X285002200Y-166007200D01*
X285002200Y-198007200D01*
X177002200Y-198007200D01*
X177002200Y-166007200D01*
D10*
D11*
X10000000Y-10000000D02*
X287002200Y-10000000D01*
X287002200Y-200007200D01*
X10000000Y-200007200D01*
X10000000Y-10000000D01*
D10*
D11*
X12000000Y-12000000D02*
X285002200Y-12000000D01*
X285002200Y-198007200D01*
X12000000Y-198007200D01*
X12000000Y-12000000D01*
D10*
D11*
X60000000Y-12000000D02*
X60000000Y-10000000D01*
D10*
D11*
X110000000Y-12000000D02*
X110000000Y-10000000D01*
D10*
D11*
X160000000Y-12000000D02*
X160000000Y-10000000D01*
D10*
D11*
X210000000Y-12000000D02*
X210000000Y-10000000D01*
D10*
D11*
X260000000Y-12000000D02*
X260000000Y-10000000D01*
D10*
D11*
X36089160Y-11593604D02*
X35346303Y-11593604D01*
X35717731Y-11593604D02*
X35717731Y-10293604D01*
X35717731Y-10293604D02*
X35593922Y-10479319D01*
X35593922Y-10479319D02*
X35470112Y-10603128D01*
X35470112Y-10603128D02*
X35346303Y-10665033D01*
D10*
D11*
X85346303Y-10417414D02*
X85408207Y-10355509D01*
X85408207Y-10355509D02*
X85532017Y-10293604D01*
X85532017Y-10293604D02*
X85841541Y-10293604D01*
X85841541Y-10293604D02*
X85965350Y-10355509D01*
X85965350Y-10355509D02*
X86027255Y-10417414D01*
X86027255Y-10417414D02*
X86089160Y-10541223D01*
X86089160Y-10541223D02*
X86089160Y-10665033D01*
X86089160Y-10665033D02*
X86027255Y-10850747D01*
X86027255Y-10850747D02*
X85284398Y-11593604D01*
X85284398Y-11593604D02*
X86089160Y-11593604D01*
D10*
D11*
X135284398Y-10293604D02*
X136089160Y-10293604D01*
X136089160Y-10293604D02*
X135655826Y-10788842D01*
X135655826Y-10788842D02*
X135841541Y-10788842D01*
X135841541Y-10788842D02*
X135965350Y-10850747D01*
X135965350Y-10850747D02*
X136027255Y-10912652D01*
X136027255Y-10912652D02*
X136089160Y-11036461D01*
X136089160Y-11036461D02*
X136089160Y-11345985D01*
X136089160Y-11345985D02*
X136027255Y-11469795D01*
X136027255Y-11469795D02*
X135965350Y-11531700D01*
X135965350Y-11531700D02*
X135841541Y-11593604D01*
X135841541Y-11593604D02*
X135470112Y-11593604D01*
X135470112Y-11593604D02*
X135346303Y-11531700D01*
X135346303Y-11531700D02*
X135284398Y-11469795D01*
D10*
D11*
X185965350Y-10726938D02*
X185965350Y-11593604D01*
X185655826Y-10231700D02*
X185346303Y-11160271D01*
X185346303Y-11160271D02*
X186151064Y-11160271D01*
D10*
D11*
X236027255Y-10293604D02*
X235408207Y-10293604D01*
X235408207Y-10293604D02*
X235346303Y-10912652D01*
X235346303Y-10912652D02*
X235408207Y-10850747D01*
X235408207Y-10850747D02*
X235532017Y-10788842D01*
X235532017Y-10788842D02*
X235841541Y-10788842D01*
X235841541Y-10788842D02*
X235965350Y-10850747D01*
X235965350Y-10850747D02*
X236027255Y-10912652D01*
X236027255Y-10912652D02*
X236089160Y-11036461D01*
X236089160Y-11036461D02*
X236089160Y-11345985D01*
X236089160Y-11345985D02*
X236027255Y-11469795D01*
X236027255Y-11469795D02*
X235965350Y-11531700D01*
X235965350Y-11531700D02*
X235841541Y-11593604D01*
X235841541Y-11593604D02*
X235532017Y-11593604D01*
X235532017Y-11593604D02*
X235408207Y-11531700D01*
X235408207Y-11531700D02*
X235346303Y-11469795D01*
D10*
D11*
X285965350Y-10293604D02*
X285717731Y-10293604D01*
X285717731Y-10293604D02*
X285593922Y-10355509D01*
X285593922Y-10355509D02*
X285532017Y-10417414D01*
X285532017Y-10417414D02*
X285408207Y-10603128D01*
X285408207Y-10603128D02*
X285346303Y-10850747D01*
X285346303Y-10850747D02*
X285346303Y-11345985D01*
X285346303Y-11345985D02*
X285408207Y-11469795D01*
X285408207Y-11469795D02*
X285470112Y-11531700D01*
X285470112Y-11531700D02*
X285593922Y-11593604D01*
X285593922Y-11593604D02*
X285841541Y-11593604D01*
X285841541Y-11593604D02*
X285965350Y-11531700D01*
X285965350Y-11531700D02*
X286027255Y-11469795D01*
X286027255Y-11469795D02*
X286089160Y-11345985D01*
X286089160Y-11345985D02*
X286089160Y-11036461D01*
X286089160Y-11036461D02*
X286027255Y-10912652D01*
X286027255Y-10912652D02*
X285965350Y-10850747D01*
X285965350Y-10850747D02*
X285841541Y-10788842D01*
X285841541Y-10788842D02*
X285593922Y-10788842D01*
X285593922Y-10788842D02*
X285470112Y-10850747D01*
X285470112Y-10850747D02*
X285408207Y-10912652D01*
X285408207Y-10912652D02*
X285346303Y-11036461D01*
D10*
D11*
X60000000Y-198007200D02*
X60000000Y-200007200D01*
D10*
D11*
X110000000Y-198007200D02*
X110000000Y-200007200D01*
D10*
D11*
X160000000Y-198007200D02*
X160000000Y-200007200D01*
D10*
D11*
X210000000Y-198007200D02*
X210000000Y-200007200D01*
D10*
D11*
X260000000Y-198007200D02*
X260000000Y-200007200D01*
D10*
D11*
X36089160Y-199600804D02*
X35346303Y-199600804D01*
X35717731Y-199600804D02*
X35717731Y-198300804D01*
X35717731Y-198300804D02*
X35593922Y-198486519D01*
X35593922Y-198486519D02*
X35470112Y-198610328D01*
X35470112Y-198610328D02*
X35346303Y-198672233D01*
D10*
D11*
X85346303Y-198424614D02*
X85408207Y-198362709D01*
X85408207Y-198362709D02*
X85532017Y-198300804D01*
X85532017Y-198300804D02*
X85841541Y-198300804D01*
X85841541Y-198300804D02*
X85965350Y-198362709D01*
X85965350Y-198362709D02*
X86027255Y-198424614D01*
X86027255Y-198424614D02*
X86089160Y-198548423D01*
X86089160Y-198548423D02*
X86089160Y-198672233D01*
X86089160Y-198672233D02*
X86027255Y-198857947D01*
X86027255Y-198857947D02*
X85284398Y-199600804D01*
X85284398Y-199600804D02*
X86089160Y-199600804D01*
D10*
D11*
X135284398Y-198300804D02*
X136089160Y-198300804D01*
X136089160Y-198300804D02*
X135655826Y-198796042D01*
X135655826Y-198796042D02*
X135841541Y-198796042D01*
X135841541Y-198796042D02*
X135965350Y-198857947D01*
X135965350Y-198857947D02*
X136027255Y-198919852D01*
X136027255Y-198919852D02*
X136089160Y-199043661D01*
X136089160Y-199043661D02*
X136089160Y-199353185D01*
X136089160Y-199353185D02*
X136027255Y-199476995D01*
X136027255Y-199476995D02*
X135965350Y-199538900D01*
X135965350Y-199538900D02*
X135841541Y-199600804D01*
X135841541Y-199600804D02*
X135470112Y-199600804D01*
X135470112Y-199600804D02*
X135346303Y-199538900D01*
X135346303Y-199538900D02*
X135284398Y-199476995D01*
D10*
D11*
X185965350Y-198734138D02*
X185965350Y-199600804D01*
X185655826Y-198238900D02*
X185346303Y-199167471D01*
X185346303Y-199167471D02*
X186151064Y-199167471D01*
D10*
D11*
X236027255Y-198300804D02*
X235408207Y-198300804D01*
X235408207Y-198300804D02*
X235346303Y-198919852D01*
X235346303Y-198919852D02*
X235408207Y-198857947D01*
X235408207Y-198857947D02*
X235532017Y-198796042D01*
X235532017Y-198796042D02*
X235841541Y-198796042D01*
X235841541Y-198796042D02*
X235965350Y-198857947D01*
X235965350Y-198857947D02*
X236027255Y-198919852D01*
X236027255Y-198919852D02*
X236089160Y-199043661D01*
X236089160Y-199043661D02*
X236089160Y-199353185D01*
X236089160Y-199353185D02*
X236027255Y-199476995D01*
X236027255Y-199476995D02*
X235965350Y-199538900D01*
X235965350Y-199538900D02*
X235841541Y-199600804D01*
X235841541Y-199600804D02*
X235532017Y-199600804D01*
X235532017Y-199600804D02*
X235408207Y-199538900D01*
X235408207Y-199538900D02*
X235346303Y-199476995D01*
D10*
D11*
X285965350Y-198300804D02*
X285717731Y-198300804D01*
X285717731Y-198300804D02*
X285593922Y-198362709D01*
X285593922Y-198362709D02*
X285532017Y-198424614D01*
X285532017Y-198424614D02*
X285408207Y-198610328D01*
X285408207Y-198610328D02*
X285346303Y-198857947D01*
X285346303Y-198857947D02*
X285346303Y-199353185D01*
X285346303Y-199353185D02*
X285408207Y-199476995D01*
X285408207Y-199476995D02*
X285470112Y-199538900D01*
X285470112Y-199538900D02*
X285593922Y-199600804D01*
X285593922Y-199600804D02*
X285841541Y-199600804D01*
X285841541Y-199600804D02*
X285965350Y-199538900D01*
X285965350Y-199538900D02*
X286027255Y-199476995D01*
X286027255Y-199476995D02*
X286089160Y-199353185D01*
X286089160Y-199353185D02*
X286089160Y-199043661D01*
X286089160Y-199043661D02*
X286027255Y-198919852D01*
X286027255Y-198919852D02*
X285965350Y-198857947D01*
X285965350Y-198857947D02*
X285841541Y-198796042D01*
X285841541Y-198796042D02*
X285593922Y-198796042D01*
X285593922Y-198796042D02*
X285470112Y-198857947D01*
X285470112Y-198857947D02*
X285408207Y-198919852D01*
X285408207Y-198919852D02*
X285346303Y-199043661D01*
D10*
D11*
X10000000Y-60000000D02*
X12000000Y-60000000D01*
D10*
D11*
X10000000Y-110000000D02*
X12000000Y-110000000D01*
D10*
D11*
X10000000Y-160000000D02*
X12000000Y-160000000D01*
D10*
D11*
X10690476Y-35222176D02*
X11309523Y-35222176D01*
X10566666Y-35593604D02*
X10999999Y-34293604D01*
X10999999Y-34293604D02*
X11433333Y-35593604D01*
D10*
D11*
X11092857Y-84912652D02*
X11278571Y-84974557D01*
X11278571Y-84974557D02*
X11340476Y-85036461D01*
X11340476Y-85036461D02*
X11402380Y-85160271D01*
X11402380Y-85160271D02*
X11402380Y-85345985D01*
X11402380Y-85345985D02*
X11340476Y-85469795D01*
X11340476Y-85469795D02*
X11278571Y-85531700D01*
X11278571Y-85531700D02*
X11154761Y-85593604D01*
X11154761Y-85593604D02*
X10659523Y-85593604D01*
X10659523Y-85593604D02*
X10659523Y-84293604D01*
X10659523Y-84293604D02*
X11092857Y-84293604D01*
X11092857Y-84293604D02*
X11216666Y-84355509D01*
X11216666Y-84355509D02*
X11278571Y-84417414D01*
X11278571Y-84417414D02*
X11340476Y-84541223D01*
X11340476Y-84541223D02*
X11340476Y-84665033D01*
X11340476Y-84665033D02*
X11278571Y-84788842D01*
X11278571Y-84788842D02*
X11216666Y-84850747D01*
X11216666Y-84850747D02*
X11092857Y-84912652D01*
X11092857Y-84912652D02*
X10659523Y-84912652D01*
D10*
D11*
X11402380Y-135469795D02*
X11340476Y-135531700D01*
X11340476Y-135531700D02*
X11154761Y-135593604D01*
X11154761Y-135593604D02*
X11030952Y-135593604D01*
X11030952Y-135593604D02*
X10845238Y-135531700D01*
X10845238Y-135531700D02*
X10721428Y-135407890D01*
X10721428Y-135407890D02*
X10659523Y-135284080D01*
X10659523Y-135284080D02*
X10597619Y-135036461D01*
X10597619Y-135036461D02*
X10597619Y-134850747D01*
X10597619Y-134850747D02*
X10659523Y-134603128D01*
X10659523Y-134603128D02*
X10721428Y-134479319D01*
X10721428Y-134479319D02*
X10845238Y-134355509D01*
X10845238Y-134355509D02*
X11030952Y-134293604D01*
X11030952Y-134293604D02*
X11154761Y-134293604D01*
X11154761Y-134293604D02*
X11340476Y-134355509D01*
X11340476Y-134355509D02*
X11402380Y-134417414D01*
D10*
D11*
X10659523Y-185593604D02*
X10659523Y-184293604D01*
X10659523Y-184293604D02*
X10969047Y-184293604D01*
X10969047Y-184293604D02*
X11154761Y-184355509D01*
X11154761Y-184355509D02*
X11278571Y-184479319D01*
X11278571Y-184479319D02*
X11340476Y-184603128D01*
X11340476Y-184603128D02*
X11402380Y-184850747D01*
X11402380Y-184850747D02*
X11402380Y-185036461D01*
X11402380Y-185036461D02*
X11340476Y-185284080D01*
X11340476Y-185284080D02*
X11278571Y-185407890D01*
X11278571Y-185407890D02*
X11154761Y-185531700D01*
X11154761Y-185531700D02*
X10969047Y-185593604D01*
X10969047Y-185593604D02*
X10659523Y-185593604D01*
D10*
D11*
X287002200Y-60000000D02*
X285002200Y-60000000D01*
D10*
D11*
X287002200Y-110000000D02*
X285002200Y-110000000D01*
D10*
D11*
X287002200Y-160000000D02*
X285002200Y-160000000D01*
D10*
D11*
X285692676Y-35222176D02*
X286311723Y-35222176D01*
X285568866Y-35593604D02*
X286002199Y-34293604D01*
X286002199Y-34293604D02*
X286435533Y-35593604D01*
D10*
D11*
X286095057Y-84912652D02*
X286280771Y-84974557D01*
X286280771Y-84974557D02*
X286342676Y-85036461D01*
X286342676Y-85036461D02*
X286404580Y-85160271D01*
X286404580Y-85160271D02*
X286404580Y-85345985D01*
X286404580Y-85345985D02*
X286342676Y-85469795D01*
X286342676Y-85469795D02*
X286280771Y-85531700D01*
X286280771Y-85531700D02*
X286156961Y-85593604D01*
X286156961Y-85593604D02*
X285661723Y-85593604D01*
X285661723Y-85593604D02*
X285661723Y-84293604D01*
X285661723Y-84293604D02*
X286095057Y-84293604D01*
X286095057Y-84293604D02*
X286218866Y-84355509D01*
X286218866Y-84355509D02*
X286280771Y-84417414D01*
X286280771Y-84417414D02*
X286342676Y-84541223D01*
X286342676Y-84541223D02*
X286342676Y-84665033D01*
X286342676Y-84665033D02*
X286280771Y-84788842D01*
X286280771Y-84788842D02*
X286218866Y-84850747D01*
X286218866Y-84850747D02*
X286095057Y-84912652D01*
X286095057Y-84912652D02*
X285661723Y-84912652D01*
D10*
D11*
X286404580Y-135469795D02*
X286342676Y-135531700D01*
X286342676Y-135531700D02*
X286156961Y-135593604D01*
X286156961Y-135593604D02*
X286033152Y-135593604D01*
X286033152Y-135593604D02*
X285847438Y-135531700D01*
X285847438Y-135531700D02*
X285723628Y-135407890D01*
X285723628Y-135407890D02*
X285661723Y-135284080D01*
X285661723Y-135284080D02*
X285599819Y-135036461D01*
X285599819Y-135036461D02*
X285599819Y-134850747D01*
X285599819Y-134850747D02*
X285661723Y-134603128D01*
X285661723Y-134603128D02*
X285723628Y-134479319D01*
X285723628Y-134479319D02*
X285847438Y-134355509D01*
X285847438Y-134355509D02*
X286033152Y-134293604D01*
X286033152Y-134293604D02*
X286156961Y-134293604D01*
X286156961Y-134293604D02*
X286342676Y-134355509D01*
X286342676Y-134355509D02*
X286404580Y-134417414D01*
D10*
D11*
X285661723Y-185593604D02*
X285661723Y-184293604D01*
X285661723Y-184293604D02*
X285971247Y-184293604D01*
X285971247Y-184293604D02*
X286156961Y-184355509D01*
X286156961Y-184355509D02*
X286280771Y-184479319D01*
X286280771Y-184479319D02*
X286342676Y-184603128D01*
X286342676Y-184603128D02*
X286404580Y-184850747D01*
X286404580Y-184850747D02*
X286404580Y-185036461D01*
X286404580Y-185036461D02*
X286342676Y-185284080D01*
X286342676Y-185284080D02*
X286280771Y-185407890D01*
X286280771Y-185407890D02*
X286156961Y-185531700D01*
X286156961Y-185531700D02*
X285971247Y-185593604D01*
X285971247Y-185593604D02*
X285661723Y-185593604D01*
D10*
D11*
X200458026Y-193793328D02*
X200458026Y-192293328D01*
X200458026Y-192293328D02*
X200815169Y-192293328D01*
X200815169Y-192293328D02*
X201029455Y-192364757D01*
X201029455Y-192364757D02*
X201172312Y-192507614D01*
X201172312Y-192507614D02*
X201243741Y-192650471D01*
X201243741Y-192650471D02*
X201315169Y-192936185D01*
X201315169Y-192936185D02*
X201315169Y-193150471D01*
X201315169Y-193150471D02*
X201243741Y-193436185D01*
X201243741Y-193436185D02*
X201172312Y-193579042D01*
X201172312Y-193579042D02*
X201029455Y-193721900D01*
X201029455Y-193721900D02*
X200815169Y-193793328D01*
X200815169Y-193793328D02*
X200458026Y-193793328D01*
X202600884Y-193793328D02*
X202600884Y-193007614D01*
X202600884Y-193007614D02*
X202529455Y-192864757D01*
X202529455Y-192864757D02*
X202386598Y-192793328D01*
X202386598Y-192793328D02*
X202100884Y-192793328D01*
X202100884Y-192793328D02*
X201958026Y-192864757D01*
X202600884Y-193721900D02*
X202458026Y-193793328D01*
X202458026Y-193793328D02*
X202100884Y-193793328D01*
X202100884Y-193793328D02*
X201958026Y-193721900D01*
X201958026Y-193721900D02*
X201886598Y-193579042D01*
X201886598Y-193579042D02*
X201886598Y-193436185D01*
X201886598Y-193436185D02*
X201958026Y-193293328D01*
X201958026Y-193293328D02*
X202100884Y-193221900D01*
X202100884Y-193221900D02*
X202458026Y-193221900D01*
X202458026Y-193221900D02*
X202600884Y-193150471D01*
X203100884Y-192793328D02*
X203672312Y-192793328D01*
X203315169Y-192293328D02*
X203315169Y-193579042D01*
X203315169Y-193579042D02*
X203386598Y-193721900D01*
X203386598Y-193721900D02*
X203529455Y-193793328D01*
X203529455Y-193793328D02*
X203672312Y-193793328D01*
X204743741Y-193721900D02*
X204600884Y-193793328D01*
X204600884Y-193793328D02*
X204315170Y-193793328D01*
X204315170Y-193793328D02*
X204172312Y-193721900D01*
X204172312Y-193721900D02*
X204100884Y-193579042D01*
X204100884Y-193579042D02*
X204100884Y-193007614D01*
X204100884Y-193007614D02*
X204172312Y-192864757D01*
X204172312Y-192864757D02*
X204315170Y-192793328D01*
X204315170Y-192793328D02*
X204600884Y-192793328D01*
X204600884Y-192793328D02*
X204743741Y-192864757D01*
X204743741Y-192864757D02*
X204815170Y-193007614D01*
X204815170Y-193007614D02*
X204815170Y-193150471D01*
X204815170Y-193150471D02*
X204100884Y-193293328D01*
X205458026Y-193650471D02*
X205529455Y-193721900D01*
X205529455Y-193721900D02*
X205458026Y-193793328D01*
X205458026Y-193793328D02*
X205386598Y-193721900D01*
X205386598Y-193721900D02*
X205458026Y-193650471D01*
X205458026Y-193650471D02*
X205458026Y-193793328D01*
X205458026Y-192864757D02*
X205529455Y-192936185D01*
X205529455Y-192936185D02*
X205458026Y-193007614D01*
X205458026Y-193007614D02*
X205386598Y-192936185D01*
X205386598Y-192936185D02*
X205458026Y-192864757D01*
X205458026Y-192864757D02*
X205458026Y-193007614D01*
D10*
D11*
X177002200Y-194507200D02*
X285002200Y-194507200D01*
D10*
D11*
X178458026Y-196593328D02*
X178458026Y-195093328D01*
X179315169Y-196593328D02*
X178672312Y-195736185D01*
X179315169Y-195093328D02*
X178458026Y-195950471D01*
X179958026Y-196593328D02*
X179958026Y-195593328D01*
X179958026Y-195093328D02*
X179886598Y-195164757D01*
X179886598Y-195164757D02*
X179958026Y-195236185D01*
X179958026Y-195236185D02*
X180029455Y-195164757D01*
X180029455Y-195164757D02*
X179958026Y-195093328D01*
X179958026Y-195093328D02*
X179958026Y-195236185D01*
X181529455Y-196450471D02*
X181458027Y-196521900D01*
X181458027Y-196521900D02*
X181243741Y-196593328D01*
X181243741Y-196593328D02*
X181100884Y-196593328D01*
X181100884Y-196593328D02*
X180886598Y-196521900D01*
X180886598Y-196521900D02*
X180743741Y-196379042D01*
X180743741Y-196379042D02*
X180672312Y-196236185D01*
X180672312Y-196236185D02*
X180600884Y-195950471D01*
X180600884Y-195950471D02*
X180600884Y-195736185D01*
X180600884Y-195736185D02*
X180672312Y-195450471D01*
X180672312Y-195450471D02*
X180743741Y-195307614D01*
X180743741Y-195307614D02*
X180886598Y-195164757D01*
X180886598Y-195164757D02*
X181100884Y-195093328D01*
X181100884Y-195093328D02*
X181243741Y-195093328D01*
X181243741Y-195093328D02*
X181458027Y-195164757D01*
X181458027Y-195164757D02*
X181529455Y-195236185D01*
X182815170Y-196593328D02*
X182815170Y-195807614D01*
X182815170Y-195807614D02*
X182743741Y-195664757D01*
X182743741Y-195664757D02*
X182600884Y-195593328D01*
X182600884Y-195593328D02*
X182315170Y-195593328D01*
X182315170Y-195593328D02*
X182172312Y-195664757D01*
X182815170Y-196521900D02*
X182672312Y-196593328D01*
X182672312Y-196593328D02*
X182315170Y-196593328D01*
X182315170Y-196593328D02*
X182172312Y-196521900D01*
X182172312Y-196521900D02*
X182100884Y-196379042D01*
X182100884Y-196379042D02*
X182100884Y-196236185D01*
X182100884Y-196236185D02*
X182172312Y-196093328D01*
X182172312Y-196093328D02*
X182315170Y-196021900D01*
X182315170Y-196021900D02*
X182672312Y-196021900D01*
X182672312Y-196021900D02*
X182815170Y-195950471D01*
X184172313Y-196593328D02*
X184172313Y-195093328D01*
X184172313Y-196521900D02*
X184029455Y-196593328D01*
X184029455Y-196593328D02*
X183743741Y-196593328D01*
X183743741Y-196593328D02*
X183600884Y-196521900D01*
X183600884Y-196521900D02*
X183529455Y-196450471D01*
X183529455Y-196450471D02*
X183458027Y-196307614D01*
X183458027Y-196307614D02*
X183458027Y-195879042D01*
X183458027Y-195879042D02*
X183529455Y-195736185D01*
X183529455Y-195736185D02*
X183600884Y-195664757D01*
X183600884Y-195664757D02*
X183743741Y-195593328D01*
X183743741Y-195593328D02*
X184029455Y-195593328D01*
X184029455Y-195593328D02*
X184172313Y-195664757D01*
X186029455Y-195807614D02*
X186529455Y-195807614D01*
X186743741Y-196593328D02*
X186029455Y-196593328D01*
X186029455Y-196593328D02*
X186029455Y-195093328D01*
X186029455Y-195093328D02*
X186743741Y-195093328D01*
X187386598Y-196450471D02*
X187458027Y-196521900D01*
X187458027Y-196521900D02*
X187386598Y-196593328D01*
X187386598Y-196593328D02*
X187315170Y-196521900D01*
X187315170Y-196521900D02*
X187386598Y-196450471D01*
X187386598Y-196450471D02*
X187386598Y-196593328D01*
X188100884Y-196593328D02*
X188100884Y-195093328D01*
X188100884Y-195093328D02*
X188458027Y-195093328D01*
X188458027Y-195093328D02*
X188672313Y-195164757D01*
X188672313Y-195164757D02*
X188815170Y-195307614D01*
X188815170Y-195307614D02*
X188886599Y-195450471D01*
X188886599Y-195450471D02*
X188958027Y-195736185D01*
X188958027Y-195736185D02*
X188958027Y-195950471D01*
X188958027Y-195950471D02*
X188886599Y-196236185D01*
X188886599Y-196236185D02*
X188815170Y-196379042D01*
X188815170Y-196379042D02*
X188672313Y-196521900D01*
X188672313Y-196521900D02*
X188458027Y-196593328D01*
X188458027Y-196593328D02*
X188100884Y-196593328D01*
X189600884Y-196450471D02*
X189672313Y-196521900D01*
X189672313Y-196521900D02*
X189600884Y-196593328D01*
X189600884Y-196593328D02*
X189529456Y-196521900D01*
X189529456Y-196521900D02*
X189600884Y-196450471D01*
X189600884Y-196450471D02*
X189600884Y-196593328D01*
X190243742Y-196164757D02*
X190958028Y-196164757D01*
X190100885Y-196593328D02*
X190600885Y-195093328D01*
X190600885Y-195093328D02*
X191100885Y-196593328D01*
X191600884Y-196450471D02*
X191672313Y-196521900D01*
X191672313Y-196521900D02*
X191600884Y-196593328D01*
X191600884Y-196593328D02*
X191529456Y-196521900D01*
X191529456Y-196521900D02*
X191600884Y-196450471D01*
X191600884Y-196450471D02*
X191600884Y-196593328D01*
X193672313Y-195736185D02*
X193529456Y-195664757D01*
X193529456Y-195664757D02*
X193458027Y-195593328D01*
X193458027Y-195593328D02*
X193386599Y-195450471D01*
X193386599Y-195450471D02*
X193386599Y-195379042D01*
X193386599Y-195379042D02*
X193458027Y-195236185D01*
X193458027Y-195236185D02*
X193529456Y-195164757D01*
X193529456Y-195164757D02*
X193672313Y-195093328D01*
X193672313Y-195093328D02*
X193958027Y-195093328D01*
X193958027Y-195093328D02*
X194100885Y-195164757D01*
X194100885Y-195164757D02*
X194172313Y-195236185D01*
X194172313Y-195236185D02*
X194243742Y-195379042D01*
X194243742Y-195379042D02*
X194243742Y-195450471D01*
X194243742Y-195450471D02*
X194172313Y-195593328D01*
X194172313Y-195593328D02*
X194100885Y-195664757D01*
X194100885Y-195664757D02*
X193958027Y-195736185D01*
X193958027Y-195736185D02*
X193672313Y-195736185D01*
X193672313Y-195736185D02*
X193529456Y-195807614D01*
X193529456Y-195807614D02*
X193458027Y-195879042D01*
X193458027Y-195879042D02*
X193386599Y-196021900D01*
X193386599Y-196021900D02*
X193386599Y-196307614D01*
X193386599Y-196307614D02*
X193458027Y-196450471D01*
X193458027Y-196450471D02*
X193529456Y-196521900D01*
X193529456Y-196521900D02*
X193672313Y-196593328D01*
X193672313Y-196593328D02*
X193958027Y-196593328D01*
X193958027Y-196593328D02*
X194100885Y-196521900D01*
X194100885Y-196521900D02*
X194172313Y-196450471D01*
X194172313Y-196450471D02*
X194243742Y-196307614D01*
X194243742Y-196307614D02*
X194243742Y-196021900D01*
X194243742Y-196021900D02*
X194172313Y-195879042D01*
X194172313Y-195879042D02*
X194100885Y-195807614D01*
X194100885Y-195807614D02*
X193958027Y-195736185D01*
X194886598Y-196450471D02*
X194958027Y-196521900D01*
X194958027Y-196521900D02*
X194886598Y-196593328D01*
X194886598Y-196593328D02*
X194815170Y-196521900D01*
X194815170Y-196521900D02*
X194886598Y-196450471D01*
X194886598Y-196450471D02*
X194886598Y-196593328D01*
X195886599Y-195093328D02*
X196029456Y-195093328D01*
X196029456Y-195093328D02*
X196172313Y-195164757D01*
X196172313Y-195164757D02*
X196243742Y-195236185D01*
X196243742Y-195236185D02*
X196315170Y-195379042D01*
X196315170Y-195379042D02*
X196386599Y-195664757D01*
X196386599Y-195664757D02*
X196386599Y-196021900D01*
X196386599Y-196021900D02*
X196315170Y-196307614D01*
X196315170Y-196307614D02*
X196243742Y-196450471D01*
X196243742Y-196450471D02*
X196172313Y-196521900D01*
X196172313Y-196521900D02*
X196029456Y-196593328D01*
X196029456Y-196593328D02*
X195886599Y-196593328D01*
X195886599Y-196593328D02*
X195743742Y-196521900D01*
X195743742Y-196521900D02*
X195672313Y-196450471D01*
X195672313Y-196450471D02*
X195600884Y-196307614D01*
X195600884Y-196307614D02*
X195529456Y-196021900D01*
X195529456Y-196021900D02*
X195529456Y-195664757D01*
X195529456Y-195664757D02*
X195600884Y-195379042D01*
X195600884Y-195379042D02*
X195672313Y-195236185D01*
X195672313Y-195236185D02*
X195743742Y-195164757D01*
X195743742Y-195164757D02*
X195886599Y-195093328D01*
X197029455Y-196450471D02*
X197100884Y-196521900D01*
X197100884Y-196521900D02*
X197029455Y-196593328D01*
X197029455Y-196593328D02*
X196958027Y-196521900D01*
X196958027Y-196521900D02*
X197029455Y-196450471D01*
X197029455Y-196450471D02*
X197029455Y-196593328D01*
X197600884Y-195093328D02*
X198529456Y-195093328D01*
X198529456Y-195093328D02*
X198029456Y-195664757D01*
X198029456Y-195664757D02*
X198243741Y-195664757D01*
X198243741Y-195664757D02*
X198386599Y-195736185D01*
X198386599Y-195736185D02*
X198458027Y-195807614D01*
X198458027Y-195807614D02*
X198529456Y-195950471D01*
X198529456Y-195950471D02*
X198529456Y-196307614D01*
X198529456Y-196307614D02*
X198458027Y-196450471D01*
X198458027Y-196450471D02*
X198386599Y-196521900D01*
X198386599Y-196521900D02*
X198243741Y-196593328D01*
X198243741Y-196593328D02*
X197815170Y-196593328D01*
X197815170Y-196593328D02*
X197672313Y-196521900D01*
X197672313Y-196521900D02*
X197600884Y-196450471D01*
D10*
D11*
X177002200Y-191507200D02*
X285002200Y-191507200D01*
D10*
D12*
X264413853Y-193785528D02*
X263913853Y-193071242D01*
X263556710Y-193785528D02*
X263556710Y-192285528D01*
X263556710Y-192285528D02*
X264128139Y-192285528D01*
X264128139Y-192285528D02*
X264270996Y-192356957D01*
X264270996Y-192356957D02*
X264342425Y-192428385D01*
X264342425Y-192428385D02*
X264413853Y-192571242D01*
X264413853Y-192571242D02*
X264413853Y-192785528D01*
X264413853Y-192785528D02*
X264342425Y-192928385D01*
X264342425Y-192928385D02*
X264270996Y-192999814D01*
X264270996Y-192999814D02*
X264128139Y-193071242D01*
X264128139Y-193071242D02*
X263556710Y-193071242D01*
X265628139Y-193714100D02*
X265485282Y-193785528D01*
X265485282Y-193785528D02*
X265199568Y-193785528D01*
X265199568Y-193785528D02*
X265056710Y-193714100D01*
X265056710Y-193714100D02*
X264985282Y-193571242D01*
X264985282Y-193571242D02*
X264985282Y-192999814D01*
X264985282Y-192999814D02*
X265056710Y-192856957D01*
X265056710Y-192856957D02*
X265199568Y-192785528D01*
X265199568Y-192785528D02*
X265485282Y-192785528D01*
X265485282Y-192785528D02*
X265628139Y-192856957D01*
X265628139Y-192856957D02*
X265699568Y-192999814D01*
X265699568Y-192999814D02*
X265699568Y-193142671D01*
X265699568Y-193142671D02*
X264985282Y-193285528D01*
X266199567Y-192785528D02*
X266556710Y-193785528D01*
X266556710Y-193785528D02*
X266913853Y-192785528D01*
X267485281Y-193642671D02*
X267556710Y-193714100D01*
X267556710Y-193714100D02*
X267485281Y-193785528D01*
X267485281Y-193785528D02*
X267413853Y-193714100D01*
X267413853Y-193714100D02*
X267485281Y-193642671D01*
X267485281Y-193642671D02*
X267485281Y-193785528D01*
X267485281Y-192856957D02*
X267556710Y-192928385D01*
X267556710Y-192928385D02*
X267485281Y-192999814D01*
X267485281Y-192999814D02*
X267413853Y-192928385D01*
X267413853Y-192928385D02*
X267485281Y-192856957D01*
X267485281Y-192856957D02*
X267485281Y-192999814D01*
X269270996Y-192428385D02*
X269342424Y-192356957D01*
X269342424Y-192356957D02*
X269485282Y-192285528D01*
X269485282Y-192285528D02*
X269842424Y-192285528D01*
X269842424Y-192285528D02*
X269985282Y-192356957D01*
X269985282Y-192356957D02*
X270056710Y-192428385D01*
X270056710Y-192428385D02*
X270128139Y-192571242D01*
X270128139Y-192571242D02*
X270128139Y-192714100D01*
X270128139Y-192714100D02*
X270056710Y-192928385D01*
X270056710Y-192928385D02*
X269199567Y-193785528D01*
X269199567Y-193785528D02*
X270128139Y-193785528D01*
D10*
D11*
X178386598Y-193721900D02*
X178600884Y-193793328D01*
X178600884Y-193793328D02*
X178958026Y-193793328D01*
X178958026Y-193793328D02*
X179100884Y-193721900D01*
X179100884Y-193721900D02*
X179172312Y-193650471D01*
X179172312Y-193650471D02*
X179243741Y-193507614D01*
X179243741Y-193507614D02*
X179243741Y-193364757D01*
X179243741Y-193364757D02*
X179172312Y-193221900D01*
X179172312Y-193221900D02*
X179100884Y-193150471D01*
X179100884Y-193150471D02*
X178958026Y-193079042D01*
X178958026Y-193079042D02*
X178672312Y-193007614D01*
X178672312Y-193007614D02*
X178529455Y-192936185D01*
X178529455Y-192936185D02*
X178458026Y-192864757D01*
X178458026Y-192864757D02*
X178386598Y-192721900D01*
X178386598Y-192721900D02*
X178386598Y-192579042D01*
X178386598Y-192579042D02*
X178458026Y-192436185D01*
X178458026Y-192436185D02*
X178529455Y-192364757D01*
X178529455Y-192364757D02*
X178672312Y-192293328D01*
X178672312Y-192293328D02*
X179029455Y-192293328D01*
X179029455Y-192293328D02*
X179243741Y-192364757D01*
X179886597Y-193793328D02*
X179886597Y-192793328D01*
X179886597Y-192293328D02*
X179815169Y-192364757D01*
X179815169Y-192364757D02*
X179886597Y-192436185D01*
X179886597Y-192436185D02*
X179958026Y-192364757D01*
X179958026Y-192364757D02*
X179886597Y-192293328D01*
X179886597Y-192293328D02*
X179886597Y-192436185D01*
X180458026Y-192793328D02*
X181243741Y-192793328D01*
X181243741Y-192793328D02*
X180458026Y-193793328D01*
X180458026Y-193793328D02*
X181243741Y-193793328D01*
X182386598Y-193721900D02*
X182243741Y-193793328D01*
X182243741Y-193793328D02*
X181958027Y-193793328D01*
X181958027Y-193793328D02*
X181815169Y-193721900D01*
X181815169Y-193721900D02*
X181743741Y-193579042D01*
X181743741Y-193579042D02*
X181743741Y-193007614D01*
X181743741Y-193007614D02*
X181815169Y-192864757D01*
X181815169Y-192864757D02*
X181958027Y-192793328D01*
X181958027Y-192793328D02*
X182243741Y-192793328D01*
X182243741Y-192793328D02*
X182386598Y-192864757D01*
X182386598Y-192864757D02*
X182458027Y-193007614D01*
X182458027Y-193007614D02*
X182458027Y-193150471D01*
X182458027Y-193150471D02*
X181743741Y-193293328D01*
X183100883Y-193650471D02*
X183172312Y-193721900D01*
X183172312Y-193721900D02*
X183100883Y-193793328D01*
X183100883Y-193793328D02*
X183029455Y-193721900D01*
X183029455Y-193721900D02*
X183100883Y-193650471D01*
X183100883Y-193650471D02*
X183100883Y-193793328D01*
X183100883Y-192864757D02*
X183172312Y-192936185D01*
X183172312Y-192936185D02*
X183100883Y-193007614D01*
X183100883Y-193007614D02*
X183029455Y-192936185D01*
X183029455Y-192936185D02*
X183100883Y-192864757D01*
X183100883Y-192864757D02*
X183100883Y-193007614D01*
X184886598Y-193364757D02*
X185600884Y-193364757D01*
X184743741Y-193793328D02*
X185243741Y-192293328D01*
X185243741Y-192293328D02*
X185743741Y-193793328D01*
X186886598Y-192793328D02*
X186886598Y-193793328D01*
X186529455Y-192221900D02*
X186172312Y-193293328D01*
X186172312Y-193293328D02*
X187100883Y-193293328D01*
D10*
D11*
X263458026Y-196593328D02*
X263458026Y-195093328D01*
X264815170Y-196593328D02*
X264815170Y-195093328D01*
X264815170Y-196521900D02*
X264672312Y-196593328D01*
X264672312Y-196593328D02*
X264386598Y-196593328D01*
X264386598Y-196593328D02*
X264243741Y-196521900D01*
X264243741Y-196521900D02*
X264172312Y-196450471D01*
X264172312Y-196450471D02*
X264100884Y-196307614D01*
X264100884Y-196307614D02*
X264100884Y-195879042D01*
X264100884Y-195879042D02*
X264172312Y-195736185D01*
X264172312Y-195736185D02*
X264243741Y-195664757D01*
X264243741Y-195664757D02*
X264386598Y-195593328D01*
X264386598Y-195593328D02*
X264672312Y-195593328D01*
X264672312Y-195593328D02*
X264815170Y-195664757D01*
X265529455Y-196450471D02*
X265600884Y-196521900D01*
X265600884Y-196521900D02*
X265529455Y-196593328D01*
X265529455Y-196593328D02*
X265458027Y-196521900D01*
X265458027Y-196521900D02*
X265529455Y-196450471D01*
X265529455Y-196450471D02*
X265529455Y-196593328D01*
X265529455Y-195664757D02*
X265600884Y-195736185D01*
X265600884Y-195736185D02*
X265529455Y-195807614D01*
X265529455Y-195807614D02*
X265458027Y-195736185D01*
X265458027Y-195736185D02*
X265529455Y-195664757D01*
X265529455Y-195664757D02*
X265529455Y-195807614D01*
X268172313Y-196593328D02*
X267315170Y-196593328D01*
X267743741Y-196593328D02*
X267743741Y-195093328D01*
X267743741Y-195093328D02*
X267600884Y-195307614D01*
X267600884Y-195307614D02*
X267458027Y-195450471D01*
X267458027Y-195450471D02*
X267315170Y-195521900D01*
X269886598Y-195021900D02*
X268600884Y-196950471D01*
X271172313Y-196593328D02*
X270315170Y-196593328D01*
X270743741Y-196593328D02*
X270743741Y-195093328D01*
X270743741Y-195093328D02*
X270600884Y-195307614D01*
X270600884Y-195307614D02*
X270458027Y-195450471D01*
X270458027Y-195450471D02*
X270315170Y-195521900D01*
D10*
D11*
X177002200Y-187507200D02*
X285002200Y-187507200D01*
D10*
D13*
X178693928Y-188211638D02*
X179836785Y-188211638D01*
X179015357Y-190211638D02*
X179265357Y-188211638D01*
X180253452Y-190211638D02*
X180420119Y-188878304D01*
X180503452Y-188211638D02*
X180396309Y-188306876D01*
X180396309Y-188306876D02*
X180479643Y-188402114D01*
X180479643Y-188402114D02*
X180586786Y-188306876D01*
X180586786Y-188306876D02*
X180503452Y-188211638D01*
X180503452Y-188211638D02*
X180479643Y-188402114D01*
X181086786Y-188878304D02*
X181848690Y-188878304D01*
X181455833Y-188211638D02*
X181241548Y-189925923D01*
X181241548Y-189925923D02*
X181312976Y-190116400D01*
X181312976Y-190116400D02*
X181491548Y-190211638D01*
X181491548Y-190211638D02*
X181682024Y-190211638D01*
X182634405Y-190211638D02*
X182455833Y-190116400D01*
X182455833Y-190116400D02*
X182384405Y-189925923D01*
X182384405Y-189925923D02*
X182598690Y-188211638D01*
X184170119Y-190116400D02*
X183967738Y-190211638D01*
X183967738Y-190211638D02*
X183586785Y-190211638D01*
X183586785Y-190211638D02*
X183408214Y-190116400D01*
X183408214Y-190116400D02*
X183336785Y-189925923D01*
X183336785Y-189925923D02*
X183432024Y-189164019D01*
X183432024Y-189164019D02*
X183551071Y-188973542D01*
X183551071Y-188973542D02*
X183753452Y-188878304D01*
X183753452Y-188878304D02*
X184134404Y-188878304D01*
X184134404Y-188878304D02*
X184312976Y-188973542D01*
X184312976Y-188973542D02*
X184384404Y-189164019D01*
X184384404Y-189164019D02*
X184360595Y-189354495D01*
X184360595Y-189354495D02*
X183384404Y-189544971D01*
X185134405Y-190021161D02*
X185217738Y-190116400D01*
X185217738Y-190116400D02*
X185110595Y-190211638D01*
X185110595Y-190211638D02*
X185027262Y-190116400D01*
X185027262Y-190116400D02*
X185134405Y-190021161D01*
X185134405Y-190021161D02*
X185110595Y-190211638D01*
X185265357Y-188973542D02*
X185348690Y-189068780D01*
X185348690Y-189068780D02*
X185241548Y-189164019D01*
X185241548Y-189164019D02*
X185158214Y-189068780D01*
X185158214Y-189068780D02*
X185265357Y-188973542D01*
X185265357Y-188973542D02*
X185241548Y-189164019D01*
D10*
D11*
X178958026Y-185607614D02*
X178458026Y-185607614D01*
X178458026Y-186393328D02*
X178458026Y-184893328D01*
X178458026Y-184893328D02*
X179172312Y-184893328D01*
X179743740Y-186393328D02*
X179743740Y-185393328D01*
X179743740Y-184893328D02*
X179672312Y-184964757D01*
X179672312Y-184964757D02*
X179743740Y-185036185D01*
X179743740Y-185036185D02*
X179815169Y-184964757D01*
X179815169Y-184964757D02*
X179743740Y-184893328D01*
X179743740Y-184893328D02*
X179743740Y-185036185D01*
X180672312Y-186393328D02*
X180529455Y-186321900D01*
X180529455Y-186321900D02*
X180458026Y-186179042D01*
X180458026Y-186179042D02*
X180458026Y-184893328D01*
X181815169Y-186321900D02*
X181672312Y-186393328D01*
X181672312Y-186393328D02*
X181386598Y-186393328D01*
X181386598Y-186393328D02*
X181243740Y-186321900D01*
X181243740Y-186321900D02*
X181172312Y-186179042D01*
X181172312Y-186179042D02*
X181172312Y-185607614D01*
X181172312Y-185607614D02*
X181243740Y-185464757D01*
X181243740Y-185464757D02*
X181386598Y-185393328D01*
X181386598Y-185393328D02*
X181672312Y-185393328D01*
X181672312Y-185393328D02*
X181815169Y-185464757D01*
X181815169Y-185464757D02*
X181886598Y-185607614D01*
X181886598Y-185607614D02*
X181886598Y-185750471D01*
X181886598Y-185750471D02*
X181172312Y-185893328D01*
X182529454Y-186250471D02*
X182600883Y-186321900D01*
X182600883Y-186321900D02*
X182529454Y-186393328D01*
X182529454Y-186393328D02*
X182458026Y-186321900D01*
X182458026Y-186321900D02*
X182529454Y-186250471D01*
X182529454Y-186250471D02*
X182529454Y-186393328D01*
X182529454Y-185464757D02*
X182600883Y-185536185D01*
X182600883Y-185536185D02*
X182529454Y-185607614D01*
X182529454Y-185607614D02*
X182458026Y-185536185D01*
X182458026Y-185536185D02*
X182529454Y-185464757D01*
X182529454Y-185464757D02*
X182529454Y-185607614D01*
X184386597Y-186393328D02*
X184386597Y-185393328D01*
X184386597Y-185536185D02*
X184458026Y-185464757D01*
X184458026Y-185464757D02*
X184600883Y-185393328D01*
X184600883Y-185393328D02*
X184815169Y-185393328D01*
X184815169Y-185393328D02*
X184958026Y-185464757D01*
X184958026Y-185464757D02*
X185029455Y-185607614D01*
X185029455Y-185607614D02*
X185029455Y-186393328D01*
X185029455Y-185607614D02*
X185100883Y-185464757D01*
X185100883Y-185464757D02*
X185243740Y-185393328D01*
X185243740Y-185393328D02*
X185458026Y-185393328D01*
X185458026Y-185393328D02*
X185600883Y-185464757D01*
X185600883Y-185464757D02*
X185672312Y-185607614D01*
X185672312Y-185607614D02*
X185672312Y-186393328D01*
X187029455Y-186393328D02*
X187029455Y-185607614D01*
X187029455Y-185607614D02*
X186958026Y-185464757D01*
X186958026Y-185464757D02*
X186815169Y-185393328D01*
X186815169Y-185393328D02*
X186529455Y-185393328D01*
X186529455Y-185393328D02*
X186386597Y-185464757D01*
X187029455Y-186321900D02*
X186886597Y-186393328D01*
X186886597Y-186393328D02*
X186529455Y-186393328D01*
X186529455Y-186393328D02*
X186386597Y-186321900D01*
X186386597Y-186321900D02*
X186315169Y-186179042D01*
X186315169Y-186179042D02*
X186315169Y-186036185D01*
X186315169Y-186036185D02*
X186386597Y-185893328D01*
X186386597Y-185893328D02*
X186529455Y-185821900D01*
X186529455Y-185821900D02*
X186886597Y-185821900D01*
X186886597Y-185821900D02*
X187029455Y-185750471D01*
X188386598Y-186321900D02*
X188243740Y-186393328D01*
X188243740Y-186393328D02*
X187958026Y-186393328D01*
X187958026Y-186393328D02*
X187815169Y-186321900D01*
X187815169Y-186321900D02*
X187743740Y-186250471D01*
X187743740Y-186250471D02*
X187672312Y-186107614D01*
X187672312Y-186107614D02*
X187672312Y-185679042D01*
X187672312Y-185679042D02*
X187743740Y-185536185D01*
X187743740Y-185536185D02*
X187815169Y-185464757D01*
X187815169Y-185464757D02*
X187958026Y-185393328D01*
X187958026Y-185393328D02*
X188243740Y-185393328D01*
X188243740Y-185393328D02*
X188386598Y-185464757D01*
X189029454Y-186393328D02*
X189029454Y-185393328D01*
X189029454Y-185679042D02*
X189100883Y-185536185D01*
X189100883Y-185536185D02*
X189172312Y-185464757D01*
X189172312Y-185464757D02*
X189315169Y-185393328D01*
X189315169Y-185393328D02*
X189458026Y-185393328D01*
X190172311Y-186393328D02*
X190029454Y-186321900D01*
X190029454Y-186321900D02*
X189958025Y-186250471D01*
X189958025Y-186250471D02*
X189886597Y-186107614D01*
X189886597Y-186107614D02*
X189886597Y-185679042D01*
X189886597Y-185679042D02*
X189958025Y-185536185D01*
X189958025Y-185536185D02*
X190029454Y-185464757D01*
X190029454Y-185464757D02*
X190172311Y-185393328D01*
X190172311Y-185393328D02*
X190386597Y-185393328D01*
X190386597Y-185393328D02*
X190529454Y-185464757D01*
X190529454Y-185464757D02*
X190600883Y-185536185D01*
X190600883Y-185536185D02*
X190672311Y-185679042D01*
X190672311Y-185679042D02*
X190672311Y-186107614D01*
X190672311Y-186107614D02*
X190600883Y-186250471D01*
X190600883Y-186250471D02*
X190529454Y-186321900D01*
X190529454Y-186321900D02*
X190386597Y-186393328D01*
X190386597Y-186393328D02*
X190172311Y-186393328D01*
X191315168Y-185607614D02*
X192458026Y-185607614D01*
X192458026Y-186036185D02*
X191315168Y-186036185D01*
X194029454Y-186393328D02*
X193529454Y-185679042D01*
X193172311Y-186393328D02*
X193172311Y-184893328D01*
X193172311Y-184893328D02*
X193743740Y-184893328D01*
X193743740Y-184893328D02*
X193886597Y-184964757D01*
X193886597Y-184964757D02*
X193958026Y-185036185D01*
X193958026Y-185036185D02*
X194029454Y-185179042D01*
X194029454Y-185179042D02*
X194029454Y-185393328D01*
X194029454Y-185393328D02*
X193958026Y-185536185D01*
X193958026Y-185536185D02*
X193886597Y-185607614D01*
X193886597Y-185607614D02*
X193743740Y-185679042D01*
X193743740Y-185679042D02*
X193172311Y-185679042D01*
X194672311Y-185607614D02*
X195172311Y-185607614D01*
X195386597Y-186393328D02*
X194672311Y-186393328D01*
X194672311Y-186393328D02*
X194672311Y-184893328D01*
X194672311Y-184893328D02*
X195386597Y-184893328D01*
X195815169Y-184893328D02*
X196315169Y-186393328D01*
X196315169Y-186393328D02*
X196815169Y-184893328D01*
X197243740Y-185036185D02*
X197315168Y-184964757D01*
X197315168Y-184964757D02*
X197458026Y-184893328D01*
X197458026Y-184893328D02*
X197815168Y-184893328D01*
X197815168Y-184893328D02*
X197958026Y-184964757D01*
X197958026Y-184964757D02*
X198029454Y-185036185D01*
X198029454Y-185036185D02*
X198100883Y-185179042D01*
X198100883Y-185179042D02*
X198100883Y-185321900D01*
X198100883Y-185321900D02*
X198029454Y-185536185D01*
X198029454Y-185536185D02*
X197172311Y-186393328D01*
X197172311Y-186393328D02*
X198100883Y-186393328D01*
X198743739Y-186250471D02*
X198815168Y-186321900D01*
X198815168Y-186321900D02*
X198743739Y-186393328D01*
X198743739Y-186393328D02*
X198672311Y-186321900D01*
X198672311Y-186321900D02*
X198743739Y-186250471D01*
X198743739Y-186250471D02*
X198743739Y-186393328D01*
X199458025Y-186393328D02*
X199458025Y-184893328D01*
X199600883Y-185821900D02*
X200029454Y-186393328D01*
X200029454Y-185393328D02*
X199458025Y-185964757D01*
X200672311Y-186393328D02*
X200672311Y-185393328D01*
X200672311Y-184893328D02*
X200600883Y-184964757D01*
X200600883Y-184964757D02*
X200672311Y-185036185D01*
X200672311Y-185036185D02*
X200743740Y-184964757D01*
X200743740Y-184964757D02*
X200672311Y-184893328D01*
X200672311Y-184893328D02*
X200672311Y-185036185D01*
X202029455Y-186321900D02*
X201886597Y-186393328D01*
X201886597Y-186393328D02*
X201600883Y-186393328D01*
X201600883Y-186393328D02*
X201458026Y-186321900D01*
X201458026Y-186321900D02*
X201386597Y-186250471D01*
X201386597Y-186250471D02*
X201315169Y-186107614D01*
X201315169Y-186107614D02*
X201315169Y-185679042D01*
X201315169Y-185679042D02*
X201386597Y-185536185D01*
X201386597Y-185536185D02*
X201458026Y-185464757D01*
X201458026Y-185464757D02*
X201600883Y-185393328D01*
X201600883Y-185393328D02*
X201886597Y-185393328D01*
X201886597Y-185393328D02*
X202029455Y-185464757D01*
X203315169Y-186393328D02*
X203315169Y-185607614D01*
X203315169Y-185607614D02*
X203243740Y-185464757D01*
X203243740Y-185464757D02*
X203100883Y-185393328D01*
X203100883Y-185393328D02*
X202815169Y-185393328D01*
X202815169Y-185393328D02*
X202672311Y-185464757D01*
X203315169Y-186321900D02*
X203172311Y-186393328D01*
X203172311Y-186393328D02*
X202815169Y-186393328D01*
X202815169Y-186393328D02*
X202672311Y-186321900D01*
X202672311Y-186321900D02*
X202600883Y-186179042D01*
X202600883Y-186179042D02*
X202600883Y-186036185D01*
X202600883Y-186036185D02*
X202672311Y-185893328D01*
X202672311Y-185893328D02*
X202815169Y-185821900D01*
X202815169Y-185821900D02*
X203172311Y-185821900D01*
X203172311Y-185821900D02*
X203315169Y-185750471D01*
X204672312Y-186393328D02*
X204672312Y-184893328D01*
X204672312Y-186321900D02*
X204529454Y-186393328D01*
X204529454Y-186393328D02*
X204243740Y-186393328D01*
X204243740Y-186393328D02*
X204100883Y-186321900D01*
X204100883Y-186321900D02*
X204029454Y-186250471D01*
X204029454Y-186250471D02*
X203958026Y-186107614D01*
X203958026Y-186107614D02*
X203958026Y-185679042D01*
X203958026Y-185679042D02*
X204029454Y-185536185D01*
X204029454Y-185536185D02*
X204100883Y-185464757D01*
X204100883Y-185464757D02*
X204243740Y-185393328D01*
X204243740Y-185393328D02*
X204529454Y-185393328D01*
X204529454Y-185393328D02*
X204672312Y-185464757D01*
X205029455Y-186536185D02*
X206172312Y-186536185D01*
X206529454Y-185393328D02*
X206529454Y-186893328D01*
X206529454Y-185464757D02*
X206672312Y-185393328D01*
X206672312Y-185393328D02*
X206958026Y-185393328D01*
X206958026Y-185393328D02*
X207100883Y-185464757D01*
X207100883Y-185464757D02*
X207172312Y-185536185D01*
X207172312Y-185536185D02*
X207243740Y-185679042D01*
X207243740Y-185679042D02*
X207243740Y-186107614D01*
X207243740Y-186107614D02*
X207172312Y-186250471D01*
X207172312Y-186250471D02*
X207100883Y-186321900D01*
X207100883Y-186321900D02*
X206958026Y-186393328D01*
X206958026Y-186393328D02*
X206672312Y-186393328D01*
X206672312Y-186393328D02*
X206529454Y-186321900D01*
X208529455Y-186321900D02*
X208386597Y-186393328D01*
X208386597Y-186393328D02*
X208100883Y-186393328D01*
X208100883Y-186393328D02*
X207958026Y-186321900D01*
X207958026Y-186321900D02*
X207886597Y-186250471D01*
X207886597Y-186250471D02*
X207815169Y-186107614D01*
X207815169Y-186107614D02*
X207815169Y-185679042D01*
X207815169Y-185679042D02*
X207886597Y-185536185D01*
X207886597Y-185536185D02*
X207958026Y-185464757D01*
X207958026Y-185464757D02*
X208100883Y-185393328D01*
X208100883Y-185393328D02*
X208386597Y-185393328D01*
X208386597Y-185393328D02*
X208529455Y-185464757D01*
X209172311Y-186393328D02*
X209172311Y-184893328D01*
X209172311Y-185464757D02*
X209315169Y-185393328D01*
X209315169Y-185393328D02*
X209600883Y-185393328D01*
X209600883Y-185393328D02*
X209743740Y-185464757D01*
X209743740Y-185464757D02*
X209815169Y-185536185D01*
X209815169Y-185536185D02*
X209886597Y-185679042D01*
X209886597Y-185679042D02*
X209886597Y-186107614D01*
X209886597Y-186107614D02*
X209815169Y-186250471D01*
X209815169Y-186250471D02*
X209743740Y-186321900D01*
X209743740Y-186321900D02*
X209600883Y-186393328D01*
X209600883Y-186393328D02*
X209315169Y-186393328D01*
X209315169Y-186393328D02*
X209172311Y-186321900D01*
D10*
D11*
X177002200Y-181507200D02*
X285002200Y-181507200D01*
D10*
D11*
X178386598Y-183621900D02*
X178600884Y-183693328D01*
X178600884Y-183693328D02*
X178958026Y-183693328D01*
X178958026Y-183693328D02*
X179100884Y-183621900D01*
X179100884Y-183621900D02*
X179172312Y-183550471D01*
X179172312Y-183550471D02*
X179243741Y-183407614D01*
X179243741Y-183407614D02*
X179243741Y-183264757D01*
X179243741Y-183264757D02*
X179172312Y-183121900D01*
X179172312Y-183121900D02*
X179100884Y-183050471D01*
X179100884Y-183050471D02*
X178958026Y-182979042D01*
X178958026Y-182979042D02*
X178672312Y-182907614D01*
X178672312Y-182907614D02*
X178529455Y-182836185D01*
X178529455Y-182836185D02*
X178458026Y-182764757D01*
X178458026Y-182764757D02*
X178386598Y-182621900D01*
X178386598Y-182621900D02*
X178386598Y-182479042D01*
X178386598Y-182479042D02*
X178458026Y-182336185D01*
X178458026Y-182336185D02*
X178529455Y-182264757D01*
X178529455Y-182264757D02*
X178672312Y-182193328D01*
X178672312Y-182193328D02*
X179029455Y-182193328D01*
X179029455Y-182193328D02*
X179243741Y-182264757D01*
X179886597Y-183693328D02*
X179886597Y-182193328D01*
X180529455Y-183693328D02*
X180529455Y-182907614D01*
X180529455Y-182907614D02*
X180458026Y-182764757D01*
X180458026Y-182764757D02*
X180315169Y-182693328D01*
X180315169Y-182693328D02*
X180100883Y-182693328D01*
X180100883Y-182693328D02*
X179958026Y-182764757D01*
X179958026Y-182764757D02*
X179886597Y-182836185D01*
X181815169Y-183621900D02*
X181672312Y-183693328D01*
X181672312Y-183693328D02*
X181386598Y-183693328D01*
X181386598Y-183693328D02*
X181243740Y-183621900D01*
X181243740Y-183621900D02*
X181172312Y-183479042D01*
X181172312Y-183479042D02*
X181172312Y-182907614D01*
X181172312Y-182907614D02*
X181243740Y-182764757D01*
X181243740Y-182764757D02*
X181386598Y-182693328D01*
X181386598Y-182693328D02*
X181672312Y-182693328D01*
X181672312Y-182693328D02*
X181815169Y-182764757D01*
X181815169Y-182764757D02*
X181886598Y-182907614D01*
X181886598Y-182907614D02*
X181886598Y-183050471D01*
X181886598Y-183050471D02*
X181172312Y-183193328D01*
X183100883Y-183621900D02*
X182958026Y-183693328D01*
X182958026Y-183693328D02*
X182672312Y-183693328D01*
X182672312Y-183693328D02*
X182529454Y-183621900D01*
X182529454Y-183621900D02*
X182458026Y-183479042D01*
X182458026Y-183479042D02*
X182458026Y-182907614D01*
X182458026Y-182907614D02*
X182529454Y-182764757D01*
X182529454Y-182764757D02*
X182672312Y-182693328D01*
X182672312Y-182693328D02*
X182958026Y-182693328D01*
X182958026Y-182693328D02*
X183100883Y-182764757D01*
X183100883Y-182764757D02*
X183172312Y-182907614D01*
X183172312Y-182907614D02*
X183172312Y-183050471D01*
X183172312Y-183050471D02*
X182458026Y-183193328D01*
X183600883Y-182693328D02*
X184172311Y-182693328D01*
X183815168Y-182193328D02*
X183815168Y-183479042D01*
X183815168Y-183479042D02*
X183886597Y-183621900D01*
X183886597Y-183621900D02*
X184029454Y-183693328D01*
X184029454Y-183693328D02*
X184172311Y-183693328D01*
X184672311Y-183550471D02*
X184743740Y-183621900D01*
X184743740Y-183621900D02*
X184672311Y-183693328D01*
X184672311Y-183693328D02*
X184600883Y-183621900D01*
X184600883Y-183621900D02*
X184672311Y-183550471D01*
X184672311Y-183550471D02*
X184672311Y-183693328D01*
X184672311Y-182764757D02*
X184743740Y-182836185D01*
X184743740Y-182836185D02*
X184672311Y-182907614D01*
X184672311Y-182907614D02*
X184600883Y-182836185D01*
X184600883Y-182836185D02*
X184672311Y-182764757D01*
X184672311Y-182764757D02*
X184672311Y-182907614D01*
D10*
D11*
X197002200Y-191507200D02*
X197002200Y-194507200D01*
D10*
D11*
X261002200Y-191507200D02*
X261002200Y-198007200D01*
D14*
%TO.P,D17,1*%
%TO.N,N/C*%
X141237500Y-110750000D03*
%TO.P,D17,2*%
X138262500Y-110750000D03*
%TD*%
%TO.P,D11,1*%
%TO.N,N/C*%
X140987500Y-81250000D03*
%TO.P,D11,2*%
X138012500Y-81250000D03*
%TD*%
%TO.P,D4,1*%
%TO.N,N/C*%
X140987500Y-40750000D03*
%TO.P,D4,2*%
X138012500Y-40750000D03*
%TD*%
%TO.P,D3,1*%
%TO.N,N/C*%
X123237500Y-25000000D03*
%TO.P,D3,2*%
X120262500Y-25000000D03*
%TD*%
%TO.P,D7,1*%
%TO.N,N/C*%
X123237500Y-45250000D03*
%TO.P,D7,2*%
X120262500Y-45250000D03*
%TD*%
%TO.P,D10,1*%
%TO.N,N/C*%
X123237500Y-65750000D03*
%TO.P,D10,2*%
X120262500Y-65750000D03*
%TD*%
%TO.P,D14,1*%
%TO.N,N/C*%
X123237500Y-86500000D03*
%TO.P,D14,2*%
X120262500Y-86500000D03*
%TD*%
%TO.P,D16,1*%
%TO.N,N/C*%
X123237500Y-106500000D03*
%TO.P,D16,2*%
X120262500Y-106500000D03*
%TD*%
%TO.P,D2,1*%
%TO.N,N/C*%
X102987500Y-25250000D03*
%TO.P,D2,2*%
X100012500Y-25250000D03*
%TD*%
%TO.P,D6,1*%
%TO.N,N/C*%
X102987500Y-45750000D03*
%TO.P,D6,2*%
X100012500Y-45750000D03*
%TD*%
%TO.P,D9,1*%
%TO.N,N/C*%
X102987500Y-65750000D03*
%TO.P,D9,2*%
X100012500Y-65750000D03*
%TD*%
%TO.P,D13,1*%
%TO.N,N/C*%
X102987500Y-86250000D03*
%TO.P,D13,2*%
X100012500Y-86250000D03*
%TD*%
%TO.P,D15,1*%
%TO.N,N/C*%
X93237500Y-106500000D03*
%TO.P,D15,2*%
X90262500Y-106500000D03*
%TD*%
%TO.P,D12,1*%
%TO.N,N/C*%
X82737500Y-86250000D03*
%TO.P,D12,2*%
X79762500Y-86250000D03*
%TD*%
%TO.P,D8,1*%
%TO.N,N/C*%
X82737500Y-66000000D03*
%TO.P,D8,2*%
X79762500Y-66000000D03*
%TD*%
%TO.P,D5,1*%
%TO.N,N/C*%
X82737500Y-45750000D03*
%TO.P,D5,2*%
X79762500Y-45750000D03*
%TD*%
%TO.P,D1,1*%
%TO.N,N/C*%
X82737500Y-25250000D03*
%TO.P,D1,2*%
X79762500Y-25250000D03*
%TD*%
D15*
%TO.P,1kR2,1*%
%TO.N,N/C*%
X69250000Y-120462500D03*
%TO.P,1kR2,2*%
X69250000Y-117537500D03*
%TD*%
%TO.P,1kR1,1*%
%TO.N,N/C*%
X65250000Y-120425000D03*
%TO.P,1kR1,2*%
X65250000Y-117500000D03*
%TD*%
D16*
%TO.P,4,1*%
%TO.N,N/C*%
X73660000Y-66040000D03*
%TO.P,4,2*%
X67310000Y-68580000D03*
%TD*%
%TO.P,7,1*%
%TO.N,N/C*%
X73660000Y-45720000D03*
%TO.P,7,2*%
X67310000Y-48260000D03*
%TD*%
%TO.P,2,1*%
%TO.N,N/C*%
X93980000Y-86360000D03*
%TO.P,2,2*%
X87630000Y-88900000D03*
%TD*%
%TO.P,+,1*%
%TO.N,N/C*%
X134620000Y-55880000D03*
%TO.P,+,2*%
X128270000Y-58420000D03*
%TD*%
%TO.P,-,1*%
%TO.N,N/C*%
X134620000Y-25400000D03*
%TO.P,-,2*%
X128270000Y-27940000D03*
%TD*%
D17*
%TO.P,LED18,1*%
%TO.N,N/C*%
X147237500Y-127000000D03*
%TO.P,LED18,2*%
X144262500Y-127000000D03*
%TD*%
D16*
%TO.P,\u002A,1*%
%TO.N,N/C*%
X114300000Y-25400000D03*
%TO.P,\u002A,2*%
X107950000Y-27940000D03*
%TD*%
%TO.P,3,1*%
%TO.N,N/C*%
X114300000Y-86360000D03*
%TO.P,3,2*%
X107950000Y-88900000D03*
%TD*%
%TO.P,6,1*%
%TO.N,N/C*%
X114300000Y-66040000D03*
%TO.P,6,2*%
X107950000Y-68580000D03*
%TD*%
%TO.P,=,1*%
%TO.N,N/C*%
X134620000Y-96520000D03*
%TO.P,=,2*%
X128270000Y-99060000D03*
%TD*%
%TO.P,0,1*%
%TO.N,N/C*%
X83820000Y-106680000D03*
%TO.P,0,2*%
X77470000Y-109220000D03*
%TD*%
%TO.P,8,1*%
%TO.N,N/C*%
X93980000Y-45720000D03*
%TO.P,8,2*%
X87630000Y-48260000D03*
%TD*%
%TO.P,.,1*%
%TO.N,N/C*%
X114300000Y-106680000D03*
%TO.P,.,2*%
X107950000Y-109220000D03*
%TD*%
D17*
%TO.P,LED19,1*%
%TO.N,N/C*%
X153487500Y-127000000D03*
%TO.P,LED19,2*%
X150512500Y-127000000D03*
%TD*%
D16*
%TO.P,5,1*%
%TO.N,N/C*%
X93980000Y-66040000D03*
%TO.P,5,2*%
X87630000Y-68580000D03*
%TD*%
%TO.P,Macro Key,1*%
%TO.N,N/C*%
X73660000Y-25400000D03*
%TO.P,Macro Key,2*%
X67310000Y-27940000D03*
%TD*%
D18*
%TO.P,REF\u002A\u002A,1*%
%TO.N,N/C*%
X145300000Y-24300000D03*
D19*
%TO.P,REF\u002A\u002A,2*%
X145300000Y-26840000D03*
%TO.P,REF\u002A\u002A,3*%
X145300000Y-29380000D03*
%TO.P,REF\u002A\u002A,4*%
X145300000Y-31920000D03*
%TO.P,REF\u002A\u002A,5*%
X145300000Y-34460000D03*
%TO.P,REF\u002A\u002A,6*%
X145300000Y-37000000D03*
%TO.P,REF\u002A\u002A,7*%
X145300000Y-39540000D03*
%TO.P,REF\u002A\u002A,8*%
X145300000Y-42080000D03*
%TO.P,REF\u002A\u002A,9*%
X145300000Y-44620000D03*
%TO.P,REF\u002A\u002A,10*%
X145300000Y-47160000D03*
%TO.P,REF\u002A\u002A,11*%
X145300000Y-49700000D03*
%TO.P,REF\u002A\u002A,12*%
X145300000Y-52240000D03*
%TO.P,REF\u002A\u002A,13*%
X160540000Y-52240000D03*
%TO.P,REF\u002A\u002A,14*%
X160540000Y-49700000D03*
%TO.P,REF\u002A\u002A,15*%
X160540000Y-47160000D03*
%TO.P,REF\u002A\u002A,16*%
X160540000Y-44620000D03*
%TO.P,REF\u002A\u002A,17*%
X160540000Y-42080000D03*
%TO.P,REF\u002A\u002A,18*%
X160540000Y-39540000D03*
%TO.P,REF\u002A\u002A,19*%
X160540000Y-37000000D03*
%TO.P,REF\u002A\u002A,20*%
X160540000Y-34460000D03*
%TO.P,REF\u002A\u002A,21*%
X160540000Y-31920000D03*
%TO.P,REF\u002A\u002A,22*%
X160540000Y-29380000D03*
%TO.P,REF\u002A\u002A,23*%
X160540000Y-26840000D03*
%TO.P,REF\u002A\u002A,24*%
X160540000Y-24300000D03*
%TD*%
D16*
%TO.P,1,1*%
%TO.N,N/C*%
X73660000Y-86360000D03*
%TO.P,1,2*%
X67310000Y-88900000D03*
%TD*%
%TO.P,9,1*%
%TO.N,N/C*%
X114300000Y-45720000D03*
%TO.P,9,2*%
X107950000Y-48260000D03*
%TD*%
%TO.P,/,1*%
%TO.N,N/C*%
X93980000Y-25400000D03*
%TO.P,/,2*%
X87630000Y-27940000D03*
%TD*%
D20*
%TO.N,*%
X159000000Y-126750000D03*
X64250000Y-127000000D03*
%TD*%
D21*
%TO.N,*%
X65250000Y-116563490D02*
G75*
G03*
X64851549Y-115601553I-1360400J-10D01*
G01*
X65749999Y-116000000D02*
G75*
G03*
X65250072Y-116563486I33801J-533500D01*
G01*
X64851551Y-115601551D02*
G75*
G03*
X65749998Y-116000024I931849J888951D01*
G01*
D22*
X73675000Y-45735000D02*
G75*
G03*
X73711213Y-45749995I36200J36200D01*
G01*
D23*
X144660948Y-116839050D02*
G75*
G03*
X144262496Y-117800989I961952J-961950D01*
G01*
X94236066Y-25250000D02*
G75*
G03*
X94055010Y-25325010I34J-256100D01*
G01*
X73728284Y-66000000D02*
G75*
G03*
X73680005Y-66020005I16J-68300D01*
G01*
X154148448Y-53351551D02*
G75*
G03*
X153749997Y-54313490I961952J-961949D01*
G01*
X145635948Y-128601551D02*
G75*
G02*
X144674009Y-129000002I-961948J961951D01*
G01*
X84127279Y-106500000D02*
G75*
G03*
X83910006Y-106590006I21J-307300D01*
G01*
X93237500Y-109674009D02*
G75*
G03*
X93635950Y-110635946I1360400J9D01*
G01*
X144898447Y-110351551D02*
G75*
G02*
X143936508Y-110750001I-961947J961951D01*
G01*
X160440000Y-47160000D02*
G75*
G03*
X160269294Y-47230715I0J-241400D01*
G01*
X82737500Y-95436509D02*
G75*
G03*
X83135950Y-96398446I1360400J9D01*
G01*
D21*
X64813490Y-22000000D02*
G75*
G03*
X63851554Y-22398450I10J-1360400D01*
G01*
D23*
X137614051Y-58874051D02*
G75*
G02*
X138012503Y-59835990I-961951J-961949D01*
G01*
X148351551Y-52751551D02*
G75*
G02*
X148750003Y-53713490I-961951J-961949D01*
G01*
X141112500Y-81375000D02*
G75*
G02*
X141237510Y-81676776I-301800J-301800D01*
G01*
X114607279Y-106500000D02*
G75*
G03*
X114390006Y-106590006I21J-307300D01*
G01*
X115102340Y-45250000D02*
G75*
G03*
X114534988Y-45484988I-40J-802300D01*
G01*
X74176551Y-129351551D02*
G75*
G03*
X75138490Y-129750003I961949J961951D01*
G01*
X137614051Y-28394051D02*
G75*
G02*
X138012503Y-29355990I-961951J-961949D01*
G01*
X140987500Y-81073223D02*
G75*
G03*
X141112507Y-81374993I426800J23D01*
G01*
D22*
X93995000Y-45735000D02*
G75*
G03*
X94031213Y-45749995I36200J36200D01*
G01*
D23*
X151135948Y-129351551D02*
G75*
G02*
X150174009Y-129750002I-961948J961951D01*
G01*
D21*
X143500000Y-22499999D02*
G75*
G03*
X143000000Y-22000000I-500000J-1D01*
G01*
D23*
X133648448Y-123101551D02*
G75*
G02*
X132686509Y-123500002I-961948J961951D01*
G01*
D21*
X63000000Y-113186509D02*
G75*
G03*
X63398450Y-114148446I1360400J9D01*
G01*
D23*
X114795060Y-65750000D02*
G75*
G03*
X114445011Y-65895011I40J-495100D01*
G01*
X151351551Y-40511551D02*
G75*
G02*
X151750003Y-41473490I-961951J-961949D01*
G01*
D21*
X69250000Y-116499999D02*
G75*
G03*
X68750000Y-116000000I-500000J-1D01*
G01*
D23*
X123237500Y-119924009D02*
G75*
G03*
X123635950Y-120885946I1360400J9D01*
G01*
X153148448Y-52011551D02*
G75*
G03*
X152749997Y-52973490I961952J-961949D01*
G01*
X125851551Y-123101551D02*
G75*
G03*
X126813490Y-123500003I961949J961951D01*
G01*
X137864051Y-99764051D02*
G75*
G02*
X138262503Y-100725990I-961951J-961949D01*
G01*
X108351551Y-123851551D02*
G75*
G03*
X109313490Y-124250003I961949J961951D01*
G01*
X150351551Y-44591551D02*
G75*
G02*
X150750003Y-45553490I-961951J-961949D01*
G01*
X73847781Y-86250000D02*
G75*
G03*
X73715005Y-86305005I19J-187800D01*
G01*
X114982842Y-25000000D02*
G75*
G03*
X114499987Y-25199987I-42J-682800D01*
G01*
X149311551Y-51171551D02*
G75*
G02*
X149710003Y-52133490I-961951J-961949D01*
G01*
X69250000Y-120856250D02*
G75*
G03*
X69528397Y-121528449I950600J-50D01*
G01*
D21*
X143500000Y-29556509D02*
G75*
G03*
X143898450Y-30518446I1360400J9D01*
G01*
D23*
X76601551Y-128601551D02*
G75*
G03*
X77563490Y-129000003I961949J961951D01*
G01*
X149710000Y-64242928D02*
G75*
G03*
X149715008Y-64254992I17100J28D01*
G01*
X82737500Y-45743750D02*
X82737500Y-45743750D01*
D22*
X114370000Y-86430000D02*
G75*
G03*
X114538994Y-86500002I169000J169000D01*
G01*
D21*
X63398448Y-22851551D02*
G75*
G03*
X62999997Y-23813490I961952J-961949D01*
G01*
D23*
X150512763Y-113013290D02*
G75*
G03*
X150512518Y-113013925I637J-610D01*
G01*
X94167781Y-86250000D02*
G75*
G03*
X94035005Y-86305005I19J-187800D01*
G01*
X73916066Y-25250000D02*
G75*
G03*
X73735010Y-25325010I34J-256100D01*
G01*
X107851551Y-124851551D02*
G75*
G03*
X108813490Y-125250003I961949J961951D01*
G01*
X102987500Y-117924009D02*
G75*
G03*
X103385950Y-118885946I1360400J9D01*
G01*
X82737500Y-45756250D02*
X82737500Y-45743750D01*
D22*
X82737500Y-45743750D02*
X82737500Y-45756250D01*
D23*
X153351551Y-109648448D02*
G75*
G03*
X153750002Y-108686509I-961951J961948D01*
G01*
X153750000Y-54313490D02*
X153750000Y-108686509D01*
X150910948Y-112089051D02*
G75*
G03*
X150512497Y-113050990I961952J-961949D01*
G01*
X160440000Y-47160000D02*
X160540000Y-47160000D01*
X154148448Y-53351551D02*
X160269289Y-47230710D01*
X153351551Y-109648448D02*
X150910948Y-112089051D01*
X152750000Y-108186509D02*
G75*
G02*
X152351550Y-109148447I-1360400J9D01*
G01*
X153148448Y-52011551D02*
X160540000Y-44620000D01*
X152750000Y-108186509D02*
X152750000Y-52973490D01*
X144660948Y-116839050D02*
X152351551Y-109148448D01*
X144262500Y-117800989D02*
X144262500Y-127000000D01*
X133936509Y-125250000D02*
G75*
G03*
X134898447Y-124851550I-9J1360400D01*
G01*
X151351551Y-108398448D02*
G75*
G03*
X151750002Y-107436509I-961951J961948D01*
G01*
X93635948Y-110635948D02*
X107851551Y-124851551D01*
X93237500Y-109674009D02*
X93237500Y-106500000D01*
X133936509Y-125250000D02*
X108813490Y-125250000D01*
X151351551Y-108398448D02*
X134898448Y-124851551D01*
X151750000Y-41473490D02*
X151750000Y-107436509D01*
X151351551Y-40511551D02*
X145300000Y-34460000D01*
X150750000Y-106936509D02*
G75*
G02*
X150351550Y-107898447I-1360400J9D01*
G01*
X133436509Y-124250000D02*
G75*
G03*
X134398447Y-123851550I-9J1360400D01*
G01*
X150351551Y-44591551D02*
X145300000Y-39540000D01*
X150750000Y-106936509D02*
X150750000Y-45553490D01*
X134398448Y-123851551D02*
X150351551Y-107898448D01*
X133436509Y-124250000D02*
X109313490Y-124250000D01*
X108351551Y-123851551D02*
X103385948Y-118885948D01*
X102987500Y-86250000D02*
X102987500Y-117924009D01*
X149720000Y-64260000D02*
X149715000Y-64255000D01*
X149710000Y-52133490D02*
X149710000Y-64242928D01*
X149311551Y-51171551D02*
X145300000Y-47160000D01*
X148750000Y-105936509D02*
G75*
G02*
X148351550Y-106898447I-1360400J9D01*
G01*
X148351551Y-52751551D02*
X145300000Y-49700000D01*
X148750000Y-105936509D02*
X148750000Y-53713490D01*
X143936508Y-110750000D02*
X141237500Y-110750000D01*
X148351551Y-106898448D02*
X144898447Y-110351551D01*
X138262500Y-100725990D02*
X138262500Y-110750000D01*
X137864051Y-99764051D02*
X134620000Y-96520000D01*
X138012500Y-59835990D02*
X138012500Y-81250000D01*
X137614051Y-58874051D02*
X134620000Y-55880000D01*
X138012500Y-29355990D02*
X138012500Y-40750000D01*
X137614051Y-28394051D02*
X134620000Y-25400000D01*
X140987500Y-81073223D02*
X140987500Y-40750000D01*
X141237500Y-81676776D02*
X141237500Y-110750000D01*
D21*
X64851551Y-115601551D02*
X63398448Y-114148448D01*
X143898448Y-30518448D02*
X145300000Y-31920000D01*
X63000000Y-113186509D02*
X63000000Y-23813490D01*
X63851551Y-22398447D02*
X63398448Y-22851551D01*
X64813490Y-22000000D02*
X143000000Y-22000000D01*
X143500000Y-22499999D02*
X143500000Y-29556509D01*
D23*
X114607279Y-106500000D02*
X120262500Y-106500000D01*
D22*
X114390000Y-106590000D02*
X114300000Y-106680000D01*
D23*
X114538994Y-86500000D02*
X120262500Y-86500000D01*
D22*
X114370000Y-86430000D02*
X114300000Y-86360000D01*
D23*
X114795060Y-65750000D02*
X120262500Y-65750000D01*
D22*
X114445000Y-65895000D02*
X114300000Y-66040000D01*
D23*
X115102340Y-45250000D02*
X120262500Y-45250000D01*
D22*
X114535000Y-45485000D02*
X114300000Y-45720000D01*
D23*
X114982842Y-25000000D02*
X120262500Y-25000000D01*
D22*
X114500000Y-25200000D02*
X114300000Y-25400000D01*
D23*
X123237500Y-45250000D02*
X123237500Y-25000000D01*
X123237500Y-45250000D02*
X123237500Y-65750000D01*
X123237500Y-86500000D02*
X123237500Y-65750000D01*
X123237500Y-86500000D02*
X123237500Y-106500000D01*
X123635948Y-120885948D02*
X125851551Y-123101551D01*
X123237500Y-119924009D02*
X123237500Y-106500000D01*
X133648448Y-123101551D02*
X149750000Y-107000000D01*
X132686509Y-123500000D02*
X126813490Y-123500000D01*
X82737500Y-45743750D02*
X82737500Y-25250000D01*
X82737500Y-86250000D02*
X82737500Y-66000000D01*
X82737500Y-95436509D02*
X82737500Y-86250000D01*
X83135948Y-96398448D02*
X93237500Y-106500000D01*
X102987500Y-45750000D02*
X102987500Y-25250000D01*
X102987500Y-45750000D02*
X102987500Y-65750000D01*
X102987500Y-86250000D02*
X102987500Y-65750000D01*
X100012500Y-65750000D02*
X94270000Y-65750000D01*
X84127279Y-106500000D02*
X90262500Y-106500000D01*
D22*
X83910000Y-106590000D02*
X83820000Y-106680000D01*
D23*
X82737500Y-45756250D02*
X82737500Y-66000000D01*
X73728284Y-66000000D02*
X79762500Y-66000000D01*
D22*
X73680000Y-66020000D02*
X73660000Y-66040000D01*
D23*
X73847781Y-86250000D02*
X79762500Y-86250000D01*
D22*
X73715000Y-86305000D02*
X73660000Y-86360000D01*
D23*
X94167781Y-86250000D02*
X100012500Y-86250000D01*
D22*
X94035000Y-86305000D02*
X93980000Y-86360000D01*
D23*
X94031213Y-45750000D02*
X100012500Y-45750000D01*
D22*
X93995000Y-45735000D02*
X93980000Y-45720000D01*
D23*
X94236066Y-25250000D02*
X100012500Y-25250000D01*
D22*
X94055000Y-25325000D02*
X93980000Y-25400000D01*
D23*
X73711213Y-45750000D02*
X79762500Y-45750000D01*
D22*
X73675000Y-45735000D02*
X73660000Y-45720000D01*
D23*
X73916066Y-25250000D02*
X79762500Y-25250000D01*
D22*
X73735000Y-25325000D02*
X73660000Y-25400000D01*
X82737500Y-45743750D02*
X82737500Y-45737500D01*
D23*
X145635948Y-128601551D02*
X147237500Y-127000000D01*
X144674009Y-129000000D02*
X77563490Y-129000000D01*
X69528423Y-121528423D02*
X76601551Y-128601551D01*
X69250000Y-120856250D02*
X69250000Y-120462500D01*
X151135948Y-129351551D02*
X153487500Y-127000000D01*
X75138490Y-129750000D02*
X150174009Y-129750000D01*
X74176551Y-129351551D02*
X65250000Y-120425000D01*
D21*
X65250000Y-116563490D02*
X65250000Y-117500000D01*
X65749999Y-116000000D02*
X68750000Y-116000000D01*
X69250000Y-116499999D02*
X69250000Y-117500000D01*
D23*
X150512763Y-113013290D02*
X150513027Y-113013027D01*
X150512500Y-113013926D02*
X150512500Y-127000000D01*
X149720000Y-64280000D02*
X149710000Y-64290000D01*
X149730000Y-64284142D02*
X149730000Y-107020000D01*
X149730000Y-64284142D02*
G75*
G03*
X149719928Y-64279928I-5900J42D01*
G01*
X149730000Y-64284142D02*
G75*
G03*
X149720012Y-64259988I-34100J42D01*
G01*
X149720000Y-64280000D02*
G75*
G03*
X149720000Y-64260000I-10000J10000D01*
G01*
%TD*%
M02*
