%TF.GenerationSoftware,KiCad,Pcbnew,8.0.3*%
%TF.CreationDate,2024-06-18T21:33:20+02:00*%
%TF.ProjectId,macro=REV2,6d616372-6f3d-4524-9556-322e6b696361,2*%
%TF.SameCoordinates,Original*%
%TF.FileFunction,Legend,Top*%
%TF.FilePolarity,Positive*%
%FSLAX46Y46*%
G04 Gerber Fmt 4.6, Leading zero omitted, Abs format (unit mm)*
G04 Created by KiCad (PCBNEW 8.0.3) date 2024-06-18 21:33:20*
%MOMM*%
%LPD*%
G01*
G04 APERTURE LIST*
%ADD10C,0.100000*%
%ADD11C,0.150000*%
%ADD12C,0.300000*%
%ADD13C,0.400000*%
%ADD14C,0.120000*%
%ADD15C,1.600000*%
%ADD16R,1.600000X1.600000*%
G04 APERTURE END LIST*
D10*
D11*
X177002200Y-166007200D02*
X285002200Y-166007200D01*
X285002200Y-198007200D01*
X177002200Y-198007200D01*
X177002200Y-166007200D01*
D10*
D11*
X10000000Y-10000000D02*
X287002200Y-10000000D01*
X287002200Y-200007200D01*
X10000000Y-200007200D01*
X10000000Y-10000000D01*
D10*
D11*
X12000000Y-12000000D02*
X285002200Y-12000000D01*
X285002200Y-198007200D01*
X12000000Y-198007200D01*
X12000000Y-12000000D01*
D10*
D11*
X60000000Y-12000000D02*
X60000000Y-10000000D01*
D10*
D11*
X110000000Y-12000000D02*
X110000000Y-10000000D01*
D10*
D11*
X160000000Y-12000000D02*
X160000000Y-10000000D01*
D10*
D11*
X210000000Y-12000000D02*
X210000000Y-10000000D01*
D10*
D11*
X260000000Y-12000000D02*
X260000000Y-10000000D01*
D10*
D11*
X36089160Y-11593604D02*
X35346303Y-11593604D01*
X35717731Y-11593604D02*
X35717731Y-10293604D01*
X35717731Y-10293604D02*
X35593922Y-10479319D01*
X35593922Y-10479319D02*
X35470112Y-10603128D01*
X35470112Y-10603128D02*
X35346303Y-10665033D01*
D10*
D11*
X85346303Y-10417414D02*
X85408207Y-10355509D01*
X85408207Y-10355509D02*
X85532017Y-10293604D01*
X85532017Y-10293604D02*
X85841541Y-10293604D01*
X85841541Y-10293604D02*
X85965350Y-10355509D01*
X85965350Y-10355509D02*
X86027255Y-10417414D01*
X86027255Y-10417414D02*
X86089160Y-10541223D01*
X86089160Y-10541223D02*
X86089160Y-10665033D01*
X86089160Y-10665033D02*
X86027255Y-10850747D01*
X86027255Y-10850747D02*
X85284398Y-11593604D01*
X85284398Y-11593604D02*
X86089160Y-11593604D01*
D10*
D11*
X135284398Y-10293604D02*
X136089160Y-10293604D01*
X136089160Y-10293604D02*
X135655826Y-10788842D01*
X135655826Y-10788842D02*
X135841541Y-10788842D01*
X135841541Y-10788842D02*
X135965350Y-10850747D01*
X135965350Y-10850747D02*
X136027255Y-10912652D01*
X136027255Y-10912652D02*
X136089160Y-11036461D01*
X136089160Y-11036461D02*
X136089160Y-11345985D01*
X136089160Y-11345985D02*
X136027255Y-11469795D01*
X136027255Y-11469795D02*
X135965350Y-11531700D01*
X135965350Y-11531700D02*
X135841541Y-11593604D01*
X135841541Y-11593604D02*
X135470112Y-11593604D01*
X135470112Y-11593604D02*
X135346303Y-11531700D01*
X135346303Y-11531700D02*
X135284398Y-11469795D01*
D10*
D11*
X185965350Y-10726938D02*
X185965350Y-11593604D01*
X185655826Y-10231700D02*
X185346303Y-11160271D01*
X185346303Y-11160271D02*
X186151064Y-11160271D01*
D10*
D11*
X236027255Y-10293604D02*
X235408207Y-10293604D01*
X235408207Y-10293604D02*
X235346303Y-10912652D01*
X235346303Y-10912652D02*
X235408207Y-10850747D01*
X235408207Y-10850747D02*
X235532017Y-10788842D01*
X235532017Y-10788842D02*
X235841541Y-10788842D01*
X235841541Y-10788842D02*
X235965350Y-10850747D01*
X235965350Y-10850747D02*
X236027255Y-10912652D01*
X236027255Y-10912652D02*
X236089160Y-11036461D01*
X236089160Y-11036461D02*
X236089160Y-11345985D01*
X236089160Y-11345985D02*
X236027255Y-11469795D01*
X236027255Y-11469795D02*
X235965350Y-11531700D01*
X235965350Y-11531700D02*
X235841541Y-11593604D01*
X235841541Y-11593604D02*
X235532017Y-11593604D01*
X235532017Y-11593604D02*
X235408207Y-11531700D01*
X235408207Y-11531700D02*
X235346303Y-11469795D01*
D10*
D11*
X285965350Y-10293604D02*
X285717731Y-10293604D01*
X285717731Y-10293604D02*
X285593922Y-10355509D01*
X285593922Y-10355509D02*
X285532017Y-10417414D01*
X285532017Y-10417414D02*
X285408207Y-10603128D01*
X285408207Y-10603128D02*
X285346303Y-10850747D01*
X285346303Y-10850747D02*
X285346303Y-11345985D01*
X285346303Y-11345985D02*
X285408207Y-11469795D01*
X285408207Y-11469795D02*
X285470112Y-11531700D01*
X285470112Y-11531700D02*
X285593922Y-11593604D01*
X285593922Y-11593604D02*
X285841541Y-11593604D01*
X285841541Y-11593604D02*
X285965350Y-11531700D01*
X285965350Y-11531700D02*
X286027255Y-11469795D01*
X286027255Y-11469795D02*
X286089160Y-11345985D01*
X286089160Y-11345985D02*
X286089160Y-11036461D01*
X286089160Y-11036461D02*
X286027255Y-10912652D01*
X286027255Y-10912652D02*
X285965350Y-10850747D01*
X285965350Y-10850747D02*
X285841541Y-10788842D01*
X285841541Y-10788842D02*
X285593922Y-10788842D01*
X285593922Y-10788842D02*
X285470112Y-10850747D01*
X285470112Y-10850747D02*
X285408207Y-10912652D01*
X285408207Y-10912652D02*
X285346303Y-11036461D01*
D10*
D11*
X60000000Y-198007200D02*
X60000000Y-200007200D01*
D10*
D11*
X110000000Y-198007200D02*
X110000000Y-200007200D01*
D10*
D11*
X160000000Y-198007200D02*
X160000000Y-200007200D01*
D10*
D11*
X210000000Y-198007200D02*
X210000000Y-200007200D01*
D10*
D11*
X260000000Y-198007200D02*
X260000000Y-200007200D01*
D10*
D11*
X36089160Y-199600804D02*
X35346303Y-199600804D01*
X35717731Y-199600804D02*
X35717731Y-198300804D01*
X35717731Y-198300804D02*
X35593922Y-198486519D01*
X35593922Y-198486519D02*
X35470112Y-198610328D01*
X35470112Y-198610328D02*
X35346303Y-198672233D01*
D10*
D11*
X85346303Y-198424614D02*
X85408207Y-198362709D01*
X85408207Y-198362709D02*
X85532017Y-198300804D01*
X85532017Y-198300804D02*
X85841541Y-198300804D01*
X85841541Y-198300804D02*
X85965350Y-198362709D01*
X85965350Y-198362709D02*
X86027255Y-198424614D01*
X86027255Y-198424614D02*
X86089160Y-198548423D01*
X86089160Y-198548423D02*
X86089160Y-198672233D01*
X86089160Y-198672233D02*
X86027255Y-198857947D01*
X86027255Y-198857947D02*
X85284398Y-199600804D01*
X85284398Y-199600804D02*
X86089160Y-199600804D01*
D10*
D11*
X135284398Y-198300804D02*
X136089160Y-198300804D01*
X136089160Y-198300804D02*
X135655826Y-198796042D01*
X135655826Y-198796042D02*
X135841541Y-198796042D01*
X135841541Y-198796042D02*
X135965350Y-198857947D01*
X135965350Y-198857947D02*
X136027255Y-198919852D01*
X136027255Y-198919852D02*
X136089160Y-199043661D01*
X136089160Y-199043661D02*
X136089160Y-199353185D01*
X136089160Y-199353185D02*
X136027255Y-199476995D01*
X136027255Y-199476995D02*
X135965350Y-199538900D01*
X135965350Y-199538900D02*
X135841541Y-199600804D01*
X135841541Y-199600804D02*
X135470112Y-199600804D01*
X135470112Y-199600804D02*
X135346303Y-199538900D01*
X135346303Y-199538900D02*
X135284398Y-199476995D01*
D10*
D11*
X185965350Y-198734138D02*
X185965350Y-199600804D01*
X185655826Y-198238900D02*
X185346303Y-199167471D01*
X185346303Y-199167471D02*
X186151064Y-199167471D01*
D10*
D11*
X236027255Y-198300804D02*
X235408207Y-198300804D01*
X235408207Y-198300804D02*
X235346303Y-198919852D01*
X235346303Y-198919852D02*
X235408207Y-198857947D01*
X235408207Y-198857947D02*
X235532017Y-198796042D01*
X235532017Y-198796042D02*
X235841541Y-198796042D01*
X235841541Y-198796042D02*
X235965350Y-198857947D01*
X235965350Y-198857947D02*
X236027255Y-198919852D01*
X236027255Y-198919852D02*
X236089160Y-199043661D01*
X236089160Y-199043661D02*
X236089160Y-199353185D01*
X236089160Y-199353185D02*
X236027255Y-199476995D01*
X236027255Y-199476995D02*
X235965350Y-199538900D01*
X235965350Y-199538900D02*
X235841541Y-199600804D01*
X235841541Y-199600804D02*
X235532017Y-199600804D01*
X235532017Y-199600804D02*
X235408207Y-199538900D01*
X235408207Y-199538900D02*
X235346303Y-199476995D01*
D10*
D11*
X285965350Y-198300804D02*
X285717731Y-198300804D01*
X285717731Y-198300804D02*
X285593922Y-198362709D01*
X285593922Y-198362709D02*
X285532017Y-198424614D01*
X285532017Y-198424614D02*
X285408207Y-198610328D01*
X285408207Y-198610328D02*
X285346303Y-198857947D01*
X285346303Y-198857947D02*
X285346303Y-199353185D01*
X285346303Y-199353185D02*
X285408207Y-199476995D01*
X285408207Y-199476995D02*
X285470112Y-199538900D01*
X285470112Y-199538900D02*
X285593922Y-199600804D01*
X285593922Y-199600804D02*
X285841541Y-199600804D01*
X285841541Y-199600804D02*
X285965350Y-199538900D01*
X285965350Y-199538900D02*
X286027255Y-199476995D01*
X286027255Y-199476995D02*
X286089160Y-199353185D01*
X286089160Y-199353185D02*
X286089160Y-199043661D01*
X286089160Y-199043661D02*
X286027255Y-198919852D01*
X286027255Y-198919852D02*
X285965350Y-198857947D01*
X285965350Y-198857947D02*
X285841541Y-198796042D01*
X285841541Y-198796042D02*
X285593922Y-198796042D01*
X285593922Y-198796042D02*
X285470112Y-198857947D01*
X285470112Y-198857947D02*
X285408207Y-198919852D01*
X285408207Y-198919852D02*
X285346303Y-199043661D01*
D10*
D11*
X10000000Y-60000000D02*
X12000000Y-60000000D01*
D10*
D11*
X10000000Y-110000000D02*
X12000000Y-110000000D01*
D10*
D11*
X10000000Y-160000000D02*
X12000000Y-160000000D01*
D10*
D11*
X10690476Y-35222176D02*
X11309523Y-35222176D01*
X10566666Y-35593604D02*
X10999999Y-34293604D01*
X10999999Y-34293604D02*
X11433333Y-35593604D01*
D10*
D11*
X11092857Y-84912652D02*
X11278571Y-84974557D01*
X11278571Y-84974557D02*
X11340476Y-85036461D01*
X11340476Y-85036461D02*
X11402380Y-85160271D01*
X11402380Y-85160271D02*
X11402380Y-85345985D01*
X11402380Y-85345985D02*
X11340476Y-85469795D01*
X11340476Y-85469795D02*
X11278571Y-85531700D01*
X11278571Y-85531700D02*
X11154761Y-85593604D01*
X11154761Y-85593604D02*
X10659523Y-85593604D01*
X10659523Y-85593604D02*
X10659523Y-84293604D01*
X10659523Y-84293604D02*
X11092857Y-84293604D01*
X11092857Y-84293604D02*
X11216666Y-84355509D01*
X11216666Y-84355509D02*
X11278571Y-84417414D01*
X11278571Y-84417414D02*
X11340476Y-84541223D01*
X11340476Y-84541223D02*
X11340476Y-84665033D01*
X11340476Y-84665033D02*
X11278571Y-84788842D01*
X11278571Y-84788842D02*
X11216666Y-84850747D01*
X11216666Y-84850747D02*
X11092857Y-84912652D01*
X11092857Y-84912652D02*
X10659523Y-84912652D01*
D10*
D11*
X11402380Y-135469795D02*
X11340476Y-135531700D01*
X11340476Y-135531700D02*
X11154761Y-135593604D01*
X11154761Y-135593604D02*
X11030952Y-135593604D01*
X11030952Y-135593604D02*
X10845238Y-135531700D01*
X10845238Y-135531700D02*
X10721428Y-135407890D01*
X10721428Y-135407890D02*
X10659523Y-135284080D01*
X10659523Y-135284080D02*
X10597619Y-135036461D01*
X10597619Y-135036461D02*
X10597619Y-134850747D01*
X10597619Y-134850747D02*
X10659523Y-134603128D01*
X10659523Y-134603128D02*
X10721428Y-134479319D01*
X10721428Y-134479319D02*
X10845238Y-134355509D01*
X10845238Y-134355509D02*
X11030952Y-134293604D01*
X11030952Y-134293604D02*
X11154761Y-134293604D01*
X11154761Y-134293604D02*
X11340476Y-134355509D01*
X11340476Y-134355509D02*
X11402380Y-134417414D01*
D10*
D11*
X10659523Y-185593604D02*
X10659523Y-184293604D01*
X10659523Y-184293604D02*
X10969047Y-184293604D01*
X10969047Y-184293604D02*
X11154761Y-184355509D01*
X11154761Y-184355509D02*
X11278571Y-184479319D01*
X11278571Y-184479319D02*
X11340476Y-184603128D01*
X11340476Y-184603128D02*
X11402380Y-184850747D01*
X11402380Y-184850747D02*
X11402380Y-185036461D01*
X11402380Y-185036461D02*
X11340476Y-185284080D01*
X11340476Y-185284080D02*
X11278571Y-185407890D01*
X11278571Y-185407890D02*
X11154761Y-185531700D01*
X11154761Y-185531700D02*
X10969047Y-185593604D01*
X10969047Y-185593604D02*
X10659523Y-185593604D01*
D10*
D11*
X287002200Y-60000000D02*
X285002200Y-60000000D01*
D10*
D11*
X287002200Y-110000000D02*
X285002200Y-110000000D01*
D10*
D11*
X287002200Y-160000000D02*
X285002200Y-160000000D01*
D10*
D11*
X285692676Y-35222176D02*
X286311723Y-35222176D01*
X285568866Y-35593604D02*
X286002199Y-34293604D01*
X286002199Y-34293604D02*
X286435533Y-35593604D01*
D10*
D11*
X286095057Y-84912652D02*
X286280771Y-84974557D01*
X286280771Y-84974557D02*
X286342676Y-85036461D01*
X286342676Y-85036461D02*
X286404580Y-85160271D01*
X286404580Y-85160271D02*
X286404580Y-85345985D01*
X286404580Y-85345985D02*
X286342676Y-85469795D01*
X286342676Y-85469795D02*
X286280771Y-85531700D01*
X286280771Y-85531700D02*
X286156961Y-85593604D01*
X286156961Y-85593604D02*
X285661723Y-85593604D01*
X285661723Y-85593604D02*
X285661723Y-84293604D01*
X285661723Y-84293604D02*
X286095057Y-84293604D01*
X286095057Y-84293604D02*
X286218866Y-84355509D01*
X286218866Y-84355509D02*
X286280771Y-84417414D01*
X286280771Y-84417414D02*
X286342676Y-84541223D01*
X286342676Y-84541223D02*
X286342676Y-84665033D01*
X286342676Y-84665033D02*
X286280771Y-84788842D01*
X286280771Y-84788842D02*
X286218866Y-84850747D01*
X286218866Y-84850747D02*
X286095057Y-84912652D01*
X286095057Y-84912652D02*
X285661723Y-84912652D01*
D10*
D11*
X286404580Y-135469795D02*
X286342676Y-135531700D01*
X286342676Y-135531700D02*
X286156961Y-135593604D01*
X286156961Y-135593604D02*
X286033152Y-135593604D01*
X286033152Y-135593604D02*
X285847438Y-135531700D01*
X285847438Y-135531700D02*
X285723628Y-135407890D01*
X285723628Y-135407890D02*
X285661723Y-135284080D01*
X285661723Y-135284080D02*
X285599819Y-135036461D01*
X285599819Y-135036461D02*
X285599819Y-134850747D01*
X285599819Y-134850747D02*
X285661723Y-134603128D01*
X285661723Y-134603128D02*
X285723628Y-134479319D01*
X285723628Y-134479319D02*
X285847438Y-134355509D01*
X285847438Y-134355509D02*
X286033152Y-134293604D01*
X286033152Y-134293604D02*
X286156961Y-134293604D01*
X286156961Y-134293604D02*
X286342676Y-134355509D01*
X286342676Y-134355509D02*
X286404580Y-134417414D01*
D10*
D11*
X285661723Y-185593604D02*
X285661723Y-184293604D01*
X285661723Y-184293604D02*
X285971247Y-184293604D01*
X285971247Y-184293604D02*
X286156961Y-184355509D01*
X286156961Y-184355509D02*
X286280771Y-184479319D01*
X286280771Y-184479319D02*
X286342676Y-184603128D01*
X286342676Y-184603128D02*
X286404580Y-184850747D01*
X286404580Y-184850747D02*
X286404580Y-185036461D01*
X286404580Y-185036461D02*
X286342676Y-185284080D01*
X286342676Y-185284080D02*
X286280771Y-185407890D01*
X286280771Y-185407890D02*
X286156961Y-185531700D01*
X286156961Y-185531700D02*
X285971247Y-185593604D01*
X285971247Y-185593604D02*
X285661723Y-185593604D01*
D10*
D11*
X200458026Y-193793328D02*
X200458026Y-192293328D01*
X200458026Y-192293328D02*
X200815169Y-192293328D01*
X200815169Y-192293328D02*
X201029455Y-192364757D01*
X201029455Y-192364757D02*
X201172312Y-192507614D01*
X201172312Y-192507614D02*
X201243741Y-192650471D01*
X201243741Y-192650471D02*
X201315169Y-192936185D01*
X201315169Y-192936185D02*
X201315169Y-193150471D01*
X201315169Y-193150471D02*
X201243741Y-193436185D01*
X201243741Y-193436185D02*
X201172312Y-193579042D01*
X201172312Y-193579042D02*
X201029455Y-193721900D01*
X201029455Y-193721900D02*
X200815169Y-193793328D01*
X200815169Y-193793328D02*
X200458026Y-193793328D01*
X202600884Y-193793328D02*
X202600884Y-193007614D01*
X202600884Y-193007614D02*
X202529455Y-192864757D01*
X202529455Y-192864757D02*
X202386598Y-192793328D01*
X202386598Y-192793328D02*
X202100884Y-192793328D01*
X202100884Y-192793328D02*
X201958026Y-192864757D01*
X202600884Y-193721900D02*
X202458026Y-193793328D01*
X202458026Y-193793328D02*
X202100884Y-193793328D01*
X202100884Y-193793328D02*
X201958026Y-193721900D01*
X201958026Y-193721900D02*
X201886598Y-193579042D01*
X201886598Y-193579042D02*
X201886598Y-193436185D01*
X201886598Y-193436185D02*
X201958026Y-193293328D01*
X201958026Y-193293328D02*
X202100884Y-193221900D01*
X202100884Y-193221900D02*
X202458026Y-193221900D01*
X202458026Y-193221900D02*
X202600884Y-193150471D01*
X203100884Y-192793328D02*
X203672312Y-192793328D01*
X203315169Y-192293328D02*
X203315169Y-193579042D01*
X203315169Y-193579042D02*
X203386598Y-193721900D01*
X203386598Y-193721900D02*
X203529455Y-193793328D01*
X203529455Y-193793328D02*
X203672312Y-193793328D01*
X204743741Y-193721900D02*
X204600884Y-193793328D01*
X204600884Y-193793328D02*
X204315170Y-193793328D01*
X204315170Y-193793328D02*
X204172312Y-193721900D01*
X204172312Y-193721900D02*
X204100884Y-193579042D01*
X204100884Y-193579042D02*
X204100884Y-193007614D01*
X204100884Y-193007614D02*
X204172312Y-192864757D01*
X204172312Y-192864757D02*
X204315170Y-192793328D01*
X204315170Y-192793328D02*
X204600884Y-192793328D01*
X204600884Y-192793328D02*
X204743741Y-192864757D01*
X204743741Y-192864757D02*
X204815170Y-193007614D01*
X204815170Y-193007614D02*
X204815170Y-193150471D01*
X204815170Y-193150471D02*
X204100884Y-193293328D01*
X205458026Y-193650471D02*
X205529455Y-193721900D01*
X205529455Y-193721900D02*
X205458026Y-193793328D01*
X205458026Y-193793328D02*
X205386598Y-193721900D01*
X205386598Y-193721900D02*
X205458026Y-193650471D01*
X205458026Y-193650471D02*
X205458026Y-193793328D01*
X205458026Y-192864757D02*
X205529455Y-192936185D01*
X205529455Y-192936185D02*
X205458026Y-193007614D01*
X205458026Y-193007614D02*
X205386598Y-192936185D01*
X205386598Y-192936185D02*
X205458026Y-192864757D01*
X205458026Y-192864757D02*
X205458026Y-193007614D01*
D10*
D11*
X177002200Y-194507200D02*
X285002200Y-194507200D01*
D10*
D11*
X178458026Y-196593328D02*
X178458026Y-195093328D01*
X179315169Y-196593328D02*
X178672312Y-195736185D01*
X179315169Y-195093328D02*
X178458026Y-195950471D01*
X179958026Y-196593328D02*
X179958026Y-195593328D01*
X179958026Y-195093328D02*
X179886598Y-195164757D01*
X179886598Y-195164757D02*
X179958026Y-195236185D01*
X179958026Y-195236185D02*
X180029455Y-195164757D01*
X180029455Y-195164757D02*
X179958026Y-195093328D01*
X179958026Y-195093328D02*
X179958026Y-195236185D01*
X181529455Y-196450471D02*
X181458027Y-196521900D01*
X181458027Y-196521900D02*
X181243741Y-196593328D01*
X181243741Y-196593328D02*
X181100884Y-196593328D01*
X181100884Y-196593328D02*
X180886598Y-196521900D01*
X180886598Y-196521900D02*
X180743741Y-196379042D01*
X180743741Y-196379042D02*
X180672312Y-196236185D01*
X180672312Y-196236185D02*
X180600884Y-195950471D01*
X180600884Y-195950471D02*
X180600884Y-195736185D01*
X180600884Y-195736185D02*
X180672312Y-195450471D01*
X180672312Y-195450471D02*
X180743741Y-195307614D01*
X180743741Y-195307614D02*
X180886598Y-195164757D01*
X180886598Y-195164757D02*
X181100884Y-195093328D01*
X181100884Y-195093328D02*
X181243741Y-195093328D01*
X181243741Y-195093328D02*
X181458027Y-195164757D01*
X181458027Y-195164757D02*
X181529455Y-195236185D01*
X182815170Y-196593328D02*
X182815170Y-195807614D01*
X182815170Y-195807614D02*
X182743741Y-195664757D01*
X182743741Y-195664757D02*
X182600884Y-195593328D01*
X182600884Y-195593328D02*
X182315170Y-195593328D01*
X182315170Y-195593328D02*
X182172312Y-195664757D01*
X182815170Y-196521900D02*
X182672312Y-196593328D01*
X182672312Y-196593328D02*
X182315170Y-196593328D01*
X182315170Y-196593328D02*
X182172312Y-196521900D01*
X182172312Y-196521900D02*
X182100884Y-196379042D01*
X182100884Y-196379042D02*
X182100884Y-196236185D01*
X182100884Y-196236185D02*
X182172312Y-196093328D01*
X182172312Y-196093328D02*
X182315170Y-196021900D01*
X182315170Y-196021900D02*
X182672312Y-196021900D01*
X182672312Y-196021900D02*
X182815170Y-195950471D01*
X184172313Y-196593328D02*
X184172313Y-195093328D01*
X184172313Y-196521900D02*
X184029455Y-196593328D01*
X184029455Y-196593328D02*
X183743741Y-196593328D01*
X183743741Y-196593328D02*
X183600884Y-196521900D01*
X183600884Y-196521900D02*
X183529455Y-196450471D01*
X183529455Y-196450471D02*
X183458027Y-196307614D01*
X183458027Y-196307614D02*
X183458027Y-195879042D01*
X183458027Y-195879042D02*
X183529455Y-195736185D01*
X183529455Y-195736185D02*
X183600884Y-195664757D01*
X183600884Y-195664757D02*
X183743741Y-195593328D01*
X183743741Y-195593328D02*
X184029455Y-195593328D01*
X184029455Y-195593328D02*
X184172313Y-195664757D01*
X186029455Y-195807614D02*
X186529455Y-195807614D01*
X186743741Y-196593328D02*
X186029455Y-196593328D01*
X186029455Y-196593328D02*
X186029455Y-195093328D01*
X186029455Y-195093328D02*
X186743741Y-195093328D01*
X187386598Y-196450471D02*
X187458027Y-196521900D01*
X187458027Y-196521900D02*
X187386598Y-196593328D01*
X187386598Y-196593328D02*
X187315170Y-196521900D01*
X187315170Y-196521900D02*
X187386598Y-196450471D01*
X187386598Y-196450471D02*
X187386598Y-196593328D01*
X188100884Y-196593328D02*
X188100884Y-195093328D01*
X188100884Y-195093328D02*
X188458027Y-195093328D01*
X188458027Y-195093328D02*
X188672313Y-195164757D01*
X188672313Y-195164757D02*
X188815170Y-195307614D01*
X188815170Y-195307614D02*
X188886599Y-195450471D01*
X188886599Y-195450471D02*
X188958027Y-195736185D01*
X188958027Y-195736185D02*
X188958027Y-195950471D01*
X188958027Y-195950471D02*
X188886599Y-196236185D01*
X188886599Y-196236185D02*
X188815170Y-196379042D01*
X188815170Y-196379042D02*
X188672313Y-196521900D01*
X188672313Y-196521900D02*
X188458027Y-196593328D01*
X188458027Y-196593328D02*
X188100884Y-196593328D01*
X189600884Y-196450471D02*
X189672313Y-196521900D01*
X189672313Y-196521900D02*
X189600884Y-196593328D01*
X189600884Y-196593328D02*
X189529456Y-196521900D01*
X189529456Y-196521900D02*
X189600884Y-196450471D01*
X189600884Y-196450471D02*
X189600884Y-196593328D01*
X190243742Y-196164757D02*
X190958028Y-196164757D01*
X190100885Y-196593328D02*
X190600885Y-195093328D01*
X190600885Y-195093328D02*
X191100885Y-196593328D01*
X191600884Y-196450471D02*
X191672313Y-196521900D01*
X191672313Y-196521900D02*
X191600884Y-196593328D01*
X191600884Y-196593328D02*
X191529456Y-196521900D01*
X191529456Y-196521900D02*
X191600884Y-196450471D01*
X191600884Y-196450471D02*
X191600884Y-196593328D01*
X193672313Y-195736185D02*
X193529456Y-195664757D01*
X193529456Y-195664757D02*
X193458027Y-195593328D01*
X193458027Y-195593328D02*
X193386599Y-195450471D01*
X193386599Y-195450471D02*
X193386599Y-195379042D01*
X193386599Y-195379042D02*
X193458027Y-195236185D01*
X193458027Y-195236185D02*
X193529456Y-195164757D01*
X193529456Y-195164757D02*
X193672313Y-195093328D01*
X193672313Y-195093328D02*
X193958027Y-195093328D01*
X193958027Y-195093328D02*
X194100885Y-195164757D01*
X194100885Y-195164757D02*
X194172313Y-195236185D01*
X194172313Y-195236185D02*
X194243742Y-195379042D01*
X194243742Y-195379042D02*
X194243742Y-195450471D01*
X194243742Y-195450471D02*
X194172313Y-195593328D01*
X194172313Y-195593328D02*
X194100885Y-195664757D01*
X194100885Y-195664757D02*
X193958027Y-195736185D01*
X193958027Y-195736185D02*
X193672313Y-195736185D01*
X193672313Y-195736185D02*
X193529456Y-195807614D01*
X193529456Y-195807614D02*
X193458027Y-195879042D01*
X193458027Y-195879042D02*
X193386599Y-196021900D01*
X193386599Y-196021900D02*
X193386599Y-196307614D01*
X193386599Y-196307614D02*
X193458027Y-196450471D01*
X193458027Y-196450471D02*
X193529456Y-196521900D01*
X193529456Y-196521900D02*
X193672313Y-196593328D01*
X193672313Y-196593328D02*
X193958027Y-196593328D01*
X193958027Y-196593328D02*
X194100885Y-196521900D01*
X194100885Y-196521900D02*
X194172313Y-196450471D01*
X194172313Y-196450471D02*
X194243742Y-196307614D01*
X194243742Y-196307614D02*
X194243742Y-196021900D01*
X194243742Y-196021900D02*
X194172313Y-195879042D01*
X194172313Y-195879042D02*
X194100885Y-195807614D01*
X194100885Y-195807614D02*
X193958027Y-195736185D01*
X194886598Y-196450471D02*
X194958027Y-196521900D01*
X194958027Y-196521900D02*
X194886598Y-196593328D01*
X194886598Y-196593328D02*
X194815170Y-196521900D01*
X194815170Y-196521900D02*
X194886598Y-196450471D01*
X194886598Y-196450471D02*
X194886598Y-196593328D01*
X195886599Y-195093328D02*
X196029456Y-195093328D01*
X196029456Y-195093328D02*
X196172313Y-195164757D01*
X196172313Y-195164757D02*
X196243742Y-195236185D01*
X196243742Y-195236185D02*
X196315170Y-195379042D01*
X196315170Y-195379042D02*
X196386599Y-195664757D01*
X196386599Y-195664757D02*
X196386599Y-196021900D01*
X196386599Y-196021900D02*
X196315170Y-196307614D01*
X196315170Y-196307614D02*
X196243742Y-196450471D01*
X196243742Y-196450471D02*
X196172313Y-196521900D01*
X196172313Y-196521900D02*
X196029456Y-196593328D01*
X196029456Y-196593328D02*
X195886599Y-196593328D01*
X195886599Y-196593328D02*
X195743742Y-196521900D01*
X195743742Y-196521900D02*
X195672313Y-196450471D01*
X195672313Y-196450471D02*
X195600884Y-196307614D01*
X195600884Y-196307614D02*
X195529456Y-196021900D01*
X195529456Y-196021900D02*
X195529456Y-195664757D01*
X195529456Y-195664757D02*
X195600884Y-195379042D01*
X195600884Y-195379042D02*
X195672313Y-195236185D01*
X195672313Y-195236185D02*
X195743742Y-195164757D01*
X195743742Y-195164757D02*
X195886599Y-195093328D01*
X197029455Y-196450471D02*
X197100884Y-196521900D01*
X197100884Y-196521900D02*
X197029455Y-196593328D01*
X197029455Y-196593328D02*
X196958027Y-196521900D01*
X196958027Y-196521900D02*
X197029455Y-196450471D01*
X197029455Y-196450471D02*
X197029455Y-196593328D01*
X197600884Y-195093328D02*
X198529456Y-195093328D01*
X198529456Y-195093328D02*
X198029456Y-195664757D01*
X198029456Y-195664757D02*
X198243741Y-195664757D01*
X198243741Y-195664757D02*
X198386599Y-195736185D01*
X198386599Y-195736185D02*
X198458027Y-195807614D01*
X198458027Y-195807614D02*
X198529456Y-195950471D01*
X198529456Y-195950471D02*
X198529456Y-196307614D01*
X198529456Y-196307614D02*
X198458027Y-196450471D01*
X198458027Y-196450471D02*
X198386599Y-196521900D01*
X198386599Y-196521900D02*
X198243741Y-196593328D01*
X198243741Y-196593328D02*
X197815170Y-196593328D01*
X197815170Y-196593328D02*
X197672313Y-196521900D01*
X197672313Y-196521900D02*
X197600884Y-196450471D01*
D10*
D11*
X177002200Y-191507200D02*
X285002200Y-191507200D01*
D10*
D12*
X264413853Y-193785528D02*
X263913853Y-193071242D01*
X263556710Y-193785528D02*
X263556710Y-192285528D01*
X263556710Y-192285528D02*
X264128139Y-192285528D01*
X264128139Y-192285528D02*
X264270996Y-192356957D01*
X264270996Y-192356957D02*
X264342425Y-192428385D01*
X264342425Y-192428385D02*
X264413853Y-192571242D01*
X264413853Y-192571242D02*
X264413853Y-192785528D01*
X264413853Y-192785528D02*
X264342425Y-192928385D01*
X264342425Y-192928385D02*
X264270996Y-192999814D01*
X264270996Y-192999814D02*
X264128139Y-193071242D01*
X264128139Y-193071242D02*
X263556710Y-193071242D01*
X265628139Y-193714100D02*
X265485282Y-193785528D01*
X265485282Y-193785528D02*
X265199568Y-193785528D01*
X265199568Y-193785528D02*
X265056710Y-193714100D01*
X265056710Y-193714100D02*
X264985282Y-193571242D01*
X264985282Y-193571242D02*
X264985282Y-192999814D01*
X264985282Y-192999814D02*
X265056710Y-192856957D01*
X265056710Y-192856957D02*
X265199568Y-192785528D01*
X265199568Y-192785528D02*
X265485282Y-192785528D01*
X265485282Y-192785528D02*
X265628139Y-192856957D01*
X265628139Y-192856957D02*
X265699568Y-192999814D01*
X265699568Y-192999814D02*
X265699568Y-193142671D01*
X265699568Y-193142671D02*
X264985282Y-193285528D01*
X266199567Y-192785528D02*
X266556710Y-193785528D01*
X266556710Y-193785528D02*
X266913853Y-192785528D01*
X267485281Y-193642671D02*
X267556710Y-193714100D01*
X267556710Y-193714100D02*
X267485281Y-193785528D01*
X267485281Y-193785528D02*
X267413853Y-193714100D01*
X267413853Y-193714100D02*
X267485281Y-193642671D01*
X267485281Y-193642671D02*
X267485281Y-193785528D01*
X267485281Y-192856957D02*
X267556710Y-192928385D01*
X267556710Y-192928385D02*
X267485281Y-192999814D01*
X267485281Y-192999814D02*
X267413853Y-192928385D01*
X267413853Y-192928385D02*
X267485281Y-192856957D01*
X267485281Y-192856957D02*
X267485281Y-192999814D01*
X269270996Y-192428385D02*
X269342424Y-192356957D01*
X269342424Y-192356957D02*
X269485282Y-192285528D01*
X269485282Y-192285528D02*
X269842424Y-192285528D01*
X269842424Y-192285528D02*
X269985282Y-192356957D01*
X269985282Y-192356957D02*
X270056710Y-192428385D01*
X270056710Y-192428385D02*
X270128139Y-192571242D01*
X270128139Y-192571242D02*
X270128139Y-192714100D01*
X270128139Y-192714100D02*
X270056710Y-192928385D01*
X270056710Y-192928385D02*
X269199567Y-193785528D01*
X269199567Y-193785528D02*
X270128139Y-193785528D01*
D10*
D11*
X178386598Y-193721900D02*
X178600884Y-193793328D01*
X178600884Y-193793328D02*
X178958026Y-193793328D01*
X178958026Y-193793328D02*
X179100884Y-193721900D01*
X179100884Y-193721900D02*
X179172312Y-193650471D01*
X179172312Y-193650471D02*
X179243741Y-193507614D01*
X179243741Y-193507614D02*
X179243741Y-193364757D01*
X179243741Y-193364757D02*
X179172312Y-193221900D01*
X179172312Y-193221900D02*
X179100884Y-193150471D01*
X179100884Y-193150471D02*
X178958026Y-193079042D01*
X178958026Y-193079042D02*
X178672312Y-193007614D01*
X178672312Y-193007614D02*
X178529455Y-192936185D01*
X178529455Y-192936185D02*
X178458026Y-192864757D01*
X178458026Y-192864757D02*
X178386598Y-192721900D01*
X178386598Y-192721900D02*
X178386598Y-192579042D01*
X178386598Y-192579042D02*
X178458026Y-192436185D01*
X178458026Y-192436185D02*
X178529455Y-192364757D01*
X178529455Y-192364757D02*
X178672312Y-192293328D01*
X178672312Y-192293328D02*
X179029455Y-192293328D01*
X179029455Y-192293328D02*
X179243741Y-192364757D01*
X179886597Y-193793328D02*
X179886597Y-192793328D01*
X179886597Y-192293328D02*
X179815169Y-192364757D01*
X179815169Y-192364757D02*
X179886597Y-192436185D01*
X179886597Y-192436185D02*
X179958026Y-192364757D01*
X179958026Y-192364757D02*
X179886597Y-192293328D01*
X179886597Y-192293328D02*
X179886597Y-192436185D01*
X180458026Y-192793328D02*
X181243741Y-192793328D01*
X181243741Y-192793328D02*
X180458026Y-193793328D01*
X180458026Y-193793328D02*
X181243741Y-193793328D01*
X182386598Y-193721900D02*
X182243741Y-193793328D01*
X182243741Y-193793328D02*
X181958027Y-193793328D01*
X181958027Y-193793328D02*
X181815169Y-193721900D01*
X181815169Y-193721900D02*
X181743741Y-193579042D01*
X181743741Y-193579042D02*
X181743741Y-193007614D01*
X181743741Y-193007614D02*
X181815169Y-192864757D01*
X181815169Y-192864757D02*
X181958027Y-192793328D01*
X181958027Y-192793328D02*
X182243741Y-192793328D01*
X182243741Y-192793328D02*
X182386598Y-192864757D01*
X182386598Y-192864757D02*
X182458027Y-193007614D01*
X182458027Y-193007614D02*
X182458027Y-193150471D01*
X182458027Y-193150471D02*
X181743741Y-193293328D01*
X183100883Y-193650471D02*
X183172312Y-193721900D01*
X183172312Y-193721900D02*
X183100883Y-193793328D01*
X183100883Y-193793328D02*
X183029455Y-193721900D01*
X183029455Y-193721900D02*
X183100883Y-193650471D01*
X183100883Y-193650471D02*
X183100883Y-193793328D01*
X183100883Y-192864757D02*
X183172312Y-192936185D01*
X183172312Y-192936185D02*
X183100883Y-193007614D01*
X183100883Y-193007614D02*
X183029455Y-192936185D01*
X183029455Y-192936185D02*
X183100883Y-192864757D01*
X183100883Y-192864757D02*
X183100883Y-193007614D01*
X184886598Y-193364757D02*
X185600884Y-193364757D01*
X184743741Y-193793328D02*
X185243741Y-192293328D01*
X185243741Y-192293328D02*
X185743741Y-193793328D01*
X186886598Y-192793328D02*
X186886598Y-193793328D01*
X186529455Y-192221900D02*
X186172312Y-193293328D01*
X186172312Y-193293328D02*
X187100883Y-193293328D01*
D10*
D11*
X263458026Y-196593328D02*
X263458026Y-195093328D01*
X264815170Y-196593328D02*
X264815170Y-195093328D01*
X264815170Y-196521900D02*
X264672312Y-196593328D01*
X264672312Y-196593328D02*
X264386598Y-196593328D01*
X264386598Y-196593328D02*
X264243741Y-196521900D01*
X264243741Y-196521900D02*
X264172312Y-196450471D01*
X264172312Y-196450471D02*
X264100884Y-196307614D01*
X264100884Y-196307614D02*
X264100884Y-195879042D01*
X264100884Y-195879042D02*
X264172312Y-195736185D01*
X264172312Y-195736185D02*
X264243741Y-195664757D01*
X264243741Y-195664757D02*
X264386598Y-195593328D01*
X264386598Y-195593328D02*
X264672312Y-195593328D01*
X264672312Y-195593328D02*
X264815170Y-195664757D01*
X265529455Y-196450471D02*
X265600884Y-196521900D01*
X265600884Y-196521900D02*
X265529455Y-196593328D01*
X265529455Y-196593328D02*
X265458027Y-196521900D01*
X265458027Y-196521900D02*
X265529455Y-196450471D01*
X265529455Y-196450471D02*
X265529455Y-196593328D01*
X265529455Y-195664757D02*
X265600884Y-195736185D01*
X265600884Y-195736185D02*
X265529455Y-195807614D01*
X265529455Y-195807614D02*
X265458027Y-195736185D01*
X265458027Y-195736185D02*
X265529455Y-195664757D01*
X265529455Y-195664757D02*
X265529455Y-195807614D01*
X268172313Y-196593328D02*
X267315170Y-196593328D01*
X267743741Y-196593328D02*
X267743741Y-195093328D01*
X267743741Y-195093328D02*
X267600884Y-195307614D01*
X267600884Y-195307614D02*
X267458027Y-195450471D01*
X267458027Y-195450471D02*
X267315170Y-195521900D01*
X269886598Y-195021900D02*
X268600884Y-196950471D01*
X271172313Y-196593328D02*
X270315170Y-196593328D01*
X270743741Y-196593328D02*
X270743741Y-195093328D01*
X270743741Y-195093328D02*
X270600884Y-195307614D01*
X270600884Y-195307614D02*
X270458027Y-195450471D01*
X270458027Y-195450471D02*
X270315170Y-195521900D01*
D10*
D11*
X177002200Y-187507200D02*
X285002200Y-187507200D01*
D10*
D13*
X178693928Y-188211638D02*
X179836785Y-188211638D01*
X179015357Y-190211638D02*
X179265357Y-188211638D01*
X180253452Y-190211638D02*
X180420119Y-188878304D01*
X180503452Y-188211638D02*
X180396309Y-188306876D01*
X180396309Y-188306876D02*
X180479643Y-188402114D01*
X180479643Y-188402114D02*
X180586786Y-188306876D01*
X180586786Y-188306876D02*
X180503452Y-188211638D01*
X180503452Y-188211638D02*
X180479643Y-188402114D01*
X181086786Y-188878304D02*
X181848690Y-188878304D01*
X181455833Y-188211638D02*
X181241548Y-189925923D01*
X181241548Y-189925923D02*
X181312976Y-190116400D01*
X181312976Y-190116400D02*
X181491548Y-190211638D01*
X181491548Y-190211638D02*
X181682024Y-190211638D01*
X182634405Y-190211638D02*
X182455833Y-190116400D01*
X182455833Y-190116400D02*
X182384405Y-189925923D01*
X182384405Y-189925923D02*
X182598690Y-188211638D01*
X184170119Y-190116400D02*
X183967738Y-190211638D01*
X183967738Y-190211638D02*
X183586785Y-190211638D01*
X183586785Y-190211638D02*
X183408214Y-190116400D01*
X183408214Y-190116400D02*
X183336785Y-189925923D01*
X183336785Y-189925923D02*
X183432024Y-189164019D01*
X183432024Y-189164019D02*
X183551071Y-188973542D01*
X183551071Y-188973542D02*
X183753452Y-188878304D01*
X183753452Y-188878304D02*
X184134404Y-188878304D01*
X184134404Y-188878304D02*
X184312976Y-188973542D01*
X184312976Y-188973542D02*
X184384404Y-189164019D01*
X184384404Y-189164019D02*
X184360595Y-189354495D01*
X184360595Y-189354495D02*
X183384404Y-189544971D01*
X185134405Y-190021161D02*
X185217738Y-190116400D01*
X185217738Y-190116400D02*
X185110595Y-190211638D01*
X185110595Y-190211638D02*
X185027262Y-190116400D01*
X185027262Y-190116400D02*
X185134405Y-190021161D01*
X185134405Y-190021161D02*
X185110595Y-190211638D01*
X185265357Y-188973542D02*
X185348690Y-189068780D01*
X185348690Y-189068780D02*
X185241548Y-189164019D01*
X185241548Y-189164019D02*
X185158214Y-189068780D01*
X185158214Y-189068780D02*
X185265357Y-188973542D01*
X185265357Y-188973542D02*
X185241548Y-189164019D01*
D10*
D11*
X178958026Y-185607614D02*
X178458026Y-185607614D01*
X178458026Y-186393328D02*
X178458026Y-184893328D01*
X178458026Y-184893328D02*
X179172312Y-184893328D01*
X179743740Y-186393328D02*
X179743740Y-185393328D01*
X179743740Y-184893328D02*
X179672312Y-184964757D01*
X179672312Y-184964757D02*
X179743740Y-185036185D01*
X179743740Y-185036185D02*
X179815169Y-184964757D01*
X179815169Y-184964757D02*
X179743740Y-184893328D01*
X179743740Y-184893328D02*
X179743740Y-185036185D01*
X180672312Y-186393328D02*
X180529455Y-186321900D01*
X180529455Y-186321900D02*
X180458026Y-186179042D01*
X180458026Y-186179042D02*
X180458026Y-184893328D01*
X181815169Y-186321900D02*
X181672312Y-186393328D01*
X181672312Y-186393328D02*
X181386598Y-186393328D01*
X181386598Y-186393328D02*
X181243740Y-186321900D01*
X181243740Y-186321900D02*
X181172312Y-186179042D01*
X181172312Y-186179042D02*
X181172312Y-185607614D01*
X181172312Y-185607614D02*
X181243740Y-185464757D01*
X181243740Y-185464757D02*
X181386598Y-185393328D01*
X181386598Y-185393328D02*
X181672312Y-185393328D01*
X181672312Y-185393328D02*
X181815169Y-185464757D01*
X181815169Y-185464757D02*
X181886598Y-185607614D01*
X181886598Y-185607614D02*
X181886598Y-185750471D01*
X181886598Y-185750471D02*
X181172312Y-185893328D01*
X182529454Y-186250471D02*
X182600883Y-186321900D01*
X182600883Y-186321900D02*
X182529454Y-186393328D01*
X182529454Y-186393328D02*
X182458026Y-186321900D01*
X182458026Y-186321900D02*
X182529454Y-186250471D01*
X182529454Y-186250471D02*
X182529454Y-186393328D01*
X182529454Y-185464757D02*
X182600883Y-185536185D01*
X182600883Y-185536185D02*
X182529454Y-185607614D01*
X182529454Y-185607614D02*
X182458026Y-185536185D01*
X182458026Y-185536185D02*
X182529454Y-185464757D01*
X182529454Y-185464757D02*
X182529454Y-185607614D01*
X184386597Y-186393328D02*
X184386597Y-185393328D01*
X184386597Y-185536185D02*
X184458026Y-185464757D01*
X184458026Y-185464757D02*
X184600883Y-185393328D01*
X184600883Y-185393328D02*
X184815169Y-185393328D01*
X184815169Y-185393328D02*
X184958026Y-185464757D01*
X184958026Y-185464757D02*
X185029455Y-185607614D01*
X185029455Y-185607614D02*
X185029455Y-186393328D01*
X185029455Y-185607614D02*
X185100883Y-185464757D01*
X185100883Y-185464757D02*
X185243740Y-185393328D01*
X185243740Y-185393328D02*
X185458026Y-185393328D01*
X185458026Y-185393328D02*
X185600883Y-185464757D01*
X185600883Y-185464757D02*
X185672312Y-185607614D01*
X185672312Y-185607614D02*
X185672312Y-186393328D01*
X187029455Y-186393328D02*
X187029455Y-185607614D01*
X187029455Y-185607614D02*
X186958026Y-185464757D01*
X186958026Y-185464757D02*
X186815169Y-185393328D01*
X186815169Y-185393328D02*
X186529455Y-185393328D01*
X186529455Y-185393328D02*
X186386597Y-185464757D01*
X187029455Y-186321900D02*
X186886597Y-186393328D01*
X186886597Y-186393328D02*
X186529455Y-186393328D01*
X186529455Y-186393328D02*
X186386597Y-186321900D01*
X186386597Y-186321900D02*
X186315169Y-186179042D01*
X186315169Y-186179042D02*
X186315169Y-186036185D01*
X186315169Y-186036185D02*
X186386597Y-185893328D01*
X186386597Y-185893328D02*
X186529455Y-185821900D01*
X186529455Y-185821900D02*
X186886597Y-185821900D01*
X186886597Y-185821900D02*
X187029455Y-185750471D01*
X188386598Y-186321900D02*
X188243740Y-186393328D01*
X188243740Y-186393328D02*
X187958026Y-186393328D01*
X187958026Y-186393328D02*
X187815169Y-186321900D01*
X187815169Y-186321900D02*
X187743740Y-186250471D01*
X187743740Y-186250471D02*
X187672312Y-186107614D01*
X187672312Y-186107614D02*
X187672312Y-185679042D01*
X187672312Y-185679042D02*
X187743740Y-185536185D01*
X187743740Y-185536185D02*
X187815169Y-185464757D01*
X187815169Y-185464757D02*
X187958026Y-185393328D01*
X187958026Y-185393328D02*
X188243740Y-185393328D01*
X188243740Y-185393328D02*
X188386598Y-185464757D01*
X189029454Y-186393328D02*
X189029454Y-185393328D01*
X189029454Y-185679042D02*
X189100883Y-185536185D01*
X189100883Y-185536185D02*
X189172312Y-185464757D01*
X189172312Y-185464757D02*
X189315169Y-185393328D01*
X189315169Y-185393328D02*
X189458026Y-185393328D01*
X190172311Y-186393328D02*
X190029454Y-186321900D01*
X190029454Y-186321900D02*
X189958025Y-186250471D01*
X189958025Y-186250471D02*
X189886597Y-186107614D01*
X189886597Y-186107614D02*
X189886597Y-185679042D01*
X189886597Y-185679042D02*
X189958025Y-185536185D01*
X189958025Y-185536185D02*
X190029454Y-185464757D01*
X190029454Y-185464757D02*
X190172311Y-185393328D01*
X190172311Y-185393328D02*
X190386597Y-185393328D01*
X190386597Y-185393328D02*
X190529454Y-185464757D01*
X190529454Y-185464757D02*
X190600883Y-185536185D01*
X190600883Y-185536185D02*
X190672311Y-185679042D01*
X190672311Y-185679042D02*
X190672311Y-186107614D01*
X190672311Y-186107614D02*
X190600883Y-186250471D01*
X190600883Y-186250471D02*
X190529454Y-186321900D01*
X190529454Y-186321900D02*
X190386597Y-186393328D01*
X190386597Y-186393328D02*
X190172311Y-186393328D01*
X191315168Y-185607614D02*
X192458026Y-185607614D01*
X192458026Y-186036185D02*
X191315168Y-186036185D01*
X194029454Y-186393328D02*
X193529454Y-185679042D01*
X193172311Y-186393328D02*
X193172311Y-184893328D01*
X193172311Y-184893328D02*
X193743740Y-184893328D01*
X193743740Y-184893328D02*
X193886597Y-184964757D01*
X193886597Y-184964757D02*
X193958026Y-185036185D01*
X193958026Y-185036185D02*
X194029454Y-185179042D01*
X194029454Y-185179042D02*
X194029454Y-185393328D01*
X194029454Y-185393328D02*
X193958026Y-185536185D01*
X193958026Y-185536185D02*
X193886597Y-185607614D01*
X193886597Y-185607614D02*
X193743740Y-185679042D01*
X193743740Y-185679042D02*
X193172311Y-185679042D01*
X194672311Y-185607614D02*
X195172311Y-185607614D01*
X195386597Y-186393328D02*
X194672311Y-186393328D01*
X194672311Y-186393328D02*
X194672311Y-184893328D01*
X194672311Y-184893328D02*
X195386597Y-184893328D01*
X195815169Y-184893328D02*
X196315169Y-186393328D01*
X196315169Y-186393328D02*
X196815169Y-184893328D01*
X197243740Y-185036185D02*
X197315168Y-184964757D01*
X197315168Y-184964757D02*
X197458026Y-184893328D01*
X197458026Y-184893328D02*
X197815168Y-184893328D01*
X197815168Y-184893328D02*
X197958026Y-184964757D01*
X197958026Y-184964757D02*
X198029454Y-185036185D01*
X198029454Y-185036185D02*
X198100883Y-185179042D01*
X198100883Y-185179042D02*
X198100883Y-185321900D01*
X198100883Y-185321900D02*
X198029454Y-185536185D01*
X198029454Y-185536185D02*
X197172311Y-186393328D01*
X197172311Y-186393328D02*
X198100883Y-186393328D01*
X198743739Y-186250471D02*
X198815168Y-186321900D01*
X198815168Y-186321900D02*
X198743739Y-186393328D01*
X198743739Y-186393328D02*
X198672311Y-186321900D01*
X198672311Y-186321900D02*
X198743739Y-186250471D01*
X198743739Y-186250471D02*
X198743739Y-186393328D01*
X199458025Y-186393328D02*
X199458025Y-184893328D01*
X199600883Y-185821900D02*
X200029454Y-186393328D01*
X200029454Y-185393328D02*
X199458025Y-185964757D01*
X200672311Y-186393328D02*
X200672311Y-185393328D01*
X200672311Y-184893328D02*
X200600883Y-184964757D01*
X200600883Y-184964757D02*
X200672311Y-185036185D01*
X200672311Y-185036185D02*
X200743740Y-184964757D01*
X200743740Y-184964757D02*
X200672311Y-184893328D01*
X200672311Y-184893328D02*
X200672311Y-185036185D01*
X202029455Y-186321900D02*
X201886597Y-186393328D01*
X201886597Y-186393328D02*
X201600883Y-186393328D01*
X201600883Y-186393328D02*
X201458026Y-186321900D01*
X201458026Y-186321900D02*
X201386597Y-186250471D01*
X201386597Y-186250471D02*
X201315169Y-186107614D01*
X201315169Y-186107614D02*
X201315169Y-185679042D01*
X201315169Y-185679042D02*
X201386597Y-185536185D01*
X201386597Y-185536185D02*
X201458026Y-185464757D01*
X201458026Y-185464757D02*
X201600883Y-185393328D01*
X201600883Y-185393328D02*
X201886597Y-185393328D01*
X201886597Y-185393328D02*
X202029455Y-185464757D01*
X203315169Y-186393328D02*
X203315169Y-185607614D01*
X203315169Y-185607614D02*
X203243740Y-185464757D01*
X203243740Y-185464757D02*
X203100883Y-185393328D01*
X203100883Y-185393328D02*
X202815169Y-185393328D01*
X202815169Y-185393328D02*
X202672311Y-185464757D01*
X203315169Y-186321900D02*
X203172311Y-186393328D01*
X203172311Y-186393328D02*
X202815169Y-186393328D01*
X202815169Y-186393328D02*
X202672311Y-186321900D01*
X202672311Y-186321900D02*
X202600883Y-186179042D01*
X202600883Y-186179042D02*
X202600883Y-186036185D01*
X202600883Y-186036185D02*
X202672311Y-185893328D01*
X202672311Y-185893328D02*
X202815169Y-185821900D01*
X202815169Y-185821900D02*
X203172311Y-185821900D01*
X203172311Y-185821900D02*
X203315169Y-185750471D01*
X204672312Y-186393328D02*
X204672312Y-184893328D01*
X204672312Y-186321900D02*
X204529454Y-186393328D01*
X204529454Y-186393328D02*
X204243740Y-186393328D01*
X204243740Y-186393328D02*
X204100883Y-186321900D01*
X204100883Y-186321900D02*
X204029454Y-186250471D01*
X204029454Y-186250471D02*
X203958026Y-186107614D01*
X203958026Y-186107614D02*
X203958026Y-185679042D01*
X203958026Y-185679042D02*
X204029454Y-185536185D01*
X204029454Y-185536185D02*
X204100883Y-185464757D01*
X204100883Y-185464757D02*
X204243740Y-185393328D01*
X204243740Y-185393328D02*
X204529454Y-185393328D01*
X204529454Y-185393328D02*
X204672312Y-185464757D01*
X205029455Y-186536185D02*
X206172312Y-186536185D01*
X206529454Y-185393328D02*
X206529454Y-186893328D01*
X206529454Y-185464757D02*
X206672312Y-185393328D01*
X206672312Y-185393328D02*
X206958026Y-185393328D01*
X206958026Y-185393328D02*
X207100883Y-185464757D01*
X207100883Y-185464757D02*
X207172312Y-185536185D01*
X207172312Y-185536185D02*
X207243740Y-185679042D01*
X207243740Y-185679042D02*
X207243740Y-186107614D01*
X207243740Y-186107614D02*
X207172312Y-186250471D01*
X207172312Y-186250471D02*
X207100883Y-186321900D01*
X207100883Y-186321900D02*
X206958026Y-186393328D01*
X206958026Y-186393328D02*
X206672312Y-186393328D01*
X206672312Y-186393328D02*
X206529454Y-186321900D01*
X208529455Y-186321900D02*
X208386597Y-186393328D01*
X208386597Y-186393328D02*
X208100883Y-186393328D01*
X208100883Y-186393328D02*
X207958026Y-186321900D01*
X207958026Y-186321900D02*
X207886597Y-186250471D01*
X207886597Y-186250471D02*
X207815169Y-186107614D01*
X207815169Y-186107614D02*
X207815169Y-185679042D01*
X207815169Y-185679042D02*
X207886597Y-185536185D01*
X207886597Y-185536185D02*
X207958026Y-185464757D01*
X207958026Y-185464757D02*
X208100883Y-185393328D01*
X208100883Y-185393328D02*
X208386597Y-185393328D01*
X208386597Y-185393328D02*
X208529455Y-185464757D01*
X209172311Y-186393328D02*
X209172311Y-184893328D01*
X209172311Y-185464757D02*
X209315169Y-185393328D01*
X209315169Y-185393328D02*
X209600883Y-185393328D01*
X209600883Y-185393328D02*
X209743740Y-185464757D01*
X209743740Y-185464757D02*
X209815169Y-185536185D01*
X209815169Y-185536185D02*
X209886597Y-185679042D01*
X209886597Y-185679042D02*
X209886597Y-186107614D01*
X209886597Y-186107614D02*
X209815169Y-186250471D01*
X209815169Y-186250471D02*
X209743740Y-186321900D01*
X209743740Y-186321900D02*
X209600883Y-186393328D01*
X209600883Y-186393328D02*
X209315169Y-186393328D01*
X209315169Y-186393328D02*
X209172311Y-186321900D01*
D10*
D11*
X177002200Y-181507200D02*
X285002200Y-181507200D01*
D10*
D11*
X178386598Y-183621900D02*
X178600884Y-183693328D01*
X178600884Y-183693328D02*
X178958026Y-183693328D01*
X178958026Y-183693328D02*
X179100884Y-183621900D01*
X179100884Y-183621900D02*
X179172312Y-183550471D01*
X179172312Y-183550471D02*
X179243741Y-183407614D01*
X179243741Y-183407614D02*
X179243741Y-183264757D01*
X179243741Y-183264757D02*
X179172312Y-183121900D01*
X179172312Y-183121900D02*
X179100884Y-183050471D01*
X179100884Y-183050471D02*
X178958026Y-182979042D01*
X178958026Y-182979042D02*
X178672312Y-182907614D01*
X178672312Y-182907614D02*
X178529455Y-182836185D01*
X178529455Y-182836185D02*
X178458026Y-182764757D01*
X178458026Y-182764757D02*
X178386598Y-182621900D01*
X178386598Y-182621900D02*
X178386598Y-182479042D01*
X178386598Y-182479042D02*
X178458026Y-182336185D01*
X178458026Y-182336185D02*
X178529455Y-182264757D01*
X178529455Y-182264757D02*
X178672312Y-182193328D01*
X178672312Y-182193328D02*
X179029455Y-182193328D01*
X179029455Y-182193328D02*
X179243741Y-182264757D01*
X179886597Y-183693328D02*
X179886597Y-182193328D01*
X180529455Y-183693328D02*
X180529455Y-182907614D01*
X180529455Y-182907614D02*
X180458026Y-182764757D01*
X180458026Y-182764757D02*
X180315169Y-182693328D01*
X180315169Y-182693328D02*
X180100883Y-182693328D01*
X180100883Y-182693328D02*
X179958026Y-182764757D01*
X179958026Y-182764757D02*
X179886597Y-182836185D01*
X181815169Y-183621900D02*
X181672312Y-183693328D01*
X181672312Y-183693328D02*
X181386598Y-183693328D01*
X181386598Y-183693328D02*
X181243740Y-183621900D01*
X181243740Y-183621900D02*
X181172312Y-183479042D01*
X181172312Y-183479042D02*
X181172312Y-182907614D01*
X181172312Y-182907614D02*
X181243740Y-182764757D01*
X181243740Y-182764757D02*
X181386598Y-182693328D01*
X181386598Y-182693328D02*
X181672312Y-182693328D01*
X181672312Y-182693328D02*
X181815169Y-182764757D01*
X181815169Y-182764757D02*
X181886598Y-182907614D01*
X181886598Y-182907614D02*
X181886598Y-183050471D01*
X181886598Y-183050471D02*
X181172312Y-183193328D01*
X183100883Y-183621900D02*
X182958026Y-183693328D01*
X182958026Y-183693328D02*
X182672312Y-183693328D01*
X182672312Y-183693328D02*
X182529454Y-183621900D01*
X182529454Y-183621900D02*
X182458026Y-183479042D01*
X182458026Y-183479042D02*
X182458026Y-182907614D01*
X182458026Y-182907614D02*
X182529454Y-182764757D01*
X182529454Y-182764757D02*
X182672312Y-182693328D01*
X182672312Y-182693328D02*
X182958026Y-182693328D01*
X182958026Y-182693328D02*
X183100883Y-182764757D01*
X183100883Y-182764757D02*
X183172312Y-182907614D01*
X183172312Y-182907614D02*
X183172312Y-183050471D01*
X183172312Y-183050471D02*
X182458026Y-183193328D01*
X183600883Y-182693328D02*
X184172311Y-182693328D01*
X183815168Y-182193328D02*
X183815168Y-183479042D01*
X183815168Y-183479042D02*
X183886597Y-183621900D01*
X183886597Y-183621900D02*
X184029454Y-183693328D01*
X184029454Y-183693328D02*
X184172311Y-183693328D01*
X184672311Y-183550471D02*
X184743740Y-183621900D01*
X184743740Y-183621900D02*
X184672311Y-183693328D01*
X184672311Y-183693328D02*
X184600883Y-183621900D01*
X184600883Y-183621900D02*
X184672311Y-183550471D01*
X184672311Y-183550471D02*
X184672311Y-183693328D01*
X184672311Y-182764757D02*
X184743740Y-182836185D01*
X184743740Y-182836185D02*
X184672311Y-182907614D01*
X184672311Y-182907614D02*
X184600883Y-182836185D01*
X184600883Y-182836185D02*
X184672311Y-182764757D01*
X184672311Y-182764757D02*
X184672311Y-182907614D01*
D10*
D11*
X197002200Y-191507200D02*
X197002200Y-194507200D01*
D10*
D11*
X261002200Y-191507200D02*
X261002200Y-198007200D01*
X135326667Y-110452819D02*
X135326667Y-109452819D01*
X135326667Y-109452819D02*
X135564762Y-109452819D01*
X135564762Y-109452819D02*
X135707619Y-109500438D01*
X135707619Y-109500438D02*
X135802857Y-109595676D01*
X135802857Y-109595676D02*
X135850476Y-109690914D01*
X135850476Y-109690914D02*
X135898095Y-109881390D01*
X135898095Y-109881390D02*
X135898095Y-110024247D01*
X135898095Y-110024247D02*
X135850476Y-110214723D01*
X135850476Y-110214723D02*
X135802857Y-110309961D01*
X135802857Y-110309961D02*
X135707619Y-110405200D01*
X135707619Y-110405200D02*
X135564762Y-110452819D01*
X135564762Y-110452819D02*
X135326667Y-110452819D01*
X136326667Y-110452819D02*
X136326667Y-109786152D01*
X136326667Y-109452819D02*
X136279048Y-109500438D01*
X136279048Y-109500438D02*
X136326667Y-109548057D01*
X136326667Y-109548057D02*
X136374286Y-109500438D01*
X136374286Y-109500438D02*
X136326667Y-109452819D01*
X136326667Y-109452819D02*
X136326667Y-109548057D01*
X136945714Y-110452819D02*
X136850476Y-110405200D01*
X136850476Y-110405200D02*
X136802857Y-110357580D01*
X136802857Y-110357580D02*
X136755238Y-110262342D01*
X136755238Y-110262342D02*
X136755238Y-109976628D01*
X136755238Y-109976628D02*
X136802857Y-109881390D01*
X136802857Y-109881390D02*
X136850476Y-109833771D01*
X136850476Y-109833771D02*
X136945714Y-109786152D01*
X136945714Y-109786152D02*
X137088571Y-109786152D01*
X137088571Y-109786152D02*
X137183809Y-109833771D01*
X137183809Y-109833771D02*
X137231428Y-109881390D01*
X137231428Y-109881390D02*
X137279047Y-109976628D01*
X137279047Y-109976628D02*
X137279047Y-110262342D01*
X137279047Y-110262342D02*
X137231428Y-110357580D01*
X137231428Y-110357580D02*
X137183809Y-110405200D01*
X137183809Y-110405200D02*
X137088571Y-110452819D01*
X137088571Y-110452819D02*
X136945714Y-110452819D01*
X138136190Y-110452819D02*
X138136190Y-109452819D01*
X138136190Y-110405200D02*
X138040952Y-110452819D01*
X138040952Y-110452819D02*
X137850476Y-110452819D01*
X137850476Y-110452819D02*
X137755238Y-110405200D01*
X137755238Y-110405200D02*
X137707619Y-110357580D01*
X137707619Y-110357580D02*
X137660000Y-110262342D01*
X137660000Y-110262342D02*
X137660000Y-109976628D01*
X137660000Y-109976628D02*
X137707619Y-109881390D01*
X137707619Y-109881390D02*
X137755238Y-109833771D01*
X137755238Y-109833771D02*
X137850476Y-109786152D01*
X137850476Y-109786152D02*
X138040952Y-109786152D01*
X138040952Y-109786152D02*
X138136190Y-109833771D01*
X138993333Y-110405200D02*
X138898095Y-110452819D01*
X138898095Y-110452819D02*
X138707619Y-110452819D01*
X138707619Y-110452819D02*
X138612381Y-110405200D01*
X138612381Y-110405200D02*
X138564762Y-110309961D01*
X138564762Y-110309961D02*
X138564762Y-109929009D01*
X138564762Y-109929009D02*
X138612381Y-109833771D01*
X138612381Y-109833771D02*
X138707619Y-109786152D01*
X138707619Y-109786152D02*
X138898095Y-109786152D01*
X138898095Y-109786152D02*
X138993333Y-109833771D01*
X138993333Y-109833771D02*
X139040952Y-109929009D01*
X139040952Y-109929009D02*
X139040952Y-110024247D01*
X139040952Y-110024247D02*
X138564762Y-110119485D01*
D10*
X136652000Y-112030000D02*
G75*
G02*
X135128000Y-112030000I-762000J0D01*
G01*
X135128000Y-112030000D02*
G75*
G02*
X136652000Y-112030000I762000J0D01*
G01*
X134620000Y-110760000D02*
X139700000Y-110760000D01*
X139700000Y-113300000D01*
X134620000Y-113300000D01*
X134620000Y-110760000D01*
X139192000Y-112030000D02*
G75*
G02*
X137668000Y-112030000I-762000J0D01*
G01*
X137668000Y-112030000D02*
G75*
G02*
X139192000Y-112030000I762000J0D01*
G01*
D11*
X114816667Y-121004819D02*
X114816667Y-120004819D01*
X114816667Y-120004819D02*
X115054762Y-120004819D01*
X115054762Y-120004819D02*
X115197619Y-120052438D01*
X115197619Y-120052438D02*
X115292857Y-120147676D01*
X115292857Y-120147676D02*
X115340476Y-120242914D01*
X115340476Y-120242914D02*
X115388095Y-120433390D01*
X115388095Y-120433390D02*
X115388095Y-120576247D01*
X115388095Y-120576247D02*
X115340476Y-120766723D01*
X115340476Y-120766723D02*
X115292857Y-120861961D01*
X115292857Y-120861961D02*
X115197619Y-120957200D01*
X115197619Y-120957200D02*
X115054762Y-121004819D01*
X115054762Y-121004819D02*
X114816667Y-121004819D01*
X115816667Y-121004819D02*
X115816667Y-120338152D01*
X115816667Y-120004819D02*
X115769048Y-120052438D01*
X115769048Y-120052438D02*
X115816667Y-120100057D01*
X115816667Y-120100057D02*
X115864286Y-120052438D01*
X115864286Y-120052438D02*
X115816667Y-120004819D01*
X115816667Y-120004819D02*
X115816667Y-120100057D01*
X116435714Y-121004819D02*
X116340476Y-120957200D01*
X116340476Y-120957200D02*
X116292857Y-120909580D01*
X116292857Y-120909580D02*
X116245238Y-120814342D01*
X116245238Y-120814342D02*
X116245238Y-120528628D01*
X116245238Y-120528628D02*
X116292857Y-120433390D01*
X116292857Y-120433390D02*
X116340476Y-120385771D01*
X116340476Y-120385771D02*
X116435714Y-120338152D01*
X116435714Y-120338152D02*
X116578571Y-120338152D01*
X116578571Y-120338152D02*
X116673809Y-120385771D01*
X116673809Y-120385771D02*
X116721428Y-120433390D01*
X116721428Y-120433390D02*
X116769047Y-120528628D01*
X116769047Y-120528628D02*
X116769047Y-120814342D01*
X116769047Y-120814342D02*
X116721428Y-120909580D01*
X116721428Y-120909580D02*
X116673809Y-120957200D01*
X116673809Y-120957200D02*
X116578571Y-121004819D01*
X116578571Y-121004819D02*
X116435714Y-121004819D01*
X117626190Y-121004819D02*
X117626190Y-120004819D01*
X117626190Y-120957200D02*
X117530952Y-121004819D01*
X117530952Y-121004819D02*
X117340476Y-121004819D01*
X117340476Y-121004819D02*
X117245238Y-120957200D01*
X117245238Y-120957200D02*
X117197619Y-120909580D01*
X117197619Y-120909580D02*
X117150000Y-120814342D01*
X117150000Y-120814342D02*
X117150000Y-120528628D01*
X117150000Y-120528628D02*
X117197619Y-120433390D01*
X117197619Y-120433390D02*
X117245238Y-120385771D01*
X117245238Y-120385771D02*
X117340476Y-120338152D01*
X117340476Y-120338152D02*
X117530952Y-120338152D01*
X117530952Y-120338152D02*
X117626190Y-120385771D01*
X118483333Y-120957200D02*
X118388095Y-121004819D01*
X118388095Y-121004819D02*
X118197619Y-121004819D01*
X118197619Y-121004819D02*
X118102381Y-120957200D01*
X118102381Y-120957200D02*
X118054762Y-120861961D01*
X118054762Y-120861961D02*
X118054762Y-120481009D01*
X118054762Y-120481009D02*
X118102381Y-120385771D01*
X118102381Y-120385771D02*
X118197619Y-120338152D01*
X118197619Y-120338152D02*
X118388095Y-120338152D01*
X118388095Y-120338152D02*
X118483333Y-120385771D01*
X118483333Y-120385771D02*
X118530952Y-120481009D01*
X118530952Y-120481009D02*
X118530952Y-120576247D01*
X118530952Y-120576247D02*
X118054762Y-120671485D01*
D10*
X118682000Y-122582000D02*
G75*
G02*
X117158000Y-122582000I-762000J0D01*
G01*
X117158000Y-122582000D02*
G75*
G02*
X118682000Y-122582000I762000J0D01*
G01*
X116142000Y-122582000D02*
G75*
G02*
X114618000Y-122582000I-762000J0D01*
G01*
X114618000Y-122582000D02*
G75*
G02*
X116142000Y-122582000I762000J0D01*
G01*
X114110000Y-121312000D02*
X119190000Y-121312000D01*
X119190000Y-123852000D01*
X114110000Y-123852000D01*
X114110000Y-121312000D01*
X93670000Y-100530000D02*
X98750000Y-100530000D01*
X98750000Y-103070000D01*
X93670000Y-103070000D01*
X93670000Y-100530000D01*
X95702000Y-101800000D02*
G75*
G02*
X94178000Y-101800000I-762000J0D01*
G01*
X94178000Y-101800000D02*
G75*
G02*
X95702000Y-101800000I762000J0D01*
G01*
X98242000Y-101800000D02*
G75*
G02*
X96718000Y-101800000I-762000J0D01*
G01*
X96718000Y-101800000D02*
G75*
G02*
X98242000Y-101800000I762000J0D01*
G01*
D11*
X94376667Y-100222819D02*
X94376667Y-99222819D01*
X94376667Y-99222819D02*
X94614762Y-99222819D01*
X94614762Y-99222819D02*
X94757619Y-99270438D01*
X94757619Y-99270438D02*
X94852857Y-99365676D01*
X94852857Y-99365676D02*
X94900476Y-99460914D01*
X94900476Y-99460914D02*
X94948095Y-99651390D01*
X94948095Y-99651390D02*
X94948095Y-99794247D01*
X94948095Y-99794247D02*
X94900476Y-99984723D01*
X94900476Y-99984723D02*
X94852857Y-100079961D01*
X94852857Y-100079961D02*
X94757619Y-100175200D01*
X94757619Y-100175200D02*
X94614762Y-100222819D01*
X94614762Y-100222819D02*
X94376667Y-100222819D01*
X95376667Y-100222819D02*
X95376667Y-99556152D01*
X95376667Y-99222819D02*
X95329048Y-99270438D01*
X95329048Y-99270438D02*
X95376667Y-99318057D01*
X95376667Y-99318057D02*
X95424286Y-99270438D01*
X95424286Y-99270438D02*
X95376667Y-99222819D01*
X95376667Y-99222819D02*
X95376667Y-99318057D01*
X95995714Y-100222819D02*
X95900476Y-100175200D01*
X95900476Y-100175200D02*
X95852857Y-100127580D01*
X95852857Y-100127580D02*
X95805238Y-100032342D01*
X95805238Y-100032342D02*
X95805238Y-99746628D01*
X95805238Y-99746628D02*
X95852857Y-99651390D01*
X95852857Y-99651390D02*
X95900476Y-99603771D01*
X95900476Y-99603771D02*
X95995714Y-99556152D01*
X95995714Y-99556152D02*
X96138571Y-99556152D01*
X96138571Y-99556152D02*
X96233809Y-99603771D01*
X96233809Y-99603771D02*
X96281428Y-99651390D01*
X96281428Y-99651390D02*
X96329047Y-99746628D01*
X96329047Y-99746628D02*
X96329047Y-100032342D01*
X96329047Y-100032342D02*
X96281428Y-100127580D01*
X96281428Y-100127580D02*
X96233809Y-100175200D01*
X96233809Y-100175200D02*
X96138571Y-100222819D01*
X96138571Y-100222819D02*
X95995714Y-100222819D01*
X97186190Y-100222819D02*
X97186190Y-99222819D01*
X97186190Y-100175200D02*
X97090952Y-100222819D01*
X97090952Y-100222819D02*
X96900476Y-100222819D01*
X96900476Y-100222819D02*
X96805238Y-100175200D01*
X96805238Y-100175200D02*
X96757619Y-100127580D01*
X96757619Y-100127580D02*
X96710000Y-100032342D01*
X96710000Y-100032342D02*
X96710000Y-99746628D01*
X96710000Y-99746628D02*
X96757619Y-99651390D01*
X96757619Y-99651390D02*
X96805238Y-99603771D01*
X96805238Y-99603771D02*
X96900476Y-99556152D01*
X96900476Y-99556152D02*
X97090952Y-99556152D01*
X97090952Y-99556152D02*
X97186190Y-99603771D01*
X98043333Y-100175200D02*
X97948095Y-100222819D01*
X97948095Y-100222819D02*
X97757619Y-100222819D01*
X97757619Y-100222819D02*
X97662381Y-100175200D01*
X97662381Y-100175200D02*
X97614762Y-100079961D01*
X97614762Y-100079961D02*
X97614762Y-99699009D01*
X97614762Y-99699009D02*
X97662381Y-99603771D01*
X97662381Y-99603771D02*
X97757619Y-99556152D01*
X97757619Y-99556152D02*
X97948095Y-99556152D01*
X97948095Y-99556152D02*
X98043333Y-99603771D01*
X98043333Y-99603771D02*
X98090952Y-99699009D01*
X98090952Y-99699009D02*
X98090952Y-99794247D01*
X98090952Y-99794247D02*
X97614762Y-99889485D01*
X84426667Y-120702819D02*
X84426667Y-119702819D01*
X84426667Y-119702819D02*
X84664762Y-119702819D01*
X84664762Y-119702819D02*
X84807619Y-119750438D01*
X84807619Y-119750438D02*
X84902857Y-119845676D01*
X84902857Y-119845676D02*
X84950476Y-119940914D01*
X84950476Y-119940914D02*
X84998095Y-120131390D01*
X84998095Y-120131390D02*
X84998095Y-120274247D01*
X84998095Y-120274247D02*
X84950476Y-120464723D01*
X84950476Y-120464723D02*
X84902857Y-120559961D01*
X84902857Y-120559961D02*
X84807619Y-120655200D01*
X84807619Y-120655200D02*
X84664762Y-120702819D01*
X84664762Y-120702819D02*
X84426667Y-120702819D01*
X85426667Y-120702819D02*
X85426667Y-120036152D01*
X85426667Y-119702819D02*
X85379048Y-119750438D01*
X85379048Y-119750438D02*
X85426667Y-119798057D01*
X85426667Y-119798057D02*
X85474286Y-119750438D01*
X85474286Y-119750438D02*
X85426667Y-119702819D01*
X85426667Y-119702819D02*
X85426667Y-119798057D01*
X86045714Y-120702819D02*
X85950476Y-120655200D01*
X85950476Y-120655200D02*
X85902857Y-120607580D01*
X85902857Y-120607580D02*
X85855238Y-120512342D01*
X85855238Y-120512342D02*
X85855238Y-120226628D01*
X85855238Y-120226628D02*
X85902857Y-120131390D01*
X85902857Y-120131390D02*
X85950476Y-120083771D01*
X85950476Y-120083771D02*
X86045714Y-120036152D01*
X86045714Y-120036152D02*
X86188571Y-120036152D01*
X86188571Y-120036152D02*
X86283809Y-120083771D01*
X86283809Y-120083771D02*
X86331428Y-120131390D01*
X86331428Y-120131390D02*
X86379047Y-120226628D01*
X86379047Y-120226628D02*
X86379047Y-120512342D01*
X86379047Y-120512342D02*
X86331428Y-120607580D01*
X86331428Y-120607580D02*
X86283809Y-120655200D01*
X86283809Y-120655200D02*
X86188571Y-120702819D01*
X86188571Y-120702819D02*
X86045714Y-120702819D01*
X87236190Y-120702819D02*
X87236190Y-119702819D01*
X87236190Y-120655200D02*
X87140952Y-120702819D01*
X87140952Y-120702819D02*
X86950476Y-120702819D01*
X86950476Y-120702819D02*
X86855238Y-120655200D01*
X86855238Y-120655200D02*
X86807619Y-120607580D01*
X86807619Y-120607580D02*
X86760000Y-120512342D01*
X86760000Y-120512342D02*
X86760000Y-120226628D01*
X86760000Y-120226628D02*
X86807619Y-120131390D01*
X86807619Y-120131390D02*
X86855238Y-120083771D01*
X86855238Y-120083771D02*
X86950476Y-120036152D01*
X86950476Y-120036152D02*
X87140952Y-120036152D01*
X87140952Y-120036152D02*
X87236190Y-120083771D01*
X88093333Y-120655200D02*
X87998095Y-120702819D01*
X87998095Y-120702819D02*
X87807619Y-120702819D01*
X87807619Y-120702819D02*
X87712381Y-120655200D01*
X87712381Y-120655200D02*
X87664762Y-120559961D01*
X87664762Y-120559961D02*
X87664762Y-120179009D01*
X87664762Y-120179009D02*
X87712381Y-120083771D01*
X87712381Y-120083771D02*
X87807619Y-120036152D01*
X87807619Y-120036152D02*
X87998095Y-120036152D01*
X87998095Y-120036152D02*
X88093333Y-120083771D01*
X88093333Y-120083771D02*
X88140952Y-120179009D01*
X88140952Y-120179009D02*
X88140952Y-120274247D01*
X88140952Y-120274247D02*
X87664762Y-120369485D01*
D10*
X85752000Y-122280000D02*
G75*
G02*
X84228000Y-122280000I-762000J0D01*
G01*
X84228000Y-122280000D02*
G75*
G02*
X85752000Y-122280000I762000J0D01*
G01*
X88292000Y-122280000D02*
G75*
G02*
X86768000Y-122280000I-762000J0D01*
G01*
X86768000Y-122280000D02*
G75*
G02*
X88292000Y-122280000I762000J0D01*
G01*
X83720000Y-121010000D02*
X88800000Y-121010000D01*
X88800000Y-123550000D01*
X83720000Y-123550000D01*
X83720000Y-121010000D01*
X73420000Y-80010000D02*
X78500000Y-80010000D01*
X78500000Y-82550000D01*
X73420000Y-82550000D01*
X73420000Y-80010000D01*
X93190000Y-39330000D02*
X98270000Y-39330000D01*
X98270000Y-41870000D01*
X93190000Y-41870000D01*
X93190000Y-39330000D01*
X73190000Y-99930000D02*
X78270000Y-99930000D01*
X78270000Y-102470000D01*
X73190000Y-102470000D01*
X73190000Y-99930000D01*
X116022000Y-60800000D02*
G75*
G02*
X114498000Y-60800000I-762000J0D01*
G01*
X114498000Y-60800000D02*
G75*
G02*
X116022000Y-60800000I762000J0D01*
G01*
X113740000Y-100230000D02*
X118820000Y-100230000D01*
X118820000Y-102770000D01*
X113740000Y-102770000D01*
X113740000Y-100230000D01*
X139432000Y-71930000D02*
G75*
G02*
X137908000Y-71930000I-762000J0D01*
G01*
X137908000Y-71930000D02*
G75*
G02*
X139432000Y-71930000I762000J0D01*
G01*
X118642000Y-40500000D02*
G75*
G02*
X117118000Y-40500000I-762000J0D01*
G01*
X117118000Y-40500000D02*
G75*
G02*
X118642000Y-40500000I762000J0D01*
G01*
X153460000Y-60460000D02*
X156000000Y-60460000D01*
X156000000Y-65540000D01*
X153460000Y-65540000D01*
X153460000Y-60460000D01*
X97592000Y-61150000D02*
G75*
G02*
X96068000Y-61150000I-762000J0D01*
G01*
X96068000Y-61150000D02*
G75*
G02*
X97592000Y-61150000I762000J0D01*
G01*
X77762000Y-101200000D02*
G75*
G02*
X76238000Y-101200000I-762000J0D01*
G01*
X76238000Y-101200000D02*
G75*
G02*
X77762000Y-101200000I762000J0D01*
G01*
X155492000Y-61730000D02*
G75*
G02*
X153968000Y-61730000I-762000J0D01*
G01*
X153968000Y-61730000D02*
G75*
G02*
X155492000Y-61730000I762000J0D01*
G01*
X78262000Y-40500000D02*
G75*
G02*
X76738000Y-40500000I-762000J0D01*
G01*
X76738000Y-40500000D02*
G75*
G02*
X78262000Y-40500000I762000J0D01*
G01*
X97892000Y-81280000D02*
G75*
G02*
X96368000Y-81280000I-762000J0D01*
G01*
X96368000Y-81280000D02*
G75*
G02*
X97892000Y-81280000I762000J0D01*
G01*
X139192000Y-40800000D02*
G75*
G02*
X137668000Y-40800000I-762000J0D01*
G01*
X137668000Y-40800000D02*
G75*
G02*
X139192000Y-40800000I762000J0D01*
G01*
X160492000Y-64270000D02*
G75*
G02*
X158968000Y-64270000I-762000J0D01*
G01*
X158968000Y-64270000D02*
G75*
G02*
X160492000Y-64270000I762000J0D01*
G01*
X118742000Y-81300000D02*
G75*
G02*
X117218000Y-81300000I-762000J0D01*
G01*
X117218000Y-81300000D02*
G75*
G02*
X118742000Y-81300000I762000J0D01*
G01*
X75722000Y-40500000D02*
G75*
G02*
X74198000Y-40500000I-762000J0D01*
G01*
X74198000Y-40500000D02*
G75*
G02*
X75722000Y-40500000I762000J0D01*
G01*
X95052000Y-61150000D02*
G75*
G02*
X93528000Y-61150000I-762000J0D01*
G01*
X93528000Y-61150000D02*
G75*
G02*
X95052000Y-61150000I762000J0D01*
G01*
X118562000Y-60800000D02*
G75*
G02*
X117038000Y-60800000I-762000J0D01*
G01*
X117038000Y-60800000D02*
G75*
G02*
X118562000Y-60800000I762000J0D01*
G01*
X77992000Y-61000000D02*
G75*
G02*
X76468000Y-61000000I-762000J0D01*
G01*
X76468000Y-61000000D02*
G75*
G02*
X77992000Y-61000000I762000J0D01*
G01*
X160492000Y-61730000D02*
G75*
G02*
X158968000Y-61730000I-762000J0D01*
G01*
X158968000Y-61730000D02*
G75*
G02*
X160492000Y-61730000I762000J0D01*
G01*
X114170000Y-80030000D02*
X119250000Y-80030000D01*
X119250000Y-82570000D01*
X114170000Y-82570000D01*
X114170000Y-80030000D01*
X115772000Y-101500000D02*
G75*
G02*
X114248000Y-101500000I-762000J0D01*
G01*
X114248000Y-101500000D02*
G75*
G02*
X115772000Y-101500000I762000J0D01*
G01*
X113990000Y-59530000D02*
X119070000Y-59530000D01*
X119070000Y-62070000D01*
X113990000Y-62070000D01*
X113990000Y-59530000D01*
X114070000Y-39230000D02*
X119150000Y-39230000D01*
X119150000Y-41770000D01*
X114070000Y-41770000D01*
X114070000Y-39230000D01*
X77992000Y-81280000D02*
G75*
G02*
X76468000Y-81280000I-762000J0D01*
G01*
X76468000Y-81280000D02*
G75*
G02*
X77992000Y-81280000I762000J0D01*
G01*
X134860000Y-70660000D02*
X139940000Y-70660000D01*
X139940000Y-73200000D01*
X134860000Y-73200000D01*
X134860000Y-70660000D01*
X95222000Y-40600000D02*
G75*
G02*
X93698000Y-40600000I-762000J0D01*
G01*
X93698000Y-40600000D02*
G75*
G02*
X95222000Y-40600000I762000J0D01*
G01*
X150492000Y-64270000D02*
G75*
G02*
X148968000Y-64270000I-762000J0D01*
G01*
X148968000Y-64270000D02*
G75*
G02*
X150492000Y-64270000I762000J0D01*
G01*
X75452000Y-81280000D02*
G75*
G02*
X73928000Y-81280000I-762000J0D01*
G01*
X73928000Y-81280000D02*
G75*
G02*
X75452000Y-81280000I762000J0D01*
G01*
X158460000Y-60460000D02*
X161000000Y-60460000D01*
X161000000Y-65540000D01*
X158460000Y-65540000D01*
X158460000Y-60460000D01*
X148460000Y-60460000D02*
X151000000Y-60460000D01*
X151000000Y-65540000D01*
X148460000Y-65540000D01*
X148460000Y-60460000D01*
X136892000Y-71930000D02*
G75*
G02*
X135368000Y-71930000I-762000J0D01*
G01*
X135368000Y-71930000D02*
G75*
G02*
X136892000Y-71930000I762000J0D01*
G01*
X136652000Y-40800000D02*
G75*
G02*
X135128000Y-40800000I-762000J0D01*
G01*
X135128000Y-40800000D02*
G75*
G02*
X136652000Y-40800000I762000J0D01*
G01*
X93020000Y-59880000D02*
X98100000Y-59880000D01*
X98100000Y-62420000D01*
X93020000Y-62420000D01*
X93020000Y-59880000D01*
X116102000Y-40500000D02*
G75*
G02*
X114578000Y-40500000I-762000J0D01*
G01*
X114578000Y-40500000D02*
G75*
G02*
X116102000Y-40500000I762000J0D01*
G01*
X75452000Y-61000000D02*
G75*
G02*
X73928000Y-61000000I-762000J0D01*
G01*
X73928000Y-61000000D02*
G75*
G02*
X75452000Y-61000000I762000J0D01*
G01*
X155492000Y-64270000D02*
G75*
G02*
X153968000Y-64270000I-762000J0D01*
G01*
X153968000Y-64270000D02*
G75*
G02*
X155492000Y-64270000I762000J0D01*
G01*
X95352000Y-81280000D02*
G75*
G02*
X93828000Y-81280000I-762000J0D01*
G01*
X93828000Y-81280000D02*
G75*
G02*
X95352000Y-81280000I762000J0D01*
G01*
X93320000Y-80010000D02*
X98400000Y-80010000D01*
X98400000Y-82550000D01*
X93320000Y-82550000D01*
X93320000Y-80010000D01*
X73420000Y-59730000D02*
X78500000Y-59730000D01*
X78500000Y-62270000D01*
X73420000Y-62270000D01*
X73420000Y-59730000D01*
X134620000Y-39530000D02*
X139700000Y-39530000D01*
X139700000Y-42070000D01*
X134620000Y-42070000D01*
X134620000Y-39530000D01*
X73690000Y-39230000D02*
X78770000Y-39230000D01*
X78770000Y-41770000D01*
X73690000Y-41770000D01*
X73690000Y-39230000D01*
X75222000Y-101200000D02*
G75*
G02*
X73698000Y-101200000I-762000J0D01*
G01*
X73698000Y-101200000D02*
G75*
G02*
X75222000Y-101200000I762000J0D01*
G01*
X118312000Y-101500000D02*
G75*
G02*
X116788000Y-101500000I-762000J0D01*
G01*
X116788000Y-101500000D02*
G75*
G02*
X118312000Y-101500000I762000J0D01*
G01*
X116202000Y-81300000D02*
G75*
G02*
X114678000Y-81300000I-762000J0D01*
G01*
X114678000Y-81300000D02*
G75*
G02*
X116202000Y-81300000I762000J0D01*
G01*
X150492000Y-61730000D02*
G75*
G02*
X148968000Y-61730000I-762000J0D01*
G01*
X148968000Y-61730000D02*
G75*
G02*
X150492000Y-61730000I762000J0D01*
G01*
X97762000Y-40600000D02*
G75*
G02*
X96238000Y-40600000I-762000J0D01*
G01*
X96238000Y-40600000D02*
G75*
G02*
X97762000Y-40600000I762000J0D01*
G01*
D11*
X153057580Y-65261905D02*
X153105200Y-65309524D01*
X153105200Y-65309524D02*
X153152819Y-65452381D01*
X153152819Y-65452381D02*
X153152819Y-65547619D01*
X153152819Y-65547619D02*
X153105200Y-65690476D01*
X153105200Y-65690476D02*
X153009961Y-65785714D01*
X153009961Y-65785714D02*
X152914723Y-65833333D01*
X152914723Y-65833333D02*
X152724247Y-65880952D01*
X152724247Y-65880952D02*
X152581390Y-65880952D01*
X152581390Y-65880952D02*
X152390914Y-65833333D01*
X152390914Y-65833333D02*
X152295676Y-65785714D01*
X152295676Y-65785714D02*
X152200438Y-65690476D01*
X152200438Y-65690476D02*
X152152819Y-65547619D01*
X152152819Y-65547619D02*
X152152819Y-65452381D01*
X152152819Y-65452381D02*
X152200438Y-65309524D01*
X152200438Y-65309524D02*
X152248057Y-65261905D01*
X153152819Y-64690476D02*
X153105200Y-64785714D01*
X153105200Y-64785714D02*
X153009961Y-64833333D01*
X153009961Y-64833333D02*
X152152819Y-64833333D01*
X152248057Y-64357142D02*
X152200438Y-64309523D01*
X152200438Y-64309523D02*
X152152819Y-64214285D01*
X152152819Y-64214285D02*
X152152819Y-63976190D01*
X152152819Y-63976190D02*
X152200438Y-63880952D01*
X152200438Y-63880952D02*
X152248057Y-63833333D01*
X152248057Y-63833333D02*
X152343295Y-63785714D01*
X152343295Y-63785714D02*
X152438533Y-63785714D01*
X152438533Y-63785714D02*
X152581390Y-63833333D01*
X152581390Y-63833333D02*
X153152819Y-64404761D01*
X153152819Y-64404761D02*
X153152819Y-63785714D01*
X153152819Y-62071428D02*
X153152819Y-62642856D01*
X153152819Y-62357142D02*
X152152819Y-62357142D01*
X152152819Y-62357142D02*
X152295676Y-62452380D01*
X152295676Y-62452380D02*
X152390914Y-62547618D01*
X152390914Y-62547618D02*
X152438533Y-62642856D01*
X153152819Y-61642856D02*
X152152819Y-61642856D01*
X152771866Y-61547618D02*
X153152819Y-61261904D01*
X152486152Y-61261904D02*
X152867104Y-61642856D01*
X153152819Y-60880951D02*
X153152819Y-60642856D01*
X153152819Y-60642856D02*
X152962342Y-60642856D01*
X152962342Y-60642856D02*
X152914723Y-60738094D01*
X152914723Y-60738094D02*
X152819485Y-60833332D01*
X152819485Y-60833332D02*
X152676628Y-60880951D01*
X152676628Y-60880951D02*
X152438533Y-60880951D01*
X152438533Y-60880951D02*
X152295676Y-60833332D01*
X152295676Y-60833332D02*
X152200438Y-60738094D01*
X152200438Y-60738094D02*
X152152819Y-60595237D01*
X152152819Y-60595237D02*
X152152819Y-60404761D01*
X152152819Y-60404761D02*
X152200438Y-60261904D01*
X152200438Y-60261904D02*
X152295676Y-60166666D01*
X152295676Y-60166666D02*
X152438533Y-60119047D01*
X152438533Y-60119047D02*
X152676628Y-60119047D01*
X152676628Y-60119047D02*
X152819485Y-60166666D01*
X152819485Y-60166666D02*
X152914723Y-60261904D01*
X152914723Y-60261904D02*
X152962342Y-60357142D01*
X152962342Y-60357142D02*
X153152819Y-60357142D01*
X153152819Y-60357142D02*
X153152819Y-60119047D01*
X114776667Y-38922819D02*
X114776667Y-37922819D01*
X114776667Y-37922819D02*
X115014762Y-37922819D01*
X115014762Y-37922819D02*
X115157619Y-37970438D01*
X115157619Y-37970438D02*
X115252857Y-38065676D01*
X115252857Y-38065676D02*
X115300476Y-38160914D01*
X115300476Y-38160914D02*
X115348095Y-38351390D01*
X115348095Y-38351390D02*
X115348095Y-38494247D01*
X115348095Y-38494247D02*
X115300476Y-38684723D01*
X115300476Y-38684723D02*
X115252857Y-38779961D01*
X115252857Y-38779961D02*
X115157619Y-38875200D01*
X115157619Y-38875200D02*
X115014762Y-38922819D01*
X115014762Y-38922819D02*
X114776667Y-38922819D01*
X115776667Y-38922819D02*
X115776667Y-38256152D01*
X115776667Y-37922819D02*
X115729048Y-37970438D01*
X115729048Y-37970438D02*
X115776667Y-38018057D01*
X115776667Y-38018057D02*
X115824286Y-37970438D01*
X115824286Y-37970438D02*
X115776667Y-37922819D01*
X115776667Y-37922819D02*
X115776667Y-38018057D01*
X116395714Y-38922819D02*
X116300476Y-38875200D01*
X116300476Y-38875200D02*
X116252857Y-38827580D01*
X116252857Y-38827580D02*
X116205238Y-38732342D01*
X116205238Y-38732342D02*
X116205238Y-38446628D01*
X116205238Y-38446628D02*
X116252857Y-38351390D01*
X116252857Y-38351390D02*
X116300476Y-38303771D01*
X116300476Y-38303771D02*
X116395714Y-38256152D01*
X116395714Y-38256152D02*
X116538571Y-38256152D01*
X116538571Y-38256152D02*
X116633809Y-38303771D01*
X116633809Y-38303771D02*
X116681428Y-38351390D01*
X116681428Y-38351390D02*
X116729047Y-38446628D01*
X116729047Y-38446628D02*
X116729047Y-38732342D01*
X116729047Y-38732342D02*
X116681428Y-38827580D01*
X116681428Y-38827580D02*
X116633809Y-38875200D01*
X116633809Y-38875200D02*
X116538571Y-38922819D01*
X116538571Y-38922819D02*
X116395714Y-38922819D01*
X117586190Y-38922819D02*
X117586190Y-37922819D01*
X117586190Y-38875200D02*
X117490952Y-38922819D01*
X117490952Y-38922819D02*
X117300476Y-38922819D01*
X117300476Y-38922819D02*
X117205238Y-38875200D01*
X117205238Y-38875200D02*
X117157619Y-38827580D01*
X117157619Y-38827580D02*
X117110000Y-38732342D01*
X117110000Y-38732342D02*
X117110000Y-38446628D01*
X117110000Y-38446628D02*
X117157619Y-38351390D01*
X117157619Y-38351390D02*
X117205238Y-38303771D01*
X117205238Y-38303771D02*
X117300476Y-38256152D01*
X117300476Y-38256152D02*
X117490952Y-38256152D01*
X117490952Y-38256152D02*
X117586190Y-38303771D01*
X118443333Y-38875200D02*
X118348095Y-38922819D01*
X118348095Y-38922819D02*
X118157619Y-38922819D01*
X118157619Y-38922819D02*
X118062381Y-38875200D01*
X118062381Y-38875200D02*
X118014762Y-38779961D01*
X118014762Y-38779961D02*
X118014762Y-38399009D01*
X118014762Y-38399009D02*
X118062381Y-38303771D01*
X118062381Y-38303771D02*
X118157619Y-38256152D01*
X118157619Y-38256152D02*
X118348095Y-38256152D01*
X118348095Y-38256152D02*
X118443333Y-38303771D01*
X118443333Y-38303771D02*
X118490952Y-38399009D01*
X118490952Y-38399009D02*
X118490952Y-38494247D01*
X118490952Y-38494247D02*
X118014762Y-38589485D01*
X94026667Y-79702819D02*
X94026667Y-78702819D01*
X94026667Y-78702819D02*
X94264762Y-78702819D01*
X94264762Y-78702819D02*
X94407619Y-78750438D01*
X94407619Y-78750438D02*
X94502857Y-78845676D01*
X94502857Y-78845676D02*
X94550476Y-78940914D01*
X94550476Y-78940914D02*
X94598095Y-79131390D01*
X94598095Y-79131390D02*
X94598095Y-79274247D01*
X94598095Y-79274247D02*
X94550476Y-79464723D01*
X94550476Y-79464723D02*
X94502857Y-79559961D01*
X94502857Y-79559961D02*
X94407619Y-79655200D01*
X94407619Y-79655200D02*
X94264762Y-79702819D01*
X94264762Y-79702819D02*
X94026667Y-79702819D01*
X95026667Y-79702819D02*
X95026667Y-79036152D01*
X95026667Y-78702819D02*
X94979048Y-78750438D01*
X94979048Y-78750438D02*
X95026667Y-78798057D01*
X95026667Y-78798057D02*
X95074286Y-78750438D01*
X95074286Y-78750438D02*
X95026667Y-78702819D01*
X95026667Y-78702819D02*
X95026667Y-78798057D01*
X95645714Y-79702819D02*
X95550476Y-79655200D01*
X95550476Y-79655200D02*
X95502857Y-79607580D01*
X95502857Y-79607580D02*
X95455238Y-79512342D01*
X95455238Y-79512342D02*
X95455238Y-79226628D01*
X95455238Y-79226628D02*
X95502857Y-79131390D01*
X95502857Y-79131390D02*
X95550476Y-79083771D01*
X95550476Y-79083771D02*
X95645714Y-79036152D01*
X95645714Y-79036152D02*
X95788571Y-79036152D01*
X95788571Y-79036152D02*
X95883809Y-79083771D01*
X95883809Y-79083771D02*
X95931428Y-79131390D01*
X95931428Y-79131390D02*
X95979047Y-79226628D01*
X95979047Y-79226628D02*
X95979047Y-79512342D01*
X95979047Y-79512342D02*
X95931428Y-79607580D01*
X95931428Y-79607580D02*
X95883809Y-79655200D01*
X95883809Y-79655200D02*
X95788571Y-79702819D01*
X95788571Y-79702819D02*
X95645714Y-79702819D01*
X96836190Y-79702819D02*
X96836190Y-78702819D01*
X96836190Y-79655200D02*
X96740952Y-79702819D01*
X96740952Y-79702819D02*
X96550476Y-79702819D01*
X96550476Y-79702819D02*
X96455238Y-79655200D01*
X96455238Y-79655200D02*
X96407619Y-79607580D01*
X96407619Y-79607580D02*
X96360000Y-79512342D01*
X96360000Y-79512342D02*
X96360000Y-79226628D01*
X96360000Y-79226628D02*
X96407619Y-79131390D01*
X96407619Y-79131390D02*
X96455238Y-79083771D01*
X96455238Y-79083771D02*
X96550476Y-79036152D01*
X96550476Y-79036152D02*
X96740952Y-79036152D01*
X96740952Y-79036152D02*
X96836190Y-79083771D01*
X97693333Y-79655200D02*
X97598095Y-79702819D01*
X97598095Y-79702819D02*
X97407619Y-79702819D01*
X97407619Y-79702819D02*
X97312381Y-79655200D01*
X97312381Y-79655200D02*
X97264762Y-79559961D01*
X97264762Y-79559961D02*
X97264762Y-79179009D01*
X97264762Y-79179009D02*
X97312381Y-79083771D01*
X97312381Y-79083771D02*
X97407619Y-79036152D01*
X97407619Y-79036152D02*
X97598095Y-79036152D01*
X97598095Y-79036152D02*
X97693333Y-79083771D01*
X97693333Y-79083771D02*
X97740952Y-79179009D01*
X97740952Y-79179009D02*
X97740952Y-79274247D01*
X97740952Y-79274247D02*
X97264762Y-79369485D01*
X93726667Y-59572819D02*
X93726667Y-58572819D01*
X93726667Y-58572819D02*
X93964762Y-58572819D01*
X93964762Y-58572819D02*
X94107619Y-58620438D01*
X94107619Y-58620438D02*
X94202857Y-58715676D01*
X94202857Y-58715676D02*
X94250476Y-58810914D01*
X94250476Y-58810914D02*
X94298095Y-59001390D01*
X94298095Y-59001390D02*
X94298095Y-59144247D01*
X94298095Y-59144247D02*
X94250476Y-59334723D01*
X94250476Y-59334723D02*
X94202857Y-59429961D01*
X94202857Y-59429961D02*
X94107619Y-59525200D01*
X94107619Y-59525200D02*
X93964762Y-59572819D01*
X93964762Y-59572819D02*
X93726667Y-59572819D01*
X94726667Y-59572819D02*
X94726667Y-58906152D01*
X94726667Y-58572819D02*
X94679048Y-58620438D01*
X94679048Y-58620438D02*
X94726667Y-58668057D01*
X94726667Y-58668057D02*
X94774286Y-58620438D01*
X94774286Y-58620438D02*
X94726667Y-58572819D01*
X94726667Y-58572819D02*
X94726667Y-58668057D01*
X95345714Y-59572819D02*
X95250476Y-59525200D01*
X95250476Y-59525200D02*
X95202857Y-59477580D01*
X95202857Y-59477580D02*
X95155238Y-59382342D01*
X95155238Y-59382342D02*
X95155238Y-59096628D01*
X95155238Y-59096628D02*
X95202857Y-59001390D01*
X95202857Y-59001390D02*
X95250476Y-58953771D01*
X95250476Y-58953771D02*
X95345714Y-58906152D01*
X95345714Y-58906152D02*
X95488571Y-58906152D01*
X95488571Y-58906152D02*
X95583809Y-58953771D01*
X95583809Y-58953771D02*
X95631428Y-59001390D01*
X95631428Y-59001390D02*
X95679047Y-59096628D01*
X95679047Y-59096628D02*
X95679047Y-59382342D01*
X95679047Y-59382342D02*
X95631428Y-59477580D01*
X95631428Y-59477580D02*
X95583809Y-59525200D01*
X95583809Y-59525200D02*
X95488571Y-59572819D01*
X95488571Y-59572819D02*
X95345714Y-59572819D01*
X96536190Y-59572819D02*
X96536190Y-58572819D01*
X96536190Y-59525200D02*
X96440952Y-59572819D01*
X96440952Y-59572819D02*
X96250476Y-59572819D01*
X96250476Y-59572819D02*
X96155238Y-59525200D01*
X96155238Y-59525200D02*
X96107619Y-59477580D01*
X96107619Y-59477580D02*
X96060000Y-59382342D01*
X96060000Y-59382342D02*
X96060000Y-59096628D01*
X96060000Y-59096628D02*
X96107619Y-59001390D01*
X96107619Y-59001390D02*
X96155238Y-58953771D01*
X96155238Y-58953771D02*
X96250476Y-58906152D01*
X96250476Y-58906152D02*
X96440952Y-58906152D01*
X96440952Y-58906152D02*
X96536190Y-58953771D01*
X97393333Y-59525200D02*
X97298095Y-59572819D01*
X97298095Y-59572819D02*
X97107619Y-59572819D01*
X97107619Y-59572819D02*
X97012381Y-59525200D01*
X97012381Y-59525200D02*
X96964762Y-59429961D01*
X96964762Y-59429961D02*
X96964762Y-59049009D01*
X96964762Y-59049009D02*
X97012381Y-58953771D01*
X97012381Y-58953771D02*
X97107619Y-58906152D01*
X97107619Y-58906152D02*
X97298095Y-58906152D01*
X97298095Y-58906152D02*
X97393333Y-58953771D01*
X97393333Y-58953771D02*
X97440952Y-59049009D01*
X97440952Y-59049009D02*
X97440952Y-59144247D01*
X97440952Y-59144247D02*
X96964762Y-59239485D01*
X68047619Y-128954819D02*
X68047619Y-128288152D01*
X68047619Y-128478628D02*
X68095238Y-128383390D01*
X68095238Y-128383390D02*
X68142857Y-128335771D01*
X68142857Y-128335771D02*
X68238095Y-128288152D01*
X68238095Y-128288152D02*
X68333333Y-128288152D01*
X69047619Y-128907200D02*
X68952381Y-128954819D01*
X68952381Y-128954819D02*
X68761905Y-128954819D01*
X68761905Y-128954819D02*
X68666667Y-128907200D01*
X68666667Y-128907200D02*
X68619048Y-128811961D01*
X68619048Y-128811961D02*
X68619048Y-128431009D01*
X68619048Y-128431009D02*
X68666667Y-128335771D01*
X68666667Y-128335771D02*
X68761905Y-128288152D01*
X68761905Y-128288152D02*
X68952381Y-128288152D01*
X68952381Y-128288152D02*
X69047619Y-128335771D01*
X69047619Y-128335771D02*
X69095238Y-128431009D01*
X69095238Y-128431009D02*
X69095238Y-128526247D01*
X69095238Y-128526247D02*
X68619048Y-128621485D01*
X69428572Y-128288152D02*
X69666667Y-128954819D01*
X69666667Y-128954819D02*
X69904762Y-128288152D01*
X71238096Y-127954819D02*
X71333334Y-127954819D01*
X71333334Y-127954819D02*
X71428572Y-128002438D01*
X71428572Y-128002438D02*
X71476191Y-128050057D01*
X71476191Y-128050057D02*
X71523810Y-128145295D01*
X71523810Y-128145295D02*
X71571429Y-128335771D01*
X71571429Y-128335771D02*
X71571429Y-128573866D01*
X71571429Y-128573866D02*
X71523810Y-128764342D01*
X71523810Y-128764342D02*
X71476191Y-128859580D01*
X71476191Y-128859580D02*
X71428572Y-128907200D01*
X71428572Y-128907200D02*
X71333334Y-128954819D01*
X71333334Y-128954819D02*
X71238096Y-128954819D01*
X71238096Y-128954819D02*
X71142858Y-128907200D01*
X71142858Y-128907200D02*
X71095239Y-128859580D01*
X71095239Y-128859580D02*
X71047620Y-128764342D01*
X71047620Y-128764342D02*
X71000001Y-128573866D01*
X71000001Y-128573866D02*
X71000001Y-128335771D01*
X71000001Y-128335771D02*
X71047620Y-128145295D01*
X71047620Y-128145295D02*
X71095239Y-128050057D01*
X71095239Y-128050057D02*
X71142858Y-128002438D01*
X71142858Y-128002438D02*
X71238096Y-127954819D01*
X72000001Y-128859580D02*
X72047620Y-128907200D01*
X72047620Y-128907200D02*
X72000001Y-128954819D01*
X72000001Y-128954819D02*
X71952382Y-128907200D01*
X71952382Y-128907200D02*
X72000001Y-128859580D01*
X72000001Y-128859580D02*
X72000001Y-128954819D01*
X72380953Y-127954819D02*
X73000000Y-127954819D01*
X73000000Y-127954819D02*
X72666667Y-128335771D01*
X72666667Y-128335771D02*
X72809524Y-128335771D01*
X72809524Y-128335771D02*
X72904762Y-128383390D01*
X72904762Y-128383390D02*
X72952381Y-128431009D01*
X72952381Y-128431009D02*
X73000000Y-128526247D01*
X73000000Y-128526247D02*
X73000000Y-128764342D01*
X73000000Y-128764342D02*
X72952381Y-128859580D01*
X72952381Y-128859580D02*
X72904762Y-128907200D01*
X72904762Y-128907200D02*
X72809524Y-128954819D01*
X72809524Y-128954819D02*
X72523810Y-128954819D01*
X72523810Y-128954819D02*
X72428572Y-128907200D01*
X72428572Y-128907200D02*
X72380953Y-128859580D01*
X114876667Y-79722819D02*
X114876667Y-78722819D01*
X114876667Y-78722819D02*
X115114762Y-78722819D01*
X115114762Y-78722819D02*
X115257619Y-78770438D01*
X115257619Y-78770438D02*
X115352857Y-78865676D01*
X115352857Y-78865676D02*
X115400476Y-78960914D01*
X115400476Y-78960914D02*
X115448095Y-79151390D01*
X115448095Y-79151390D02*
X115448095Y-79294247D01*
X115448095Y-79294247D02*
X115400476Y-79484723D01*
X115400476Y-79484723D02*
X115352857Y-79579961D01*
X115352857Y-79579961D02*
X115257619Y-79675200D01*
X115257619Y-79675200D02*
X115114762Y-79722819D01*
X115114762Y-79722819D02*
X114876667Y-79722819D01*
X115876667Y-79722819D02*
X115876667Y-79056152D01*
X115876667Y-78722819D02*
X115829048Y-78770438D01*
X115829048Y-78770438D02*
X115876667Y-78818057D01*
X115876667Y-78818057D02*
X115924286Y-78770438D01*
X115924286Y-78770438D02*
X115876667Y-78722819D01*
X115876667Y-78722819D02*
X115876667Y-78818057D01*
X116495714Y-79722819D02*
X116400476Y-79675200D01*
X116400476Y-79675200D02*
X116352857Y-79627580D01*
X116352857Y-79627580D02*
X116305238Y-79532342D01*
X116305238Y-79532342D02*
X116305238Y-79246628D01*
X116305238Y-79246628D02*
X116352857Y-79151390D01*
X116352857Y-79151390D02*
X116400476Y-79103771D01*
X116400476Y-79103771D02*
X116495714Y-79056152D01*
X116495714Y-79056152D02*
X116638571Y-79056152D01*
X116638571Y-79056152D02*
X116733809Y-79103771D01*
X116733809Y-79103771D02*
X116781428Y-79151390D01*
X116781428Y-79151390D02*
X116829047Y-79246628D01*
X116829047Y-79246628D02*
X116829047Y-79532342D01*
X116829047Y-79532342D02*
X116781428Y-79627580D01*
X116781428Y-79627580D02*
X116733809Y-79675200D01*
X116733809Y-79675200D02*
X116638571Y-79722819D01*
X116638571Y-79722819D02*
X116495714Y-79722819D01*
X117686190Y-79722819D02*
X117686190Y-78722819D01*
X117686190Y-79675200D02*
X117590952Y-79722819D01*
X117590952Y-79722819D02*
X117400476Y-79722819D01*
X117400476Y-79722819D02*
X117305238Y-79675200D01*
X117305238Y-79675200D02*
X117257619Y-79627580D01*
X117257619Y-79627580D02*
X117210000Y-79532342D01*
X117210000Y-79532342D02*
X117210000Y-79246628D01*
X117210000Y-79246628D02*
X117257619Y-79151390D01*
X117257619Y-79151390D02*
X117305238Y-79103771D01*
X117305238Y-79103771D02*
X117400476Y-79056152D01*
X117400476Y-79056152D02*
X117590952Y-79056152D01*
X117590952Y-79056152D02*
X117686190Y-79103771D01*
X118543333Y-79675200D02*
X118448095Y-79722819D01*
X118448095Y-79722819D02*
X118257619Y-79722819D01*
X118257619Y-79722819D02*
X118162381Y-79675200D01*
X118162381Y-79675200D02*
X118114762Y-79579961D01*
X118114762Y-79579961D02*
X118114762Y-79199009D01*
X118114762Y-79199009D02*
X118162381Y-79103771D01*
X118162381Y-79103771D02*
X118257619Y-79056152D01*
X118257619Y-79056152D02*
X118448095Y-79056152D01*
X118448095Y-79056152D02*
X118543333Y-79103771D01*
X118543333Y-79103771D02*
X118590952Y-79199009D01*
X118590952Y-79199009D02*
X118590952Y-79294247D01*
X118590952Y-79294247D02*
X118114762Y-79389485D01*
X74126667Y-59422819D02*
X74126667Y-58422819D01*
X74126667Y-58422819D02*
X74364762Y-58422819D01*
X74364762Y-58422819D02*
X74507619Y-58470438D01*
X74507619Y-58470438D02*
X74602857Y-58565676D01*
X74602857Y-58565676D02*
X74650476Y-58660914D01*
X74650476Y-58660914D02*
X74698095Y-58851390D01*
X74698095Y-58851390D02*
X74698095Y-58994247D01*
X74698095Y-58994247D02*
X74650476Y-59184723D01*
X74650476Y-59184723D02*
X74602857Y-59279961D01*
X74602857Y-59279961D02*
X74507619Y-59375200D01*
X74507619Y-59375200D02*
X74364762Y-59422819D01*
X74364762Y-59422819D02*
X74126667Y-59422819D01*
X75126667Y-59422819D02*
X75126667Y-58756152D01*
X75126667Y-58422819D02*
X75079048Y-58470438D01*
X75079048Y-58470438D02*
X75126667Y-58518057D01*
X75126667Y-58518057D02*
X75174286Y-58470438D01*
X75174286Y-58470438D02*
X75126667Y-58422819D01*
X75126667Y-58422819D02*
X75126667Y-58518057D01*
X75745714Y-59422819D02*
X75650476Y-59375200D01*
X75650476Y-59375200D02*
X75602857Y-59327580D01*
X75602857Y-59327580D02*
X75555238Y-59232342D01*
X75555238Y-59232342D02*
X75555238Y-58946628D01*
X75555238Y-58946628D02*
X75602857Y-58851390D01*
X75602857Y-58851390D02*
X75650476Y-58803771D01*
X75650476Y-58803771D02*
X75745714Y-58756152D01*
X75745714Y-58756152D02*
X75888571Y-58756152D01*
X75888571Y-58756152D02*
X75983809Y-58803771D01*
X75983809Y-58803771D02*
X76031428Y-58851390D01*
X76031428Y-58851390D02*
X76079047Y-58946628D01*
X76079047Y-58946628D02*
X76079047Y-59232342D01*
X76079047Y-59232342D02*
X76031428Y-59327580D01*
X76031428Y-59327580D02*
X75983809Y-59375200D01*
X75983809Y-59375200D02*
X75888571Y-59422819D01*
X75888571Y-59422819D02*
X75745714Y-59422819D01*
X76936190Y-59422819D02*
X76936190Y-58422819D01*
X76936190Y-59375200D02*
X76840952Y-59422819D01*
X76840952Y-59422819D02*
X76650476Y-59422819D01*
X76650476Y-59422819D02*
X76555238Y-59375200D01*
X76555238Y-59375200D02*
X76507619Y-59327580D01*
X76507619Y-59327580D02*
X76460000Y-59232342D01*
X76460000Y-59232342D02*
X76460000Y-58946628D01*
X76460000Y-58946628D02*
X76507619Y-58851390D01*
X76507619Y-58851390D02*
X76555238Y-58803771D01*
X76555238Y-58803771D02*
X76650476Y-58756152D01*
X76650476Y-58756152D02*
X76840952Y-58756152D01*
X76840952Y-58756152D02*
X76936190Y-58803771D01*
X77793333Y-59375200D02*
X77698095Y-59422819D01*
X77698095Y-59422819D02*
X77507619Y-59422819D01*
X77507619Y-59422819D02*
X77412381Y-59375200D01*
X77412381Y-59375200D02*
X77364762Y-59279961D01*
X77364762Y-59279961D02*
X77364762Y-58899009D01*
X77364762Y-58899009D02*
X77412381Y-58803771D01*
X77412381Y-58803771D02*
X77507619Y-58756152D01*
X77507619Y-58756152D02*
X77698095Y-58756152D01*
X77698095Y-58756152D02*
X77793333Y-58803771D01*
X77793333Y-58803771D02*
X77840952Y-58899009D01*
X77840952Y-58899009D02*
X77840952Y-58994247D01*
X77840952Y-58994247D02*
X77364762Y-59089485D01*
X73896667Y-99622819D02*
X73896667Y-98622819D01*
X73896667Y-98622819D02*
X74134762Y-98622819D01*
X74134762Y-98622819D02*
X74277619Y-98670438D01*
X74277619Y-98670438D02*
X74372857Y-98765676D01*
X74372857Y-98765676D02*
X74420476Y-98860914D01*
X74420476Y-98860914D02*
X74468095Y-99051390D01*
X74468095Y-99051390D02*
X74468095Y-99194247D01*
X74468095Y-99194247D02*
X74420476Y-99384723D01*
X74420476Y-99384723D02*
X74372857Y-99479961D01*
X74372857Y-99479961D02*
X74277619Y-99575200D01*
X74277619Y-99575200D02*
X74134762Y-99622819D01*
X74134762Y-99622819D02*
X73896667Y-99622819D01*
X74896667Y-99622819D02*
X74896667Y-98956152D01*
X74896667Y-98622819D02*
X74849048Y-98670438D01*
X74849048Y-98670438D02*
X74896667Y-98718057D01*
X74896667Y-98718057D02*
X74944286Y-98670438D01*
X74944286Y-98670438D02*
X74896667Y-98622819D01*
X74896667Y-98622819D02*
X74896667Y-98718057D01*
X75515714Y-99622819D02*
X75420476Y-99575200D01*
X75420476Y-99575200D02*
X75372857Y-99527580D01*
X75372857Y-99527580D02*
X75325238Y-99432342D01*
X75325238Y-99432342D02*
X75325238Y-99146628D01*
X75325238Y-99146628D02*
X75372857Y-99051390D01*
X75372857Y-99051390D02*
X75420476Y-99003771D01*
X75420476Y-99003771D02*
X75515714Y-98956152D01*
X75515714Y-98956152D02*
X75658571Y-98956152D01*
X75658571Y-98956152D02*
X75753809Y-99003771D01*
X75753809Y-99003771D02*
X75801428Y-99051390D01*
X75801428Y-99051390D02*
X75849047Y-99146628D01*
X75849047Y-99146628D02*
X75849047Y-99432342D01*
X75849047Y-99432342D02*
X75801428Y-99527580D01*
X75801428Y-99527580D02*
X75753809Y-99575200D01*
X75753809Y-99575200D02*
X75658571Y-99622819D01*
X75658571Y-99622819D02*
X75515714Y-99622819D01*
X76706190Y-99622819D02*
X76706190Y-98622819D01*
X76706190Y-99575200D02*
X76610952Y-99622819D01*
X76610952Y-99622819D02*
X76420476Y-99622819D01*
X76420476Y-99622819D02*
X76325238Y-99575200D01*
X76325238Y-99575200D02*
X76277619Y-99527580D01*
X76277619Y-99527580D02*
X76230000Y-99432342D01*
X76230000Y-99432342D02*
X76230000Y-99146628D01*
X76230000Y-99146628D02*
X76277619Y-99051390D01*
X76277619Y-99051390D02*
X76325238Y-99003771D01*
X76325238Y-99003771D02*
X76420476Y-98956152D01*
X76420476Y-98956152D02*
X76610952Y-98956152D01*
X76610952Y-98956152D02*
X76706190Y-99003771D01*
X77563333Y-99575200D02*
X77468095Y-99622819D01*
X77468095Y-99622819D02*
X77277619Y-99622819D01*
X77277619Y-99622819D02*
X77182381Y-99575200D01*
X77182381Y-99575200D02*
X77134762Y-99479961D01*
X77134762Y-99479961D02*
X77134762Y-99099009D01*
X77134762Y-99099009D02*
X77182381Y-99003771D01*
X77182381Y-99003771D02*
X77277619Y-98956152D01*
X77277619Y-98956152D02*
X77468095Y-98956152D01*
X77468095Y-98956152D02*
X77563333Y-99003771D01*
X77563333Y-99003771D02*
X77610952Y-99099009D01*
X77610952Y-99099009D02*
X77610952Y-99194247D01*
X77610952Y-99194247D02*
X77134762Y-99289485D01*
X135566667Y-70352819D02*
X135566667Y-69352819D01*
X135566667Y-69352819D02*
X135804762Y-69352819D01*
X135804762Y-69352819D02*
X135947619Y-69400438D01*
X135947619Y-69400438D02*
X136042857Y-69495676D01*
X136042857Y-69495676D02*
X136090476Y-69590914D01*
X136090476Y-69590914D02*
X136138095Y-69781390D01*
X136138095Y-69781390D02*
X136138095Y-69924247D01*
X136138095Y-69924247D02*
X136090476Y-70114723D01*
X136090476Y-70114723D02*
X136042857Y-70209961D01*
X136042857Y-70209961D02*
X135947619Y-70305200D01*
X135947619Y-70305200D02*
X135804762Y-70352819D01*
X135804762Y-70352819D02*
X135566667Y-70352819D01*
X136566667Y-70352819D02*
X136566667Y-69686152D01*
X136566667Y-69352819D02*
X136519048Y-69400438D01*
X136519048Y-69400438D02*
X136566667Y-69448057D01*
X136566667Y-69448057D02*
X136614286Y-69400438D01*
X136614286Y-69400438D02*
X136566667Y-69352819D01*
X136566667Y-69352819D02*
X136566667Y-69448057D01*
X137185714Y-70352819D02*
X137090476Y-70305200D01*
X137090476Y-70305200D02*
X137042857Y-70257580D01*
X137042857Y-70257580D02*
X136995238Y-70162342D01*
X136995238Y-70162342D02*
X136995238Y-69876628D01*
X136995238Y-69876628D02*
X137042857Y-69781390D01*
X137042857Y-69781390D02*
X137090476Y-69733771D01*
X137090476Y-69733771D02*
X137185714Y-69686152D01*
X137185714Y-69686152D02*
X137328571Y-69686152D01*
X137328571Y-69686152D02*
X137423809Y-69733771D01*
X137423809Y-69733771D02*
X137471428Y-69781390D01*
X137471428Y-69781390D02*
X137519047Y-69876628D01*
X137519047Y-69876628D02*
X137519047Y-70162342D01*
X137519047Y-70162342D02*
X137471428Y-70257580D01*
X137471428Y-70257580D02*
X137423809Y-70305200D01*
X137423809Y-70305200D02*
X137328571Y-70352819D01*
X137328571Y-70352819D02*
X137185714Y-70352819D01*
X138376190Y-70352819D02*
X138376190Y-69352819D01*
X138376190Y-70305200D02*
X138280952Y-70352819D01*
X138280952Y-70352819D02*
X138090476Y-70352819D01*
X138090476Y-70352819D02*
X137995238Y-70305200D01*
X137995238Y-70305200D02*
X137947619Y-70257580D01*
X137947619Y-70257580D02*
X137900000Y-70162342D01*
X137900000Y-70162342D02*
X137900000Y-69876628D01*
X137900000Y-69876628D02*
X137947619Y-69781390D01*
X137947619Y-69781390D02*
X137995238Y-69733771D01*
X137995238Y-69733771D02*
X138090476Y-69686152D01*
X138090476Y-69686152D02*
X138280952Y-69686152D01*
X138280952Y-69686152D02*
X138376190Y-69733771D01*
X139233333Y-70305200D02*
X139138095Y-70352819D01*
X139138095Y-70352819D02*
X138947619Y-70352819D01*
X138947619Y-70352819D02*
X138852381Y-70305200D01*
X138852381Y-70305200D02*
X138804762Y-70209961D01*
X138804762Y-70209961D02*
X138804762Y-69829009D01*
X138804762Y-69829009D02*
X138852381Y-69733771D01*
X138852381Y-69733771D02*
X138947619Y-69686152D01*
X138947619Y-69686152D02*
X139138095Y-69686152D01*
X139138095Y-69686152D02*
X139233333Y-69733771D01*
X139233333Y-69733771D02*
X139280952Y-69829009D01*
X139280952Y-69829009D02*
X139280952Y-69924247D01*
X139280952Y-69924247D02*
X138804762Y-70019485D01*
X74396667Y-38922819D02*
X74396667Y-37922819D01*
X74396667Y-37922819D02*
X74634762Y-37922819D01*
X74634762Y-37922819D02*
X74777619Y-37970438D01*
X74777619Y-37970438D02*
X74872857Y-38065676D01*
X74872857Y-38065676D02*
X74920476Y-38160914D01*
X74920476Y-38160914D02*
X74968095Y-38351390D01*
X74968095Y-38351390D02*
X74968095Y-38494247D01*
X74968095Y-38494247D02*
X74920476Y-38684723D01*
X74920476Y-38684723D02*
X74872857Y-38779961D01*
X74872857Y-38779961D02*
X74777619Y-38875200D01*
X74777619Y-38875200D02*
X74634762Y-38922819D01*
X74634762Y-38922819D02*
X74396667Y-38922819D01*
X75396667Y-38922819D02*
X75396667Y-38256152D01*
X75396667Y-37922819D02*
X75349048Y-37970438D01*
X75349048Y-37970438D02*
X75396667Y-38018057D01*
X75396667Y-38018057D02*
X75444286Y-37970438D01*
X75444286Y-37970438D02*
X75396667Y-37922819D01*
X75396667Y-37922819D02*
X75396667Y-38018057D01*
X76015714Y-38922819D02*
X75920476Y-38875200D01*
X75920476Y-38875200D02*
X75872857Y-38827580D01*
X75872857Y-38827580D02*
X75825238Y-38732342D01*
X75825238Y-38732342D02*
X75825238Y-38446628D01*
X75825238Y-38446628D02*
X75872857Y-38351390D01*
X75872857Y-38351390D02*
X75920476Y-38303771D01*
X75920476Y-38303771D02*
X76015714Y-38256152D01*
X76015714Y-38256152D02*
X76158571Y-38256152D01*
X76158571Y-38256152D02*
X76253809Y-38303771D01*
X76253809Y-38303771D02*
X76301428Y-38351390D01*
X76301428Y-38351390D02*
X76349047Y-38446628D01*
X76349047Y-38446628D02*
X76349047Y-38732342D01*
X76349047Y-38732342D02*
X76301428Y-38827580D01*
X76301428Y-38827580D02*
X76253809Y-38875200D01*
X76253809Y-38875200D02*
X76158571Y-38922819D01*
X76158571Y-38922819D02*
X76015714Y-38922819D01*
X77206190Y-38922819D02*
X77206190Y-37922819D01*
X77206190Y-38875200D02*
X77110952Y-38922819D01*
X77110952Y-38922819D02*
X76920476Y-38922819D01*
X76920476Y-38922819D02*
X76825238Y-38875200D01*
X76825238Y-38875200D02*
X76777619Y-38827580D01*
X76777619Y-38827580D02*
X76730000Y-38732342D01*
X76730000Y-38732342D02*
X76730000Y-38446628D01*
X76730000Y-38446628D02*
X76777619Y-38351390D01*
X76777619Y-38351390D02*
X76825238Y-38303771D01*
X76825238Y-38303771D02*
X76920476Y-38256152D01*
X76920476Y-38256152D02*
X77110952Y-38256152D01*
X77110952Y-38256152D02*
X77206190Y-38303771D01*
X78063333Y-38875200D02*
X77968095Y-38922819D01*
X77968095Y-38922819D02*
X77777619Y-38922819D01*
X77777619Y-38922819D02*
X77682381Y-38875200D01*
X77682381Y-38875200D02*
X77634762Y-38779961D01*
X77634762Y-38779961D02*
X77634762Y-38399009D01*
X77634762Y-38399009D02*
X77682381Y-38303771D01*
X77682381Y-38303771D02*
X77777619Y-38256152D01*
X77777619Y-38256152D02*
X77968095Y-38256152D01*
X77968095Y-38256152D02*
X78063333Y-38303771D01*
X78063333Y-38303771D02*
X78110952Y-38399009D01*
X78110952Y-38399009D02*
X78110952Y-38494247D01*
X78110952Y-38494247D02*
X77634762Y-38589485D01*
D12*
X147392857Y-54178328D02*
X147392857Y-52678328D01*
X147392857Y-52678328D02*
X147964286Y-52678328D01*
X147964286Y-52678328D02*
X148107143Y-52749757D01*
X148107143Y-52749757D02*
X148178572Y-52821185D01*
X148178572Y-52821185D02*
X148250000Y-52964042D01*
X148250000Y-52964042D02*
X148250000Y-53178328D01*
X148250000Y-53178328D02*
X148178572Y-53321185D01*
X148178572Y-53321185D02*
X148107143Y-53392614D01*
X148107143Y-53392614D02*
X147964286Y-53464042D01*
X147964286Y-53464042D02*
X147392857Y-53464042D01*
X148892857Y-54178328D02*
X148892857Y-53178328D01*
X148892857Y-53464042D02*
X148964286Y-53321185D01*
X148964286Y-53321185D02*
X149035715Y-53249757D01*
X149035715Y-53249757D02*
X149178572Y-53178328D01*
X149178572Y-53178328D02*
X149321429Y-53178328D01*
X150035714Y-54178328D02*
X149892857Y-54106900D01*
X149892857Y-54106900D02*
X149821428Y-54035471D01*
X149821428Y-54035471D02*
X149750000Y-53892614D01*
X149750000Y-53892614D02*
X149750000Y-53464042D01*
X149750000Y-53464042D02*
X149821428Y-53321185D01*
X149821428Y-53321185D02*
X149892857Y-53249757D01*
X149892857Y-53249757D02*
X150035714Y-53178328D01*
X150035714Y-53178328D02*
X150250000Y-53178328D01*
X150250000Y-53178328D02*
X150392857Y-53249757D01*
X150392857Y-53249757D02*
X150464286Y-53321185D01*
X150464286Y-53321185D02*
X150535714Y-53464042D01*
X150535714Y-53464042D02*
X150535714Y-53892614D01*
X150535714Y-53892614D02*
X150464286Y-54035471D01*
X150464286Y-54035471D02*
X150392857Y-54106900D01*
X150392857Y-54106900D02*
X150250000Y-54178328D01*
X150250000Y-54178328D02*
X150035714Y-54178328D01*
X152321428Y-54178328D02*
X152321428Y-52678328D01*
X152321428Y-52678328D02*
X152821428Y-53749757D01*
X152821428Y-53749757D02*
X153321428Y-52678328D01*
X153321428Y-52678328D02*
X153321428Y-54178328D01*
X154035714Y-54178328D02*
X154035714Y-53178328D01*
X154035714Y-52678328D02*
X153964286Y-52749757D01*
X153964286Y-52749757D02*
X154035714Y-52821185D01*
X154035714Y-52821185D02*
X154107143Y-52749757D01*
X154107143Y-52749757D02*
X154035714Y-52678328D01*
X154035714Y-52678328D02*
X154035714Y-52821185D01*
X155392858Y-54106900D02*
X155250000Y-54178328D01*
X155250000Y-54178328D02*
X154964286Y-54178328D01*
X154964286Y-54178328D02*
X154821429Y-54106900D01*
X154821429Y-54106900D02*
X154750000Y-54035471D01*
X154750000Y-54035471D02*
X154678572Y-53892614D01*
X154678572Y-53892614D02*
X154678572Y-53464042D01*
X154678572Y-53464042D02*
X154750000Y-53321185D01*
X154750000Y-53321185D02*
X154821429Y-53249757D01*
X154821429Y-53249757D02*
X154964286Y-53178328D01*
X154964286Y-53178328D02*
X155250000Y-53178328D01*
X155250000Y-53178328D02*
X155392858Y-53249757D01*
X156035714Y-54178328D02*
X156035714Y-53178328D01*
X156035714Y-53464042D02*
X156107143Y-53321185D01*
X156107143Y-53321185D02*
X156178572Y-53249757D01*
X156178572Y-53249757D02*
X156321429Y-53178328D01*
X156321429Y-53178328D02*
X156464286Y-53178328D01*
X157178571Y-54178328D02*
X157035714Y-54106900D01*
X157035714Y-54106900D02*
X156964285Y-54035471D01*
X156964285Y-54035471D02*
X156892857Y-53892614D01*
X156892857Y-53892614D02*
X156892857Y-53464042D01*
X156892857Y-53464042D02*
X156964285Y-53321185D01*
X156964285Y-53321185D02*
X157035714Y-53249757D01*
X157035714Y-53249757D02*
X157178571Y-53178328D01*
X157178571Y-53178328D02*
X157392857Y-53178328D01*
X157392857Y-53178328D02*
X157535714Y-53249757D01*
X157535714Y-53249757D02*
X157607143Y-53321185D01*
X157607143Y-53321185D02*
X157678571Y-53464042D01*
X157678571Y-53464042D02*
X157678571Y-53892614D01*
X157678571Y-53892614D02*
X157607143Y-54035471D01*
X157607143Y-54035471D02*
X157535714Y-54106900D01*
X157535714Y-54106900D02*
X157392857Y-54178328D01*
X157392857Y-54178328D02*
X157178571Y-54178328D01*
D11*
X148057580Y-65261905D02*
X148105200Y-65309524D01*
X148105200Y-65309524D02*
X148152819Y-65452381D01*
X148152819Y-65452381D02*
X148152819Y-65547619D01*
X148152819Y-65547619D02*
X148105200Y-65690476D01*
X148105200Y-65690476D02*
X148009961Y-65785714D01*
X148009961Y-65785714D02*
X147914723Y-65833333D01*
X147914723Y-65833333D02*
X147724247Y-65880952D01*
X147724247Y-65880952D02*
X147581390Y-65880952D01*
X147581390Y-65880952D02*
X147390914Y-65833333D01*
X147390914Y-65833333D02*
X147295676Y-65785714D01*
X147295676Y-65785714D02*
X147200438Y-65690476D01*
X147200438Y-65690476D02*
X147152819Y-65547619D01*
X147152819Y-65547619D02*
X147152819Y-65452381D01*
X147152819Y-65452381D02*
X147200438Y-65309524D01*
X147200438Y-65309524D02*
X147248057Y-65261905D01*
X148152819Y-64690476D02*
X148105200Y-64785714D01*
X148105200Y-64785714D02*
X148009961Y-64833333D01*
X148009961Y-64833333D02*
X147152819Y-64833333D01*
X147152819Y-64404761D02*
X147152819Y-63785714D01*
X147152819Y-63785714D02*
X147533771Y-64119047D01*
X147533771Y-64119047D02*
X147533771Y-63976190D01*
X147533771Y-63976190D02*
X147581390Y-63880952D01*
X147581390Y-63880952D02*
X147629009Y-63833333D01*
X147629009Y-63833333D02*
X147724247Y-63785714D01*
X147724247Y-63785714D02*
X147962342Y-63785714D01*
X147962342Y-63785714D02*
X148057580Y-63833333D01*
X148057580Y-63833333D02*
X148105200Y-63880952D01*
X148105200Y-63880952D02*
X148152819Y-63976190D01*
X148152819Y-63976190D02*
X148152819Y-64261904D01*
X148152819Y-64261904D02*
X148105200Y-64357142D01*
X148105200Y-64357142D02*
X148057580Y-64404761D01*
X148152819Y-62071428D02*
X148152819Y-62642856D01*
X148152819Y-62357142D02*
X147152819Y-62357142D01*
X147152819Y-62357142D02*
X147295676Y-62452380D01*
X147295676Y-62452380D02*
X147390914Y-62547618D01*
X147390914Y-62547618D02*
X147438533Y-62642856D01*
X148152819Y-61642856D02*
X147152819Y-61642856D01*
X147771866Y-61547618D02*
X148152819Y-61261904D01*
X147486152Y-61261904D02*
X147867104Y-61642856D01*
X148152819Y-60880951D02*
X148152819Y-60642856D01*
X148152819Y-60642856D02*
X147962342Y-60642856D01*
X147962342Y-60642856D02*
X147914723Y-60738094D01*
X147914723Y-60738094D02*
X147819485Y-60833332D01*
X147819485Y-60833332D02*
X147676628Y-60880951D01*
X147676628Y-60880951D02*
X147438533Y-60880951D01*
X147438533Y-60880951D02*
X147295676Y-60833332D01*
X147295676Y-60833332D02*
X147200438Y-60738094D01*
X147200438Y-60738094D02*
X147152819Y-60595237D01*
X147152819Y-60595237D02*
X147152819Y-60404761D01*
X147152819Y-60404761D02*
X147200438Y-60261904D01*
X147200438Y-60261904D02*
X147295676Y-60166666D01*
X147295676Y-60166666D02*
X147438533Y-60119047D01*
X147438533Y-60119047D02*
X147676628Y-60119047D01*
X147676628Y-60119047D02*
X147819485Y-60166666D01*
X147819485Y-60166666D02*
X147914723Y-60261904D01*
X147914723Y-60261904D02*
X147962342Y-60357142D01*
X147962342Y-60357142D02*
X148152819Y-60357142D01*
X148152819Y-60357142D02*
X148152819Y-60119047D01*
X114696667Y-59222819D02*
X114696667Y-58222819D01*
X114696667Y-58222819D02*
X114934762Y-58222819D01*
X114934762Y-58222819D02*
X115077619Y-58270438D01*
X115077619Y-58270438D02*
X115172857Y-58365676D01*
X115172857Y-58365676D02*
X115220476Y-58460914D01*
X115220476Y-58460914D02*
X115268095Y-58651390D01*
X115268095Y-58651390D02*
X115268095Y-58794247D01*
X115268095Y-58794247D02*
X115220476Y-58984723D01*
X115220476Y-58984723D02*
X115172857Y-59079961D01*
X115172857Y-59079961D02*
X115077619Y-59175200D01*
X115077619Y-59175200D02*
X114934762Y-59222819D01*
X114934762Y-59222819D02*
X114696667Y-59222819D01*
X115696667Y-59222819D02*
X115696667Y-58556152D01*
X115696667Y-58222819D02*
X115649048Y-58270438D01*
X115649048Y-58270438D02*
X115696667Y-58318057D01*
X115696667Y-58318057D02*
X115744286Y-58270438D01*
X115744286Y-58270438D02*
X115696667Y-58222819D01*
X115696667Y-58222819D02*
X115696667Y-58318057D01*
X116315714Y-59222819D02*
X116220476Y-59175200D01*
X116220476Y-59175200D02*
X116172857Y-59127580D01*
X116172857Y-59127580D02*
X116125238Y-59032342D01*
X116125238Y-59032342D02*
X116125238Y-58746628D01*
X116125238Y-58746628D02*
X116172857Y-58651390D01*
X116172857Y-58651390D02*
X116220476Y-58603771D01*
X116220476Y-58603771D02*
X116315714Y-58556152D01*
X116315714Y-58556152D02*
X116458571Y-58556152D01*
X116458571Y-58556152D02*
X116553809Y-58603771D01*
X116553809Y-58603771D02*
X116601428Y-58651390D01*
X116601428Y-58651390D02*
X116649047Y-58746628D01*
X116649047Y-58746628D02*
X116649047Y-59032342D01*
X116649047Y-59032342D02*
X116601428Y-59127580D01*
X116601428Y-59127580D02*
X116553809Y-59175200D01*
X116553809Y-59175200D02*
X116458571Y-59222819D01*
X116458571Y-59222819D02*
X116315714Y-59222819D01*
X117506190Y-59222819D02*
X117506190Y-58222819D01*
X117506190Y-59175200D02*
X117410952Y-59222819D01*
X117410952Y-59222819D02*
X117220476Y-59222819D01*
X117220476Y-59222819D02*
X117125238Y-59175200D01*
X117125238Y-59175200D02*
X117077619Y-59127580D01*
X117077619Y-59127580D02*
X117030000Y-59032342D01*
X117030000Y-59032342D02*
X117030000Y-58746628D01*
X117030000Y-58746628D02*
X117077619Y-58651390D01*
X117077619Y-58651390D02*
X117125238Y-58603771D01*
X117125238Y-58603771D02*
X117220476Y-58556152D01*
X117220476Y-58556152D02*
X117410952Y-58556152D01*
X117410952Y-58556152D02*
X117506190Y-58603771D01*
X118363333Y-59175200D02*
X118268095Y-59222819D01*
X118268095Y-59222819D02*
X118077619Y-59222819D01*
X118077619Y-59222819D02*
X117982381Y-59175200D01*
X117982381Y-59175200D02*
X117934762Y-59079961D01*
X117934762Y-59079961D02*
X117934762Y-58699009D01*
X117934762Y-58699009D02*
X117982381Y-58603771D01*
X117982381Y-58603771D02*
X118077619Y-58556152D01*
X118077619Y-58556152D02*
X118268095Y-58556152D01*
X118268095Y-58556152D02*
X118363333Y-58603771D01*
X118363333Y-58603771D02*
X118410952Y-58699009D01*
X118410952Y-58699009D02*
X118410952Y-58794247D01*
X118410952Y-58794247D02*
X117934762Y-58889485D01*
X114446667Y-99922819D02*
X114446667Y-98922819D01*
X114446667Y-98922819D02*
X114684762Y-98922819D01*
X114684762Y-98922819D02*
X114827619Y-98970438D01*
X114827619Y-98970438D02*
X114922857Y-99065676D01*
X114922857Y-99065676D02*
X114970476Y-99160914D01*
X114970476Y-99160914D02*
X115018095Y-99351390D01*
X115018095Y-99351390D02*
X115018095Y-99494247D01*
X115018095Y-99494247D02*
X114970476Y-99684723D01*
X114970476Y-99684723D02*
X114922857Y-99779961D01*
X114922857Y-99779961D02*
X114827619Y-99875200D01*
X114827619Y-99875200D02*
X114684762Y-99922819D01*
X114684762Y-99922819D02*
X114446667Y-99922819D01*
X115446667Y-99922819D02*
X115446667Y-99256152D01*
X115446667Y-98922819D02*
X115399048Y-98970438D01*
X115399048Y-98970438D02*
X115446667Y-99018057D01*
X115446667Y-99018057D02*
X115494286Y-98970438D01*
X115494286Y-98970438D02*
X115446667Y-98922819D01*
X115446667Y-98922819D02*
X115446667Y-99018057D01*
X116065714Y-99922819D02*
X115970476Y-99875200D01*
X115970476Y-99875200D02*
X115922857Y-99827580D01*
X115922857Y-99827580D02*
X115875238Y-99732342D01*
X115875238Y-99732342D02*
X115875238Y-99446628D01*
X115875238Y-99446628D02*
X115922857Y-99351390D01*
X115922857Y-99351390D02*
X115970476Y-99303771D01*
X115970476Y-99303771D02*
X116065714Y-99256152D01*
X116065714Y-99256152D02*
X116208571Y-99256152D01*
X116208571Y-99256152D02*
X116303809Y-99303771D01*
X116303809Y-99303771D02*
X116351428Y-99351390D01*
X116351428Y-99351390D02*
X116399047Y-99446628D01*
X116399047Y-99446628D02*
X116399047Y-99732342D01*
X116399047Y-99732342D02*
X116351428Y-99827580D01*
X116351428Y-99827580D02*
X116303809Y-99875200D01*
X116303809Y-99875200D02*
X116208571Y-99922819D01*
X116208571Y-99922819D02*
X116065714Y-99922819D01*
X117256190Y-99922819D02*
X117256190Y-98922819D01*
X117256190Y-99875200D02*
X117160952Y-99922819D01*
X117160952Y-99922819D02*
X116970476Y-99922819D01*
X116970476Y-99922819D02*
X116875238Y-99875200D01*
X116875238Y-99875200D02*
X116827619Y-99827580D01*
X116827619Y-99827580D02*
X116780000Y-99732342D01*
X116780000Y-99732342D02*
X116780000Y-99446628D01*
X116780000Y-99446628D02*
X116827619Y-99351390D01*
X116827619Y-99351390D02*
X116875238Y-99303771D01*
X116875238Y-99303771D02*
X116970476Y-99256152D01*
X116970476Y-99256152D02*
X117160952Y-99256152D01*
X117160952Y-99256152D02*
X117256190Y-99303771D01*
X118113333Y-99875200D02*
X118018095Y-99922819D01*
X118018095Y-99922819D02*
X117827619Y-99922819D01*
X117827619Y-99922819D02*
X117732381Y-99875200D01*
X117732381Y-99875200D02*
X117684762Y-99779961D01*
X117684762Y-99779961D02*
X117684762Y-99399009D01*
X117684762Y-99399009D02*
X117732381Y-99303771D01*
X117732381Y-99303771D02*
X117827619Y-99256152D01*
X117827619Y-99256152D02*
X118018095Y-99256152D01*
X118018095Y-99256152D02*
X118113333Y-99303771D01*
X118113333Y-99303771D02*
X118160952Y-99399009D01*
X118160952Y-99399009D02*
X118160952Y-99494247D01*
X118160952Y-99494247D02*
X117684762Y-99589485D01*
X74126667Y-79702819D02*
X74126667Y-78702819D01*
X74126667Y-78702819D02*
X74364762Y-78702819D01*
X74364762Y-78702819D02*
X74507619Y-78750438D01*
X74507619Y-78750438D02*
X74602857Y-78845676D01*
X74602857Y-78845676D02*
X74650476Y-78940914D01*
X74650476Y-78940914D02*
X74698095Y-79131390D01*
X74698095Y-79131390D02*
X74698095Y-79274247D01*
X74698095Y-79274247D02*
X74650476Y-79464723D01*
X74650476Y-79464723D02*
X74602857Y-79559961D01*
X74602857Y-79559961D02*
X74507619Y-79655200D01*
X74507619Y-79655200D02*
X74364762Y-79702819D01*
X74364762Y-79702819D02*
X74126667Y-79702819D01*
X75126667Y-79702819D02*
X75126667Y-79036152D01*
X75126667Y-78702819D02*
X75079048Y-78750438D01*
X75079048Y-78750438D02*
X75126667Y-78798057D01*
X75126667Y-78798057D02*
X75174286Y-78750438D01*
X75174286Y-78750438D02*
X75126667Y-78702819D01*
X75126667Y-78702819D02*
X75126667Y-78798057D01*
X75745714Y-79702819D02*
X75650476Y-79655200D01*
X75650476Y-79655200D02*
X75602857Y-79607580D01*
X75602857Y-79607580D02*
X75555238Y-79512342D01*
X75555238Y-79512342D02*
X75555238Y-79226628D01*
X75555238Y-79226628D02*
X75602857Y-79131390D01*
X75602857Y-79131390D02*
X75650476Y-79083771D01*
X75650476Y-79083771D02*
X75745714Y-79036152D01*
X75745714Y-79036152D02*
X75888571Y-79036152D01*
X75888571Y-79036152D02*
X75983809Y-79083771D01*
X75983809Y-79083771D02*
X76031428Y-79131390D01*
X76031428Y-79131390D02*
X76079047Y-79226628D01*
X76079047Y-79226628D02*
X76079047Y-79512342D01*
X76079047Y-79512342D02*
X76031428Y-79607580D01*
X76031428Y-79607580D02*
X75983809Y-79655200D01*
X75983809Y-79655200D02*
X75888571Y-79702819D01*
X75888571Y-79702819D02*
X75745714Y-79702819D01*
X76936190Y-79702819D02*
X76936190Y-78702819D01*
X76936190Y-79655200D02*
X76840952Y-79702819D01*
X76840952Y-79702819D02*
X76650476Y-79702819D01*
X76650476Y-79702819D02*
X76555238Y-79655200D01*
X76555238Y-79655200D02*
X76507619Y-79607580D01*
X76507619Y-79607580D02*
X76460000Y-79512342D01*
X76460000Y-79512342D02*
X76460000Y-79226628D01*
X76460000Y-79226628D02*
X76507619Y-79131390D01*
X76507619Y-79131390D02*
X76555238Y-79083771D01*
X76555238Y-79083771D02*
X76650476Y-79036152D01*
X76650476Y-79036152D02*
X76840952Y-79036152D01*
X76840952Y-79036152D02*
X76936190Y-79083771D01*
X77793333Y-79655200D02*
X77698095Y-79702819D01*
X77698095Y-79702819D02*
X77507619Y-79702819D01*
X77507619Y-79702819D02*
X77412381Y-79655200D01*
X77412381Y-79655200D02*
X77364762Y-79559961D01*
X77364762Y-79559961D02*
X77364762Y-79179009D01*
X77364762Y-79179009D02*
X77412381Y-79083771D01*
X77412381Y-79083771D02*
X77507619Y-79036152D01*
X77507619Y-79036152D02*
X77698095Y-79036152D01*
X77698095Y-79036152D02*
X77793333Y-79083771D01*
X77793333Y-79083771D02*
X77840952Y-79179009D01*
X77840952Y-79179009D02*
X77840952Y-79274247D01*
X77840952Y-79274247D02*
X77364762Y-79369485D01*
X158057580Y-65261905D02*
X158105200Y-65309524D01*
X158105200Y-65309524D02*
X158152819Y-65452381D01*
X158152819Y-65452381D02*
X158152819Y-65547619D01*
X158152819Y-65547619D02*
X158105200Y-65690476D01*
X158105200Y-65690476D02*
X158009961Y-65785714D01*
X158009961Y-65785714D02*
X157914723Y-65833333D01*
X157914723Y-65833333D02*
X157724247Y-65880952D01*
X157724247Y-65880952D02*
X157581390Y-65880952D01*
X157581390Y-65880952D02*
X157390914Y-65833333D01*
X157390914Y-65833333D02*
X157295676Y-65785714D01*
X157295676Y-65785714D02*
X157200438Y-65690476D01*
X157200438Y-65690476D02*
X157152819Y-65547619D01*
X157152819Y-65547619D02*
X157152819Y-65452381D01*
X157152819Y-65452381D02*
X157200438Y-65309524D01*
X157200438Y-65309524D02*
X157248057Y-65261905D01*
X158152819Y-64690476D02*
X158105200Y-64785714D01*
X158105200Y-64785714D02*
X158009961Y-64833333D01*
X158009961Y-64833333D02*
X157152819Y-64833333D01*
X158152819Y-63785714D02*
X158152819Y-64357142D01*
X158152819Y-64071428D02*
X157152819Y-64071428D01*
X157152819Y-64071428D02*
X157295676Y-64166666D01*
X157295676Y-64166666D02*
X157390914Y-64261904D01*
X157390914Y-64261904D02*
X157438533Y-64357142D01*
X158152819Y-62071428D02*
X158152819Y-62642856D01*
X158152819Y-62357142D02*
X157152819Y-62357142D01*
X157152819Y-62357142D02*
X157295676Y-62452380D01*
X157295676Y-62452380D02*
X157390914Y-62547618D01*
X157390914Y-62547618D02*
X157438533Y-62642856D01*
X158152819Y-61642856D02*
X157152819Y-61642856D01*
X157771866Y-61547618D02*
X158152819Y-61261904D01*
X157486152Y-61261904D02*
X157867104Y-61642856D01*
X158152819Y-60880951D02*
X158152819Y-60642856D01*
X158152819Y-60642856D02*
X157962342Y-60642856D01*
X157962342Y-60642856D02*
X157914723Y-60738094D01*
X157914723Y-60738094D02*
X157819485Y-60833332D01*
X157819485Y-60833332D02*
X157676628Y-60880951D01*
X157676628Y-60880951D02*
X157438533Y-60880951D01*
X157438533Y-60880951D02*
X157295676Y-60833332D01*
X157295676Y-60833332D02*
X157200438Y-60738094D01*
X157200438Y-60738094D02*
X157152819Y-60595237D01*
X157152819Y-60595237D02*
X157152819Y-60404761D01*
X157152819Y-60404761D02*
X157200438Y-60261904D01*
X157200438Y-60261904D02*
X157295676Y-60166666D01*
X157295676Y-60166666D02*
X157438533Y-60119047D01*
X157438533Y-60119047D02*
X157676628Y-60119047D01*
X157676628Y-60119047D02*
X157819485Y-60166666D01*
X157819485Y-60166666D02*
X157914723Y-60261904D01*
X157914723Y-60261904D02*
X157962342Y-60357142D01*
X157962342Y-60357142D02*
X158152819Y-60357142D01*
X158152819Y-60357142D02*
X158152819Y-60119047D01*
D12*
X68107142Y-126928328D02*
X68107142Y-125428328D01*
X68964285Y-126928328D02*
X68321428Y-126071185D01*
X68964285Y-125428328D02*
X68107142Y-126285471D01*
X69821428Y-126928328D02*
X69678571Y-126856900D01*
X69678571Y-126856900D02*
X69607142Y-126785471D01*
X69607142Y-126785471D02*
X69535714Y-126642614D01*
X69535714Y-126642614D02*
X69535714Y-126214042D01*
X69535714Y-126214042D02*
X69607142Y-126071185D01*
X69607142Y-126071185D02*
X69678571Y-125999757D01*
X69678571Y-125999757D02*
X69821428Y-125928328D01*
X69821428Y-125928328D02*
X70035714Y-125928328D01*
X70035714Y-125928328D02*
X70178571Y-125999757D01*
X70178571Y-125999757D02*
X70250000Y-126071185D01*
X70250000Y-126071185D02*
X70321428Y-126214042D01*
X70321428Y-126214042D02*
X70321428Y-126642614D01*
X70321428Y-126642614D02*
X70250000Y-126785471D01*
X70250000Y-126785471D02*
X70178571Y-126856900D01*
X70178571Y-126856900D02*
X70035714Y-126928328D01*
X70035714Y-126928328D02*
X69821428Y-126928328D01*
X70964285Y-125928328D02*
X70964285Y-127428328D01*
X70964285Y-125999757D02*
X71107143Y-125928328D01*
X71107143Y-125928328D02*
X71392857Y-125928328D01*
X71392857Y-125928328D02*
X71535714Y-125999757D01*
X71535714Y-125999757D02*
X71607143Y-126071185D01*
X71607143Y-126071185D02*
X71678571Y-126214042D01*
X71678571Y-126214042D02*
X71678571Y-126642614D01*
X71678571Y-126642614D02*
X71607143Y-126785471D01*
X71607143Y-126785471D02*
X71535714Y-126856900D01*
X71535714Y-126856900D02*
X71392857Y-126928328D01*
X71392857Y-126928328D02*
X71107143Y-126928328D01*
X71107143Y-126928328D02*
X70964285Y-126856900D01*
X72178571Y-125928328D02*
X72535714Y-126928328D01*
X72892857Y-125928328D02*
X72535714Y-126928328D01*
X72535714Y-126928328D02*
X72392857Y-127285471D01*
X72392857Y-127285471D02*
X72321428Y-127356900D01*
X72321428Y-127356900D02*
X72178571Y-127428328D01*
X73250000Y-125428328D02*
X74107143Y-125428328D01*
X73678571Y-126928328D02*
X73678571Y-125428328D01*
X74607142Y-126928328D02*
X74607142Y-125428328D01*
X75464285Y-126928328D02*
X74821428Y-126071185D01*
X75464285Y-125428328D02*
X74607142Y-126285471D01*
X76892857Y-125499757D02*
X76750000Y-125428328D01*
X76750000Y-125428328D02*
X76535714Y-125428328D01*
X76535714Y-125428328D02*
X76321428Y-125499757D01*
X76321428Y-125499757D02*
X76178571Y-125642614D01*
X76178571Y-125642614D02*
X76107142Y-125785471D01*
X76107142Y-125785471D02*
X76035714Y-126071185D01*
X76035714Y-126071185D02*
X76035714Y-126285471D01*
X76035714Y-126285471D02*
X76107142Y-126571185D01*
X76107142Y-126571185D02*
X76178571Y-126714042D01*
X76178571Y-126714042D02*
X76321428Y-126856900D01*
X76321428Y-126856900D02*
X76535714Y-126928328D01*
X76535714Y-126928328D02*
X76678571Y-126928328D01*
X76678571Y-126928328D02*
X76892857Y-126856900D01*
X76892857Y-126856900D02*
X76964285Y-126785471D01*
X76964285Y-126785471D02*
X76964285Y-126285471D01*
X76964285Y-126285471D02*
X76678571Y-126285471D01*
D11*
X93896667Y-39022819D02*
X93896667Y-38022819D01*
X93896667Y-38022819D02*
X94134762Y-38022819D01*
X94134762Y-38022819D02*
X94277619Y-38070438D01*
X94277619Y-38070438D02*
X94372857Y-38165676D01*
X94372857Y-38165676D02*
X94420476Y-38260914D01*
X94420476Y-38260914D02*
X94468095Y-38451390D01*
X94468095Y-38451390D02*
X94468095Y-38594247D01*
X94468095Y-38594247D02*
X94420476Y-38784723D01*
X94420476Y-38784723D02*
X94372857Y-38879961D01*
X94372857Y-38879961D02*
X94277619Y-38975200D01*
X94277619Y-38975200D02*
X94134762Y-39022819D01*
X94134762Y-39022819D02*
X93896667Y-39022819D01*
X94896667Y-39022819D02*
X94896667Y-38356152D01*
X94896667Y-38022819D02*
X94849048Y-38070438D01*
X94849048Y-38070438D02*
X94896667Y-38118057D01*
X94896667Y-38118057D02*
X94944286Y-38070438D01*
X94944286Y-38070438D02*
X94896667Y-38022819D01*
X94896667Y-38022819D02*
X94896667Y-38118057D01*
X95515714Y-39022819D02*
X95420476Y-38975200D01*
X95420476Y-38975200D02*
X95372857Y-38927580D01*
X95372857Y-38927580D02*
X95325238Y-38832342D01*
X95325238Y-38832342D02*
X95325238Y-38546628D01*
X95325238Y-38546628D02*
X95372857Y-38451390D01*
X95372857Y-38451390D02*
X95420476Y-38403771D01*
X95420476Y-38403771D02*
X95515714Y-38356152D01*
X95515714Y-38356152D02*
X95658571Y-38356152D01*
X95658571Y-38356152D02*
X95753809Y-38403771D01*
X95753809Y-38403771D02*
X95801428Y-38451390D01*
X95801428Y-38451390D02*
X95849047Y-38546628D01*
X95849047Y-38546628D02*
X95849047Y-38832342D01*
X95849047Y-38832342D02*
X95801428Y-38927580D01*
X95801428Y-38927580D02*
X95753809Y-38975200D01*
X95753809Y-38975200D02*
X95658571Y-39022819D01*
X95658571Y-39022819D02*
X95515714Y-39022819D01*
X96706190Y-39022819D02*
X96706190Y-38022819D01*
X96706190Y-38975200D02*
X96610952Y-39022819D01*
X96610952Y-39022819D02*
X96420476Y-39022819D01*
X96420476Y-39022819D02*
X96325238Y-38975200D01*
X96325238Y-38975200D02*
X96277619Y-38927580D01*
X96277619Y-38927580D02*
X96230000Y-38832342D01*
X96230000Y-38832342D02*
X96230000Y-38546628D01*
X96230000Y-38546628D02*
X96277619Y-38451390D01*
X96277619Y-38451390D02*
X96325238Y-38403771D01*
X96325238Y-38403771D02*
X96420476Y-38356152D01*
X96420476Y-38356152D02*
X96610952Y-38356152D01*
X96610952Y-38356152D02*
X96706190Y-38403771D01*
X97563333Y-38975200D02*
X97468095Y-39022819D01*
X97468095Y-39022819D02*
X97277619Y-39022819D01*
X97277619Y-39022819D02*
X97182381Y-38975200D01*
X97182381Y-38975200D02*
X97134762Y-38879961D01*
X97134762Y-38879961D02*
X97134762Y-38499009D01*
X97134762Y-38499009D02*
X97182381Y-38403771D01*
X97182381Y-38403771D02*
X97277619Y-38356152D01*
X97277619Y-38356152D02*
X97468095Y-38356152D01*
X97468095Y-38356152D02*
X97563333Y-38403771D01*
X97563333Y-38403771D02*
X97610952Y-38499009D01*
X97610952Y-38499009D02*
X97610952Y-38594247D01*
X97610952Y-38594247D02*
X97134762Y-38689485D01*
X135326667Y-39222819D02*
X135326667Y-38222819D01*
X135326667Y-38222819D02*
X135564762Y-38222819D01*
X135564762Y-38222819D02*
X135707619Y-38270438D01*
X135707619Y-38270438D02*
X135802857Y-38365676D01*
X135802857Y-38365676D02*
X135850476Y-38460914D01*
X135850476Y-38460914D02*
X135898095Y-38651390D01*
X135898095Y-38651390D02*
X135898095Y-38794247D01*
X135898095Y-38794247D02*
X135850476Y-38984723D01*
X135850476Y-38984723D02*
X135802857Y-39079961D01*
X135802857Y-39079961D02*
X135707619Y-39175200D01*
X135707619Y-39175200D02*
X135564762Y-39222819D01*
X135564762Y-39222819D02*
X135326667Y-39222819D01*
X136326667Y-39222819D02*
X136326667Y-38556152D01*
X136326667Y-38222819D02*
X136279048Y-38270438D01*
X136279048Y-38270438D02*
X136326667Y-38318057D01*
X136326667Y-38318057D02*
X136374286Y-38270438D01*
X136374286Y-38270438D02*
X136326667Y-38222819D01*
X136326667Y-38222819D02*
X136326667Y-38318057D01*
X136945714Y-39222819D02*
X136850476Y-39175200D01*
X136850476Y-39175200D02*
X136802857Y-39127580D01*
X136802857Y-39127580D02*
X136755238Y-39032342D01*
X136755238Y-39032342D02*
X136755238Y-38746628D01*
X136755238Y-38746628D02*
X136802857Y-38651390D01*
X136802857Y-38651390D02*
X136850476Y-38603771D01*
X136850476Y-38603771D02*
X136945714Y-38556152D01*
X136945714Y-38556152D02*
X137088571Y-38556152D01*
X137088571Y-38556152D02*
X137183809Y-38603771D01*
X137183809Y-38603771D02*
X137231428Y-38651390D01*
X137231428Y-38651390D02*
X137279047Y-38746628D01*
X137279047Y-38746628D02*
X137279047Y-39032342D01*
X137279047Y-39032342D02*
X137231428Y-39127580D01*
X137231428Y-39127580D02*
X137183809Y-39175200D01*
X137183809Y-39175200D02*
X137088571Y-39222819D01*
X137088571Y-39222819D02*
X136945714Y-39222819D01*
X138136190Y-39222819D02*
X138136190Y-38222819D01*
X138136190Y-39175200D02*
X138040952Y-39222819D01*
X138040952Y-39222819D02*
X137850476Y-39222819D01*
X137850476Y-39222819D02*
X137755238Y-39175200D01*
X137755238Y-39175200D02*
X137707619Y-39127580D01*
X137707619Y-39127580D02*
X137660000Y-39032342D01*
X137660000Y-39032342D02*
X137660000Y-38746628D01*
X137660000Y-38746628D02*
X137707619Y-38651390D01*
X137707619Y-38651390D02*
X137755238Y-38603771D01*
X137755238Y-38603771D02*
X137850476Y-38556152D01*
X137850476Y-38556152D02*
X138040952Y-38556152D01*
X138040952Y-38556152D02*
X138136190Y-38603771D01*
X138993333Y-39175200D02*
X138898095Y-39222819D01*
X138898095Y-39222819D02*
X138707619Y-39222819D01*
X138707619Y-39222819D02*
X138612381Y-39175200D01*
X138612381Y-39175200D02*
X138564762Y-39079961D01*
X138564762Y-39079961D02*
X138564762Y-38699009D01*
X138564762Y-38699009D02*
X138612381Y-38603771D01*
X138612381Y-38603771D02*
X138707619Y-38556152D01*
X138707619Y-38556152D02*
X138898095Y-38556152D01*
X138898095Y-38556152D02*
X138993333Y-38603771D01*
X138993333Y-38603771D02*
X139040952Y-38699009D01*
X139040952Y-38699009D02*
X139040952Y-38794247D01*
X139040952Y-38794247D02*
X138564762Y-38889485D01*
D10*
X145762000Y-61750000D02*
G75*
G02*
X144238000Y-61750000I-762000J0D01*
G01*
X144238000Y-61750000D02*
G75*
G02*
X145762000Y-61750000I762000J0D01*
G01*
X143730000Y-60480000D02*
X146270000Y-60480000D01*
X146270000Y-65560000D01*
X143730000Y-65560000D01*
X143730000Y-60480000D01*
X145762000Y-64290000D02*
G75*
G02*
X144238000Y-64290000I-762000J0D01*
G01*
X144238000Y-64290000D02*
G75*
G02*
X145762000Y-64290000I762000J0D01*
G01*
D11*
X143327580Y-65281905D02*
X143375200Y-65329524D01*
X143375200Y-65329524D02*
X143422819Y-65472381D01*
X143422819Y-65472381D02*
X143422819Y-65567619D01*
X143422819Y-65567619D02*
X143375200Y-65710476D01*
X143375200Y-65710476D02*
X143279961Y-65805714D01*
X143279961Y-65805714D02*
X143184723Y-65853333D01*
X143184723Y-65853333D02*
X142994247Y-65900952D01*
X142994247Y-65900952D02*
X142851390Y-65900952D01*
X142851390Y-65900952D02*
X142660914Y-65853333D01*
X142660914Y-65853333D02*
X142565676Y-65805714D01*
X142565676Y-65805714D02*
X142470438Y-65710476D01*
X142470438Y-65710476D02*
X142422819Y-65567619D01*
X142422819Y-65567619D02*
X142422819Y-65472381D01*
X142422819Y-65472381D02*
X142470438Y-65329524D01*
X142470438Y-65329524D02*
X142518057Y-65281905D01*
X143422819Y-64710476D02*
X143375200Y-64805714D01*
X143375200Y-64805714D02*
X143279961Y-64853333D01*
X143279961Y-64853333D02*
X142422819Y-64853333D01*
X142756152Y-63900952D02*
X143422819Y-63900952D01*
X142375200Y-64139047D02*
X143089485Y-64377142D01*
X143089485Y-64377142D02*
X143089485Y-63758095D01*
X143422819Y-62091428D02*
X143422819Y-62662856D01*
X143422819Y-62377142D02*
X142422819Y-62377142D01*
X142422819Y-62377142D02*
X142565676Y-62472380D01*
X142565676Y-62472380D02*
X142660914Y-62567618D01*
X142660914Y-62567618D02*
X142708533Y-62662856D01*
X143422819Y-61662856D02*
X142422819Y-61662856D01*
X143041866Y-61567618D02*
X143422819Y-61281904D01*
X142756152Y-61281904D02*
X143137104Y-61662856D01*
X143422819Y-60900951D02*
X143422819Y-60662856D01*
X143422819Y-60662856D02*
X143232342Y-60662856D01*
X143232342Y-60662856D02*
X143184723Y-60758094D01*
X143184723Y-60758094D02*
X143089485Y-60853332D01*
X143089485Y-60853332D02*
X142946628Y-60900951D01*
X142946628Y-60900951D02*
X142708533Y-60900951D01*
X142708533Y-60900951D02*
X142565676Y-60853332D01*
X142565676Y-60853332D02*
X142470438Y-60758094D01*
X142470438Y-60758094D02*
X142422819Y-60615237D01*
X142422819Y-60615237D02*
X142422819Y-60424761D01*
X142422819Y-60424761D02*
X142470438Y-60281904D01*
X142470438Y-60281904D02*
X142565676Y-60186666D01*
X142565676Y-60186666D02*
X142708533Y-60139047D01*
X142708533Y-60139047D02*
X142946628Y-60139047D01*
X142946628Y-60139047D02*
X143089485Y-60186666D01*
X143089485Y-60186666D02*
X143184723Y-60281904D01*
X143184723Y-60281904D02*
X143232342Y-60377142D01*
X143232342Y-60377142D02*
X143422819Y-60377142D01*
X143422819Y-60377142D02*
X143422819Y-60139047D01*
X71310476Y-63034152D02*
X71310476Y-63700819D01*
X71072381Y-62653200D02*
X70834286Y-63367485D01*
X70834286Y-63367485D02*
X71453333Y-63367485D01*
X70786667Y-42380819D02*
X71453333Y-42380819D01*
X71453333Y-42380819D02*
X71024762Y-43380819D01*
X91154286Y-83116057D02*
X91201905Y-83068438D01*
X91201905Y-83068438D02*
X91297143Y-83020819D01*
X91297143Y-83020819D02*
X91535238Y-83020819D01*
X91535238Y-83020819D02*
X91630476Y-83068438D01*
X91630476Y-83068438D02*
X91678095Y-83116057D01*
X91678095Y-83116057D02*
X91725714Y-83211295D01*
X91725714Y-83211295D02*
X91725714Y-83306533D01*
X91725714Y-83306533D02*
X91678095Y-83449390D01*
X91678095Y-83449390D02*
X91106667Y-84020819D01*
X91106667Y-84020819D02*
X91725714Y-84020819D01*
X131699048Y-53159866D02*
X132460953Y-53159866D01*
X132080000Y-53540819D02*
X132080000Y-52778914D01*
X131699048Y-22679866D02*
X132460953Y-22679866D01*
X111760000Y-22060819D02*
X111760000Y-22298914D01*
X111521905Y-22203676D02*
X111760000Y-22298914D01*
X111760000Y-22298914D02*
X111998095Y-22203676D01*
X111617143Y-22489390D02*
X111760000Y-22298914D01*
X111760000Y-22298914D02*
X111902857Y-22489390D01*
X111426667Y-83020819D02*
X112045714Y-83020819D01*
X112045714Y-83020819D02*
X111712381Y-83401771D01*
X111712381Y-83401771D02*
X111855238Y-83401771D01*
X111855238Y-83401771D02*
X111950476Y-83449390D01*
X111950476Y-83449390D02*
X111998095Y-83497009D01*
X111998095Y-83497009D02*
X112045714Y-83592247D01*
X112045714Y-83592247D02*
X112045714Y-83830342D01*
X112045714Y-83830342D02*
X111998095Y-83925580D01*
X111998095Y-83925580D02*
X111950476Y-83973200D01*
X111950476Y-83973200D02*
X111855238Y-84020819D01*
X111855238Y-84020819D02*
X111569524Y-84020819D01*
X111569524Y-84020819D02*
X111474286Y-83973200D01*
X111474286Y-83973200D02*
X111426667Y-83925580D01*
X111950476Y-62700819D02*
X111760000Y-62700819D01*
X111760000Y-62700819D02*
X111664762Y-62748438D01*
X111664762Y-62748438D02*
X111617143Y-62796057D01*
X111617143Y-62796057D02*
X111521905Y-62938914D01*
X111521905Y-62938914D02*
X111474286Y-63129390D01*
X111474286Y-63129390D02*
X111474286Y-63510342D01*
X111474286Y-63510342D02*
X111521905Y-63605580D01*
X111521905Y-63605580D02*
X111569524Y-63653200D01*
X111569524Y-63653200D02*
X111664762Y-63700819D01*
X111664762Y-63700819D02*
X111855238Y-63700819D01*
X111855238Y-63700819D02*
X111950476Y-63653200D01*
X111950476Y-63653200D02*
X111998095Y-63605580D01*
X111998095Y-63605580D02*
X112045714Y-63510342D01*
X112045714Y-63510342D02*
X112045714Y-63272247D01*
X112045714Y-63272247D02*
X111998095Y-63177009D01*
X111998095Y-63177009D02*
X111950476Y-63129390D01*
X111950476Y-63129390D02*
X111855238Y-63081771D01*
X111855238Y-63081771D02*
X111664762Y-63081771D01*
X111664762Y-63081771D02*
X111569524Y-63129390D01*
X111569524Y-63129390D02*
X111521905Y-63177009D01*
X111521905Y-63177009D02*
X111474286Y-63272247D01*
X131699048Y-93657009D02*
X132460953Y-93657009D01*
X132460953Y-93942723D02*
X131699048Y-93942723D01*
X81232381Y-103340819D02*
X81327619Y-103340819D01*
X81327619Y-103340819D02*
X81422857Y-103388438D01*
X81422857Y-103388438D02*
X81470476Y-103436057D01*
X81470476Y-103436057D02*
X81518095Y-103531295D01*
X81518095Y-103531295D02*
X81565714Y-103721771D01*
X81565714Y-103721771D02*
X81565714Y-103959866D01*
X81565714Y-103959866D02*
X81518095Y-104150342D01*
X81518095Y-104150342D02*
X81470476Y-104245580D01*
X81470476Y-104245580D02*
X81422857Y-104293200D01*
X81422857Y-104293200D02*
X81327619Y-104340819D01*
X81327619Y-104340819D02*
X81232381Y-104340819D01*
X81232381Y-104340819D02*
X81137143Y-104293200D01*
X81137143Y-104293200D02*
X81089524Y-104245580D01*
X81089524Y-104245580D02*
X81041905Y-104150342D01*
X81041905Y-104150342D02*
X80994286Y-103959866D01*
X80994286Y-103959866D02*
X80994286Y-103721771D01*
X80994286Y-103721771D02*
X81041905Y-103531295D01*
X81041905Y-103531295D02*
X81089524Y-103436057D01*
X81089524Y-103436057D02*
X81137143Y-103388438D01*
X81137143Y-103388438D02*
X81232381Y-103340819D01*
X91344762Y-42809390D02*
X91249524Y-42761771D01*
X91249524Y-42761771D02*
X91201905Y-42714152D01*
X91201905Y-42714152D02*
X91154286Y-42618914D01*
X91154286Y-42618914D02*
X91154286Y-42571295D01*
X91154286Y-42571295D02*
X91201905Y-42476057D01*
X91201905Y-42476057D02*
X91249524Y-42428438D01*
X91249524Y-42428438D02*
X91344762Y-42380819D01*
X91344762Y-42380819D02*
X91535238Y-42380819D01*
X91535238Y-42380819D02*
X91630476Y-42428438D01*
X91630476Y-42428438D02*
X91678095Y-42476057D01*
X91678095Y-42476057D02*
X91725714Y-42571295D01*
X91725714Y-42571295D02*
X91725714Y-42618914D01*
X91725714Y-42618914D02*
X91678095Y-42714152D01*
X91678095Y-42714152D02*
X91630476Y-42761771D01*
X91630476Y-42761771D02*
X91535238Y-42809390D01*
X91535238Y-42809390D02*
X91344762Y-42809390D01*
X91344762Y-42809390D02*
X91249524Y-42857009D01*
X91249524Y-42857009D02*
X91201905Y-42904628D01*
X91201905Y-42904628D02*
X91154286Y-42999866D01*
X91154286Y-42999866D02*
X91154286Y-43190342D01*
X91154286Y-43190342D02*
X91201905Y-43285580D01*
X91201905Y-43285580D02*
X91249524Y-43333200D01*
X91249524Y-43333200D02*
X91344762Y-43380819D01*
X91344762Y-43380819D02*
X91535238Y-43380819D01*
X91535238Y-43380819D02*
X91630476Y-43333200D01*
X91630476Y-43333200D02*
X91678095Y-43285580D01*
X91678095Y-43285580D02*
X91725714Y-43190342D01*
X91725714Y-43190342D02*
X91725714Y-42999866D01*
X91725714Y-42999866D02*
X91678095Y-42904628D01*
X91678095Y-42904628D02*
X91630476Y-42857009D01*
X91630476Y-42857009D02*
X91535238Y-42809390D01*
X111760000Y-104245580D02*
X111807619Y-104293200D01*
X111807619Y-104293200D02*
X111760000Y-104340819D01*
X111760000Y-104340819D02*
X111712381Y-104293200D01*
X111712381Y-104293200D02*
X111760000Y-104245580D01*
X111760000Y-104245580D02*
X111760000Y-104340819D01*
X91678095Y-62700819D02*
X91201905Y-62700819D01*
X91201905Y-62700819D02*
X91154286Y-63177009D01*
X91154286Y-63177009D02*
X91201905Y-63129390D01*
X91201905Y-63129390D02*
X91297143Y-63081771D01*
X91297143Y-63081771D02*
X91535238Y-63081771D01*
X91535238Y-63081771D02*
X91630476Y-63129390D01*
X91630476Y-63129390D02*
X91678095Y-63177009D01*
X91678095Y-63177009D02*
X91725714Y-63272247D01*
X91725714Y-63272247D02*
X91725714Y-63510342D01*
X91725714Y-63510342D02*
X91678095Y-63605580D01*
X91678095Y-63605580D02*
X91630476Y-63653200D01*
X91630476Y-63653200D02*
X91535238Y-63700819D01*
X91535238Y-63700819D02*
X91297143Y-63700819D01*
X91297143Y-63700819D02*
X91201905Y-63653200D01*
X91201905Y-63653200D02*
X91154286Y-63605580D01*
X67453333Y-23060819D02*
X67453333Y-22060819D01*
X67453333Y-22060819D02*
X67786666Y-22775104D01*
X67786666Y-22775104D02*
X68119999Y-22060819D01*
X68119999Y-22060819D02*
X68119999Y-23060819D01*
X69024761Y-23060819D02*
X69024761Y-22537009D01*
X69024761Y-22537009D02*
X68977142Y-22441771D01*
X68977142Y-22441771D02*
X68881904Y-22394152D01*
X68881904Y-22394152D02*
X68691428Y-22394152D01*
X68691428Y-22394152D02*
X68596190Y-22441771D01*
X69024761Y-23013200D02*
X68929523Y-23060819D01*
X68929523Y-23060819D02*
X68691428Y-23060819D01*
X68691428Y-23060819D02*
X68596190Y-23013200D01*
X68596190Y-23013200D02*
X68548571Y-22917961D01*
X68548571Y-22917961D02*
X68548571Y-22822723D01*
X68548571Y-22822723D02*
X68596190Y-22727485D01*
X68596190Y-22727485D02*
X68691428Y-22679866D01*
X68691428Y-22679866D02*
X68929523Y-22679866D01*
X68929523Y-22679866D02*
X69024761Y-22632247D01*
X69929523Y-23013200D02*
X69834285Y-23060819D01*
X69834285Y-23060819D02*
X69643809Y-23060819D01*
X69643809Y-23060819D02*
X69548571Y-23013200D01*
X69548571Y-23013200D02*
X69500952Y-22965580D01*
X69500952Y-22965580D02*
X69453333Y-22870342D01*
X69453333Y-22870342D02*
X69453333Y-22584628D01*
X69453333Y-22584628D02*
X69500952Y-22489390D01*
X69500952Y-22489390D02*
X69548571Y-22441771D01*
X69548571Y-22441771D02*
X69643809Y-22394152D01*
X69643809Y-22394152D02*
X69834285Y-22394152D01*
X69834285Y-22394152D02*
X69929523Y-22441771D01*
X70358095Y-23060819D02*
X70358095Y-22394152D01*
X70358095Y-22584628D02*
X70405714Y-22489390D01*
X70405714Y-22489390D02*
X70453333Y-22441771D01*
X70453333Y-22441771D02*
X70548571Y-22394152D01*
X70548571Y-22394152D02*
X70643809Y-22394152D01*
X71120000Y-23060819D02*
X71024762Y-23013200D01*
X71024762Y-23013200D02*
X70977143Y-22965580D01*
X70977143Y-22965580D02*
X70929524Y-22870342D01*
X70929524Y-22870342D02*
X70929524Y-22584628D01*
X70929524Y-22584628D02*
X70977143Y-22489390D01*
X70977143Y-22489390D02*
X71024762Y-22441771D01*
X71024762Y-22441771D02*
X71120000Y-22394152D01*
X71120000Y-22394152D02*
X71262857Y-22394152D01*
X71262857Y-22394152D02*
X71358095Y-22441771D01*
X71358095Y-22441771D02*
X71405714Y-22489390D01*
X71405714Y-22489390D02*
X71453333Y-22584628D01*
X71453333Y-22584628D02*
X71453333Y-22870342D01*
X71453333Y-22870342D02*
X71405714Y-22965580D01*
X71405714Y-22965580D02*
X71358095Y-23013200D01*
X71358095Y-23013200D02*
X71262857Y-23060819D01*
X71262857Y-23060819D02*
X71120000Y-23060819D01*
X72643810Y-23060819D02*
X72643810Y-22060819D01*
X73215238Y-23060819D02*
X72786667Y-22489390D01*
X73215238Y-22060819D02*
X72643810Y-22632247D01*
X74024762Y-23013200D02*
X73929524Y-23060819D01*
X73929524Y-23060819D02*
X73739048Y-23060819D01*
X73739048Y-23060819D02*
X73643810Y-23013200D01*
X73643810Y-23013200D02*
X73596191Y-22917961D01*
X73596191Y-22917961D02*
X73596191Y-22537009D01*
X73596191Y-22537009D02*
X73643810Y-22441771D01*
X73643810Y-22441771D02*
X73739048Y-22394152D01*
X73739048Y-22394152D02*
X73929524Y-22394152D01*
X73929524Y-22394152D02*
X74024762Y-22441771D01*
X74024762Y-22441771D02*
X74072381Y-22537009D01*
X74072381Y-22537009D02*
X74072381Y-22632247D01*
X74072381Y-22632247D02*
X73596191Y-22727485D01*
X74405715Y-22394152D02*
X74643810Y-23060819D01*
X74881905Y-22394152D02*
X74643810Y-23060819D01*
X74643810Y-23060819D02*
X74548572Y-23298914D01*
X74548572Y-23298914D02*
X74500953Y-23346533D01*
X74500953Y-23346533D02*
X74405715Y-23394152D01*
X71405714Y-84020819D02*
X70834286Y-84020819D01*
X71120000Y-84020819D02*
X71120000Y-83020819D01*
X71120000Y-83020819D02*
X71024762Y-83163676D01*
X71024762Y-83163676D02*
X70929524Y-83258914D01*
X70929524Y-83258914D02*
X70834286Y-83306533D01*
X111569524Y-43380819D02*
X111760000Y-43380819D01*
X111760000Y-43380819D02*
X111855238Y-43333200D01*
X111855238Y-43333200D02*
X111902857Y-43285580D01*
X111902857Y-43285580D02*
X111998095Y-43142723D01*
X111998095Y-43142723D02*
X112045714Y-42952247D01*
X112045714Y-42952247D02*
X112045714Y-42571295D01*
X112045714Y-42571295D02*
X111998095Y-42476057D01*
X111998095Y-42476057D02*
X111950476Y-42428438D01*
X111950476Y-42428438D02*
X111855238Y-42380819D01*
X111855238Y-42380819D02*
X111664762Y-42380819D01*
X111664762Y-42380819D02*
X111569524Y-42428438D01*
X111569524Y-42428438D02*
X111521905Y-42476057D01*
X111521905Y-42476057D02*
X111474286Y-42571295D01*
X111474286Y-42571295D02*
X111474286Y-42809390D01*
X111474286Y-42809390D02*
X111521905Y-42904628D01*
X111521905Y-42904628D02*
X111569524Y-42952247D01*
X111569524Y-42952247D02*
X111664762Y-42999866D01*
X111664762Y-42999866D02*
X111855238Y-42999866D01*
X111855238Y-42999866D02*
X111950476Y-42952247D01*
X111950476Y-42952247D02*
X111998095Y-42904628D01*
X111998095Y-42904628D02*
X112045714Y-42809390D01*
X91868571Y-22013200D02*
X91011429Y-23298914D01*
D14*
%TO.C,4*%
X78105000Y-78105000D02*
X64135000Y-78105000D01*
X78105000Y-64135000D02*
X78105000Y-78105000D01*
X64135000Y-78105000D02*
X64135000Y-64135000D01*
X64135000Y-64135000D02*
X78105000Y-64135000D01*
%TO.C,7*%
X78105000Y-57785000D02*
X64135000Y-57785000D01*
X78105000Y-43815000D02*
X78105000Y-57785000D01*
X64135000Y-57785000D02*
X64135000Y-43815000D01*
X64135000Y-43815000D02*
X78105000Y-43815000D01*
%TO.C,2*%
X98425000Y-98425000D02*
X84455000Y-98425000D01*
X98425000Y-84455000D02*
X98425000Y-98425000D01*
X84455000Y-98425000D02*
X84455000Y-84455000D01*
X84455000Y-84455000D02*
X98425000Y-84455000D01*
%TO.C,+*%
X139065000Y-67945000D02*
X125095000Y-67945000D01*
X139065000Y-53975000D02*
X139065000Y-67945000D01*
X125095000Y-67945000D02*
X125095000Y-53975000D01*
X125095000Y-53975000D02*
X139065000Y-53975000D01*
%TO.C,-*%
X139065000Y-37465000D02*
X125095000Y-37465000D01*
X139065000Y-23495000D02*
X139065000Y-37465000D01*
X125095000Y-37465000D02*
X125095000Y-23495000D01*
X125095000Y-23495000D02*
X139065000Y-23495000D01*
%TO.C,\u002A*%
X118745000Y-37465000D02*
X104775000Y-37465000D01*
X118745000Y-23495000D02*
X118745000Y-37465000D01*
X104775000Y-37465000D02*
X104775000Y-23495000D01*
X104775000Y-23495000D02*
X118745000Y-23495000D01*
%TO.C,3*%
X118745000Y-98425000D02*
X104775000Y-98425000D01*
X118745000Y-84455000D02*
X118745000Y-98425000D01*
X104775000Y-98425000D02*
X104775000Y-84455000D01*
X104775000Y-84455000D02*
X118745000Y-84455000D01*
%TO.C,6*%
X118745000Y-78105000D02*
X104775000Y-78105000D01*
X118745000Y-64135000D02*
X118745000Y-78105000D01*
X104775000Y-78105000D02*
X104775000Y-64135000D01*
X104775000Y-64135000D02*
X118745000Y-64135000D01*
%TO.C,=*%
X139065000Y-108585000D02*
X125095000Y-108585000D01*
X139065000Y-94615000D02*
X139065000Y-108585000D01*
X125095000Y-108585000D02*
X125095000Y-94615000D01*
X125095000Y-94615000D02*
X139065000Y-94615000D01*
%TO.C,0*%
X88265000Y-118745000D02*
X74295000Y-118745000D01*
X88265000Y-104775000D02*
X88265000Y-118745000D01*
X74295000Y-118745000D02*
X74295000Y-104775000D01*
X74295000Y-104775000D02*
X88265000Y-104775000D01*
%TO.C,8*%
X98425000Y-57785000D02*
X84455000Y-57785000D01*
X98425000Y-43815000D02*
X98425000Y-57785000D01*
X84455000Y-57785000D02*
X84455000Y-43815000D01*
X84455000Y-43815000D02*
X98425000Y-43815000D01*
%TO.C,.*%
X118745000Y-118745000D02*
X104775000Y-118745000D01*
X118745000Y-104775000D02*
X118745000Y-118745000D01*
X104775000Y-118745000D02*
X104775000Y-104775000D01*
X104775000Y-104775000D02*
X118745000Y-104775000D01*
%TO.C,5*%
X98425000Y-78105000D02*
X84455000Y-78105000D01*
X98425000Y-64135000D02*
X98425000Y-78105000D01*
X84455000Y-78105000D02*
X84455000Y-64135000D01*
X84455000Y-64135000D02*
X98425000Y-64135000D01*
%TO.C,Macro Key*%
X78105000Y-37465000D02*
X64135000Y-37465000D01*
X78105000Y-23495000D02*
X78105000Y-37465000D01*
X64135000Y-37465000D02*
X64135000Y-23495000D01*
X64135000Y-23495000D02*
X78105000Y-23495000D01*
%TO.C,1*%
X78105000Y-98425000D02*
X64135000Y-98425000D01*
X78105000Y-84455000D02*
X78105000Y-98425000D01*
X64135000Y-98425000D02*
X64135000Y-84455000D01*
X64135000Y-84455000D02*
X78105000Y-84455000D01*
%TO.C,9*%
X118745000Y-57785000D02*
X104775000Y-57785000D01*
X118745000Y-43815000D02*
X118745000Y-57785000D01*
X104775000Y-57785000D02*
X104775000Y-43815000D01*
X104775000Y-43815000D02*
X118745000Y-43815000D01*
%TO.C,/*%
X98425000Y-37465000D02*
X84455000Y-37465000D01*
X98425000Y-23495000D02*
X98425000Y-37465000D01*
X84455000Y-37465000D02*
X84455000Y-23495000D01*
X84455000Y-23495000D02*
X98425000Y-23495000D01*
D11*
%TO.C,REF\u002A\u002A*%
X161810000Y-53510000D02*
X144030000Y-53510000D01*
X161810000Y-23030000D02*
X161810000Y-53510000D01*
X156730000Y-23030000D02*
X161810000Y-23030000D01*
X156730000Y-20490000D02*
X156730000Y-23030000D01*
X149110000Y-23030000D02*
X149110000Y-20490000D01*
X149110000Y-20490000D02*
X156730000Y-20490000D01*
X144030000Y-23030000D02*
X149110000Y-23030000D01*
X144030000Y-23030000D02*
X144030000Y-53510000D01*
%TD*%
D15*
%TO.C,REF\u002A\u002A*%
X160540000Y-24300000D03*
X160540000Y-26840000D03*
X160540000Y-29380000D03*
X160540000Y-31920000D03*
X160540000Y-34460000D03*
X160540000Y-37000000D03*
X160540000Y-39540000D03*
X160540000Y-42080000D03*
X160540000Y-44620000D03*
X160540000Y-47160000D03*
X160540000Y-49700000D03*
X160540000Y-52240000D03*
X145300000Y-52240000D03*
X145300000Y-49700000D03*
X145300000Y-47160000D03*
X145300000Y-44620000D03*
X145300000Y-42080000D03*
X145300000Y-39540000D03*
X145300000Y-37000000D03*
X145300000Y-34460000D03*
X145300000Y-31920000D03*
X145300000Y-29380000D03*
X145300000Y-26840000D03*
D16*
X145300000Y-24300000D03*
%TD*%
M02*
